<?xml version="1.0" standalone="no"?>
 <!DOCTYPE svg PUBLIC "-//W3C//DTD SVG 1.1//EN" 
 "http://www.w3.org/Graphics/SVG/1.1/DTD/svg11.dtd"> 
<svg
  xmlns:svg="http://www.w3.org/2000/svg"
  xmlns="http://www.w3.org/2000/svg"
  xmlns:xlink="http://www.w3.org/1999/xlink"
  version="1.1"
  width="268.0208mm" height="97.6884mm" viewBox="0.0000 0.0000 268.0208 97.6884">
<title>SVG Image created as pcb-Edge_Cuts.svg date 2024/10/07 21:31:37 </title>
  <desc>Image generated by PCBNEW </desc>
<g style="fill:#000000; fill-opacity:1.0000;stroke:#000000; stroke-opacity:1.0000;
stroke-linecap:round; stroke-linejoin:round;"
 transform="translate(0 0) scale(1 1)">
</g>
<g style="fill:none; 
stroke:#D0D2CD; stroke-width:0.1000; stroke-opacity:1; 
stroke-linecap:round; stroke-linejoin:round;">
<path d="M104.8500 86.8000 A1.0000 1.0000 0.0 0 0 103.8500 85.8000" />
<path d="M123.9000 20.1250
L123.9000 75.2750
" />
<path d="M123.9000 20.1250 A1.0000 1.0000 0.0 0 0 122.9000 19.1250" />
<path d="M140.3805 95.3250
L162.1930 95.3250
" />
<path d="M227.4868 76.7449
L220.9907 76.7449
" />
<path d="M162.1930 95.3250 A1.0000 1.0000 0.0 0 0 163.1930 94.3250" />
<path d="M127.6625 95.3250
L105.8500 95.3250
" />
<path d="M163.1930 10.7906
L163.1930 9.1301
" />
<path d="M104.7875 9.0875
L92.0875 9.0875
" />
<path d="M1.0750 0.0750 A1.0000 1.0000 0.0 0 0 0.0750 1.0750" />
<path d="M28.6500 58.2250 A1.0000 1.0000 0.0 0 0 27.6500 57.2250" />
<path d="M48.7000 0.0750
L103.8500 0.0750
" />
<path d="M139.3805 80.2755
L128.6625 80.2755
" />
<path d="M143.1430 76.2750
L140.3805 76.2750
" />
<path d="M238.3930 61.9875 A1.0000 1.0000 0.0 0 0 239.3930 60.9875" />
<path d="M175.9555 9.0875
L175.9555 3.0875
" />
<path d="M227.4868 84.8000
L227.4868 76.7449
" />
<path d="M266.9680 0.0750
L240.3930 0.0750
" />
<path d="M144.1430 20.1250
L144.1430 75.2750
" />
<path d="M228.4868 61.9875
L238.3930 61.9875
" />
<path d="M220.3430 1.0750 A1.0000 1.0000 0.0 0 0 219.3430 0.0750" />
<path d="M262.2055 57.2250 A1.0000 1.0000 0.0 0 0 263.2055 56.2250" />
<path d="M48.7000 0.0750 A1.0000 1.0000 0.0 0 0 47.7000 1.0750" />
<path d="M164.1930 85.8000 A1.0000 1.0000 0.0 0 0 163.1930 86.8000" />
<path d="M92.0875 9.0875
L92.0875 3.0875
" />
<path d="M220.9907 76.7449
L220.9907 67.7025
" />
<path d="M227.4868 67.7025
L227.4868 62.9875
" />
<path d="M163.1930 1.0750
L163.1930 3.0375
" />
<path d="M238.3930 4.8375 A0.9999 0.9999 0.0 0 0 239.3930 3.8375" />
<path d="M104.8500 18.1250 A1.0000 1.0000 0.0 0 0 105.8500 19.1250" />
<path d="M28.6500 3.8375 A0.9999 0.9999 0.0 0 0 29.6500 4.8375" />
<path d="M104.8500 94.3250
L104.8500 86.8000
" />
<path d="M228.4868 61.9875 A1.0000 1.0000 0.0 0 0 227.4868 62.9875" />
<path d="M104.8500 10.7906
L104.8500 9.1301
" />
<path d="M139.3805 94.3250 A1.0000 1.0000 0.0 0 0 140.3805 95.3250" />
<path d="M104.8500 17.9344
L163.1930 17.9344
" />
<path d="M27.6500 57.2250
L5.8375 57.2250
" />
<path d="M127.6625 95.3250 A1.0000 1.0000 0.0 0 0 128.6625 94.3250" />
<path d="M264.2055 19.1250
L266.9680 19.1250
" />
<path d="M40.5563 84.8000 A0.9999 0.9999 0.0 0 0 41.5562 85.8000" />
<path d="M145.1430 19.1250
L162.1930 19.1250
" />
<path d="M29.6500 4.8375
L46.7000 4.8375
" />
<path d="M143.1430 76.2750 A0.9999 0.9999 0.0 0 0 144.1430 75.2750" />
<path d="M239.3930 1.0750
L239.3930 3.8375
" />
<path d="M220.3430 3.8375 A1.0000 1.0000 0.0 0 0 221.3430 4.8375" />
<path d="M266.9680 19.1250 A0.9999 0.9999 0.0 0 0 267.9680 18.1250" />
<path d="M122.9000 19.1250
L105.8500 19.1250
" />
<path d="M92.0875 3.0875
L104.7875 3.0875
" />
<path d="M163.1930 94.3250
L163.1930 86.8000
" />
<path d="M163.1930 9.1301
L163.2555 9.0875
" />
<path d="M40.5562 84.8000
L40.5562 76.7449
" />
<path d="M104.8500 1.0750
L104.8500 3.0375
" />
<path d="M0.0750 18.1250 A0.9999 0.9999 0.0 0 0 1.0750 19.1250" />
<path d="M163.2555 9.0875
L175.9555 9.0875
" />
<path d="M128.6625 86.1175
L139.3805 86.1175
" />
<path d="M219.3430 0.0750
L164.1930 0.0750
" />
<path d="M4.8375 20.1250 A1.0000 1.0000 0.0 0 0 3.8375 19.1250" />
<path d="M139.3805 77.2750
L139.3805 80.2755
" />
<path d="M128.6625 77.2750
L128.6625 80.2755
" />
<path d="M140.3805 76.2750 A0.9999 0.9999 0.0 0 0 139.3805 77.2750" />
<path d="M28.6500 1.0750 A1.0000 1.0000 0.0 0 0 27.6500 0.0750" />
<path d="M128.6625 86.1175
L128.6625 94.3250
" />
<path d="M264.2055 19.1250 A1.0000 1.0000 0.0 0 0 263.2055 20.1250" />
<path d="M267.9680 18.1250
L267.9680 1.0750
" />
<path d="M263.2055 56.2250
L263.2055 20.1250
" />
<path d="M163.1930 17.9344
L163.1930 18.1250
" />
<path d="M139.3805 86.1175
L139.3805 94.3250
" />
<path d="M238.3930 4.8375
L221.3430 4.8375
" />
<path d="M39.5562 61.9875
L29.6500 61.9875
" />
<path d="M239.3930 60.9875
L239.3930 58.2250
" />
<path d="M124.9000 76.2750
L127.6625 76.2750
" />
<path d="M227.4868 67.7025
L220.9907 67.7025
" />
<path d="M162.1930 19.1250 A1.0000 1.0000 0.0 0 0 163.1930 18.1250" />
<path d="M220.3430 3.8375
L220.3430 1.0750
" />
<path d="M104.8500 3.0375
L104.7875 3.0875
" />
<path d="M164.1930 0.0750 A1.0000 1.0000 0.0 0 0 163.1930 1.0750" />
<path d="M28.6500 1.0750
L28.6500 3.8375
" />
<path d="M145.1430 19.1250 A1.0000 1.0000 0.0 0 0 144.1430 20.1250" />
<path d="M163.1930 3.0375
L163.2555 3.0875
" />
<path d="M175.9555 3.0875
L163.2555 3.0875
" />
<path d="M240.3930 57.2250 A1.0000 1.0000 0.0 0 0 239.3930 58.2250" />
<path d="M40.5562 67.7025
L47.0523 67.7025
" />
<path d="M240.3930 0.0750 A1.0000 1.0000 0.0 0 0 239.3930 1.0750" />
<path d="M240.3930 57.2250
L262.2055 57.2250
" />
<path d="M0.0750 18.1250
L0.0750 1.0750
" />
<path d="M47.0523 76.7449
L47.0523 67.7025
" />
<path d="M104.8500 94.3250 A1.0000 1.0000 0.0 0 0 105.8500 95.3250" />
<path d="M267.9680 1.0750 A1.0000 1.0000 0.0 0 0 266.9680 0.0750" />
<path d="M46.7000 4.8375 A1.0000 1.0000 0.0 0 0 47.7000 3.8375" />
<path d="M163.1906 10.7906
L104.8500 10.7906
" />
<path d="M128.6625 77.2750 A0.9999 0.9999 0.0 0 0 127.6625 76.2750" />
<path d="M226.4868 85.8000 A0.9999 0.9999 0.0 0 0 227.4868 84.8000" />
<path d="M40.5562 76.7449
L47.0523 76.7449
" />
<path d="M1.0750 0.0750
L27.6500 0.0750
" />
<path d="M40.5562 67.7025
L40.5562 62.9875
" />
<path d="M3.8375 19.1250
L1.0750 19.1250
" />
<path d="M103.8500 85.8000
L41.5562 85.8000
" />
<path d="M104.8500 17.9344
L104.8500 18.1250
" />
<path d="M4.8375 56.2250 A1.0000 1.0000 0.0 0 0 5.8375 57.2250" />
<path d="M47.7000 3.8375
L47.7000 1.0750
" />
<path d="M104.8500 1.0750 A1.0000 1.0000 0.0 0 0 103.8500 0.0750" />
<path d="M4.8375 56.2250
L4.8375 20.1250
" />
<path d="M28.6500 60.9875
L28.6500 58.2250
" />
<path d="M28.6500 60.9875 A1.0000 1.0000 0.0 0 0 29.6500 61.9875" />
<path d="M40.5563 62.9875 A1.0000 1.0000 0.0 0 0 39.5562 61.9875" />
<path d="M164.1930 85.8000
L226.4868 85.8000
" />
<path d="M123.9000 75.2750 A0.9999 0.9999 0.0 0 0 124.9000 76.2750" />
<path d="M104.8500 9.1301
L104.7875 9.0875
" />
</g>
<g style="fill:none; 
stroke:#D0D2CD; stroke-width:0.1000; stroke-opacity:1; 
stroke-linecap:round; stroke-linejoin:round;">
<path d="M104.8500 86.8000 A1.0000 1.0000 0.0 0 0 103.8500 85.8000" />
<path d="M123.9000 20.1250
L123.9000 75.2750
" />
<path d="M123.9000 20.1250 A1.0000 1.0000 0.0 0 0 122.9000 19.1250" />
<path d="M140.3805 95.3250
L162.1930 95.3250
" />
<path d="M227.4868 76.7449
L220.9907 76.7449
" />
<path d="M162.1930 95.3250 A1.0000 1.0000 0.0 0 0 163.1930 94.3250" />
<path d="M127.6625 95.3250
L105.8500 95.3250
" />
<path d="M163.1930 10.7906
L163.1930 9.1301
" />
<path d="M104.7875 9.0875
L92.0875 9.0875
" />
<path d="M1.0750 0.0750 A1.0000 1.0000 0.0 0 0 0.0750 1.0750" />
<path d="M28.6500 58.2250 A1.0000 1.0000 0.0 0 0 27.6500 57.2250" />
<path d="M48.7000 0.0750
L103.8500 0.0750
" />
<path d="M139.3805 80.2755
L128.6625 80.2755
" />
<path d="M143.1430 76.2750
L140.3805 76.2750
" />
<path d="M238.3930 61.9875 A1.0000 1.0000 0.0 0 0 239.3930 60.9875" />
<path d="M175.9555 9.0875
L175.9555 3.0875
" />
<path d="M227.4868 84.8000
L227.4868 76.7449
" />
<path d="M266.9680 0.0750
L240.3930 0.0750
" />
<path d="M144.1430 20.1250
L144.1430 75.2750
" />
<path d="M228.4868 61.9875
L238.3930 61.9875
" />
<path d="M220.3430 1.0750 A1.0000 1.0000 0.0 0 0 219.3430 0.0750" />
<path d="M262.2055 57.2250 A1.0000 1.0000 0.0 0 0 263.2055 56.2250" />
<path d="M48.7000 0.0750 A1.0000 1.0000 0.0 0 0 47.7000 1.0750" />
<path d="M164.1930 85.8000 A1.0000 1.0000 0.0 0 0 163.1930 86.8000" />
<path d="M92.0875 9.0875
L92.0875 3.0875
" />
<path d="M220.9907 76.7449
L220.9907 67.7025
" />
<path d="M227.4868 67.7025
L227.4868 62.9875
" />
<path d="M163.1930 1.0750
L163.1930 3.0375
" />
<path d="M238.3930 4.8375 A0.9999 0.9999 0.0 0 0 239.3930 3.8375" />
<path d="M104.8500 18.1250 A1.0000 1.0000 0.0 0 0 105.8500 19.1250" />
<path d="M28.6500 3.8375 A0.9999 0.9999 0.0 0 0 29.6500 4.8375" />
<path d="M104.8500 94.3250
L104.8500 86.8000
" />
<path d="M228.4868 61.9875 A1.0000 1.0000 0.0 0 0 227.4868 62.9875" />
<path d="M104.8500 10.7906
L104.8500 9.1301
" />
<path d="M139.3805 94.3250 A1.0000 1.0000 0.0 0 0 140.3805 95.3250" />
<path d="M104.8500 17.9344
L163.1930 17.9344
" />
<path d="M27.6500 57.2250
L5.8375 57.2250
" />
<path d="M127.6625 95.3250 A1.0000 1.0000 0.0 0 0 128.6625 94.3250" />
<path d="M264.2055 19.1250
L266.9680 19.1250
" />
<path d="M40.5563 84.8000 A0.9999 0.9999 0.0 0 0 41.5562 85.8000" />
<path d="M145.1430 19.1250
L162.1930 19.1250
" />
<path d="M29.6500 4.8375
L46.7000 4.8375
" />
<path d="M143.1430 76.2750 A0.9999 0.9999 0.0 0 0 144.1430 75.2750" />
<path d="M239.3930 1.0750
L239.3930 3.8375
" />
<path d="M220.3430 3.8375 A1.0000 1.0000 0.0 0 0 221.3430 4.8375" />
<path d="M266.9680 19.1250 A0.9999 0.9999 0.0 0 0 267.9680 18.1250" />
<path d="M122.9000 19.1250
L105.8500 19.1250
" />
<path d="M92.0875 3.0875
L104.7875 3.0875
" />
<path d="M163.1930 94.3250
L163.1930 86.8000
" />
<path d="M163.1930 9.1301
L163.2555 9.0875
" />
<path d="M40.5562 84.8000
L40.5562 76.7449
" />
<path d="M104.8500 1.0750
L104.8500 3.0375
" />
<path d="M0.0750 18.1250 A0.9999 0.9999 0.0 0 0 1.0750 19.1250" />
<path d="M163.2555 9.0875
L175.9555 9.0875
" />
<path d="M128.6625 86.1175
L139.3805 86.1175
" />
<path d="M219.3430 0.0750
L164.1930 0.0750
" />
<path d="M4.8375 20.1250 A1.0000 1.0000 0.0 0 0 3.8375 19.1250" />
<path d="M139.3805 77.2750
L139.3805 80.2755
" />
<path d="M128.6625 77.2750
L128.6625 80.2755
" />
<path d="M140.3805 76.2750 A0.9999 0.9999 0.0 0 0 139.3805 77.2750" />
<path d="M28.6500 1.0750 A1.0000 1.0000 0.0 0 0 27.6500 0.0750" />
<path d="M128.6625 86.1175
L128.6625 94.3250
" />
<path d="M264.2055 19.1250 A1.0000 1.0000 0.0 0 0 263.2055 20.1250" />
<path d="M267.9680 18.1250
L267.9680 1.0750
" />
<path d="M263.2055 56.2250
L263.2055 20.1250
" />
<path d="M163.1930 17.9344
L163.1930 18.1250
" />
<path d="M139.3805 86.1175
L139.3805 94.3250
" />
<path d="M238.3930 4.8375
L221.3430 4.8375
" />
<path d="M39.5562 61.9875
L29.6500 61.9875
" />
<path d="M239.3930 60.9875
L239.3930 58.2250
" />
<path d="M124.9000 76.2750
L127.6625 76.2750
" />
<path d="M227.4868 67.7025
L220.9907 67.7025
" />
<path d="M162.1930 19.1250 A1.0000 1.0000 0.0 0 0 163.1930 18.1250" />
<path d="M220.3430 3.8375
L220.3430 1.0750
" />
<path d="M104.8500 3.0375
L104.7875 3.0875
" />
<path d="M164.1930 0.0750 A1.0000 1.0000 0.0 0 0 163.1930 1.0750" />
<path d="M28.6500 1.0750
L28.6500 3.8375
" />
<path d="M145.1430 19.1250 A1.0000 1.0000 0.0 0 0 144.1430 20.1250" />
<path d="M163.1930 3.0375
L163.2555 3.0875
" />
<path d="M175.9555 3.0875
L163.2555 3.0875
" />
<path d="M240.3930 57.2250 A1.0000 1.0000 0.0 0 0 239.3930 58.2250" />
<path d="M40.5562 67.7025
L47.0523 67.7025
" />
<path d="M240.3930 0.0750 A1.0000 1.0000 0.0 0 0 239.3930 1.0750" />
<path d="M240.3930 57.2250
L262.2055 57.2250
" />
<path d="M0.0750 18.1250
L0.0750 1.0750
" />
<path d="M47.0523 76.7449
L47.0523 67.7025
" />
<path d="M104.8500 94.3250 A1.0000 1.0000 0.0 0 0 105.8500 95.3250" />
<path d="M267.9680 1.0750 A1.0000 1.0000 0.0 0 0 266.9680 0.0750" />
<path d="M46.7000 4.8375 A1.0000 1.0000 0.0 0 0 47.7000 3.8375" />
<path d="M163.1906 10.7906
L104.8500 10.7906
" />
<path d="M128.6625 77.2750 A0.9999 0.9999 0.0 0 0 127.6625 76.2750" />
<path d="M226.4868 85.8000 A0.9999 0.9999 0.0 0 0 227.4868 84.8000" />
<path d="M40.5562 76.7449
L47.0523 76.7449
" />
<path d="M1.0750 0.0750
L27.6500 0.0750
" />
<path d="M40.5562 67.7025
L40.5562 62.9875
" />
<path d="M3.8375 19.1250
L1.0750 19.1250
" />
<path d="M103.8500 85.8000
L41.5562 85.8000
" />
<path d="M104.8500 17.9344
L104.8500 18.1250
" />
<path d="M4.8375 56.2250 A1.0000 1.0000 0.0 0 0 5.8375 57.2250" />
<path d="M47.7000 3.8375
L47.7000 1.0750
" />
<path d="M104.8500 1.0750 A1.0000 1.0000 0.0 0 0 103.8500 0.0750" />
<path d="M4.8375 56.2250
L4.8375 20.1250
" />
<path d="M28.6500 60.9875
L28.6500 58.2250
" />
<path d="M28.6500 60.9875 A1.0000 1.0000 0.0 0 0 29.6500 61.9875" />
<path d="M40.5563 62.9875 A1.0000 1.0000 0.0 0 0 39.5562 61.9875" />
<path d="M164.1930 85.8000
L226.4868 85.8000
" />
<path d="M123.9000 75.2750 A0.9999 0.9999 0.0 0 0 124.9000 76.2750" />
<path d="M104.8500 9.1301
L104.7875 9.0875
" />
</g> 
</svg>
