<?xml version="1.0" standalone="no"?>
 <!DOCTYPE svg PUBLIC "-//W3C//DTD SVG 1.1//EN" 
 "http://www.w3.org/Graphics/SVG/1.1/DTD/svg11.dtd"> 
<svg
  xmlns:svg="http://www.w3.org/2000/svg"
  xmlns="http://www.w3.org/2000/svg"
  xmlns:xlink="http://www.w3.org/1999/xlink"
  version="1.1"
  width="281.5590mm" height="96.9518mm" viewBox="0.0000 0.0000 281.5590 96.9518">
<title>SVG Image created as pcb-brd.svg date 2025/02/17 21:05:42 </title>
  <desc>Image generated by PCBNEW </desc>
<g style="fill:#000000; fill-opacity:1.0000;stroke:#000000; stroke-opacity:1.0000;
stroke-linecap:round; stroke-linejoin:round;"
 transform="translate(0 0) scale(1 1)">
</g>
<g style="fill:none; 
stroke:#000000; stroke-width:0.0500; stroke-opacity:1; 
stroke-linecap:round; stroke-linejoin:round;">
<path d="M203.2016 77.0025
L203.2016 82.7225
" />
<path d="M203.2016 82.7225
L212.5016 82.7225
" />
<path d="M212.5016 77.0025
L203.2016 77.0025
" />
<path d="M212.5016 82.7225
L212.5016 77.0025
" />
<path d="M248.5673 35.8094
L248.5673 38.1094
" />
<path d="M248.5673 35.8094
L253.2673 35.8094
" />
<path d="M253.2673 35.8094
L253.2673 38.1094
" />
<path d="M253.2673 38.1094
L248.5673 38.1094
" />
<path d="M59.7916 57.3525
L60.7116 57.3525
" />
<path d="M59.7916 59.1725
L59.7916 57.3525
" />
<path d="M60.7116 57.3525
L60.7116 59.1725
" />
<path d="M60.7116 59.1725
L59.7916 59.1725
" />
<path d="M114.0266 73.9094
L114.0266 76.2094
" />
<path d="M114.0266 73.9094
L118.7266 73.9094
" />
<path d="M118.7266 73.9094
L118.7266 76.2094
" />
<path d="M118.7266 76.2094
L114.0266 76.2094
" />
<path d="M69.4416 75.0025
L71.2616 75.0025
" />
<path d="M69.4416 75.9225
L69.4416 75.0025
" />
<path d="M71.2616 75.0025
L71.2616 75.9225
" />
<path d="M71.2616 75.9225
L69.4416 75.9225
" />
<path d="M58.6916 80.0525
L59.6116 80.0525
" />
<path d="M58.6916 81.8725
L58.6916 80.0525
" />
<path d="M59.6116 80.0525
L59.6116 81.8725
" />
<path d="M59.6116 81.8725
L58.6916 81.8725
" />
<path d="M253.3298 16.7594
L253.3298 19.0594
" />
<path d="M253.3298 16.7594
L258.0298 16.7594
" />
<path d="M258.0298 16.7594
L258.0298 19.0594
" />
<path d="M258.0298 19.0594
L253.3298 19.0594
" />
<path d="M60.8566 66.2775
L61.7966 66.2775
" />
<path d="M60.8566 68.1375
L60.8566 66.2775
" />
<path d="M61.7966 66.2775
L61.7966 68.1375
" />
<path d="M61.7966 68.1375
L60.8566 68.1375
" />
<path d="M208.0316 83.7925
L209.8916 83.7925
" />
<path d="M208.0316 84.7325
L208.0316 83.7925
" />
<path d="M209.8916 83.7925
L209.8916 84.7325
" />
<path d="M209.8916 84.7325
L208.0316 84.7325
" />
<path d="M210.7416 83.8025
L212.5616 83.8025
" />
<path d="M210.7416 84.7225
L210.7416 83.8025
" />
<path d="M212.5616 83.8025
L212.5616 84.7225
" />
<path d="M212.5616 84.7225
L210.7416 84.7225
" />
<path d="M224.7416 70.3025
L226.5616 70.3025
" />
<path d="M224.7416 71.2225
L224.7416 70.3025
" />
<path d="M226.5616 70.3025
L226.5616 71.2225
" />
<path d="M226.5616 71.2225
L224.7416 71.2225
" />
<path d="M49.9716 65.2325
L52.9316 65.2325
" />
<path d="M49.9716 66.6925
L49.9716 65.2325
" />
<path d="M52.9316 65.2325
L52.9316 66.6925
" />
<path d="M52.9316 66.6925
L49.9716 66.6925
" />
<path d="M226.5716 78.6325
L229.5316 78.6325
" />
<path d="M226.5716 80.0925
L226.5716 78.6325
" />
<path d="M229.5316 78.6325
L229.5316 80.0925
" />
<path d="M229.5316 80.0925
L226.5716 80.0925
" />
<path d="M221.8441 72.4325
L222.7841 72.4325
" />
<path d="M221.8441 74.2925
L221.8441 72.4325
" />
<path d="M222.7841 72.4325
L222.7841 74.2925
" />
<path d="M222.7841 74.2925
L221.8441 74.2925
" />
<path d="M63.8666 66.3275
L64.7866 66.3275
" />
<path d="M63.8666 68.1475
L63.8666 66.3275
" />
<path d="M64.7866 66.3275
L64.7866 68.1475
" />
<path d="M64.7866 68.1475
L63.8666 68.1475
" />
<path d="M71.3816 56.9325
L72.3216 56.9325
" />
<path d="M71.3816 58.7925
L71.3816 56.9325
" />
<path d="M72.3216 56.9325
L72.3216 58.7925
" />
<path d="M72.3216 58.7925
L71.3816 58.7925
" />
<path d="M61.4066 80.2325
L62.3466 80.2325
" />
<path d="M61.4066 82.0925
L61.4066 80.2325
" />
<path d="M62.3466 80.2325
L62.3466 82.0925
" />
<path d="M62.3466 82.0925
L61.4066 82.0925
" />
<path d="M56.8766 54.8594
L56.8766 57.1594
" />
<path d="M56.8766 54.8594
L61.5766 54.8594
" />
<path d="M61.5766 54.8594
L61.5766 57.1594
" />
<path d="M61.5766 57.1594
L56.8766 57.1594
" />
<path d="M14.0141 16.7594
L14.0141 19.0594
" />
<path d="M14.0141 16.7594
L18.7141 16.7594
" />
<path d="M18.7141 16.7594
L18.7141 19.0594
" />
<path d="M18.7141 19.0594
L14.0141 19.0594
" />
<path d="M216.0841 58.2825
L217.5441 58.2825
" />
<path d="M216.0841 61.2425
L216.0841 58.2825
" />
<path d="M217.5441 58.2825
L217.5441 61.2425
" />
<path d="M217.5441 61.2425
L216.0841 61.2425
" />
<path d="M226.6216 83.0025
L228.4416 83.0025
" />
<path d="M226.6216 83.9225
L226.6216 83.0025
" />
<path d="M228.4416 83.0025
L228.4416 83.9225
" />
<path d="M228.4416 83.9225
L226.6216 83.9225
" />
<path d="M47.8816 79.4625
L47.8816 83.0625
" />
<path d="M47.8816 83.0625
L56.5316 83.0625
" />
<path d="M56.5316 79.4625
L47.8816 79.4625
" />
<path d="M56.5316 83.0625
L56.5316 79.4625
" />
<path d="M229.5173 21.5219
L229.5173 23.8219
" />
<path d="M229.5173 21.5219
L234.2173 21.5219
" />
<path d="M234.2173 21.5219
L234.2173 23.8219
" />
<path d="M234.2173 23.8219
L229.5173 23.8219
" />
<path d="M53.1216 65.7925
L54.9816 65.7925
" />
<path d="M53.1216 66.7325
L53.1216 65.7925
" />
<path d="M54.9816 65.7925
L54.9816 66.7325
" />
<path d="M54.9816 66.7325
L53.1216 66.7325
" />
<path d="M153.3173 73.9094
L153.3173 76.2094
" />
<path d="M153.3173 73.9094
L158.0173 73.9094
" />
<path d="M158.0173 73.9094
L158.0173 76.2094
" />
<path d="M158.0173 76.2094
L153.3173 76.2094
" />
<path d="M224.7916 65.8525
L225.7116 65.8525
" />
<path d="M224.7916 67.6725
L224.7916 65.8525
" />
<path d="M225.7116 65.8525
L225.7116 67.6725
" />
<path d="M225.7116 67.6725
L224.7916 67.6725
" />
<path d="M191.4173 54.8594
L191.4173 57.1594
" />
<path d="M191.4173 54.8594
L196.1173 54.8594
" />
<path d="M196.1173 54.8594
L196.1173 57.1594
" />
<path d="M196.1173 57.1594
L191.4173 57.1594
" />
<path d="M216.7416 73.9025
L218.5616 73.9025
" />
<path d="M216.7416 74.8225
L216.7416 73.9025
" />
<path d="M218.5616 73.9025
L218.5616 74.8225
" />
<path d="M218.5616 74.8225
L216.7416 74.8225
" />
<path d="M216.7516 74.9625
L216.7516 82.1625
" />
<path d="M216.7516 82.1625
L225.5516 82.1625
" />
<path d="M225.5516 74.9625
L216.7516 74.9625
" />
<path d="M225.5516 82.1625
L225.5516 74.9625
" />
<path d="M172.3673 26.2844
L172.3673 28.5844
" />
<path d="M172.3673 26.2844
L177.0673 26.2844
" />
<path d="M177.0673 26.2844
L177.0673 28.5844
" />
<path d="M177.0673 28.5844
L172.3673 28.5844
" />
<path d="M172.3673 64.3844
L172.3673 66.6844
" />
<path d="M172.3673 64.3844
L177.0673 64.3844
" />
<path d="M177.0673 64.3844
L177.0673 66.6844
" />
<path d="M177.0673 66.6844
L172.3673 66.6844
" />
<path d="M223.6416 72.4025
L225.4616 72.4025
" />
<path d="M223.6416 73.3225
L223.6416 72.4025
" />
<path d="M225.4616 72.4025
L225.4616 73.3225
" />
<path d="M225.4616 73.3225
L223.6416 73.3225
" />
<path d="M216.4216 63.1325
L216.4216 71.3925
" />
<path d="M216.4216 71.3925
L224.6816 71.3925
" />
<path d="M224.6816 63.1325
L216.4216 63.1325
" />
<path d="M224.6816 71.3925
L224.6816 63.1325
" />
<path d="M55.8416 72.7625
L57.6616 72.7625
" />
<path d="M55.8416 73.6825
L55.8416 72.7625
" />
<path d="M57.6616 72.7625
L57.6616 73.6825
" />
<path d="M57.6616 73.6825
L55.8416 73.6825
" />
<path d="M56.8766 16.7594
L56.8766 19.0594
" />
<path d="M56.8766 16.7594
L61.5766 16.7594
" />
<path d="M61.5766 16.7594
L61.5766 19.0594
" />
<path d="M61.5766 19.0594
L56.8766 19.0594
" />
<path d="M45.5416 66.8787
L45.5416 77.5187
" />
<path d="M45.5416 66.8787
L54.9616 66.8787
" />
<path d="M45.5416 77.5187
L54.9616 77.5187
" />
<path d="M54.9616 66.8787
L54.9616 77.5187
" />
<path d="M77.3216 78.9925
L79.1816 78.9925
" />
<path d="M77.3216 79.9325
L77.3216 78.9925
" />
<path d="M79.1816 78.9925
L79.1816 79.9325
" />
<path d="M79.1816 79.9325
L77.3216 79.9325
" />
<path d="M47.5016 66.7125
L47.5016 62.0125
" />
<path d="M49.8016 62.0125
L47.5016 62.0125
" />
<path d="M49.8016 62.0125
L49.8016 66.7125
" />
<path d="M49.8016 66.7125
L47.5016 66.7125
" />
<path d="M53.3816 46.9325
L54.3216 46.9325
" />
<path d="M53.3816 48.7925
L53.3816 46.9325
" />
<path d="M54.3216 46.9325
L54.3216 48.7925
" />
<path d="M54.3216 48.7925
L53.3816 48.7925
" />
<path d="M210.7616 82.8025
L212.5816 82.8025
" />
<path d="M210.7616 83.7225
L210.7616 82.8025
" />
<path d="M212.5816 82.8025
L212.5816 83.7225
" />
<path d="M212.5816 83.7225
L210.7616 83.7225
" />
<path d="M224.4216 71.4025
L226.2416 71.4025
" />
<path d="M224.4216 72.3225
L224.4216 71.4025
" />
<path d="M226.2416 71.4025
L226.2416 72.3225
" />
<path d="M226.2416 72.3225
L224.4216 72.3225
" />
<path d="M56.7916 80.5525
L57.7116 80.5525
" />
<path d="M56.7916 82.3725
L56.7916 80.5525
" />
<path d="M57.7116 80.5525
L57.7116 82.3725
" />
<path d="M57.7116 82.3725
L56.7916 82.3725
" />
<path d="M210.4673 35.8094
L210.4673 38.1094
" />
<path d="M210.4673 35.8094
L215.1673 35.8094
" />
<path d="M215.1673 35.8094
L215.1673 38.1094
" />
<path d="M215.1673 38.1094
L210.4673 38.1094
" />
<path d="M67.4416 69.4025
L69.2616 69.4025
" />
<path d="M67.4416 70.3225
L67.4416 69.4025
" />
<path d="M69.2616 69.4025
L69.2616 70.3225
" />
<path d="M69.2616 70.3225
L67.4416 70.3225
" />
<path d="M226.6816 44.5325
L227.6216 44.5325
" />
<path d="M226.6816 46.3925
L226.6816 44.5325
" />
<path d="M227.6216 44.5325
L227.6216 46.3925
" />
<path d="M227.6216 46.3925
L226.6816 46.3925
" />
<path d="M79.3516 78.1125
L84.9516 78.1125
" />
<path d="M79.3516 85.6125
L79.3516 78.1125
" />
<path d="M84.9516 78.1125
L84.9516 85.6125
" />
<path d="M84.9516 85.6125
L79.3516 85.6125
" />
<path d="M193.7985 73.9094
L193.7985 76.2094
" />
<path d="M193.7985 73.9094
L198.4985 73.9094
" />
<path d="M198.4985 73.9094
L198.4985 76.2094
" />
<path d="M198.4985 76.2094
L193.7985 76.2094
" />
<path d="M219.5916 73.0525
L220.5116 73.0525
" />
<path d="M219.5916 74.8725
L219.5916 73.0525
" />
<path d="M220.5116 73.0525
L220.5116 74.8725
" />
<path d="M220.5116 74.8725
L219.5916 74.8725
" />
<path d="M59.8666 68.0275
L60.7866 68.0275
" />
<path d="M59.8666 69.8475
L59.8666 68.0275
" />
<path d="M60.7866 68.0275
L60.7866 69.8475
" />
<path d="M60.7866 69.8475
L59.8666 69.8475
" />
</g>
<g style="fill:none; 
stroke:#000000; stroke-width:0.1000; stroke-opacity:1; 
stroke-linecap:round; stroke-linejoin:round;">
<path d="M98.9141 9.0625
L98.9141 3.0625
" />
<path d="M111.6141 3.0625
L98.9141 3.0625
" />
<path d="M111.6141 9.0625
L98.9141 9.0625
" />
<path d="M111.6141 9.0625
L111.6141 3.0625
" />
</g>
<g style="fill:none; 
stroke:#000000; stroke-width:0.0500; stroke-opacity:1; 
stroke-linecap:round; stroke-linejoin:round;">
<path d="M37.8266 40.5719
L37.8266 42.8719
" />
<path d="M37.8266 40.5719
L42.5266 40.5719
" />
<path d="M42.5266 40.5719
L42.5266 42.8719
" />
<path d="M42.5266 42.8719
L37.8266 42.8719
" />
<path d="M75.9266 54.8594
L75.9266 57.1594
" />
<path d="M75.9266 54.8594
L80.6266 54.8594
" />
<path d="M80.6266 54.8594
L80.6266 57.1594
" />
<path d="M80.6266 57.1594
L75.9266 57.1594
" />
<path d="M94.9766 26.2844
L94.9766 28.5844
" />
<path d="M94.9766 26.2844
L99.6766 26.2844
" />
<path d="M99.6766 26.2844
L99.6766 28.5844
" />
<path d="M99.6766 28.5844
L94.9766 28.5844
" />
<path d="M55.8216 74.7625
L57.6416 74.7625
" />
<path d="M55.8216 75.6825
L55.8216 74.7625
" />
<path d="M57.6416 74.7625
L57.6416 75.6825
" />
<path d="M57.6416 75.6825
L55.8216 75.6825
" />
<path d="M221.1441 59.4325
L222.0841 59.4325
" />
<path d="M221.1441 61.2925
L221.1441 59.4325
" />
<path d="M222.0841 59.4325
L222.0841 61.2925
" />
<path d="M222.0841 61.2925
L221.1441 61.2925
" />
<path d="M172.3673 83.4344
L172.3673 85.7344
" />
<path d="M172.3673 83.4344
L177.0673 83.4344
" />
<path d="M177.0673 83.4344
L177.0673 85.7344
" />
<path d="M177.0673 85.7344
L172.3673 85.7344
" />
<path d="M55.8416 73.7625
L57.6616 73.7625
" />
<path d="M55.8416 74.6825
L55.8416 73.7625
" />
<path d="M57.6616 73.7625
L57.6616 74.6825
" />
<path d="M57.6616 74.6825
L55.8416 74.6825
" />
<path d="M62.4766 80.2625
L62.4766 84.4625
" />
<path d="M62.4766 84.4625
L65.8766 84.4625
" />
<path d="M65.8766 80.2625
L62.4766 80.2625
" />
<path d="M65.8766 84.4625
L65.8766 80.2625
" />
<path d="M210.5016 38.3125
L210.5016 40.6125
" />
<path d="M210.5016 38.3125
L215.2016 38.3125
" />
<path d="M215.2016 38.3125
L215.2016 40.6125
" />
<path d="M215.2016 40.6125
L210.5016 40.6125
" />
<path d="M153.3173 54.8594
L153.3173 57.1594
" />
<path d="M153.3173 54.8594
L158.0173 54.8594
" />
<path d="M158.0173 54.8594
L158.0173 57.1594
" />
<path d="M158.0173 57.1594
L153.3173 57.1594
" />
<path d="M86.7516 78.1125
L92.3516 78.1125
" />
<path d="M86.7516 85.6125
L86.7516 78.1125
" />
<path d="M92.3516 78.1125
L92.3516 85.6125
" />
<path d="M92.3516 85.6125
L86.7516 85.6125
" />
<path d="M65.9466 80.2825
L67.4066 80.2825
" />
<path d="M65.9466 83.2425
L65.9466 80.2825
" />
<path d="M67.4066 80.2825
L67.4066 83.2425
" />
<path d="M67.4066 83.2425
L65.9466 83.2425
" />
<path d="M37.8266 21.5219
L37.8266 23.8219
" />
<path d="M37.8266 21.5219
L42.5266 21.5219
" />
<path d="M42.5266 21.5219
L42.5266 23.8219
" />
<path d="M42.5266 23.8219
L37.8266 23.8219
" />
<path d="M70.7816 65.7325
L71.7216 65.7325
" />
<path d="M70.7816 67.5925
L70.7816 65.7325
" />
<path d="M71.7216 65.7325
L71.7216 67.5925
" />
<path d="M71.7216 67.5925
L70.7816 67.5925
" />
<path d="M16.4016 38.2125
L16.4016 40.5125
" />
<path d="M16.4016 38.2125
L21.1016 38.2125
" />
<path d="M21.1016 38.2125
L21.1016 40.5125
" />
<path d="M21.1016 40.5125
L16.4016 40.5125
" />
<path d="M225.4016 62.1625
L225.4016 65.7625
" />
<path d="M225.4016 65.7625
L234.0516 65.7625
" />
<path d="M234.0516 62.1625
L225.4016 62.1625
" />
<path d="M234.0516 65.7625
L234.0516 62.1625
" />
<path d="M61.8566 66.2775
L62.7966 66.2775
" />
<path d="M61.8566 68.1375
L61.8566 66.2775
" />
<path d="M62.7966 66.2775
L62.7966 68.1375
" />
<path d="M62.7966 68.1375
L61.8566 68.1375
" />
<path d="M37.8266 43.0125
L37.8266 45.3125
" />
<path d="M37.8266 43.0125
L42.5266 43.0125
" />
<path d="M42.5266 43.0125
L42.5266 45.3125
" />
<path d="M42.5266 45.3125
L37.8266 45.3125
" />
<path d="M50.2516 57.2625
L50.2516 64.4625
" />
<path d="M50.2516 64.4625
L59.0516 64.4625
" />
<path d="M59.0516 57.2625
L50.2516 57.2625
" />
<path d="M59.0516 64.4625
L59.0516 57.2625
" />
<path d="M224.0416 59.3025
L225.8616 59.3025
" />
<path d="M224.0416 60.2225
L224.0416 59.3025
" />
<path d="M225.8616 59.3025
L225.8616 60.2225
" />
<path d="M225.8616 60.2225
L224.0416 60.2225
" />
<path d="M60.9466 82.1575
L62.4066 82.1575
" />
<path d="M60.9466 85.1175
L60.9466 82.1575
" />
<path d="M62.4066 82.1575
L62.4066 85.1175
" />
<path d="M62.4066 85.1175
L60.9466 85.1175
" />
<path d="M195.7766 78.0125
L201.3766 78.0125
" />
<path d="M195.7766 85.5125
L195.7766 78.0125
" />
<path d="M201.3766 78.0125
L201.3766 85.5125
" />
<path d="M201.3766 85.5125
L195.7766 85.5125
" />
<path d="M53.1216 77.5925
L54.9816 77.5925
" />
<path d="M53.1216 78.5325
L53.1216 77.5925
" />
<path d="M54.9816 77.5925
L54.9816 78.5325
" />
<path d="M54.9816 78.5325
L53.1216 78.5325
" />
<path d="M48.3216 60.9025
L50.1416 60.9025
" />
<path d="M48.3216 61.8225
L48.3216 60.9025
" />
<path d="M50.1416 60.9025
L50.1416 61.8225
" />
<path d="M50.1416 61.8225
L48.3216 61.8225
" />
<path d="M226.3216 41.4825
L227.7816 41.4825
" />
<path d="M226.3216 44.4425
L226.3216 41.4825
" />
<path d="M227.7816 41.4825
L227.7816 44.4425
" />
<path d="M227.7816 44.4425
L226.3216 44.4425
" />
<path d="M191.4173 35.8094
L191.4173 38.1094
" />
<path d="M191.4173 35.8094
L196.1173 35.8094
" />
<path d="M196.1173 35.8094
L196.1173 38.1094
" />
<path d="M196.1173 38.1094
L191.4173 38.1094
" />
<path d="M226.6016 80.6125
L226.6016 82.9125
" />
<path d="M226.6016 80.6125
L231.3016 80.6125
" />
<path d="M231.3016 80.6125
L231.3016 82.9125
" />
<path d="M231.3016 82.9125
L226.6016 82.9125
" />
<path d="M231.8116 84.1925
L233.6716 84.1925
" />
<path d="M231.8116 85.1325
L231.8116 84.1925
" />
<path d="M233.6716 84.1925
L233.6716 85.1325
" />
<path d="M233.6716 85.1325
L231.8116 85.1325
" />
<path d="M61.8016 57.4025
L61.8016 63.1225
" />
<path d="M61.8016 63.1225
L71.1016 63.1225
" />
<path d="M71.1016 57.4025
L61.8016 57.4025
" />
<path d="M71.1016 63.1225
L71.1016 57.4025
" />
<path d="M58.8966 70.1075
L58.8966 78.3675
" />
<path d="M58.8966 78.3675
L67.1566 78.3675
" />
<path d="M67.1566 70.1075
L58.8966 70.1075
" />
<path d="M67.1566 78.3675
L67.1566 70.1075
" />
<path d="M224.0416 60.5025
L225.8616 60.5025
" />
<path d="M224.0416 61.4225
L224.0416 60.5025
" />
<path d="M225.8616 60.5025
L225.8616 61.4225
" />
<path d="M225.8616 61.4225
L224.0416 61.4225
" />
<path d="M213.6416 70.0025
L215.4616 70.0025
" />
<path d="M213.6416 70.9225
L213.6416 70.0025
" />
<path d="M215.4616 70.0025
L215.4616 70.9225
" />
<path d="M215.4616 70.9225
L213.6416 70.9225
" />
<path d="M53.7216 41.4950
L55.1816 41.4950
" />
<path d="M53.7216 44.4550
L53.7216 41.4950
" />
<path d="M55.1816 41.4950
L55.1816 44.4550
" />
<path d="M55.1816 44.4550
L53.7216 44.4550
" />
<path d="M62.8916 64.8525
L63.8116 64.8525
" />
<path d="M62.8916 66.6725
L62.8916 64.8525
" />
<path d="M63.8116 64.8525
L63.8116 66.6725
" />
<path d="M63.8116 66.6725
L62.8916 66.6725
" />
<path d="M94.9766 45.3344
L94.9766 47.6344
" />
<path d="M94.9766 45.3344
L99.6766 45.3344
" />
<path d="M99.6766 45.3344
L99.6766 47.6344
" />
<path d="M99.6766 47.6344
L94.9766 47.6344
" />
<path d="M58.8666 68.0275
L59.7866 68.0275
" />
<path d="M58.8666 69.8475
L58.8666 68.0275
" />
<path d="M59.7866 68.0275
L59.7866 69.8475
" />
<path d="M59.7866 69.8475
L58.8666 69.8475
" />
<path d="M224.7916 68.3725
L225.7116 68.3725
" />
<path d="M224.7916 70.1925
L224.7916 68.3725
" />
<path d="M225.7116 68.3725
L225.7116 70.1925
" />
<path d="M225.7116 70.1925
L224.7916 70.1925
" />
<path d="M229.5016 43.0125
L229.5016 45.3125
" />
<path d="M229.5016 43.0125
L234.2016 43.0125
" />
<path d="M234.2016 43.0125
L234.2016 45.3125
" />
<path d="M234.2016 45.3125
L229.5016 45.3125
" />
<path d="M153.3173 35.8094
L153.3173 38.1094
" />
<path d="M153.3173 35.8094
L158.0173 35.8094
" />
<path d="M158.0173 35.8094
L158.0173 38.1094
" />
<path d="M158.0173 38.1094
L153.3173 38.1094
" />
<path d="M226.5816 77.5325
L226.5816 66.8925
" />
<path d="M236.0016 66.8925
L226.5816 66.8925
" />
<path d="M236.0016 77.5325
L226.5816 77.5325
" />
<path d="M236.0016 77.5325
L236.0016 66.8925
" />
<path d="M220.8141 72.4425
L221.7541 72.4425
" />
<path d="M220.8141 74.3025
L220.8141 72.4425
" />
<path d="M221.7541 72.4425
L221.7541 74.3025
" />
<path d="M221.7541 74.3025
L220.8141 74.3025
" />
<path d="M188.4266 78.0125
L194.0266 78.0125
" />
<path d="M188.4266 85.5125
L188.4266 78.0125
" />
<path d="M194.0266 78.0125
L194.0266 85.5125
" />
<path d="M194.0266 85.5125
L188.4266 85.5125
" />
<path d="M172.3673 45.3344
L172.3673 47.6344
" />
<path d="M172.3673 45.3344
L177.0673 45.3344
" />
<path d="M177.0673 45.3344
L177.0673 47.6344
" />
<path d="M177.0673 47.6344
L172.3673 47.6344
" />
<path d="M60.7916 57.3725
L61.7116 57.3725
" />
<path d="M60.7916 59.1925
L60.7916 57.3725
" />
<path d="M61.7116 57.3725
L61.7116 59.1925
" />
<path d="M61.7116 59.1925
L60.7916 59.1925
" />
<path d="M250.9485 54.8594
L250.9485 57.1594
" />
<path d="M250.9485 54.8594
L255.6485 54.8594
" />
<path d="M255.6485 54.8594
L255.6485 57.1594
" />
<path d="M255.6485 57.1594
L250.9485 57.1594
" />
<path d="M191.4173 16.7594
L191.4173 19.0594
" />
<path d="M191.4173 16.7594
L196.1173 16.7594
" />
<path d="M196.1173 16.7594
L196.1173 19.0594
" />
<path d="M196.1173 19.0594
L191.4173 19.0594
" />
<path d="M87.8423 64.3750
L90.1423 64.3750
" />
<path d="M87.8423 69.0750
L87.8423 64.3750
" />
<path d="M87.8423 69.0750
L90.1423 69.0750
" />
<path d="M90.1423 64.3750
L90.1423 69.0750
" />
<path d="M217.6141 57.0625
L217.6141 61.2625
" />
<path d="M217.6141 61.2625
L221.0141 61.2625
" />
<path d="M221.0141 57.0625
L217.6141 57.0625
" />
<path d="M221.0141 61.2625
L221.0141 57.0625
" />
<path d="M56.8766 35.8094
L56.8766 38.1094
" />
<path d="M56.8766 35.8094
L61.5766 35.8094
" />
<path d="M61.5766 35.8094
L61.5766 38.1094
" />
<path d="M61.5766 38.1094
L56.8766 38.1094
" />
<path d="M94.9766 64.3844
L94.9766 66.6844
" />
<path d="M94.9766 64.3844
L99.6766 64.3844
" />
<path d="M99.6766 64.3844
L99.6766 66.6844
" />
<path d="M99.6766 66.6844
L94.9766 66.6844
" />
<path d="M216.7616 82.3025
L218.5816 82.3025
" />
<path d="M216.7616 83.2225
L216.7616 82.3025
" />
<path d="M218.5816 82.3025
L218.5816 83.2225
" />
<path d="M218.5816 83.2225
L216.7616 83.2225
" />
<path d="M231.7216 81.1075
L233.1816 81.1075
" />
<path d="M231.7216 84.0675
L231.7216 81.1075
" />
<path d="M233.1816 81.1075
L233.1816 84.0675
" />
<path d="M233.1816 84.0675
L231.7216 84.0675
" />
<path d="M150.9360 92.9594
L150.9360 95.2594
" />
<path d="M150.9360 92.9594
L155.6360 92.9594
" />
<path d="M155.6360 92.9594
L155.6360 95.2594
" />
<path d="M155.6360 95.2594
L150.9360 95.2594
" />
<path d="M221.0841 56.3825
L222.5441 56.3825
" />
<path d="M221.0841 59.3425
L221.0841 56.3825
" />
<path d="M222.5441 56.3825
L222.5441 59.3425
" />
<path d="M222.5441 59.3425
L221.0841 59.3425
" />
<path d="M202.8216 83.7925
L204.6816 83.7925
" />
<path d="M202.8216 84.7325
L202.8216 83.7925
" />
<path d="M204.6816 83.7925
L204.6816 84.7325
" />
<path d="M204.6816 84.7325
L202.8216 84.7325
" />
<path d="M114.0266 35.8094
L114.0266 38.1094
" />
<path d="M114.0266 35.8094
L118.7266 35.8094
" />
<path d="M118.7266 35.8094
L118.7266 38.1094
" />
<path d="M118.7266 38.1094
L114.0266 38.1094
" />
</g>
<g style="fill:none; 
stroke:#000000; stroke-width:0.1000; stroke-opacity:1; 
stroke-linecap:round; stroke-linejoin:round;">
<path d="M169.9516 3.0625
L169.9516 9.0625
" />
<path d="M169.9516 3.0625
L182.6516 3.0625
" />
<path d="M169.9516 9.0625
L182.6516 9.0625
" />
<path d="M182.6516 3.0625
L182.6516 9.0625
" />
</g>
<g style="fill:none; 
stroke:#000000; stroke-width:0.0500; stroke-opacity:1; 
stroke-linecap:round; stroke-linejoin:round;">
<path d="M69.2216 64.6825
L70.6816 64.6825
" />
<path d="M69.2216 67.6425
L69.2216 64.6825
" />
<path d="M70.6816 64.6825
L70.6816 67.6425
" />
<path d="M70.6816 67.6425
L69.2216 67.6425
" />
<path d="M16.3954 35.8094
L16.3954 38.1094
" />
<path d="M16.3954 35.8094
L21.0954 35.8094
" />
<path d="M21.0954 35.8094
L21.0954 38.1094
" />
<path d="M21.0954 38.1094
L16.3954 38.1094
" />
<path d="M229.5173 40.5719
L229.5173 42.8719
" />
<path d="M229.5173 40.5719
L234.2173 40.5719
" />
<path d="M234.2173 40.5719
L234.2173 42.8719
" />
<path d="M234.2173 42.8719
L229.5173 42.8719
" />
<path d="M94.9766 83.4344
L94.9766 85.7344
" />
<path d="M94.9766 83.4344
L99.6766 83.4344
" />
<path d="M99.6766 83.4344
L99.6766 85.7344
" />
<path d="M99.6766 85.7344
L94.9766 85.7344
" />
<path d="M114.0266 54.8594
L114.0266 57.1594
" />
<path d="M114.0266 54.8594
L118.7266 54.8594
" />
<path d="M118.7266 54.8594
L118.7266 57.1594
" />
<path d="M118.7266 57.1594
L114.0266 57.1594
" />
<path d="M116.4079 92.9594
L116.4079 95.2594
" />
<path d="M116.4079 92.9594
L121.1079 92.9594
" />
<path d="M121.1079 92.9594
L121.1079 95.2594
" />
<path d="M121.1079 95.2594
L116.4079 95.2594
" />
<path d="M75.9266 16.7594
L75.9266 19.0594
" />
<path d="M75.9266 16.7594
L80.6266 16.7594
" />
<path d="M80.6266 16.7594
L80.6266 19.0594
" />
<path d="M80.6266 19.0594
L75.9266 19.0594
" />
<path d="M226.6216 65.8925
L228.4816 65.8925
" />
<path d="M226.6216 66.8325
L226.6216 65.8925
" />
<path d="M228.4816 65.8925
L228.4816 66.8325
" />
<path d="M228.4816 66.8325
L226.6216 66.8325
" />
<path d="M75.9266 35.8094
L75.9266 38.1094
" />
<path d="M75.9266 35.8094
L80.6266 35.8094
" />
<path d="M80.6266 35.8094
L80.6266 38.1094
" />
<path d="M80.6266 38.1094
L75.9266 38.1094
" />
<path d="M211.1416 64.5025
L212.9616 64.5025
" />
<path d="M211.1416 65.4225
L211.1416 64.5025
" />
<path d="M212.9616 64.5025
L212.9616 65.4225
" />
<path d="M212.9616 65.4225
L211.1416 65.4225
" />
<path d="M210.4673 16.7594
L210.4673 19.0594
" />
<path d="M210.4673 16.7594
L215.1673 16.7594
" />
<path d="M215.1673 16.7594
L215.1673 19.0594
" />
<path d="M215.1673 19.0594
L210.4673 19.0594
" />
<path d="M59.1416 64.6025
L60.9616 64.6025
" />
<path d="M59.1416 65.5225
L59.1416 64.6025
" />
<path d="M60.9616 64.6025
L60.9616 65.5225
" />
<path d="M60.9616 65.5225
L59.1416 65.5225
" />
<path d="M226.6216 77.5925
L228.4816 77.5925
" />
<path d="M226.6216 78.5325
L226.6216 77.5925
" />
<path d="M228.4816 77.5925
L228.4816 78.5325
" />
<path d="M228.4816 78.5325
L226.6216 78.5325
" />
</g>
<g style="fill:none; 
stroke:#000000; stroke-width:0.1000; stroke-opacity:1; 
stroke-linecap:round; stroke-linejoin:round;">
<path d="M111.6141 86.7750 A1.0000 1.0000 0.0 0 0 110.6141 85.7750" />
<path d="M130.6641 20.1000
L130.6641 75.2500
" />
<path d="M130.6641 20.1000 A1.0000 1.0000 0.0 0 0 129.6641 19.1000" />
<path d="M147.1446 95.3000
L168.9571 95.3000
" />
<path d="M168.9571 95.3000 A1.0000 1.0000 0.0 0 0 169.9571 94.3000" />
<path d="M169.9548 9.1625
L182.8516 9.1625
" />
<path d="M134.4266 95.3000
L112.6141 95.3000
" />
<path d="M111.6141 10.7656
L111.6141 9.1625
" />
<path d="M7.8391 0.0500 A1.0000 1.0000 0.0 0 0 6.8391 1.0500" />
<path d="M35.4141 58.2000 A1.0000 1.0000 0.0 0 0 34.4141 57.2000" />
<path d="M55.4641 0.0500
L110.6141 0.0500
" />
<path d="M146.1446 80.2505
L135.4266 80.2505
" />
<path d="M149.9071 76.2500
L147.1446 76.2500
" />
<path d="M245.1571 61.9625 A1.0000 1.0000 0.0 0 0 246.1571 60.9625" />
<path d="M273.7321 0.0500
L247.1571 0.0500
" />
<path d="M150.9071 20.1000
L150.9071 75.2500
" />
<path d="M111.6141 16.7188
L111.6141 17.9094
" />
<path d="M235.2509 61.9625
L245.1571 61.9625
" />
<path d="M227.1071 1.0500 A1.0000 1.0000 0.0 0 0 226.1071 0.0500" />
<path d="M268.9696 57.2000 A1.0000 1.0000 0.0 0 0 269.9696 56.2000" />
<path d="M55.4641 0.0500 A1.0000 1.0000 0.0 0 0 54.4641 1.0500" />
<path d="M170.9571 85.7750 A1.0000 1.0000 0.0 0 0 169.9571 86.7750" />
<path d="M234.2509 84.7750
L234.2509 62.9625
" />
<path d="M245.1571 4.8125 A0.9999 0.9999 0.0 0 0 246.1571 3.8125" />
<path d="M111.6141 18.1000 A1.0000 1.0000 0.0 0 0 112.6141 19.1000" />
<path d="M35.4141 3.8125 A0.9999 0.9999 0.0 0 0 36.4141 4.8125" />
<path d="M111.6141 94.3000
L111.6141 86.7750
" />
<path d="M235.2509 61.9625 A1.0000 1.0000 0.0 0 0 234.2509 62.9625" />
<path d="M146.1446 94.3000 A1.0000 1.0000 0.0 0 0 147.1446 95.3000" />
<path d="M111.6141 16.7188
L169.9571 16.7188
" />
<path d="M34.4141 57.2000
L12.6016 57.2000
" />
<path d="M134.4266 95.3000 A1.0000 1.0000 0.0 0 0 135.4266 94.3000" />
<path d="M270.9696 19.1000
L273.7321 19.1000
" />
<path d="M47.3204 84.7750 A0.9999 0.9999 0.0 0 0 48.3204 85.7750" />
<path d="M151.9071 19.1000
L168.9571 19.1000
" />
<path d="M36.4141 4.8125
L53.4641 4.8125
" />
<path d="M149.9071 76.2500 A0.9999 0.9999 0.0 0 0 150.9071 75.2500" />
<path d="M246.1571 1.0500
L246.1571 3.8125
" />
<path d="M227.1071 3.8125 A1.0000 1.0000 0.0 0 0 228.1071 4.8125" />
<path d="M169.9548 2.4312
L169.9548 2.9625
" />
<path d="M273.7321 19.1000 A0.9999 0.9999 0.0 0 0 274.7321 18.1000" />
<path d="M129.6641 19.1000
L112.6141 19.1000
" />
<path d="M169.9571 94.3000
L169.9571 86.7750
" />
<path d="M47.3204 84.7750
L47.3204 62.9625
" />
<path d="M169.9548 0.0500
L169.9548 1.2406
" />
<path d="M111.6141 1.0500
L111.6141 2.9625
" />
<path d="M6.8391 18.1000 A0.9999 0.9999 0.0 0 0 7.8391 19.1000" />
<path d="M135.4266 86.0925
L146.1446 86.0925
" />
<path d="M226.1071 0.0500
L169.9548 0.0500
" />
<path d="M11.6016 20.1000 A1.0000 1.0000 0.0 0 0 10.6016 19.1000" />
<path d="M146.1446 77.2500
L146.1446 80.2505
" />
<path d="M135.4266 77.2500
L135.4266 80.2505
" />
<path d="M147.1446 76.2500 A0.9999 0.9999 0.0 0 0 146.1446 77.2500" />
<path d="M35.4141 1.0500 A1.0000 1.0000 0.0 0 0 34.4141 0.0500" />
<path d="M135.4266 86.0925
L135.4266 94.3000
" />
<path d="M270.9696 19.1000 A1.0000 1.0000 0.0 0 0 269.9696 20.1000" />
<path d="M274.7321 18.1000
L274.7321 1.0500
" />
<path d="M269.9696 56.2000
L269.9696 20.1000
" />
<path d="M169.9571 17.9094
L169.9571 18.1000
" />
<path d="M146.1446 86.0925
L146.1446 94.3000
" />
<path d="M245.1571 4.8125
L228.1071 4.8125
" />
<path d="M46.3204 61.9625
L36.4141 61.9625
" />
<path d="M246.1571 60.9625
L246.1571 58.2000
" />
<path d="M169.9571 17.9094
L169.9571 16.7188
" />
<path d="M131.6641 76.2500
L134.4266 76.2500
" />
<path d="M168.9571 19.1000 A1.0000 1.0000 0.0 0 0 169.9571 18.1000" />
<path d="M227.1071 3.8125
L227.1071 1.0500
" />
<path d="M35.4141 1.0500
L35.4141 3.8125
" />
<path d="M169.9548 9.5750
L169.9548 9.1625
" />
<path d="M98.7516 2.9625
L98.7516 9.1625
" />
<path d="M151.9071 19.1000 A1.0000 1.0000 0.0 0 0 150.9071 20.1000" />
<path d="M247.1571 57.2000 A1.0000 1.0000 0.0 0 0 246.1571 58.2000" />
<path d="M247.1571 0.0500 A1.0000 1.0000 0.0 0 0 246.1571 1.0500" />
<path d="M247.1571 57.2000
L268.9696 57.2000
" />
<path d="M6.8391 18.1000
L6.8391 1.0500
" />
<path d="M111.6141 94.3000 A1.0000 1.0000 0.0 0 0 112.6141 95.3000" />
<path d="M274.7321 1.0500 A1.0000 1.0000 0.0 0 0 273.7321 0.0500" />
<path d="M53.4641 4.8125 A1.0000 1.0000 0.0 0 0 54.4641 3.8125" />
<path d="M182.8516 9.1625
L182.8516 2.9625
" />
<path d="M169.9548 10.7656
L111.6141 10.7656
" />
<path d="M135.4266 77.2500 A0.9999 0.9999 0.0 0 0 134.4266 76.2500" />
<path d="M233.2509 85.7750 A0.9999 0.9999 0.0 0 0 234.2509 84.7750" />
<path d="M7.8391 0.0500
L34.4141 0.0500
" />
<path d="M10.6016 19.1000
L7.8391 19.1000
" />
<path d="M110.6141 85.7750
L48.3204 85.7750
" />
<path d="M111.6141 17.9094
L111.6141 18.1000
" />
<path d="M11.6016 56.2000 A1.0000 1.0000 0.0 0 0 12.6016 57.2000" />
<path d="M54.4641 3.8125
L54.4641 1.0500
" />
<path d="M111.6141 1.0500 A1.0000 1.0000 0.0 0 0 110.6141 0.0500" />
<path d="M182.8516 2.9625
L169.9516 2.9625
" />
<path d="M11.6016 56.2000
L11.6016 20.1000
" />
<path d="M169.9548 10.7656
L169.9548 9.5750
" />
<path d="M111.6141 9.1625
L98.7516 9.1625
" />
<path d="M35.4141 60.9625
L35.4141 58.2000
" />
<path d="M111.6141 2.9625
L98.7516 2.9625
" />
<path d="M35.4141 60.9625 A1.0000 1.0000 0.0 0 0 36.4141 61.9625" />
<path d="M47.3204 62.9625 A1.0000 1.0000 0.0 0 0 46.3204 61.9625" />
<path d="M169.9548 1.2406
L169.9548 2.4312
" />
<path d="M170.9571 85.7750
L233.2509 85.7750
" />
<path d="M130.6641 75.2500 A0.9999 0.9999 0.0 0 0 131.6641 76.2500" />
</g> 
</svg>
