<?xml version="1.0" standalone="no"?>
 <!DOCTYPE svg PUBLIC "-//W3C//DTD SVG 1.1//EN" 
 "http://www.w3.org/Graphics/SVG/1.1/DTD/svg11.dtd"> 
<svg
  xmlns:svg="http://www.w3.org/2000/svg"
  xmlns="http://www.w3.org/2000/svg"
  xmlns:xlink="http://www.w3.org/1999/xlink"
  version="1.1"
  width="142.7734mm" height="96.9518mm" viewBox="0.0000 0.0000 142.7734 96.9518">
<title>SVG Image created as bottom-B_Mask.svg date 2024/10/22 20:35:28 </title>
  <desc>Image generated by PCBNEW </desc>
<g style="fill:#000000; fill-opacity:1.0000;stroke:#000000; stroke-opacity:1.0000;
stroke-linecap:round; stroke-linejoin:round;"
 transform="translate(0 0) scale(1 1)">
</g>
<g style="fill:#02FFEE; fill-opacity:0.4000; stroke:none;">
<circle cx="9.4821" cy="23.0983" r="1.1000" /> 
</g>
<g style="fill:#02FFEE; fill-opacity:0.4000; stroke:none;">
<circle cx="49.9634" cy="89.7732" r="1.1000" /> 
</g>
<g style="fill:#02FFEE; fill-opacity:0.4000; stroke:none;">
<circle cx="133.3071" cy="23.0983" r="1.1000" /> 
</g>
<g style="fill:#02FFEE; fill-opacity:0.4000; stroke:none;">
<circle cx="133.3071" cy="75.4857" r="1.1000" /> 
</g>
<g style="fill:#02FFEE; fill-opacity:0.4000; stroke:none;">
<circle cx="49.9634" cy="4.0482" r="1.1000" /> 
</g>
<g style="fill:#02FFEE; fill-opacity:0.4000; stroke:none;">
<circle cx="111.8759" cy="89.7732" r="1.1000" /> 
</g>
<g style="fill:#02FFEE; fill-opacity:0.4000; stroke:none;">
<circle cx="9.4821" cy="56.4357" r="1.1000" /> 
</g>
<g style="fill:none; 
stroke:#D0D2CD; stroke-width:0.1000; stroke-opacity:1; 
stroke-linecap:round; stroke-linejoin:round;">
<path d="M134.6884 96.9170
L112.8759 96.9170
" />
<path d="M8.1009 1.6670 A1.0000 1.0000 0.0 0 0 7.1009 2.6670" />
<path d="M111.8759 95.9170
L111.8759 93.1545
" />
<path d="M35.6759 59.8170 A1.0000 1.0000 0.0 0 0 34.6759 58.8170" />
<path d="M8.1009 1.6670
L110.8759 1.6670
" />
<path d="M111.8759 19.7170 A1.0000 1.0000 0.0 0 0 112.8759 20.7170" />
<path d="M34.6759 58.8170
L8.1009 58.8170
" />
<path d="M134.6884 96.9170 A1.0000 1.0000 0.0 0 0 135.6884 95.9170" />
<path d="M134.6884 20.7170
L112.8759 20.7170
" />
<path d="M111.8759 93.1545 A1.0000 1.0000 0.0 0 0 110.8759 92.1545" />
<path d="M47.5821 91.1545
L47.5821 64.5795
" />
<path d="M111.8759 2.6670
L111.8759 19.7170
" />
<path d="M135.6884 21.7170
L135.6884 95.9170
" />
<path d="M135.6884 21.7170 A1.0000 1.0000 0.0 0 0 134.6884 20.7170" />
<path d="M46.5821 63.5795
L36.6759 63.5795
" />
<path d="M7.1009 57.8170
L7.1009 2.6670
" />
<path d="M111.8759 95.9170 A1.0000 1.0000 0.0 0 0 112.8759 96.9170" />
<path d="M110.8759 92.1545
L48.5821 92.1545
" />
<path d="M111.8759 2.6670 A1.0000 1.0000 0.0 0 0 110.8759 1.6670" />
<path d="M35.6759 62.5795
L35.6759 59.8170
" />
<path d="M35.6759 62.5795 A1.0000 1.0000 0.0 0 0 36.6759 63.5795" />
<path d="M47.5822 64.5795 A1.0000 1.0000 0.0 0 0 46.5821 63.5795" />
<path d="M7.1009 57.8170 A1.0000 1.0000 0.0 0 0 8.1009 58.8170" />
<path d="M47.5822 91.1545 A0.9999 0.9999 0.0 0 0 48.5821 92.1545" />
</g> 
</svg>
