%TF.GenerationSoftware,KiCad,Pcbnew,8.0.8*%
%TF.CreationDate,2025-01-27T00:01:30+09:00*%
%TF.ProjectId,pcb,7063622e-6b69-4636-9164-5f7063625858,rev?*%
%TF.SameCoordinates,Original*%
%TF.FileFunction,Drillmap*%
%TF.FilePolarity,Positive*%
%FSLAX45Y45*%
G04 Gerber Fmt 4.5, Leading zero omitted, Abs format (unit mm)*
G04 Created by KiCad (PCBNEW 8.0.8) date 2025-01-27 00:01:30*
%MOMM*%
%LPD*%
G01*
G04 APERTURE LIST*
%ADD10C,0.100000*%
%ADD11C,0.200000*%
G04 APERTURE END LIST*
D10*
X11806250Y-10001250D02*
G75*
G02*
X11906250Y-10101250I0J-100000D01*
G01*
X13811250Y-3433750D02*
X13811250Y-8948750D01*
X13711250Y-3333750D02*
G75*
G02*
X13811250Y-3433750I0J-100000D01*
G01*
X15459301Y-10953750D02*
X17640551Y-10953750D01*
X17740551Y-10853750D02*
G75*
G02*
X17640551Y-10953751I-100001J0D01*
G01*
X17740313Y-2340000D02*
X19030000Y-2340000D01*
X14187500Y-10953750D02*
X12006250Y-10953750D01*
X11906250Y-2500313D02*
X11906250Y-2340000D01*
X1428750Y-1528750D02*
G75*
G02*
X1528750Y-1428750I100004J-4D01*
G01*
X4186250Y-7143750D02*
G75*
G02*
X4286250Y-7243750I0J-100000D01*
G01*
X6291250Y-1428750D02*
X11806250Y-1428750D01*
X15359301Y-9448800D02*
X14287500Y-9448800D01*
X15735551Y-9048750D02*
X15459301Y-9048750D01*
X25360551Y-7520000D02*
G75*
G02*
X25260551Y-7620001I-100001J0D01*
G01*
X28118051Y-1428750D02*
X25460551Y-1428750D01*
X15835551Y-3433750D02*
X15835551Y-8948750D01*
X11906250Y-3095625D02*
X11906250Y-3214687D01*
X24269926Y-7620000D02*
X25260551Y-7620000D01*
X23355551Y-1428750D02*
G75*
G02*
X23455550Y-1528750I-1J-100000D01*
G01*
X27741801Y-7043750D02*
G75*
G02*
X27641801Y-7143751I-100001J0D01*
G01*
X6191250Y-1528750D02*
G75*
G02*
X6291250Y-1428750I100000J0D01*
G01*
X17740551Y-10101250D02*
G75*
G02*
X17840551Y-10001251I99999J0D01*
G01*
X24169926Y-9901250D02*
X24169926Y-7720000D01*
X25360551Y-1805000D02*
G75*
G02*
X25260551Y-1905001I-99991J-10D01*
G01*
X12006250Y-3333750D02*
G75*
G02*
X11906250Y-3233750I0J100000D01*
G01*
X4386250Y-1905000D02*
G75*
G02*
X4286250Y-1805000I-10J99990D01*
G01*
X11906250Y-10853750D02*
X11906250Y-10101250D01*
X24169926Y-7720000D02*
G75*
G02*
X24269926Y-7619996I100004J0D01*
G01*
X15459301Y-10953750D02*
G75*
G02*
X15359300Y-10853750I-1J100000D01*
G01*
X11906250Y-3095625D02*
X17740551Y-3095625D01*
X4186250Y-7143750D02*
X2005000Y-7143750D01*
X14287500Y-10853750D02*
G75*
G02*
X14187500Y-10953750I-100000J0D01*
G01*
X27841801Y-3333750D02*
X28118051Y-3333750D01*
X5576875Y-10001250D02*
G75*
G02*
X5476880Y-9901250I-5J99990D01*
G01*
X15935551Y-3333750D02*
X17640551Y-3333750D01*
X4386250Y-1905000D02*
X6091250Y-1905000D01*
X15835551Y-8948750D02*
G75*
G02*
X15735551Y-9048751I-99991J-10D01*
G01*
X25360551Y-1528750D02*
X25360551Y-1805000D01*
X23555551Y-1905000D02*
G75*
G02*
X23455550Y-1805000I-1J100000D01*
G01*
X17740313Y-1666875D02*
X17740313Y-1720000D01*
X28218051Y-3233750D02*
G75*
G02*
X28118051Y-3333751I-99991J-10D01*
G01*
X13711250Y-3333750D02*
X12006250Y-3333750D01*
X17740551Y-10853750D02*
X17740551Y-10101250D01*
X5476875Y-9901250D02*
X5476875Y-7720000D01*
X17740313Y-1428750D02*
X17740313Y-1547812D01*
X11906250Y-1528750D02*
X11906250Y-1720000D01*
X1528750Y-3333750D02*
G75*
G02*
X1428750Y-3233750I-10J99990D01*
G01*
X14287500Y-10033000D02*
X15359301Y-10033000D01*
X23355551Y-1428750D02*
X17740313Y-1428750D01*
X1805000Y-3333750D02*
G75*
G02*
X1905000Y-3433750I0J-100000D01*
G01*
X15359301Y-9148750D02*
X15359301Y-9448800D01*
X14287500Y-9148750D02*
X14287500Y-9448800D01*
X15359301Y-9148750D02*
G75*
G02*
X15459301Y-9048751I99989J10D01*
G01*
X4186250Y-1428750D02*
G75*
G02*
X4286250Y-1528750I0J-100000D01*
G01*
X14287500Y-10033000D02*
X14287500Y-10853750D01*
X27741801Y-3433750D02*
G75*
G02*
X27841801Y-3333751I99999J0D01*
G01*
X28218051Y-3233750D02*
X28218051Y-1528750D01*
X27741801Y-7043750D02*
X27741801Y-3433750D01*
X17740551Y-3214687D02*
X17740551Y-3233750D01*
X15359301Y-10033000D02*
X15359301Y-10853750D01*
X25260551Y-1905000D02*
X23555551Y-1905000D01*
X5376875Y-7620000D02*
X4386250Y-7620000D01*
X25360551Y-7520000D02*
X25360551Y-7243750D01*
X17740551Y-3214687D02*
X17740551Y-3095625D01*
X13911250Y-9048750D02*
X14187500Y-9048750D01*
X17740551Y-3233750D02*
G75*
G02*
X17640551Y-3333751I-100001J0D01*
G01*
X23455551Y-1805000D02*
X23455551Y-1528750D01*
X4286250Y-1528750D02*
X4286250Y-1805000D01*
X17740313Y-2381250D02*
X17740313Y-2340000D01*
X10620000Y-1720000D02*
X10620000Y-2340000D01*
X15835551Y-3433750D02*
G75*
G02*
X15935551Y-3333751I99999J0D01*
G01*
X25360551Y-7243750D02*
G75*
G02*
X25460551Y-7143751I99999J0D01*
G01*
X25360551Y-1528750D02*
G75*
G02*
X25460551Y-1428751I99999J0D01*
G01*
X25460551Y-7143750D02*
X27641801Y-7143750D01*
X1428750Y-3233750D02*
X1428750Y-1528750D01*
X12006250Y-10953750D02*
G75*
G02*
X11906250Y-10853750I0J100000D01*
G01*
X28118051Y-1428750D02*
G75*
G02*
X28218050Y-1528750I-1J-100000D01*
G01*
X6191250Y-1805000D02*
G75*
G02*
X6091250Y-1905000I-100000J0D01*
G01*
X19030000Y-2340000D02*
X19030000Y-1720000D01*
X17740313Y-2500313D02*
X11906250Y-2500313D01*
X14187500Y-9048750D02*
G75*
G02*
X14287500Y-9148750I10J-99990D01*
G01*
X24169926Y-9901250D02*
G75*
G02*
X24069926Y-10001246I-99986J-10D01*
G01*
X1528750Y-1428750D02*
X4186250Y-1428750D01*
X1805000Y-3333750D02*
X1528750Y-3333750D01*
X11806250Y-10001250D02*
X5576875Y-10001250D01*
X11906250Y-3214687D02*
X11906250Y-3233750D01*
X2005000Y-7143750D02*
G75*
G02*
X1905000Y-7043750I0J100000D01*
G01*
X6191250Y-1805000D02*
X6191250Y-1528750D01*
X11806250Y-1428750D02*
G75*
G02*
X11906250Y-1528750I0J-100000D01*
G01*
X19030000Y-1720000D02*
X17740000Y-1720000D01*
X1905000Y-7043750D02*
X1905000Y-3433750D01*
X17740313Y-2500313D02*
X17740313Y-2381250D01*
X11906250Y-2340000D02*
X10620000Y-2340000D01*
X4286250Y-7520000D02*
X4286250Y-7243750D01*
X11906250Y-1720000D02*
X10620000Y-1720000D01*
X4386250Y-7620000D02*
G75*
G02*
X4286250Y-7520000I0J100000D01*
G01*
X5376875Y-7620000D02*
G75*
G02*
X5476880Y-7720000I5J-100000D01*
G01*
X17740313Y-1547812D02*
X17740313Y-1666875D01*
X17840551Y-10001250D02*
X24069926Y-10001250D01*
X13911250Y-9048750D02*
G75*
G02*
X13811250Y-8948750I-10J99990D01*
G01*
D11*
D10*
X2032500Y-3385000D02*
X2062500Y-3415000D01*
X2062500Y-3385000D02*
X2032500Y-3415000D01*
X2195000Y-3315000D02*
X2225000Y-3345000D01*
X2225000Y-3315000D02*
X2195000Y-3345000D01*
X2535000Y-5105000D02*
X2565000Y-5135000D01*
X2565000Y-5105000D02*
X2535000Y-5135000D01*
X2545000Y-5345000D02*
X2575000Y-5375000D01*
X2575000Y-5345000D02*
X2545000Y-5375000D01*
X4413750Y-3885000D02*
X4443750Y-3915000D01*
X4443750Y-3885000D02*
X4413750Y-3915000D01*
X4585000Y-3785000D02*
X4615000Y-3815000D01*
X4615000Y-3785000D02*
X4585000Y-3815000D01*
X4675000Y-5815000D02*
X4705000Y-5845000D01*
X4705000Y-5815000D02*
X4675000Y-5845000D01*
X4685000Y-5575000D02*
X4715000Y-5605000D01*
X4715000Y-5575000D02*
X4685000Y-5605000D01*
X5805000Y-7885000D02*
X5835000Y-7915000D01*
X5835000Y-7885000D02*
X5805000Y-7915000D01*
X6090000Y-7200000D02*
X6120000Y-7230000D01*
X6120000Y-7200000D02*
X6090000Y-7230000D01*
X6318750Y-3725000D02*
X6348750Y-3755000D01*
X6348750Y-3725000D02*
X6318750Y-3755000D01*
X6385000Y-7025000D02*
X6415000Y-7055000D01*
X6415000Y-7025000D02*
X6385000Y-7055000D01*
X6399375Y-9400625D02*
X6429375Y-9430625D01*
X6429375Y-9400625D02*
X6399375Y-9430625D01*
X6455000Y-9015000D02*
X6485000Y-9045000D01*
X6485000Y-9015000D02*
X6455000Y-9045000D01*
X6485000Y-3315000D02*
X6515000Y-3345000D01*
X6515000Y-3315000D02*
X6485000Y-3345000D01*
X6485000Y-5215000D02*
X6515000Y-5245000D01*
X6515000Y-5215000D02*
X6485000Y-5245000D01*
X6547426Y-9497427D02*
X6577426Y-9527427D01*
X6577426Y-9497427D02*
X6547426Y-9527427D01*
X6585000Y-8415000D02*
X6615000Y-8445000D01*
X6615000Y-8415000D02*
X6585000Y-8445000D01*
X6675000Y-9205000D02*
X6705000Y-9235000D01*
X6705000Y-9205000D02*
X6675000Y-9235000D01*
X6755000Y-7355000D02*
X6785000Y-7385000D01*
X6785000Y-7355000D02*
X6755000Y-7385000D01*
X6832500Y-8325000D02*
X6862500Y-8355000D01*
X6862500Y-8325000D02*
X6832500Y-8355000D01*
X6845000Y-7915000D02*
X6875000Y-7945000D01*
X6875000Y-7915000D02*
X6845000Y-7945000D01*
X6865000Y-7125000D02*
X6895000Y-7155000D01*
X6895000Y-7125000D02*
X6865000Y-7155000D01*
X7032500Y-8832500D02*
X7062500Y-8862500D01*
X7062500Y-8832500D02*
X7032500Y-8862500D01*
X7155000Y-7995000D02*
X7185000Y-8025000D01*
X7185000Y-7995000D02*
X7155000Y-8025000D01*
X7238368Y-8138368D02*
X7268368Y-8168368D01*
X7268368Y-8138368D02*
X7238368Y-8168368D01*
X7435000Y-9265000D02*
X7465000Y-9295000D01*
X7465000Y-9265000D02*
X7435000Y-9295000D01*
X7525000Y-8155000D02*
X7555000Y-8185000D01*
X7555000Y-8155000D02*
X7525000Y-8185000D01*
X7574247Y-8471317D02*
X7604247Y-8501317D01*
X7604247Y-8471317D02*
X7574247Y-8501317D01*
X7577426Y-8952500D02*
X7607426Y-8982500D01*
X7607426Y-8952500D02*
X7577426Y-8982500D01*
X7625000Y-7625000D02*
X7655000Y-7655000D01*
X7655000Y-7625000D02*
X7625000Y-7655000D01*
X7645000Y-7855000D02*
X7675000Y-7885000D01*
X7675000Y-7855000D02*
X7645000Y-7885000D01*
X7645000Y-9335000D02*
X7675000Y-9365000D01*
X7675000Y-9335000D02*
X7645000Y-9365000D01*
X7685000Y-9265000D02*
X7715000Y-9295000D01*
X7715000Y-9265000D02*
X7685000Y-9295000D01*
X7695000Y-8545000D02*
X7725000Y-8575000D01*
X7725000Y-8545000D02*
X7695000Y-8575000D01*
X7715000Y-8295000D02*
X7745000Y-8325000D01*
X7745000Y-8295000D02*
X7715000Y-8325000D01*
X7835000Y-7105000D02*
X7865000Y-7135000D01*
X7865000Y-7105000D02*
X7835000Y-7135000D01*
X7845000Y-7945000D02*
X7875000Y-7975000D01*
X7875000Y-7945000D02*
X7845000Y-7975000D01*
X7845000Y-9236250D02*
X7875000Y-9266250D01*
X7875000Y-9236250D02*
X7845000Y-9266250D01*
X7915000Y-8995000D02*
X7945000Y-9025000D01*
X7945000Y-8995000D02*
X7915000Y-9025000D01*
X7995000Y-7095000D02*
X8025000Y-7125000D01*
X8025000Y-7095000D02*
X7995000Y-7125000D01*
X8015000Y-7295000D02*
X8045000Y-7325000D01*
X8045000Y-7295000D02*
X8015000Y-7325000D01*
X8223750Y-3565000D02*
X8253750Y-3595000D01*
X8253750Y-3565000D02*
X8223750Y-3595000D01*
X8395000Y-3315000D02*
X8425000Y-3345000D01*
X8425000Y-3315000D02*
X8395000Y-3345000D01*
X8395000Y-7115000D02*
X8425000Y-7145000D01*
X8425000Y-7115000D02*
X8395000Y-7145000D01*
X8405000Y-5215000D02*
X8435000Y-5245000D01*
X8435000Y-5215000D02*
X8405000Y-5245000D01*
X9132500Y-9615000D02*
X9162500Y-9645000D01*
X9162500Y-9615000D02*
X9132500Y-9645000D01*
X9405000Y-9305000D02*
X9435000Y-9335000D01*
X9435000Y-9305000D02*
X9405000Y-9335000D01*
X9441648Y-8781648D02*
X9471648Y-8811648D01*
X9471648Y-8781648D02*
X9441648Y-8811648D01*
X9475000Y-9675000D02*
X9505000Y-9705000D01*
X9505000Y-9675000D02*
X9475000Y-9705000D01*
X9525000Y-3315000D02*
X9555000Y-3345000D01*
X9555000Y-3315000D02*
X9525000Y-3345000D01*
X9625000Y-8345000D02*
X9655000Y-8375000D01*
X9655000Y-8345000D02*
X9625000Y-8375000D01*
X9641740Y-9169681D02*
X9671740Y-9199681D01*
X9671740Y-9169681D02*
X9641740Y-9199681D01*
X9659853Y-3385000D02*
X9689853Y-3415000D01*
X9689853Y-3385000D02*
X9659853Y-3415000D01*
X9745000Y-3385000D02*
X9775000Y-3415000D01*
X9775000Y-3385000D02*
X9745000Y-3415000D01*
X9755000Y-5215000D02*
X9785000Y-5245000D01*
X9785000Y-5215000D02*
X9755000Y-5245000D01*
X9785000Y-8445000D02*
X9815000Y-8475000D01*
X9815000Y-8445000D02*
X9785000Y-8475000D01*
X9835000Y-3385000D02*
X9865000Y-3415000D01*
X9865000Y-3385000D02*
X9835000Y-3415000D01*
X9885000Y-9575000D02*
X9915000Y-9605000D01*
X9915000Y-9575000D02*
X9885000Y-9605000D01*
X9925000Y-3385000D02*
X9955000Y-3415000D01*
X9955000Y-3385000D02*
X9925000Y-3415000D01*
X9983750Y-8655000D02*
X10013750Y-8685000D01*
X10013750Y-8655000D02*
X9983750Y-8685000D01*
X10128750Y-9165000D02*
X10158750Y-9195000D01*
X10158750Y-9165000D02*
X10128750Y-9195000D01*
X10242574Y-1592573D02*
X10272574Y-1622573D01*
X10272574Y-1592573D02*
X10242574Y-1622573D01*
X10295000Y-4265000D02*
X10325000Y-4295000D01*
X10325000Y-4265000D02*
X10295000Y-4295000D01*
X10295000Y-8065000D02*
X10325000Y-8095000D01*
X10325000Y-8065000D02*
X10295000Y-8095000D01*
X10305000Y-6155000D02*
X10335000Y-6185000D01*
X10335000Y-6155000D02*
X10305000Y-6185000D01*
X10425000Y-9875000D02*
X10455000Y-9905000D01*
X10455000Y-9875000D02*
X10425000Y-9905000D01*
X10505000Y-1595000D02*
X10535000Y-1625000D01*
X10535000Y-1595000D02*
X10505000Y-1625000D01*
X12033750Y-9385000D02*
X12063750Y-9415000D01*
X12063750Y-9385000D02*
X12033750Y-9415000D01*
X12205000Y-5235000D02*
X12235000Y-5265000D01*
X12235000Y-5235000D02*
X12205000Y-5265000D01*
X12205000Y-7115000D02*
X12235000Y-7145000D01*
X12235000Y-7115000D02*
X12205000Y-7145000D01*
X12205000Y-9025000D02*
X12235000Y-9055000D01*
X12235000Y-9025000D02*
X12205000Y-9055000D01*
X12345000Y-10815000D02*
X12375000Y-10845000D01*
X12375000Y-10815000D02*
X12345000Y-10845000D01*
X15962812Y-5315000D02*
X15992812Y-5345000D01*
X15992812Y-5315000D02*
X15962812Y-5345000D01*
X16005000Y-10815000D02*
X16035000Y-10845000D01*
X16035000Y-10815000D02*
X16005000Y-10845000D01*
X16135000Y-5225000D02*
X16165000Y-5255000D01*
X16165000Y-5225000D02*
X16135000Y-5255000D01*
X16135000Y-7125000D02*
X16165000Y-7155000D01*
X16165000Y-7125000D02*
X16135000Y-7155000D01*
X16135000Y-9035000D02*
X16165000Y-9065000D01*
X16165000Y-9035000D02*
X16135000Y-9065000D01*
X17868833Y-4516020D02*
X17898833Y-4546020D01*
X17898833Y-4516020D02*
X17868833Y-4546020D01*
X17935000Y-9865000D02*
X17965000Y-9895000D01*
X17965000Y-9865000D02*
X17935000Y-9895000D01*
X18035000Y-4265000D02*
X18065000Y-4295000D01*
X18065000Y-4265000D02*
X18035000Y-4295000D01*
X18035000Y-6165000D02*
X18065000Y-6195000D01*
X18065000Y-6165000D02*
X18035000Y-6195000D01*
X18035000Y-8075000D02*
X18065000Y-8105000D01*
X18065000Y-8075000D02*
X18035000Y-8105000D01*
X19075000Y-2405000D02*
X19105000Y-2435000D01*
X19105000Y-2405000D02*
X19075000Y-2435000D01*
X19425000Y-2575000D02*
X19455000Y-2605000D01*
X19455000Y-2575000D02*
X19425000Y-2605000D01*
X19425000Y-7265000D02*
X19455000Y-7295000D01*
X19455000Y-7265000D02*
X19425000Y-7295000D01*
X19515000Y-9285000D02*
X19545000Y-9315000D01*
X19545000Y-9285000D02*
X19515000Y-9315000D01*
X19545000Y-3715000D02*
X19575000Y-3745000D01*
X19575000Y-3715000D02*
X19545000Y-3745000D01*
X19585000Y-5595000D02*
X19615000Y-5625000D01*
X19615000Y-5595000D02*
X19585000Y-5625000D01*
X19625000Y-7135000D02*
X19655000Y-7165000D01*
X19655000Y-7135000D02*
X19625000Y-7165000D01*
X19772812Y-3575000D02*
X19802812Y-3605000D01*
X19802812Y-3575000D02*
X19772812Y-3605000D01*
X19935000Y-3325000D02*
X19965000Y-3355000D01*
X19965000Y-3325000D02*
X19935000Y-3355000D01*
X19945000Y-5225000D02*
X19975000Y-5255000D01*
X19975000Y-5225000D02*
X19945000Y-5255000D01*
X19945000Y-7135000D02*
X19975000Y-7165000D01*
X19975000Y-7135000D02*
X19945000Y-7165000D01*
X20055000Y-8905000D02*
X20085000Y-8935000D01*
X20085000Y-8905000D02*
X20055000Y-8935000D01*
X20125000Y-9885000D02*
X20155000Y-9915000D01*
X20155000Y-9885000D02*
X20125000Y-9915000D01*
X20785000Y-9395000D02*
X20815000Y-9425000D01*
X20815000Y-9395000D02*
X20785000Y-9425000D01*
X20855000Y-9895000D02*
X20885000Y-9925000D01*
X20885000Y-9895000D02*
X20855000Y-9925000D01*
X21275000Y-9205000D02*
X21305000Y-9235000D01*
X21305000Y-9205000D02*
X21275000Y-9235000D01*
X21285000Y-3389408D02*
X21315000Y-3419408D01*
X21315000Y-3389408D02*
X21285000Y-3419408D01*
X21285000Y-3475000D02*
X21315000Y-3505000D01*
X21315000Y-3475000D02*
X21285000Y-3505000D01*
X21285000Y-3555000D02*
X21315000Y-3585000D01*
X21315000Y-3555000D02*
X21285000Y-3585000D01*
X21565000Y-8485000D02*
X21595000Y-8515000D01*
X21595000Y-8485000D02*
X21565000Y-8515000D01*
X21595000Y-3425000D02*
X21625000Y-3455000D01*
X21625000Y-3425000D02*
X21595000Y-3455000D01*
X21595000Y-3525000D02*
X21625000Y-3555000D01*
X21625000Y-3525000D02*
X21595000Y-3555000D01*
X21635000Y-7265000D02*
X21665000Y-7295000D01*
X21665000Y-7265000D02*
X21635000Y-7295000D01*
X21705000Y-7565000D02*
X21735000Y-7595000D01*
X21735000Y-7565000D02*
X21705000Y-7595000D01*
X21775000Y-9815000D02*
X21805000Y-9845000D01*
X21805000Y-9815000D02*
X21775000Y-9845000D01*
X21845000Y-3325000D02*
X21875000Y-3355000D01*
X21875000Y-3325000D02*
X21845000Y-3355000D01*
X21845000Y-4975000D02*
X21875000Y-5005000D01*
X21875000Y-4975000D02*
X21845000Y-5005000D01*
X21845000Y-5495000D02*
X21875000Y-5525000D01*
X21875000Y-5495000D02*
X21845000Y-5525000D01*
X21885000Y-7825000D02*
X21915000Y-7855000D01*
X21915000Y-7825000D02*
X21885000Y-7855000D01*
X21885000Y-8455000D02*
X21915000Y-8485000D01*
X21915000Y-8455000D02*
X21885000Y-8485000D01*
X21905000Y-8685000D02*
X21935000Y-8715000D01*
X21935000Y-8685000D02*
X21905000Y-8715000D01*
X21995000Y-8015000D02*
X22025000Y-8045000D01*
X22025000Y-8015000D02*
X21995000Y-8045000D01*
X22075000Y-7475000D02*
X22105000Y-7505000D01*
X22105000Y-7475000D02*
X22075000Y-7505000D01*
X22177574Y-8547574D02*
X22207574Y-8577574D01*
X22207574Y-8547574D02*
X22177574Y-8577574D01*
X22395000Y-8865000D02*
X22425000Y-8895000D01*
X22425000Y-8865000D02*
X22395000Y-8895000D01*
X22415000Y-7745000D02*
X22445000Y-7775000D01*
X22445000Y-7745000D02*
X22415000Y-7775000D01*
X22535000Y-8772500D02*
X22565000Y-8802500D01*
X22565000Y-8772500D02*
X22535000Y-8802500D01*
X22615000Y-9005000D02*
X22645000Y-9035000D01*
X22645000Y-9005000D02*
X22615000Y-9035000D01*
X22785000Y-8135000D02*
X22815000Y-8165000D01*
X22815000Y-8135000D02*
X22785000Y-8165000D01*
X22805000Y-8865000D02*
X22835000Y-8895000D01*
X22835000Y-8865000D02*
X22805000Y-8895000D01*
X22975000Y-6975000D02*
X23005000Y-7005000D01*
X23005000Y-6975000D02*
X22975000Y-7005000D01*
X23065000Y-7545000D02*
X23095000Y-7575000D01*
X23095000Y-7545000D02*
X23065000Y-7575000D01*
X23075000Y-9765000D02*
X23105000Y-9795000D01*
X23105000Y-9765000D02*
X23075000Y-9795000D01*
X23102977Y-7737500D02*
X23132977Y-7767500D01*
X23132977Y-7737500D02*
X23102977Y-7767500D01*
X23145000Y-8753000D02*
X23175000Y-8783000D01*
X23175000Y-8753000D02*
X23145000Y-8783000D01*
X23175000Y-7305000D02*
X23205000Y-7335000D01*
X23205000Y-7305000D02*
X23175000Y-7335000D01*
X23255000Y-7965000D02*
X23285000Y-7995000D01*
X23285000Y-7965000D02*
X23255000Y-7995000D01*
X23305000Y-9025000D02*
X23335000Y-9055000D01*
X23335000Y-9025000D02*
X23305000Y-9055000D01*
X23322573Y-3457426D02*
X23352573Y-3487426D01*
X23352573Y-3457426D02*
X23322573Y-3487426D01*
X23330000Y-8125000D02*
X23360000Y-8155000D01*
X23360000Y-8125000D02*
X23330000Y-8155000D01*
X23335000Y-8325000D02*
X23365000Y-8355000D01*
X23365000Y-8325000D02*
X23335000Y-8355000D01*
X23348000Y-8418066D02*
X23378000Y-8448066D01*
X23378000Y-8418066D02*
X23348000Y-8448066D01*
X23605000Y-9755000D02*
X23635000Y-9785000D01*
X23635000Y-9755000D02*
X23605000Y-9785000D01*
X23745000Y-3795000D02*
X23775000Y-3825000D01*
X23775000Y-3795000D02*
X23745000Y-3825000D01*
X23755000Y-5475000D02*
X23785000Y-5505000D01*
X23785000Y-5475000D02*
X23755000Y-5505000D01*
X23755000Y-5725000D02*
X23785000Y-5755000D01*
X23785000Y-5725000D02*
X23755000Y-5755000D01*
X23865000Y-9875000D02*
X23895000Y-9905000D01*
X23895000Y-9875000D02*
X23865000Y-9905000D01*
X25415000Y-3945000D02*
X25445000Y-3975000D01*
X25445000Y-3945000D02*
X25415000Y-3975000D01*
X25655000Y-5225000D02*
X25685000Y-5255000D01*
X25685000Y-5225000D02*
X25655000Y-5255000D01*
X25815000Y-7015000D02*
X25845000Y-7045000D01*
X25845000Y-7015000D02*
X25815000Y-7045000D01*
X26135000Y-3315000D02*
X26165000Y-3345000D01*
X26165000Y-3315000D02*
X26135000Y-3345000D01*
X5639000Y-8211620D02*
G75*
G02*
X5579000Y-8211620I-30000J0D01*
G01*
X5579000Y-8211620D02*
G75*
G02*
X5639000Y-8211620I30000J0D01*
G01*
X5579000Y-8241620D02*
X5639000Y-8241620D01*
X5639000Y-8181620D02*
G75*
G02*
X5639000Y-8241620I0J-30000D01*
G01*
X5639000Y-8181620D02*
X5579000Y-8181620D01*
X5579000Y-8181620D02*
G75*
G03*
X5579000Y-8241620I0J-30000D01*
G01*
X5639000Y-9075620D02*
G75*
G02*
X5579000Y-9075620I-30000J0D01*
G01*
X5579000Y-9075620D02*
G75*
G02*
X5639000Y-9075620I30000J0D01*
G01*
X5579000Y-9105620D02*
X5639000Y-9105620D01*
X5639000Y-9045620D02*
G75*
G02*
X5639000Y-9105620I0J-30000D01*
G01*
X5639000Y-9045620D02*
X5579000Y-9045620D01*
X5579000Y-9045620D02*
G75*
G03*
X5579000Y-9105620I0J-30000D01*
G01*
X6057000Y-8211620D02*
G75*
G02*
X5997000Y-8211620I-30000J0D01*
G01*
X5997000Y-8211620D02*
G75*
G02*
X6057000Y-8211620I30000J0D01*
G01*
X5972000Y-8241620D02*
X6082000Y-8241620D01*
X6082000Y-8181620D02*
G75*
G02*
X6082000Y-8241620I0J-30000D01*
G01*
X6082000Y-8181620D02*
X5972000Y-8181620D01*
X5972000Y-8181620D02*
G75*
G03*
X5972000Y-8241620I0J-30000D01*
G01*
X6057000Y-9075620D02*
G75*
G02*
X5997000Y-9075620I-30000J0D01*
G01*
X5997000Y-9075620D02*
G75*
G02*
X6057000Y-9075620I30000J0D01*
G01*
X5972000Y-9105620D02*
X6082000Y-9105620D01*
X6082000Y-9045620D02*
G75*
G02*
X6082000Y-9105620I0J-30000D01*
G01*
X6082000Y-9045620D02*
X5972000Y-9045620D01*
X5972000Y-9045620D02*
G75*
G03*
X5972000Y-9105620I0J-30000D01*
G01*
X23647000Y-8213000D02*
G75*
G02*
X23587000Y-8213000I-30000J0D01*
G01*
X23587000Y-8213000D02*
G75*
G02*
X23647000Y-8213000I30000J0D01*
G01*
X23672000Y-8183000D02*
X23562000Y-8183000D01*
X23562000Y-8243000D02*
G75*
G02*
X23562000Y-8183000I0J30000D01*
G01*
X23562000Y-8243000D02*
X23672000Y-8243000D01*
X23672000Y-8243000D02*
G75*
G03*
X23672000Y-8183000I0J30000D01*
G01*
X23647000Y-9077000D02*
G75*
G02*
X23587000Y-9077000I-30000J0D01*
G01*
X23587000Y-9077000D02*
G75*
G02*
X23647000Y-9077000I30000J0D01*
G01*
X23672000Y-9047000D02*
X23562000Y-9047000D01*
X23562000Y-9107000D02*
G75*
G02*
X23562000Y-9047000I0J30000D01*
G01*
X23562000Y-9107000D02*
X23672000Y-9107000D01*
X23672000Y-9107000D02*
G75*
G03*
X23672000Y-9047000I0J30000D01*
G01*
X24065000Y-8213000D02*
G75*
G02*
X24005000Y-8213000I-30000J0D01*
G01*
X24005000Y-8213000D02*
G75*
G02*
X24065000Y-8213000I30000J0D01*
G01*
X24065000Y-8183000D02*
X24005000Y-8183000D01*
X24005000Y-8243000D02*
G75*
G02*
X24005000Y-8183000I0J30000D01*
G01*
X24005000Y-8243000D02*
X24065000Y-8243000D01*
X24065000Y-8243000D02*
G75*
G03*
X24065000Y-8183000I0J30000D01*
G01*
X24065000Y-9077000D02*
G75*
G02*
X24005000Y-9077000I-30000J0D01*
G01*
X24005000Y-9077000D02*
G75*
G02*
X24065000Y-9077000I30000J0D01*
G01*
X24065000Y-9047000D02*
X24005000Y-9047000D01*
X24005000Y-9107000D02*
G75*
G02*
X24005000Y-9047000I0J30000D01*
G01*
X24005000Y-9107000D02*
X24065000Y-9107000D01*
X24065000Y-9107000D02*
G75*
G03*
X24065000Y-9047000I0J30000D01*
G01*
X11306250Y-1600000D02*
X11306250Y-1680000D01*
X11266250Y-1640000D02*
X11346250Y-1640000D01*
X11266250Y-1680000D02*
X11346250Y-1680000D01*
X11346250Y-1600000D02*
G75*
G02*
X11346250Y-1680000I0J-40000D01*
G01*
X11346250Y-1600000D02*
X11266250Y-1600000D01*
X11266250Y-1600000D02*
G75*
G03*
X11266250Y-1680000I0J-40000D01*
G01*
X11306250Y-2380000D02*
X11306250Y-2460000D01*
X11266250Y-2420000D02*
X11346250Y-2420000D01*
X11266250Y-2460000D02*
X11346250Y-2460000D01*
X11346250Y-2380000D02*
G75*
G02*
X11346250Y-2460000I0J-40000D01*
G01*
X11346250Y-2380000D02*
X11266250Y-2380000D01*
X11266250Y-2380000D02*
G75*
G03*
X11266250Y-2460000I0J-40000D01*
G01*
X11626250Y-1600000D02*
X11626250Y-1680000D01*
X11586250Y-1640000D02*
X11666250Y-1640000D01*
X11586250Y-1680000D02*
X11666250Y-1680000D01*
X11666250Y-1600000D02*
G75*
G02*
X11666250Y-1680000I0J-40000D01*
G01*
X11666250Y-1600000D02*
X11586250Y-1600000D01*
X11586250Y-1600000D02*
G75*
G03*
X11586250Y-1680000I0J-40000D01*
G01*
X11626250Y-2380000D02*
X11626250Y-2460000D01*
X11586250Y-2420000D02*
X11666250Y-2420000D01*
X11586250Y-2460000D02*
X11666250Y-2460000D01*
X11666250Y-2380000D02*
G75*
G02*
X11666250Y-2460000I0J-40000D01*
G01*
X11666250Y-2380000D02*
X11586250Y-2380000D01*
X11586250Y-2380000D02*
G75*
G03*
X11586250Y-2460000I0J-40000D01*
G01*
X18020000Y-1600000D02*
X18020000Y-1680000D01*
X17980000Y-1640000D02*
X18060000Y-1640000D01*
X18060000Y-1600000D02*
X17980000Y-1600000D01*
X17980000Y-1680000D02*
G75*
G02*
X17980000Y-1600000I0J40000D01*
G01*
X17980000Y-1680000D02*
X18060000Y-1680000D01*
X18060000Y-1680000D02*
G75*
G03*
X18060000Y-1600000I0J40000D01*
G01*
X18020000Y-2380000D02*
X18020000Y-2460000D01*
X17980000Y-2420000D02*
X18060000Y-2420000D01*
X18060000Y-2380000D02*
X17980000Y-2380000D01*
X17980000Y-2460000D02*
G75*
G02*
X17980000Y-2380000I0J40000D01*
G01*
X17980000Y-2460000D02*
X18060000Y-2460000D01*
X18060000Y-2460000D02*
G75*
G03*
X18060000Y-2380000I0J40000D01*
G01*
X18340000Y-1600000D02*
X18340000Y-1680000D01*
X18300000Y-1640000D02*
X18380000Y-1640000D01*
X18380000Y-1600000D02*
X18300000Y-1600000D01*
X18300000Y-1680000D02*
G75*
G02*
X18300000Y-1600000I0J40000D01*
G01*
X18300000Y-1680000D02*
X18380000Y-1680000D01*
X18380000Y-1680000D02*
G75*
G03*
X18380000Y-1600000I0J40000D01*
G01*
X18340000Y-2380000D02*
X18340000Y-2460000D01*
X18300000Y-2420000D02*
X18380000Y-2420000D01*
X18380000Y-2380000D02*
X18300000Y-2380000D01*
X18300000Y-2460000D02*
G75*
G02*
X18300000Y-2380000I0J40000D01*
G01*
X18300000Y-2460000D02*
X18380000Y-2460000D01*
X18380000Y-2460000D02*
G75*
G03*
X18380000Y-2380000I0J40000D01*
G01*
X5745356Y-9585356D02*
X5745356Y-9514644D01*
X5674644Y-9514644D01*
X5674644Y-9585356D01*
X5745356Y-9585356D01*
X5999356Y-9585356D02*
X5999356Y-9514644D01*
X5928644Y-9514644D01*
X5928644Y-9585356D01*
X5999356Y-9585356D01*
X6253356Y-9585356D02*
X6253356Y-9514644D01*
X6182644Y-9514644D01*
X6182644Y-9585356D01*
X6253356Y-9585356D01*
X23497356Y-7855356D02*
X23497356Y-7784644D01*
X23426644Y-7784644D01*
X23426644Y-7855356D01*
X23497356Y-7855356D01*
X23751356Y-7855356D02*
X23751356Y-7784644D01*
X23680644Y-7784644D01*
X23680644Y-7855356D01*
X23751356Y-7855356D01*
X24005356Y-7855356D02*
X24005356Y-7784644D01*
X23934644Y-7784644D01*
X23934644Y-7855356D01*
X24005356Y-7855356D01*
D11*
X1684527Y-11270234D02*
X1684527Y-11070234D01*
X1684527Y-11070234D02*
X1732146Y-11070234D01*
X1732146Y-11070234D02*
X1760717Y-11079758D01*
X1760717Y-11079758D02*
X1779765Y-11098805D01*
X1779765Y-11098805D02*
X1789289Y-11117853D01*
X1789289Y-11117853D02*
X1798812Y-11155948D01*
X1798812Y-11155948D02*
X1798812Y-11184520D01*
X1798812Y-11184520D02*
X1789289Y-11222615D01*
X1789289Y-11222615D02*
X1779765Y-11241662D01*
X1779765Y-11241662D02*
X1760717Y-11260710D01*
X1760717Y-11260710D02*
X1732146Y-11270234D01*
X1732146Y-11270234D02*
X1684527Y-11270234D01*
X1884527Y-11270234D02*
X1884527Y-11136900D01*
X1884527Y-11174996D02*
X1894051Y-11155948D01*
X1894051Y-11155948D02*
X1903574Y-11146424D01*
X1903574Y-11146424D02*
X1922622Y-11136900D01*
X1922622Y-11136900D02*
X1941670Y-11136900D01*
X2008336Y-11270234D02*
X2008336Y-11136900D01*
X2008336Y-11070234D02*
X1998812Y-11079758D01*
X1998812Y-11079758D02*
X2008336Y-11089281D01*
X2008336Y-11089281D02*
X2017860Y-11079758D01*
X2017860Y-11079758D02*
X2008336Y-11070234D01*
X2008336Y-11070234D02*
X2008336Y-11089281D01*
X2132146Y-11270234D02*
X2113098Y-11260710D01*
X2113098Y-11260710D02*
X2103574Y-11241662D01*
X2103574Y-11241662D02*
X2103574Y-11070234D01*
X2236908Y-11270234D02*
X2217860Y-11260710D01*
X2217860Y-11260710D02*
X2208336Y-11241662D01*
X2208336Y-11241662D02*
X2208336Y-11070234D01*
X2465479Y-11270234D02*
X2465479Y-11070234D01*
X2465479Y-11070234D02*
X2532146Y-11213091D01*
X2532146Y-11213091D02*
X2598813Y-11070234D01*
X2598813Y-11070234D02*
X2598813Y-11270234D01*
X2779765Y-11270234D02*
X2779765Y-11165472D01*
X2779765Y-11165472D02*
X2770241Y-11146424D01*
X2770241Y-11146424D02*
X2751194Y-11136900D01*
X2751194Y-11136900D02*
X2713098Y-11136900D01*
X2713098Y-11136900D02*
X2694051Y-11146424D01*
X2779765Y-11260710D02*
X2760717Y-11270234D01*
X2760717Y-11270234D02*
X2713098Y-11270234D01*
X2713098Y-11270234D02*
X2694051Y-11260710D01*
X2694051Y-11260710D02*
X2684527Y-11241662D01*
X2684527Y-11241662D02*
X2684527Y-11222615D01*
X2684527Y-11222615D02*
X2694051Y-11203567D01*
X2694051Y-11203567D02*
X2713098Y-11194043D01*
X2713098Y-11194043D02*
X2760717Y-11194043D01*
X2760717Y-11194043D02*
X2779765Y-11184520D01*
X2875003Y-11136900D02*
X2875003Y-11336900D01*
X2875003Y-11146424D02*
X2894051Y-11136900D01*
X2894051Y-11136900D02*
X2932146Y-11136900D01*
X2932146Y-11136900D02*
X2951193Y-11146424D01*
X2951193Y-11146424D02*
X2960717Y-11155948D01*
X2960717Y-11155948D02*
X2970241Y-11174996D01*
X2970241Y-11174996D02*
X2970241Y-11232138D01*
X2970241Y-11232138D02*
X2960717Y-11251186D01*
X2960717Y-11251186D02*
X2951193Y-11260710D01*
X2951193Y-11260710D02*
X2932146Y-11270234D01*
X2932146Y-11270234D02*
X2894051Y-11270234D01*
X2894051Y-11270234D02*
X2875003Y-11260710D01*
X3055955Y-11251186D02*
X3065479Y-11260710D01*
X3065479Y-11260710D02*
X3055955Y-11270234D01*
X3055955Y-11270234D02*
X3046432Y-11260710D01*
X3046432Y-11260710D02*
X3055955Y-11251186D01*
X3055955Y-11251186D02*
X3055955Y-11270234D01*
X3055955Y-11146424D02*
X3065479Y-11155948D01*
X3065479Y-11155948D02*
X3055955Y-11165472D01*
X3055955Y-11165472D02*
X3046432Y-11155948D01*
X3046432Y-11155948D02*
X3055955Y-11146424D01*
X3055955Y-11146424D02*
X3055955Y-11165472D01*
D10*
X1393750Y-11583750D02*
X1423750Y-11613750D01*
X1423750Y-11583750D02*
X1393750Y-11613750D01*
D11*
X1722622Y-11490234D02*
X1741670Y-11490234D01*
X1741670Y-11490234D02*
X1760717Y-11499758D01*
X1760717Y-11499758D02*
X1770241Y-11509281D01*
X1770241Y-11509281D02*
X1779765Y-11528329D01*
X1779765Y-11528329D02*
X1789289Y-11566424D01*
X1789289Y-11566424D02*
X1789289Y-11614043D01*
X1789289Y-11614043D02*
X1779765Y-11652138D01*
X1779765Y-11652138D02*
X1770241Y-11671186D01*
X1770241Y-11671186D02*
X1760717Y-11680710D01*
X1760717Y-11680710D02*
X1741670Y-11690234D01*
X1741670Y-11690234D02*
X1722622Y-11690234D01*
X1722622Y-11690234D02*
X1703574Y-11680710D01*
X1703574Y-11680710D02*
X1694051Y-11671186D01*
X1694051Y-11671186D02*
X1684527Y-11652138D01*
X1684527Y-11652138D02*
X1675003Y-11614043D01*
X1675003Y-11614043D02*
X1675003Y-11566424D01*
X1675003Y-11566424D02*
X1684527Y-11528329D01*
X1684527Y-11528329D02*
X1694051Y-11509281D01*
X1694051Y-11509281D02*
X1703574Y-11499758D01*
X1703574Y-11499758D02*
X1722622Y-11490234D01*
X1875003Y-11671186D02*
X1884527Y-11680710D01*
X1884527Y-11680710D02*
X1875003Y-11690234D01*
X1875003Y-11690234D02*
X1865479Y-11680710D01*
X1865479Y-11680710D02*
X1875003Y-11671186D01*
X1875003Y-11671186D02*
X1875003Y-11690234D01*
X1951193Y-11490234D02*
X2075003Y-11490234D01*
X2075003Y-11490234D02*
X2008336Y-11566424D01*
X2008336Y-11566424D02*
X2036908Y-11566424D01*
X2036908Y-11566424D02*
X2055955Y-11575948D01*
X2055955Y-11575948D02*
X2065479Y-11585472D01*
X2065479Y-11585472D02*
X2075003Y-11604519D01*
X2075003Y-11604519D02*
X2075003Y-11652138D01*
X2075003Y-11652138D02*
X2065479Y-11671186D01*
X2065479Y-11671186D02*
X2055955Y-11680710D01*
X2055955Y-11680710D02*
X2036908Y-11690234D01*
X2036908Y-11690234D02*
X1979765Y-11690234D01*
X1979765Y-11690234D02*
X1960717Y-11680710D01*
X1960717Y-11680710D02*
X1951193Y-11671186D01*
X2198813Y-11490234D02*
X2217860Y-11490234D01*
X2217860Y-11490234D02*
X2236908Y-11499758D01*
X2236908Y-11499758D02*
X2246432Y-11509281D01*
X2246432Y-11509281D02*
X2255955Y-11528329D01*
X2255955Y-11528329D02*
X2265479Y-11566424D01*
X2265479Y-11566424D02*
X2265479Y-11614043D01*
X2265479Y-11614043D02*
X2255955Y-11652138D01*
X2255955Y-11652138D02*
X2246432Y-11671186D01*
X2246432Y-11671186D02*
X2236908Y-11680710D01*
X2236908Y-11680710D02*
X2217860Y-11690234D01*
X2217860Y-11690234D02*
X2198813Y-11690234D01*
X2198813Y-11690234D02*
X2179765Y-11680710D01*
X2179765Y-11680710D02*
X2170241Y-11671186D01*
X2170241Y-11671186D02*
X2160717Y-11652138D01*
X2160717Y-11652138D02*
X2151194Y-11614043D01*
X2151194Y-11614043D02*
X2151194Y-11566424D01*
X2151194Y-11566424D02*
X2160717Y-11528329D01*
X2160717Y-11528329D02*
X2170241Y-11509281D01*
X2170241Y-11509281D02*
X2179765Y-11499758D01*
X2179765Y-11499758D02*
X2198813Y-11490234D01*
X2389289Y-11490234D02*
X2408336Y-11490234D01*
X2408336Y-11490234D02*
X2427384Y-11499758D01*
X2427384Y-11499758D02*
X2436908Y-11509281D01*
X2436908Y-11509281D02*
X2446432Y-11528329D01*
X2446432Y-11528329D02*
X2455955Y-11566424D01*
X2455955Y-11566424D02*
X2455955Y-11614043D01*
X2455955Y-11614043D02*
X2446432Y-11652138D01*
X2446432Y-11652138D02*
X2436908Y-11671186D01*
X2436908Y-11671186D02*
X2427384Y-11680710D01*
X2427384Y-11680710D02*
X2408336Y-11690234D01*
X2408336Y-11690234D02*
X2389289Y-11690234D01*
X2389289Y-11690234D02*
X2370241Y-11680710D01*
X2370241Y-11680710D02*
X2360717Y-11671186D01*
X2360717Y-11671186D02*
X2351194Y-11652138D01*
X2351194Y-11652138D02*
X2341670Y-11614043D01*
X2341670Y-11614043D02*
X2341670Y-11566424D01*
X2341670Y-11566424D02*
X2351194Y-11528329D01*
X2351194Y-11528329D02*
X2360717Y-11509281D01*
X2360717Y-11509281D02*
X2370241Y-11499758D01*
X2370241Y-11499758D02*
X2389289Y-11490234D01*
X2541670Y-11690234D02*
X2541670Y-11556900D01*
X2541670Y-11575948D02*
X2551194Y-11566424D01*
X2551194Y-11566424D02*
X2570241Y-11556900D01*
X2570241Y-11556900D02*
X2598813Y-11556900D01*
X2598813Y-11556900D02*
X2617860Y-11566424D01*
X2617860Y-11566424D02*
X2627384Y-11585472D01*
X2627384Y-11585472D02*
X2627384Y-11690234D01*
X2627384Y-11585472D02*
X2636908Y-11566424D01*
X2636908Y-11566424D02*
X2655955Y-11556900D01*
X2655955Y-11556900D02*
X2684527Y-11556900D01*
X2684527Y-11556900D02*
X2703575Y-11566424D01*
X2703575Y-11566424D02*
X2713098Y-11585472D01*
X2713098Y-11585472D02*
X2713098Y-11690234D01*
X2808336Y-11690234D02*
X2808336Y-11556900D01*
X2808336Y-11575948D02*
X2817860Y-11566424D01*
X2817860Y-11566424D02*
X2836908Y-11556900D01*
X2836908Y-11556900D02*
X2865479Y-11556900D01*
X2865479Y-11556900D02*
X2884527Y-11566424D01*
X2884527Y-11566424D02*
X2894051Y-11585472D01*
X2894051Y-11585472D02*
X2894051Y-11690234D01*
X2894051Y-11585472D02*
X2903574Y-11566424D01*
X2903574Y-11566424D02*
X2922622Y-11556900D01*
X2922622Y-11556900D02*
X2951193Y-11556900D01*
X2951193Y-11556900D02*
X2970241Y-11566424D01*
X2970241Y-11566424D02*
X2979765Y-11585472D01*
X2979765Y-11585472D02*
X2979765Y-11690234D01*
X3370241Y-11480710D02*
X3198813Y-11737853D01*
X3627384Y-11490234D02*
X3646432Y-11490234D01*
X3646432Y-11490234D02*
X3665479Y-11499758D01*
X3665479Y-11499758D02*
X3675003Y-11509281D01*
X3675003Y-11509281D02*
X3684527Y-11528329D01*
X3684527Y-11528329D02*
X3694051Y-11566424D01*
X3694051Y-11566424D02*
X3694051Y-11614043D01*
X3694051Y-11614043D02*
X3684527Y-11652138D01*
X3684527Y-11652138D02*
X3675003Y-11671186D01*
X3675003Y-11671186D02*
X3665479Y-11680710D01*
X3665479Y-11680710D02*
X3646432Y-11690234D01*
X3646432Y-11690234D02*
X3627384Y-11690234D01*
X3627384Y-11690234D02*
X3608336Y-11680710D01*
X3608336Y-11680710D02*
X3598813Y-11671186D01*
X3598813Y-11671186D02*
X3589289Y-11652138D01*
X3589289Y-11652138D02*
X3579765Y-11614043D01*
X3579765Y-11614043D02*
X3579765Y-11566424D01*
X3579765Y-11566424D02*
X3589289Y-11528329D01*
X3589289Y-11528329D02*
X3598813Y-11509281D01*
X3598813Y-11509281D02*
X3608336Y-11499758D01*
X3608336Y-11499758D02*
X3627384Y-11490234D01*
X3779765Y-11671186D02*
X3789289Y-11680710D01*
X3789289Y-11680710D02*
X3779765Y-11690234D01*
X3779765Y-11690234D02*
X3770241Y-11680710D01*
X3770241Y-11680710D02*
X3779765Y-11671186D01*
X3779765Y-11671186D02*
X3779765Y-11690234D01*
X3913098Y-11490234D02*
X3932146Y-11490234D01*
X3932146Y-11490234D02*
X3951194Y-11499758D01*
X3951194Y-11499758D02*
X3960717Y-11509281D01*
X3960717Y-11509281D02*
X3970241Y-11528329D01*
X3970241Y-11528329D02*
X3979765Y-11566424D01*
X3979765Y-11566424D02*
X3979765Y-11614043D01*
X3979765Y-11614043D02*
X3970241Y-11652138D01*
X3970241Y-11652138D02*
X3960717Y-11671186D01*
X3960717Y-11671186D02*
X3951194Y-11680710D01*
X3951194Y-11680710D02*
X3932146Y-11690234D01*
X3932146Y-11690234D02*
X3913098Y-11690234D01*
X3913098Y-11690234D02*
X3894051Y-11680710D01*
X3894051Y-11680710D02*
X3884527Y-11671186D01*
X3884527Y-11671186D02*
X3875003Y-11652138D01*
X3875003Y-11652138D02*
X3865479Y-11614043D01*
X3865479Y-11614043D02*
X3865479Y-11566424D01*
X3865479Y-11566424D02*
X3875003Y-11528329D01*
X3875003Y-11528329D02*
X3884527Y-11509281D01*
X3884527Y-11509281D02*
X3894051Y-11499758D01*
X3894051Y-11499758D02*
X3913098Y-11490234D01*
X4170241Y-11690234D02*
X4055956Y-11690234D01*
X4113098Y-11690234D02*
X4113098Y-11490234D01*
X4113098Y-11490234D02*
X4094051Y-11518805D01*
X4094051Y-11518805D02*
X4075003Y-11537853D01*
X4075003Y-11537853D02*
X4055956Y-11547377D01*
X4360718Y-11690234D02*
X4246432Y-11690234D01*
X4303575Y-11690234D02*
X4303575Y-11490234D01*
X4303575Y-11490234D02*
X4284527Y-11518805D01*
X4284527Y-11518805D02*
X4265479Y-11537853D01*
X4265479Y-11537853D02*
X4246432Y-11547377D01*
X4475003Y-11575948D02*
X4455956Y-11566424D01*
X4455956Y-11566424D02*
X4446432Y-11556900D01*
X4446432Y-11556900D02*
X4436908Y-11537853D01*
X4436908Y-11537853D02*
X4436908Y-11528329D01*
X4436908Y-11528329D02*
X4446432Y-11509281D01*
X4446432Y-11509281D02*
X4455956Y-11499758D01*
X4455956Y-11499758D02*
X4475003Y-11490234D01*
X4475003Y-11490234D02*
X4513099Y-11490234D01*
X4513099Y-11490234D02*
X4532146Y-11499758D01*
X4532146Y-11499758D02*
X4541670Y-11509281D01*
X4541670Y-11509281D02*
X4551194Y-11528329D01*
X4551194Y-11528329D02*
X4551194Y-11537853D01*
X4551194Y-11537853D02*
X4541670Y-11556900D01*
X4541670Y-11556900D02*
X4532146Y-11566424D01*
X4532146Y-11566424D02*
X4513099Y-11575948D01*
X4513099Y-11575948D02*
X4475003Y-11575948D01*
X4475003Y-11575948D02*
X4455956Y-11585472D01*
X4455956Y-11585472D02*
X4446432Y-11594996D01*
X4446432Y-11594996D02*
X4436908Y-11614043D01*
X4436908Y-11614043D02*
X4436908Y-11652138D01*
X4436908Y-11652138D02*
X4446432Y-11671186D01*
X4446432Y-11671186D02*
X4455956Y-11680710D01*
X4455956Y-11680710D02*
X4475003Y-11690234D01*
X4475003Y-11690234D02*
X4513099Y-11690234D01*
X4513099Y-11690234D02*
X4532146Y-11680710D01*
X4532146Y-11680710D02*
X4541670Y-11671186D01*
X4541670Y-11671186D02*
X4551194Y-11652138D01*
X4551194Y-11652138D02*
X4551194Y-11614043D01*
X4551194Y-11614043D02*
X4541670Y-11594996D01*
X4541670Y-11594996D02*
X4532146Y-11585472D01*
X4532146Y-11585472D02*
X4513099Y-11575948D01*
X4627384Y-11490234D02*
X4627384Y-11528329D01*
X4703575Y-11490234D02*
X4703575Y-11528329D01*
X4998813Y-11766424D02*
X4989289Y-11756900D01*
X4989289Y-11756900D02*
X4970241Y-11728329D01*
X4970241Y-11728329D02*
X4960718Y-11709281D01*
X4960718Y-11709281D02*
X4951194Y-11680710D01*
X4951194Y-11680710D02*
X4941670Y-11633091D01*
X4941670Y-11633091D02*
X4941670Y-11594996D01*
X4941670Y-11594996D02*
X4951194Y-11547377D01*
X4951194Y-11547377D02*
X4960718Y-11518805D01*
X4960718Y-11518805D02*
X4970241Y-11499758D01*
X4970241Y-11499758D02*
X4989289Y-11471186D01*
X4989289Y-11471186D02*
X4998813Y-11461662D01*
X5179765Y-11690234D02*
X5065480Y-11690234D01*
X5122622Y-11690234D02*
X5122622Y-11490234D01*
X5122622Y-11490234D02*
X5103575Y-11518805D01*
X5103575Y-11518805D02*
X5084527Y-11537853D01*
X5084527Y-11537853D02*
X5065480Y-11547377D01*
X5351194Y-11556900D02*
X5351194Y-11690234D01*
X5303575Y-11480710D02*
X5255956Y-11623567D01*
X5255956Y-11623567D02*
X5379765Y-11623567D01*
X5541670Y-11556900D02*
X5541670Y-11690234D01*
X5494051Y-11480710D02*
X5446432Y-11623567D01*
X5446432Y-11623567D02*
X5570241Y-11623567D01*
X5798813Y-11690234D02*
X5798813Y-11490234D01*
X5884527Y-11690234D02*
X5884527Y-11585472D01*
X5884527Y-11585472D02*
X5875003Y-11566424D01*
X5875003Y-11566424D02*
X5855956Y-11556900D01*
X5855956Y-11556900D02*
X5827384Y-11556900D01*
X5827384Y-11556900D02*
X5808337Y-11566424D01*
X5808337Y-11566424D02*
X5798813Y-11575948D01*
X6008337Y-11690234D02*
X5989289Y-11680710D01*
X5989289Y-11680710D02*
X5979765Y-11671186D01*
X5979765Y-11671186D02*
X5970241Y-11652138D01*
X5970241Y-11652138D02*
X5970241Y-11594996D01*
X5970241Y-11594996D02*
X5979765Y-11575948D01*
X5979765Y-11575948D02*
X5989289Y-11566424D01*
X5989289Y-11566424D02*
X6008337Y-11556900D01*
X6008337Y-11556900D02*
X6036908Y-11556900D01*
X6036908Y-11556900D02*
X6055956Y-11566424D01*
X6055956Y-11566424D02*
X6065480Y-11575948D01*
X6065480Y-11575948D02*
X6075003Y-11594996D01*
X6075003Y-11594996D02*
X6075003Y-11652138D01*
X6075003Y-11652138D02*
X6065480Y-11671186D01*
X6065480Y-11671186D02*
X6055956Y-11680710D01*
X6055956Y-11680710D02*
X6036908Y-11690234D01*
X6036908Y-11690234D02*
X6008337Y-11690234D01*
X6189289Y-11690234D02*
X6170241Y-11680710D01*
X6170241Y-11680710D02*
X6160718Y-11661662D01*
X6160718Y-11661662D02*
X6160718Y-11490234D01*
X6341670Y-11680710D02*
X6322622Y-11690234D01*
X6322622Y-11690234D02*
X6284527Y-11690234D01*
X6284527Y-11690234D02*
X6265480Y-11680710D01*
X6265480Y-11680710D02*
X6255956Y-11661662D01*
X6255956Y-11661662D02*
X6255956Y-11585472D01*
X6255956Y-11585472D02*
X6265480Y-11566424D01*
X6265480Y-11566424D02*
X6284527Y-11556900D01*
X6284527Y-11556900D02*
X6322622Y-11556900D01*
X6322622Y-11556900D02*
X6341670Y-11566424D01*
X6341670Y-11566424D02*
X6351194Y-11585472D01*
X6351194Y-11585472D02*
X6351194Y-11604519D01*
X6351194Y-11604519D02*
X6255956Y-11623567D01*
X6427384Y-11680710D02*
X6446432Y-11690234D01*
X6446432Y-11690234D02*
X6484527Y-11690234D01*
X6484527Y-11690234D02*
X6503575Y-11680710D01*
X6503575Y-11680710D02*
X6513099Y-11661662D01*
X6513099Y-11661662D02*
X6513099Y-11652138D01*
X6513099Y-11652138D02*
X6503575Y-11633091D01*
X6503575Y-11633091D02*
X6484527Y-11623567D01*
X6484527Y-11623567D02*
X6455956Y-11623567D01*
X6455956Y-11623567D02*
X6436908Y-11614043D01*
X6436908Y-11614043D02*
X6427384Y-11594996D01*
X6427384Y-11594996D02*
X6427384Y-11585472D01*
X6427384Y-11585472D02*
X6436908Y-11566424D01*
X6436908Y-11566424D02*
X6455956Y-11556900D01*
X6455956Y-11556900D02*
X6484527Y-11556900D01*
X6484527Y-11556900D02*
X6503575Y-11566424D01*
X6579765Y-11766424D02*
X6589289Y-11756900D01*
X6589289Y-11756900D02*
X6608337Y-11728329D01*
X6608337Y-11728329D02*
X6617861Y-11709281D01*
X6617861Y-11709281D02*
X6627384Y-11680710D01*
X6627384Y-11680710D02*
X6636908Y-11633091D01*
X6636908Y-11633091D02*
X6636908Y-11594996D01*
X6636908Y-11594996D02*
X6627384Y-11547377D01*
X6627384Y-11547377D02*
X6617861Y-11518805D01*
X6617861Y-11518805D02*
X6608337Y-11499758D01*
X6608337Y-11499758D02*
X6589289Y-11471186D01*
X6589289Y-11471186D02*
X6579765Y-11461662D01*
D10*
X1423750Y-11862750D02*
G75*
G02*
X1363750Y-11862750I-30000J0D01*
G01*
X1363750Y-11862750D02*
G75*
G02*
X1423750Y-11862750I30000J0D01*
G01*
D11*
X1722622Y-11754234D02*
X1741670Y-11754234D01*
X1741670Y-11754234D02*
X1760717Y-11763758D01*
X1760717Y-11763758D02*
X1770241Y-11773281D01*
X1770241Y-11773281D02*
X1779765Y-11792329D01*
X1779765Y-11792329D02*
X1789289Y-11830424D01*
X1789289Y-11830424D02*
X1789289Y-11878043D01*
X1789289Y-11878043D02*
X1779765Y-11916138D01*
X1779765Y-11916138D02*
X1770241Y-11935186D01*
X1770241Y-11935186D02*
X1760717Y-11944710D01*
X1760717Y-11944710D02*
X1741670Y-11954234D01*
X1741670Y-11954234D02*
X1722622Y-11954234D01*
X1722622Y-11954234D02*
X1703574Y-11944710D01*
X1703574Y-11944710D02*
X1694051Y-11935186D01*
X1694051Y-11935186D02*
X1684527Y-11916138D01*
X1684527Y-11916138D02*
X1675003Y-11878043D01*
X1675003Y-11878043D02*
X1675003Y-11830424D01*
X1675003Y-11830424D02*
X1684527Y-11792329D01*
X1684527Y-11792329D02*
X1694051Y-11773281D01*
X1694051Y-11773281D02*
X1703574Y-11763758D01*
X1703574Y-11763758D02*
X1722622Y-11754234D01*
X1875003Y-11935186D02*
X1884527Y-11944710D01*
X1884527Y-11944710D02*
X1875003Y-11954234D01*
X1875003Y-11954234D02*
X1865479Y-11944710D01*
X1865479Y-11944710D02*
X1875003Y-11935186D01*
X1875003Y-11935186D02*
X1875003Y-11954234D01*
X2055955Y-11754234D02*
X2017860Y-11754234D01*
X2017860Y-11754234D02*
X1998812Y-11763758D01*
X1998812Y-11763758D02*
X1989289Y-11773281D01*
X1989289Y-11773281D02*
X1970241Y-11801853D01*
X1970241Y-11801853D02*
X1960717Y-11839948D01*
X1960717Y-11839948D02*
X1960717Y-11916138D01*
X1960717Y-11916138D02*
X1970241Y-11935186D01*
X1970241Y-11935186D02*
X1979765Y-11944710D01*
X1979765Y-11944710D02*
X1998812Y-11954234D01*
X1998812Y-11954234D02*
X2036908Y-11954234D01*
X2036908Y-11954234D02*
X2055955Y-11944710D01*
X2055955Y-11944710D02*
X2065479Y-11935186D01*
X2065479Y-11935186D02*
X2075003Y-11916138D01*
X2075003Y-11916138D02*
X2075003Y-11868519D01*
X2075003Y-11868519D02*
X2065479Y-11849472D01*
X2065479Y-11849472D02*
X2055955Y-11839948D01*
X2055955Y-11839948D02*
X2036908Y-11830424D01*
X2036908Y-11830424D02*
X1998812Y-11830424D01*
X1998812Y-11830424D02*
X1979765Y-11839948D01*
X1979765Y-11839948D02*
X1970241Y-11849472D01*
X1970241Y-11849472D02*
X1960717Y-11868519D01*
X2198813Y-11754234D02*
X2217860Y-11754234D01*
X2217860Y-11754234D02*
X2236908Y-11763758D01*
X2236908Y-11763758D02*
X2246432Y-11773281D01*
X2246432Y-11773281D02*
X2255955Y-11792329D01*
X2255955Y-11792329D02*
X2265479Y-11830424D01*
X2265479Y-11830424D02*
X2265479Y-11878043D01*
X2265479Y-11878043D02*
X2255955Y-11916138D01*
X2255955Y-11916138D02*
X2246432Y-11935186D01*
X2246432Y-11935186D02*
X2236908Y-11944710D01*
X2236908Y-11944710D02*
X2217860Y-11954234D01*
X2217860Y-11954234D02*
X2198813Y-11954234D01*
X2198813Y-11954234D02*
X2179765Y-11944710D01*
X2179765Y-11944710D02*
X2170241Y-11935186D01*
X2170241Y-11935186D02*
X2160717Y-11916138D01*
X2160717Y-11916138D02*
X2151194Y-11878043D01*
X2151194Y-11878043D02*
X2151194Y-11830424D01*
X2151194Y-11830424D02*
X2160717Y-11792329D01*
X2160717Y-11792329D02*
X2170241Y-11773281D01*
X2170241Y-11773281D02*
X2179765Y-11763758D01*
X2179765Y-11763758D02*
X2198813Y-11754234D01*
X2389289Y-11754234D02*
X2408336Y-11754234D01*
X2408336Y-11754234D02*
X2427384Y-11763758D01*
X2427384Y-11763758D02*
X2436908Y-11773281D01*
X2436908Y-11773281D02*
X2446432Y-11792329D01*
X2446432Y-11792329D02*
X2455955Y-11830424D01*
X2455955Y-11830424D02*
X2455955Y-11878043D01*
X2455955Y-11878043D02*
X2446432Y-11916138D01*
X2446432Y-11916138D02*
X2436908Y-11935186D01*
X2436908Y-11935186D02*
X2427384Y-11944710D01*
X2427384Y-11944710D02*
X2408336Y-11954234D01*
X2408336Y-11954234D02*
X2389289Y-11954234D01*
X2389289Y-11954234D02*
X2370241Y-11944710D01*
X2370241Y-11944710D02*
X2360717Y-11935186D01*
X2360717Y-11935186D02*
X2351194Y-11916138D01*
X2351194Y-11916138D02*
X2341670Y-11878043D01*
X2341670Y-11878043D02*
X2341670Y-11830424D01*
X2341670Y-11830424D02*
X2351194Y-11792329D01*
X2351194Y-11792329D02*
X2360717Y-11773281D01*
X2360717Y-11773281D02*
X2370241Y-11763758D01*
X2370241Y-11763758D02*
X2389289Y-11754234D01*
X2541670Y-11954234D02*
X2541670Y-11820900D01*
X2541670Y-11839948D02*
X2551194Y-11830424D01*
X2551194Y-11830424D02*
X2570241Y-11820900D01*
X2570241Y-11820900D02*
X2598813Y-11820900D01*
X2598813Y-11820900D02*
X2617860Y-11830424D01*
X2617860Y-11830424D02*
X2627384Y-11849472D01*
X2627384Y-11849472D02*
X2627384Y-11954234D01*
X2627384Y-11849472D02*
X2636908Y-11830424D01*
X2636908Y-11830424D02*
X2655955Y-11820900D01*
X2655955Y-11820900D02*
X2684527Y-11820900D01*
X2684527Y-11820900D02*
X2703575Y-11830424D01*
X2703575Y-11830424D02*
X2713098Y-11849472D01*
X2713098Y-11849472D02*
X2713098Y-11954234D01*
X2808336Y-11954234D02*
X2808336Y-11820900D01*
X2808336Y-11839948D02*
X2817860Y-11830424D01*
X2817860Y-11830424D02*
X2836908Y-11820900D01*
X2836908Y-11820900D02*
X2865479Y-11820900D01*
X2865479Y-11820900D02*
X2884527Y-11830424D01*
X2884527Y-11830424D02*
X2894051Y-11849472D01*
X2894051Y-11849472D02*
X2894051Y-11954234D01*
X2894051Y-11849472D02*
X2903574Y-11830424D01*
X2903574Y-11830424D02*
X2922622Y-11820900D01*
X2922622Y-11820900D02*
X2951193Y-11820900D01*
X2951193Y-11820900D02*
X2970241Y-11830424D01*
X2970241Y-11830424D02*
X2979765Y-11849472D01*
X2979765Y-11849472D02*
X2979765Y-11954234D01*
X3370241Y-11744710D02*
X3198813Y-12001853D01*
X3627384Y-11754234D02*
X3646432Y-11754234D01*
X3646432Y-11754234D02*
X3665479Y-11763758D01*
X3665479Y-11763758D02*
X3675003Y-11773281D01*
X3675003Y-11773281D02*
X3684527Y-11792329D01*
X3684527Y-11792329D02*
X3694051Y-11830424D01*
X3694051Y-11830424D02*
X3694051Y-11878043D01*
X3694051Y-11878043D02*
X3684527Y-11916138D01*
X3684527Y-11916138D02*
X3675003Y-11935186D01*
X3675003Y-11935186D02*
X3665479Y-11944710D01*
X3665479Y-11944710D02*
X3646432Y-11954234D01*
X3646432Y-11954234D02*
X3627384Y-11954234D01*
X3627384Y-11954234D02*
X3608336Y-11944710D01*
X3608336Y-11944710D02*
X3598813Y-11935186D01*
X3598813Y-11935186D02*
X3589289Y-11916138D01*
X3589289Y-11916138D02*
X3579765Y-11878043D01*
X3579765Y-11878043D02*
X3579765Y-11830424D01*
X3579765Y-11830424D02*
X3589289Y-11792329D01*
X3589289Y-11792329D02*
X3598813Y-11773281D01*
X3598813Y-11773281D02*
X3608336Y-11763758D01*
X3608336Y-11763758D02*
X3627384Y-11754234D01*
X3779765Y-11935186D02*
X3789289Y-11944710D01*
X3789289Y-11944710D02*
X3779765Y-11954234D01*
X3779765Y-11954234D02*
X3770241Y-11944710D01*
X3770241Y-11944710D02*
X3779765Y-11935186D01*
X3779765Y-11935186D02*
X3779765Y-11954234D01*
X3913098Y-11754234D02*
X3932146Y-11754234D01*
X3932146Y-11754234D02*
X3951194Y-11763758D01*
X3951194Y-11763758D02*
X3960717Y-11773281D01*
X3960717Y-11773281D02*
X3970241Y-11792329D01*
X3970241Y-11792329D02*
X3979765Y-11830424D01*
X3979765Y-11830424D02*
X3979765Y-11878043D01*
X3979765Y-11878043D02*
X3970241Y-11916138D01*
X3970241Y-11916138D02*
X3960717Y-11935186D01*
X3960717Y-11935186D02*
X3951194Y-11944710D01*
X3951194Y-11944710D02*
X3932146Y-11954234D01*
X3932146Y-11954234D02*
X3913098Y-11954234D01*
X3913098Y-11954234D02*
X3894051Y-11944710D01*
X3894051Y-11944710D02*
X3884527Y-11935186D01*
X3884527Y-11935186D02*
X3875003Y-11916138D01*
X3875003Y-11916138D02*
X3865479Y-11878043D01*
X3865479Y-11878043D02*
X3865479Y-11830424D01*
X3865479Y-11830424D02*
X3875003Y-11792329D01*
X3875003Y-11792329D02*
X3884527Y-11773281D01*
X3884527Y-11773281D02*
X3894051Y-11763758D01*
X3894051Y-11763758D02*
X3913098Y-11754234D01*
X4055956Y-11773281D02*
X4065479Y-11763758D01*
X4065479Y-11763758D02*
X4084527Y-11754234D01*
X4084527Y-11754234D02*
X4132146Y-11754234D01*
X4132146Y-11754234D02*
X4151194Y-11763758D01*
X4151194Y-11763758D02*
X4160717Y-11773281D01*
X4160717Y-11773281D02*
X4170241Y-11792329D01*
X4170241Y-11792329D02*
X4170241Y-11811377D01*
X4170241Y-11811377D02*
X4160717Y-11839948D01*
X4160717Y-11839948D02*
X4046432Y-11954234D01*
X4046432Y-11954234D02*
X4170241Y-11954234D01*
X4236908Y-11754234D02*
X4360718Y-11754234D01*
X4360718Y-11754234D02*
X4294051Y-11830424D01*
X4294051Y-11830424D02*
X4322622Y-11830424D01*
X4322622Y-11830424D02*
X4341670Y-11839948D01*
X4341670Y-11839948D02*
X4351194Y-11849472D01*
X4351194Y-11849472D02*
X4360718Y-11868519D01*
X4360718Y-11868519D02*
X4360718Y-11916138D01*
X4360718Y-11916138D02*
X4351194Y-11935186D01*
X4351194Y-11935186D02*
X4341670Y-11944710D01*
X4341670Y-11944710D02*
X4322622Y-11954234D01*
X4322622Y-11954234D02*
X4265479Y-11954234D01*
X4265479Y-11954234D02*
X4246432Y-11944710D01*
X4246432Y-11944710D02*
X4236908Y-11935186D01*
X4532146Y-11754234D02*
X4494051Y-11754234D01*
X4494051Y-11754234D02*
X4475003Y-11763758D01*
X4475003Y-11763758D02*
X4465479Y-11773281D01*
X4465479Y-11773281D02*
X4446432Y-11801853D01*
X4446432Y-11801853D02*
X4436908Y-11839948D01*
X4436908Y-11839948D02*
X4436908Y-11916138D01*
X4436908Y-11916138D02*
X4446432Y-11935186D01*
X4446432Y-11935186D02*
X4455956Y-11944710D01*
X4455956Y-11944710D02*
X4475003Y-11954234D01*
X4475003Y-11954234D02*
X4513099Y-11954234D01*
X4513099Y-11954234D02*
X4532146Y-11944710D01*
X4532146Y-11944710D02*
X4541670Y-11935186D01*
X4541670Y-11935186D02*
X4551194Y-11916138D01*
X4551194Y-11916138D02*
X4551194Y-11868519D01*
X4551194Y-11868519D02*
X4541670Y-11849472D01*
X4541670Y-11849472D02*
X4532146Y-11839948D01*
X4532146Y-11839948D02*
X4513099Y-11830424D01*
X4513099Y-11830424D02*
X4475003Y-11830424D01*
X4475003Y-11830424D02*
X4455956Y-11839948D01*
X4455956Y-11839948D02*
X4446432Y-11849472D01*
X4446432Y-11849472D02*
X4436908Y-11868519D01*
X4627384Y-11754234D02*
X4627384Y-11792329D01*
X4703575Y-11754234D02*
X4703575Y-11792329D01*
X4998813Y-12030424D02*
X4989289Y-12020900D01*
X4989289Y-12020900D02*
X4970241Y-11992329D01*
X4970241Y-11992329D02*
X4960718Y-11973281D01*
X4960718Y-11973281D02*
X4951194Y-11944710D01*
X4951194Y-11944710D02*
X4941670Y-11897091D01*
X4941670Y-11897091D02*
X4941670Y-11858996D01*
X4941670Y-11858996D02*
X4951194Y-11811377D01*
X4951194Y-11811377D02*
X4960718Y-11782805D01*
X4960718Y-11782805D02*
X4970241Y-11763758D01*
X4970241Y-11763758D02*
X4989289Y-11735186D01*
X4989289Y-11735186D02*
X4998813Y-11725662D01*
X5113099Y-11754234D02*
X5132146Y-11754234D01*
X5132146Y-11754234D02*
X5151194Y-11763758D01*
X5151194Y-11763758D02*
X5160718Y-11773281D01*
X5160718Y-11773281D02*
X5170241Y-11792329D01*
X5170241Y-11792329D02*
X5179765Y-11830424D01*
X5179765Y-11830424D02*
X5179765Y-11878043D01*
X5179765Y-11878043D02*
X5170241Y-11916138D01*
X5170241Y-11916138D02*
X5160718Y-11935186D01*
X5160718Y-11935186D02*
X5151194Y-11944710D01*
X5151194Y-11944710D02*
X5132146Y-11954234D01*
X5132146Y-11954234D02*
X5113099Y-11954234D01*
X5113099Y-11954234D02*
X5094051Y-11944710D01*
X5094051Y-11944710D02*
X5084527Y-11935186D01*
X5084527Y-11935186D02*
X5075003Y-11916138D01*
X5075003Y-11916138D02*
X5065480Y-11878043D01*
X5065480Y-11878043D02*
X5065480Y-11830424D01*
X5065480Y-11830424D02*
X5075003Y-11792329D01*
X5075003Y-11792329D02*
X5084527Y-11773281D01*
X5084527Y-11773281D02*
X5094051Y-11763758D01*
X5094051Y-11763758D02*
X5113099Y-11754234D01*
X5417861Y-11954234D02*
X5417861Y-11754234D01*
X5503575Y-11954234D02*
X5503575Y-11849472D01*
X5503575Y-11849472D02*
X5494051Y-11830424D01*
X5494051Y-11830424D02*
X5475003Y-11820900D01*
X5475003Y-11820900D02*
X5446432Y-11820900D01*
X5446432Y-11820900D02*
X5427384Y-11830424D01*
X5427384Y-11830424D02*
X5417861Y-11839948D01*
X5627384Y-11954234D02*
X5608337Y-11944710D01*
X5608337Y-11944710D02*
X5598813Y-11935186D01*
X5598813Y-11935186D02*
X5589289Y-11916138D01*
X5589289Y-11916138D02*
X5589289Y-11858996D01*
X5589289Y-11858996D02*
X5598813Y-11839948D01*
X5598813Y-11839948D02*
X5608337Y-11830424D01*
X5608337Y-11830424D02*
X5627384Y-11820900D01*
X5627384Y-11820900D02*
X5655956Y-11820900D01*
X5655956Y-11820900D02*
X5675003Y-11830424D01*
X5675003Y-11830424D02*
X5684527Y-11839948D01*
X5684527Y-11839948D02*
X5694051Y-11858996D01*
X5694051Y-11858996D02*
X5694051Y-11916138D01*
X5694051Y-11916138D02*
X5684527Y-11935186D01*
X5684527Y-11935186D02*
X5675003Y-11944710D01*
X5675003Y-11944710D02*
X5655956Y-11954234D01*
X5655956Y-11954234D02*
X5627384Y-11954234D01*
X5808337Y-11954234D02*
X5789289Y-11944710D01*
X5789289Y-11944710D02*
X5779765Y-11925662D01*
X5779765Y-11925662D02*
X5779765Y-11754234D01*
X5960718Y-11944710D02*
X5941670Y-11954234D01*
X5941670Y-11954234D02*
X5903575Y-11954234D01*
X5903575Y-11954234D02*
X5884527Y-11944710D01*
X5884527Y-11944710D02*
X5875003Y-11925662D01*
X5875003Y-11925662D02*
X5875003Y-11849472D01*
X5875003Y-11849472D02*
X5884527Y-11830424D01*
X5884527Y-11830424D02*
X5903575Y-11820900D01*
X5903575Y-11820900D02*
X5941670Y-11820900D01*
X5941670Y-11820900D02*
X5960718Y-11830424D01*
X5960718Y-11830424D02*
X5970241Y-11849472D01*
X5970241Y-11849472D02*
X5970241Y-11868519D01*
X5970241Y-11868519D02*
X5875003Y-11887567D01*
X6046432Y-11944710D02*
X6065480Y-11954234D01*
X6065480Y-11954234D02*
X6103575Y-11954234D01*
X6103575Y-11954234D02*
X6122622Y-11944710D01*
X6122622Y-11944710D02*
X6132146Y-11925662D01*
X6132146Y-11925662D02*
X6132146Y-11916138D01*
X6132146Y-11916138D02*
X6122622Y-11897091D01*
X6122622Y-11897091D02*
X6103575Y-11887567D01*
X6103575Y-11887567D02*
X6075003Y-11887567D01*
X6075003Y-11887567D02*
X6055956Y-11878043D01*
X6055956Y-11878043D02*
X6046432Y-11858996D01*
X6046432Y-11858996D02*
X6046432Y-11849472D01*
X6046432Y-11849472D02*
X6055956Y-11830424D01*
X6055956Y-11830424D02*
X6075003Y-11820900D01*
X6075003Y-11820900D02*
X6103575Y-11820900D01*
X6103575Y-11820900D02*
X6122622Y-11830424D01*
X6370242Y-11878043D02*
X6522623Y-11878043D01*
X6446432Y-11954234D02*
X6446432Y-11801853D01*
X6798813Y-11839948D02*
X6779765Y-11830424D01*
X6779765Y-11830424D02*
X6770242Y-11820900D01*
X6770242Y-11820900D02*
X6760718Y-11801853D01*
X6760718Y-11801853D02*
X6760718Y-11792329D01*
X6760718Y-11792329D02*
X6770242Y-11773281D01*
X6770242Y-11773281D02*
X6779765Y-11763758D01*
X6779765Y-11763758D02*
X6798813Y-11754234D01*
X6798813Y-11754234D02*
X6836908Y-11754234D01*
X6836908Y-11754234D02*
X6855956Y-11763758D01*
X6855956Y-11763758D02*
X6865480Y-11773281D01*
X6865480Y-11773281D02*
X6875003Y-11792329D01*
X6875003Y-11792329D02*
X6875003Y-11801853D01*
X6875003Y-11801853D02*
X6865480Y-11820900D01*
X6865480Y-11820900D02*
X6855956Y-11830424D01*
X6855956Y-11830424D02*
X6836908Y-11839948D01*
X6836908Y-11839948D02*
X6798813Y-11839948D01*
X6798813Y-11839948D02*
X6779765Y-11849472D01*
X6779765Y-11849472D02*
X6770242Y-11858996D01*
X6770242Y-11858996D02*
X6760718Y-11878043D01*
X6760718Y-11878043D02*
X6760718Y-11916138D01*
X6760718Y-11916138D02*
X6770242Y-11935186D01*
X6770242Y-11935186D02*
X6779765Y-11944710D01*
X6779765Y-11944710D02*
X6798813Y-11954234D01*
X6798813Y-11954234D02*
X6836908Y-11954234D01*
X6836908Y-11954234D02*
X6855956Y-11944710D01*
X6855956Y-11944710D02*
X6865480Y-11935186D01*
X6865480Y-11935186D02*
X6875003Y-11916138D01*
X6875003Y-11916138D02*
X6875003Y-11878043D01*
X6875003Y-11878043D02*
X6865480Y-11858996D01*
X6865480Y-11858996D02*
X6855956Y-11849472D01*
X6855956Y-11849472D02*
X6836908Y-11839948D01*
X7103575Y-11944710D02*
X7122623Y-11954234D01*
X7122623Y-11954234D02*
X7160718Y-11954234D01*
X7160718Y-11954234D02*
X7179765Y-11944710D01*
X7179765Y-11944710D02*
X7189289Y-11925662D01*
X7189289Y-11925662D02*
X7189289Y-11916138D01*
X7189289Y-11916138D02*
X7179765Y-11897091D01*
X7179765Y-11897091D02*
X7160718Y-11887567D01*
X7160718Y-11887567D02*
X7132146Y-11887567D01*
X7132146Y-11887567D02*
X7113099Y-11878043D01*
X7113099Y-11878043D02*
X7103575Y-11858996D01*
X7103575Y-11858996D02*
X7103575Y-11849472D01*
X7103575Y-11849472D02*
X7113099Y-11830424D01*
X7113099Y-11830424D02*
X7132146Y-11820900D01*
X7132146Y-11820900D02*
X7160718Y-11820900D01*
X7160718Y-11820900D02*
X7179765Y-11830424D01*
X7303575Y-11954234D02*
X7284527Y-11944710D01*
X7284527Y-11944710D02*
X7275004Y-11925662D01*
X7275004Y-11925662D02*
X7275004Y-11754234D01*
X7408337Y-11954234D02*
X7389289Y-11944710D01*
X7389289Y-11944710D02*
X7379765Y-11935186D01*
X7379765Y-11935186D02*
X7370242Y-11916138D01*
X7370242Y-11916138D02*
X7370242Y-11858996D01*
X7370242Y-11858996D02*
X7379765Y-11839948D01*
X7379765Y-11839948D02*
X7389289Y-11830424D01*
X7389289Y-11830424D02*
X7408337Y-11820900D01*
X7408337Y-11820900D02*
X7436908Y-11820900D01*
X7436908Y-11820900D02*
X7455956Y-11830424D01*
X7455956Y-11830424D02*
X7465480Y-11839948D01*
X7465480Y-11839948D02*
X7475004Y-11858996D01*
X7475004Y-11858996D02*
X7475004Y-11916138D01*
X7475004Y-11916138D02*
X7465480Y-11935186D01*
X7465480Y-11935186D02*
X7455956Y-11944710D01*
X7455956Y-11944710D02*
X7436908Y-11954234D01*
X7436908Y-11954234D02*
X7408337Y-11954234D01*
X7532146Y-11820900D02*
X7608337Y-11820900D01*
X7560718Y-11754234D02*
X7560718Y-11925662D01*
X7560718Y-11925662D02*
X7570242Y-11944710D01*
X7570242Y-11944710D02*
X7589289Y-11954234D01*
X7589289Y-11954234D02*
X7608337Y-11954234D01*
X7665480Y-11944710D02*
X7684527Y-11954234D01*
X7684527Y-11954234D02*
X7722623Y-11954234D01*
X7722623Y-11954234D02*
X7741670Y-11944710D01*
X7741670Y-11944710D02*
X7751194Y-11925662D01*
X7751194Y-11925662D02*
X7751194Y-11916138D01*
X7751194Y-11916138D02*
X7741670Y-11897091D01*
X7741670Y-11897091D02*
X7722623Y-11887567D01*
X7722623Y-11887567D02*
X7694051Y-11887567D01*
X7694051Y-11887567D02*
X7675004Y-11878043D01*
X7675004Y-11878043D02*
X7665480Y-11858996D01*
X7665480Y-11858996D02*
X7665480Y-11849472D01*
X7665480Y-11849472D02*
X7675004Y-11830424D01*
X7675004Y-11830424D02*
X7694051Y-11820900D01*
X7694051Y-11820900D02*
X7722623Y-11820900D01*
X7722623Y-11820900D02*
X7741670Y-11830424D01*
X7817861Y-12030424D02*
X7827385Y-12020900D01*
X7827385Y-12020900D02*
X7846432Y-11992329D01*
X7846432Y-11992329D02*
X7855956Y-11973281D01*
X7855956Y-11973281D02*
X7865480Y-11944710D01*
X7865480Y-11944710D02*
X7875004Y-11897091D01*
X7875004Y-11897091D02*
X7875004Y-11858996D01*
X7875004Y-11858996D02*
X7865480Y-11811377D01*
X7865480Y-11811377D02*
X7855956Y-11782805D01*
X7855956Y-11782805D02*
X7846432Y-11763758D01*
X7846432Y-11763758D02*
X7827385Y-11735186D01*
X7827385Y-11735186D02*
X7817861Y-11725662D01*
D10*
X1383750Y-12086750D02*
X1383750Y-12166750D01*
X1343750Y-12126750D02*
X1423750Y-12126750D01*
D11*
X1722622Y-12018234D02*
X1741670Y-12018234D01*
X1741670Y-12018234D02*
X1760717Y-12027758D01*
X1760717Y-12027758D02*
X1770241Y-12037281D01*
X1770241Y-12037281D02*
X1779765Y-12056329D01*
X1779765Y-12056329D02*
X1789289Y-12094424D01*
X1789289Y-12094424D02*
X1789289Y-12142043D01*
X1789289Y-12142043D02*
X1779765Y-12180138D01*
X1779765Y-12180138D02*
X1770241Y-12199186D01*
X1770241Y-12199186D02*
X1760717Y-12208710D01*
X1760717Y-12208710D02*
X1741670Y-12218234D01*
X1741670Y-12218234D02*
X1722622Y-12218234D01*
X1722622Y-12218234D02*
X1703574Y-12208710D01*
X1703574Y-12208710D02*
X1694051Y-12199186D01*
X1694051Y-12199186D02*
X1684527Y-12180138D01*
X1684527Y-12180138D02*
X1675003Y-12142043D01*
X1675003Y-12142043D02*
X1675003Y-12094424D01*
X1675003Y-12094424D02*
X1684527Y-12056329D01*
X1684527Y-12056329D02*
X1694051Y-12037281D01*
X1694051Y-12037281D02*
X1703574Y-12027758D01*
X1703574Y-12027758D02*
X1722622Y-12018234D01*
X1875003Y-12199186D02*
X1884527Y-12208710D01*
X1884527Y-12208710D02*
X1875003Y-12218234D01*
X1875003Y-12218234D02*
X1865479Y-12208710D01*
X1865479Y-12208710D02*
X1875003Y-12199186D01*
X1875003Y-12199186D02*
X1875003Y-12218234D01*
X1998812Y-12103948D02*
X1979765Y-12094424D01*
X1979765Y-12094424D02*
X1970241Y-12084900D01*
X1970241Y-12084900D02*
X1960717Y-12065853D01*
X1960717Y-12065853D02*
X1960717Y-12056329D01*
X1960717Y-12056329D02*
X1970241Y-12037281D01*
X1970241Y-12037281D02*
X1979765Y-12027758D01*
X1979765Y-12027758D02*
X1998812Y-12018234D01*
X1998812Y-12018234D02*
X2036908Y-12018234D01*
X2036908Y-12018234D02*
X2055955Y-12027758D01*
X2055955Y-12027758D02*
X2065479Y-12037281D01*
X2065479Y-12037281D02*
X2075003Y-12056329D01*
X2075003Y-12056329D02*
X2075003Y-12065853D01*
X2075003Y-12065853D02*
X2065479Y-12084900D01*
X2065479Y-12084900D02*
X2055955Y-12094424D01*
X2055955Y-12094424D02*
X2036908Y-12103948D01*
X2036908Y-12103948D02*
X1998812Y-12103948D01*
X1998812Y-12103948D02*
X1979765Y-12113472D01*
X1979765Y-12113472D02*
X1970241Y-12122996D01*
X1970241Y-12122996D02*
X1960717Y-12142043D01*
X1960717Y-12142043D02*
X1960717Y-12180138D01*
X1960717Y-12180138D02*
X1970241Y-12199186D01*
X1970241Y-12199186D02*
X1979765Y-12208710D01*
X1979765Y-12208710D02*
X1998812Y-12218234D01*
X1998812Y-12218234D02*
X2036908Y-12218234D01*
X2036908Y-12218234D02*
X2055955Y-12208710D01*
X2055955Y-12208710D02*
X2065479Y-12199186D01*
X2065479Y-12199186D02*
X2075003Y-12180138D01*
X2075003Y-12180138D02*
X2075003Y-12142043D01*
X2075003Y-12142043D02*
X2065479Y-12122996D01*
X2065479Y-12122996D02*
X2055955Y-12113472D01*
X2055955Y-12113472D02*
X2036908Y-12103948D01*
X2198813Y-12018234D02*
X2217860Y-12018234D01*
X2217860Y-12018234D02*
X2236908Y-12027758D01*
X2236908Y-12027758D02*
X2246432Y-12037281D01*
X2246432Y-12037281D02*
X2255955Y-12056329D01*
X2255955Y-12056329D02*
X2265479Y-12094424D01*
X2265479Y-12094424D02*
X2265479Y-12142043D01*
X2265479Y-12142043D02*
X2255955Y-12180138D01*
X2255955Y-12180138D02*
X2246432Y-12199186D01*
X2246432Y-12199186D02*
X2236908Y-12208710D01*
X2236908Y-12208710D02*
X2217860Y-12218234D01*
X2217860Y-12218234D02*
X2198813Y-12218234D01*
X2198813Y-12218234D02*
X2179765Y-12208710D01*
X2179765Y-12208710D02*
X2170241Y-12199186D01*
X2170241Y-12199186D02*
X2160717Y-12180138D01*
X2160717Y-12180138D02*
X2151194Y-12142043D01*
X2151194Y-12142043D02*
X2151194Y-12094424D01*
X2151194Y-12094424D02*
X2160717Y-12056329D01*
X2160717Y-12056329D02*
X2170241Y-12037281D01*
X2170241Y-12037281D02*
X2179765Y-12027758D01*
X2179765Y-12027758D02*
X2198813Y-12018234D01*
X2389289Y-12018234D02*
X2408336Y-12018234D01*
X2408336Y-12018234D02*
X2427384Y-12027758D01*
X2427384Y-12027758D02*
X2436908Y-12037281D01*
X2436908Y-12037281D02*
X2446432Y-12056329D01*
X2446432Y-12056329D02*
X2455955Y-12094424D01*
X2455955Y-12094424D02*
X2455955Y-12142043D01*
X2455955Y-12142043D02*
X2446432Y-12180138D01*
X2446432Y-12180138D02*
X2436908Y-12199186D01*
X2436908Y-12199186D02*
X2427384Y-12208710D01*
X2427384Y-12208710D02*
X2408336Y-12218234D01*
X2408336Y-12218234D02*
X2389289Y-12218234D01*
X2389289Y-12218234D02*
X2370241Y-12208710D01*
X2370241Y-12208710D02*
X2360717Y-12199186D01*
X2360717Y-12199186D02*
X2351194Y-12180138D01*
X2351194Y-12180138D02*
X2341670Y-12142043D01*
X2341670Y-12142043D02*
X2341670Y-12094424D01*
X2341670Y-12094424D02*
X2351194Y-12056329D01*
X2351194Y-12056329D02*
X2360717Y-12037281D01*
X2360717Y-12037281D02*
X2370241Y-12027758D01*
X2370241Y-12027758D02*
X2389289Y-12018234D01*
X2541670Y-12218234D02*
X2541670Y-12084900D01*
X2541670Y-12103948D02*
X2551194Y-12094424D01*
X2551194Y-12094424D02*
X2570241Y-12084900D01*
X2570241Y-12084900D02*
X2598813Y-12084900D01*
X2598813Y-12084900D02*
X2617860Y-12094424D01*
X2617860Y-12094424D02*
X2627384Y-12113472D01*
X2627384Y-12113472D02*
X2627384Y-12218234D01*
X2627384Y-12113472D02*
X2636908Y-12094424D01*
X2636908Y-12094424D02*
X2655955Y-12084900D01*
X2655955Y-12084900D02*
X2684527Y-12084900D01*
X2684527Y-12084900D02*
X2703575Y-12094424D01*
X2703575Y-12094424D02*
X2713098Y-12113472D01*
X2713098Y-12113472D02*
X2713098Y-12218234D01*
X2808336Y-12218234D02*
X2808336Y-12084900D01*
X2808336Y-12103948D02*
X2817860Y-12094424D01*
X2817860Y-12094424D02*
X2836908Y-12084900D01*
X2836908Y-12084900D02*
X2865479Y-12084900D01*
X2865479Y-12084900D02*
X2884527Y-12094424D01*
X2884527Y-12094424D02*
X2894051Y-12113472D01*
X2894051Y-12113472D02*
X2894051Y-12218234D01*
X2894051Y-12113472D02*
X2903574Y-12094424D01*
X2903574Y-12094424D02*
X2922622Y-12084900D01*
X2922622Y-12084900D02*
X2951193Y-12084900D01*
X2951193Y-12084900D02*
X2970241Y-12094424D01*
X2970241Y-12094424D02*
X2979765Y-12113472D01*
X2979765Y-12113472D02*
X2979765Y-12218234D01*
X3370241Y-12008710D02*
X3198813Y-12265853D01*
X3627384Y-12018234D02*
X3646432Y-12018234D01*
X3646432Y-12018234D02*
X3665479Y-12027758D01*
X3665479Y-12027758D02*
X3675003Y-12037281D01*
X3675003Y-12037281D02*
X3684527Y-12056329D01*
X3684527Y-12056329D02*
X3694051Y-12094424D01*
X3694051Y-12094424D02*
X3694051Y-12142043D01*
X3694051Y-12142043D02*
X3684527Y-12180138D01*
X3684527Y-12180138D02*
X3675003Y-12199186D01*
X3675003Y-12199186D02*
X3665479Y-12208710D01*
X3665479Y-12208710D02*
X3646432Y-12218234D01*
X3646432Y-12218234D02*
X3627384Y-12218234D01*
X3627384Y-12218234D02*
X3608336Y-12208710D01*
X3608336Y-12208710D02*
X3598813Y-12199186D01*
X3598813Y-12199186D02*
X3589289Y-12180138D01*
X3589289Y-12180138D02*
X3579765Y-12142043D01*
X3579765Y-12142043D02*
X3579765Y-12094424D01*
X3579765Y-12094424D02*
X3589289Y-12056329D01*
X3589289Y-12056329D02*
X3598813Y-12037281D01*
X3598813Y-12037281D02*
X3608336Y-12027758D01*
X3608336Y-12027758D02*
X3627384Y-12018234D01*
X3779765Y-12199186D02*
X3789289Y-12208710D01*
X3789289Y-12208710D02*
X3779765Y-12218234D01*
X3779765Y-12218234D02*
X3770241Y-12208710D01*
X3770241Y-12208710D02*
X3779765Y-12199186D01*
X3779765Y-12199186D02*
X3779765Y-12218234D01*
X3913098Y-12018234D02*
X3932146Y-12018234D01*
X3932146Y-12018234D02*
X3951194Y-12027758D01*
X3951194Y-12027758D02*
X3960717Y-12037281D01*
X3960717Y-12037281D02*
X3970241Y-12056329D01*
X3970241Y-12056329D02*
X3979765Y-12094424D01*
X3979765Y-12094424D02*
X3979765Y-12142043D01*
X3979765Y-12142043D02*
X3970241Y-12180138D01*
X3970241Y-12180138D02*
X3960717Y-12199186D01*
X3960717Y-12199186D02*
X3951194Y-12208710D01*
X3951194Y-12208710D02*
X3932146Y-12218234D01*
X3932146Y-12218234D02*
X3913098Y-12218234D01*
X3913098Y-12218234D02*
X3894051Y-12208710D01*
X3894051Y-12208710D02*
X3884527Y-12199186D01*
X3884527Y-12199186D02*
X3875003Y-12180138D01*
X3875003Y-12180138D02*
X3865479Y-12142043D01*
X3865479Y-12142043D02*
X3865479Y-12094424D01*
X3865479Y-12094424D02*
X3875003Y-12056329D01*
X3875003Y-12056329D02*
X3884527Y-12037281D01*
X3884527Y-12037281D02*
X3894051Y-12027758D01*
X3894051Y-12027758D02*
X3913098Y-12018234D01*
X4046432Y-12018234D02*
X4170241Y-12018234D01*
X4170241Y-12018234D02*
X4103575Y-12094424D01*
X4103575Y-12094424D02*
X4132146Y-12094424D01*
X4132146Y-12094424D02*
X4151194Y-12103948D01*
X4151194Y-12103948D02*
X4160717Y-12113472D01*
X4160717Y-12113472D02*
X4170241Y-12132519D01*
X4170241Y-12132519D02*
X4170241Y-12180138D01*
X4170241Y-12180138D02*
X4160717Y-12199186D01*
X4160717Y-12199186D02*
X4151194Y-12208710D01*
X4151194Y-12208710D02*
X4132146Y-12218234D01*
X4132146Y-12218234D02*
X4075003Y-12218234D01*
X4075003Y-12218234D02*
X4055956Y-12208710D01*
X4055956Y-12208710D02*
X4046432Y-12199186D01*
X4360718Y-12218234D02*
X4246432Y-12218234D01*
X4303575Y-12218234D02*
X4303575Y-12018234D01*
X4303575Y-12018234D02*
X4284527Y-12046805D01*
X4284527Y-12046805D02*
X4265479Y-12065853D01*
X4265479Y-12065853D02*
X4246432Y-12075377D01*
X4541670Y-12018234D02*
X4446432Y-12018234D01*
X4446432Y-12018234D02*
X4436908Y-12113472D01*
X4436908Y-12113472D02*
X4446432Y-12103948D01*
X4446432Y-12103948D02*
X4465479Y-12094424D01*
X4465479Y-12094424D02*
X4513099Y-12094424D01*
X4513099Y-12094424D02*
X4532146Y-12103948D01*
X4532146Y-12103948D02*
X4541670Y-12113472D01*
X4541670Y-12113472D02*
X4551194Y-12132519D01*
X4551194Y-12132519D02*
X4551194Y-12180138D01*
X4551194Y-12180138D02*
X4541670Y-12199186D01*
X4541670Y-12199186D02*
X4532146Y-12208710D01*
X4532146Y-12208710D02*
X4513099Y-12218234D01*
X4513099Y-12218234D02*
X4465479Y-12218234D01*
X4465479Y-12218234D02*
X4446432Y-12208710D01*
X4446432Y-12208710D02*
X4436908Y-12199186D01*
X4627384Y-12018234D02*
X4627384Y-12056329D01*
X4703575Y-12018234D02*
X4703575Y-12056329D01*
X4998813Y-12294424D02*
X4989289Y-12284900D01*
X4989289Y-12284900D02*
X4970241Y-12256329D01*
X4970241Y-12256329D02*
X4960718Y-12237281D01*
X4960718Y-12237281D02*
X4951194Y-12208710D01*
X4951194Y-12208710D02*
X4941670Y-12161091D01*
X4941670Y-12161091D02*
X4941670Y-12122996D01*
X4941670Y-12122996D02*
X4951194Y-12075377D01*
X4951194Y-12075377D02*
X4960718Y-12046805D01*
X4960718Y-12046805D02*
X4970241Y-12027758D01*
X4970241Y-12027758D02*
X4989289Y-11999186D01*
X4989289Y-11999186D02*
X4998813Y-11989662D01*
X5113099Y-12018234D02*
X5132146Y-12018234D01*
X5132146Y-12018234D02*
X5151194Y-12027758D01*
X5151194Y-12027758D02*
X5160718Y-12037281D01*
X5160718Y-12037281D02*
X5170241Y-12056329D01*
X5170241Y-12056329D02*
X5179765Y-12094424D01*
X5179765Y-12094424D02*
X5179765Y-12142043D01*
X5179765Y-12142043D02*
X5170241Y-12180138D01*
X5170241Y-12180138D02*
X5160718Y-12199186D01*
X5160718Y-12199186D02*
X5151194Y-12208710D01*
X5151194Y-12208710D02*
X5132146Y-12218234D01*
X5132146Y-12218234D02*
X5113099Y-12218234D01*
X5113099Y-12218234D02*
X5094051Y-12208710D01*
X5094051Y-12208710D02*
X5084527Y-12199186D01*
X5084527Y-12199186D02*
X5075003Y-12180138D01*
X5075003Y-12180138D02*
X5065480Y-12142043D01*
X5065480Y-12142043D02*
X5065480Y-12094424D01*
X5065480Y-12094424D02*
X5075003Y-12056329D01*
X5075003Y-12056329D02*
X5084527Y-12037281D01*
X5084527Y-12037281D02*
X5094051Y-12027758D01*
X5094051Y-12027758D02*
X5113099Y-12018234D01*
X5417861Y-12218234D02*
X5417861Y-12018234D01*
X5503575Y-12218234D02*
X5503575Y-12113472D01*
X5503575Y-12113472D02*
X5494051Y-12094424D01*
X5494051Y-12094424D02*
X5475003Y-12084900D01*
X5475003Y-12084900D02*
X5446432Y-12084900D01*
X5446432Y-12084900D02*
X5427384Y-12094424D01*
X5427384Y-12094424D02*
X5417861Y-12103948D01*
X5627384Y-12218234D02*
X5608337Y-12208710D01*
X5608337Y-12208710D02*
X5598813Y-12199186D01*
X5598813Y-12199186D02*
X5589289Y-12180138D01*
X5589289Y-12180138D02*
X5589289Y-12122996D01*
X5589289Y-12122996D02*
X5598813Y-12103948D01*
X5598813Y-12103948D02*
X5608337Y-12094424D01*
X5608337Y-12094424D02*
X5627384Y-12084900D01*
X5627384Y-12084900D02*
X5655956Y-12084900D01*
X5655956Y-12084900D02*
X5675003Y-12094424D01*
X5675003Y-12094424D02*
X5684527Y-12103948D01*
X5684527Y-12103948D02*
X5694051Y-12122996D01*
X5694051Y-12122996D02*
X5694051Y-12180138D01*
X5694051Y-12180138D02*
X5684527Y-12199186D01*
X5684527Y-12199186D02*
X5675003Y-12208710D01*
X5675003Y-12208710D02*
X5655956Y-12218234D01*
X5655956Y-12218234D02*
X5627384Y-12218234D01*
X5808337Y-12218234D02*
X5789289Y-12208710D01*
X5789289Y-12208710D02*
X5779765Y-12189662D01*
X5779765Y-12189662D02*
X5779765Y-12018234D01*
X5960718Y-12208710D02*
X5941670Y-12218234D01*
X5941670Y-12218234D02*
X5903575Y-12218234D01*
X5903575Y-12218234D02*
X5884527Y-12208710D01*
X5884527Y-12208710D02*
X5875003Y-12189662D01*
X5875003Y-12189662D02*
X5875003Y-12113472D01*
X5875003Y-12113472D02*
X5884527Y-12094424D01*
X5884527Y-12094424D02*
X5903575Y-12084900D01*
X5903575Y-12084900D02*
X5941670Y-12084900D01*
X5941670Y-12084900D02*
X5960718Y-12094424D01*
X5960718Y-12094424D02*
X5970241Y-12113472D01*
X5970241Y-12113472D02*
X5970241Y-12132519D01*
X5970241Y-12132519D02*
X5875003Y-12151567D01*
X6046432Y-12208710D02*
X6065480Y-12218234D01*
X6065480Y-12218234D02*
X6103575Y-12218234D01*
X6103575Y-12218234D02*
X6122622Y-12208710D01*
X6122622Y-12208710D02*
X6132146Y-12189662D01*
X6132146Y-12189662D02*
X6132146Y-12180138D01*
X6132146Y-12180138D02*
X6122622Y-12161091D01*
X6122622Y-12161091D02*
X6103575Y-12151567D01*
X6103575Y-12151567D02*
X6075003Y-12151567D01*
X6075003Y-12151567D02*
X6055956Y-12142043D01*
X6055956Y-12142043D02*
X6046432Y-12122996D01*
X6046432Y-12122996D02*
X6046432Y-12113472D01*
X6046432Y-12113472D02*
X6055956Y-12094424D01*
X6055956Y-12094424D02*
X6075003Y-12084900D01*
X6075003Y-12084900D02*
X6103575Y-12084900D01*
X6103575Y-12084900D02*
X6122622Y-12094424D01*
X6370242Y-12142043D02*
X6522623Y-12142043D01*
X6446432Y-12218234D02*
X6446432Y-12065853D01*
X6798813Y-12103948D02*
X6779765Y-12094424D01*
X6779765Y-12094424D02*
X6770242Y-12084900D01*
X6770242Y-12084900D02*
X6760718Y-12065853D01*
X6760718Y-12065853D02*
X6760718Y-12056329D01*
X6760718Y-12056329D02*
X6770242Y-12037281D01*
X6770242Y-12037281D02*
X6779765Y-12027758D01*
X6779765Y-12027758D02*
X6798813Y-12018234D01*
X6798813Y-12018234D02*
X6836908Y-12018234D01*
X6836908Y-12018234D02*
X6855956Y-12027758D01*
X6855956Y-12027758D02*
X6865480Y-12037281D01*
X6865480Y-12037281D02*
X6875003Y-12056329D01*
X6875003Y-12056329D02*
X6875003Y-12065853D01*
X6875003Y-12065853D02*
X6865480Y-12084900D01*
X6865480Y-12084900D02*
X6855956Y-12094424D01*
X6855956Y-12094424D02*
X6836908Y-12103948D01*
X6836908Y-12103948D02*
X6798813Y-12103948D01*
X6798813Y-12103948D02*
X6779765Y-12113472D01*
X6779765Y-12113472D02*
X6770242Y-12122996D01*
X6770242Y-12122996D02*
X6760718Y-12142043D01*
X6760718Y-12142043D02*
X6760718Y-12180138D01*
X6760718Y-12180138D02*
X6770242Y-12199186D01*
X6770242Y-12199186D02*
X6779765Y-12208710D01*
X6779765Y-12208710D02*
X6798813Y-12218234D01*
X6798813Y-12218234D02*
X6836908Y-12218234D01*
X6836908Y-12218234D02*
X6855956Y-12208710D01*
X6855956Y-12208710D02*
X6865480Y-12199186D01*
X6865480Y-12199186D02*
X6875003Y-12180138D01*
X6875003Y-12180138D02*
X6875003Y-12142043D01*
X6875003Y-12142043D02*
X6865480Y-12122996D01*
X6865480Y-12122996D02*
X6855956Y-12113472D01*
X6855956Y-12113472D02*
X6836908Y-12103948D01*
X7103575Y-12208710D02*
X7122623Y-12218234D01*
X7122623Y-12218234D02*
X7160718Y-12218234D01*
X7160718Y-12218234D02*
X7179765Y-12208710D01*
X7179765Y-12208710D02*
X7189289Y-12189662D01*
X7189289Y-12189662D02*
X7189289Y-12180138D01*
X7189289Y-12180138D02*
X7179765Y-12161091D01*
X7179765Y-12161091D02*
X7160718Y-12151567D01*
X7160718Y-12151567D02*
X7132146Y-12151567D01*
X7132146Y-12151567D02*
X7113099Y-12142043D01*
X7113099Y-12142043D02*
X7103575Y-12122996D01*
X7103575Y-12122996D02*
X7103575Y-12113472D01*
X7103575Y-12113472D02*
X7113099Y-12094424D01*
X7113099Y-12094424D02*
X7132146Y-12084900D01*
X7132146Y-12084900D02*
X7160718Y-12084900D01*
X7160718Y-12084900D02*
X7179765Y-12094424D01*
X7303575Y-12218234D02*
X7284527Y-12208710D01*
X7284527Y-12208710D02*
X7275004Y-12189662D01*
X7275004Y-12189662D02*
X7275004Y-12018234D01*
X7408337Y-12218234D02*
X7389289Y-12208710D01*
X7389289Y-12208710D02*
X7379765Y-12199186D01*
X7379765Y-12199186D02*
X7370242Y-12180138D01*
X7370242Y-12180138D02*
X7370242Y-12122996D01*
X7370242Y-12122996D02*
X7379765Y-12103948D01*
X7379765Y-12103948D02*
X7389289Y-12094424D01*
X7389289Y-12094424D02*
X7408337Y-12084900D01*
X7408337Y-12084900D02*
X7436908Y-12084900D01*
X7436908Y-12084900D02*
X7455956Y-12094424D01*
X7455956Y-12094424D02*
X7465480Y-12103948D01*
X7465480Y-12103948D02*
X7475004Y-12122996D01*
X7475004Y-12122996D02*
X7475004Y-12180138D01*
X7475004Y-12180138D02*
X7465480Y-12199186D01*
X7465480Y-12199186D02*
X7455956Y-12208710D01*
X7455956Y-12208710D02*
X7436908Y-12218234D01*
X7436908Y-12218234D02*
X7408337Y-12218234D01*
X7532146Y-12084900D02*
X7608337Y-12084900D01*
X7560718Y-12018234D02*
X7560718Y-12189662D01*
X7560718Y-12189662D02*
X7570242Y-12208710D01*
X7570242Y-12208710D02*
X7589289Y-12218234D01*
X7589289Y-12218234D02*
X7608337Y-12218234D01*
X7665480Y-12208710D02*
X7684527Y-12218234D01*
X7684527Y-12218234D02*
X7722623Y-12218234D01*
X7722623Y-12218234D02*
X7741670Y-12208710D01*
X7741670Y-12208710D02*
X7751194Y-12189662D01*
X7751194Y-12189662D02*
X7751194Y-12180138D01*
X7751194Y-12180138D02*
X7741670Y-12161091D01*
X7741670Y-12161091D02*
X7722623Y-12151567D01*
X7722623Y-12151567D02*
X7694051Y-12151567D01*
X7694051Y-12151567D02*
X7675004Y-12142043D01*
X7675004Y-12142043D02*
X7665480Y-12122996D01*
X7665480Y-12122996D02*
X7665480Y-12113472D01*
X7665480Y-12113472D02*
X7675004Y-12094424D01*
X7675004Y-12094424D02*
X7694051Y-12084900D01*
X7694051Y-12084900D02*
X7722623Y-12084900D01*
X7722623Y-12084900D02*
X7741670Y-12094424D01*
X7817861Y-12294424D02*
X7827385Y-12284900D01*
X7827385Y-12284900D02*
X7846432Y-12256329D01*
X7846432Y-12256329D02*
X7855956Y-12237281D01*
X7855956Y-12237281D02*
X7865480Y-12208710D01*
X7865480Y-12208710D02*
X7875004Y-12161091D01*
X7875004Y-12161091D02*
X7875004Y-12122996D01*
X7875004Y-12122996D02*
X7865480Y-12075377D01*
X7865480Y-12075377D02*
X7855956Y-12046805D01*
X7855956Y-12046805D02*
X7846432Y-12027758D01*
X7846432Y-12027758D02*
X7827385Y-11999186D01*
X7827385Y-11999186D02*
X7817861Y-11989662D01*
D10*
X1409106Y-12426106D02*
X1409106Y-12355394D01*
X1338394Y-12355394D01*
X1338394Y-12426106D01*
X1409106Y-12426106D01*
D11*
X1789289Y-12482234D02*
X1675003Y-12482234D01*
X1732146Y-12482234D02*
X1732146Y-12282234D01*
X1732146Y-12282234D02*
X1713098Y-12310805D01*
X1713098Y-12310805D02*
X1694051Y-12329853D01*
X1694051Y-12329853D02*
X1675003Y-12339377D01*
X1875003Y-12463186D02*
X1884527Y-12472710D01*
X1884527Y-12472710D02*
X1875003Y-12482234D01*
X1875003Y-12482234D02*
X1865479Y-12472710D01*
X1865479Y-12472710D02*
X1875003Y-12463186D01*
X1875003Y-12463186D02*
X1875003Y-12482234D01*
X2008336Y-12282234D02*
X2027384Y-12282234D01*
X2027384Y-12282234D02*
X2046432Y-12291758D01*
X2046432Y-12291758D02*
X2055955Y-12301281D01*
X2055955Y-12301281D02*
X2065479Y-12320329D01*
X2065479Y-12320329D02*
X2075003Y-12358424D01*
X2075003Y-12358424D02*
X2075003Y-12406043D01*
X2075003Y-12406043D02*
X2065479Y-12444138D01*
X2065479Y-12444138D02*
X2055955Y-12463186D01*
X2055955Y-12463186D02*
X2046432Y-12472710D01*
X2046432Y-12472710D02*
X2027384Y-12482234D01*
X2027384Y-12482234D02*
X2008336Y-12482234D01*
X2008336Y-12482234D02*
X1989289Y-12472710D01*
X1989289Y-12472710D02*
X1979765Y-12463186D01*
X1979765Y-12463186D02*
X1970241Y-12444138D01*
X1970241Y-12444138D02*
X1960717Y-12406043D01*
X1960717Y-12406043D02*
X1960717Y-12358424D01*
X1960717Y-12358424D02*
X1970241Y-12320329D01*
X1970241Y-12320329D02*
X1979765Y-12301281D01*
X1979765Y-12301281D02*
X1989289Y-12291758D01*
X1989289Y-12291758D02*
X2008336Y-12282234D01*
X2198813Y-12282234D02*
X2217860Y-12282234D01*
X2217860Y-12282234D02*
X2236908Y-12291758D01*
X2236908Y-12291758D02*
X2246432Y-12301281D01*
X2246432Y-12301281D02*
X2255955Y-12320329D01*
X2255955Y-12320329D02*
X2265479Y-12358424D01*
X2265479Y-12358424D02*
X2265479Y-12406043D01*
X2265479Y-12406043D02*
X2255955Y-12444138D01*
X2255955Y-12444138D02*
X2246432Y-12463186D01*
X2246432Y-12463186D02*
X2236908Y-12472710D01*
X2236908Y-12472710D02*
X2217860Y-12482234D01*
X2217860Y-12482234D02*
X2198813Y-12482234D01*
X2198813Y-12482234D02*
X2179765Y-12472710D01*
X2179765Y-12472710D02*
X2170241Y-12463186D01*
X2170241Y-12463186D02*
X2160717Y-12444138D01*
X2160717Y-12444138D02*
X2151194Y-12406043D01*
X2151194Y-12406043D02*
X2151194Y-12358424D01*
X2151194Y-12358424D02*
X2160717Y-12320329D01*
X2160717Y-12320329D02*
X2170241Y-12301281D01*
X2170241Y-12301281D02*
X2179765Y-12291758D01*
X2179765Y-12291758D02*
X2198813Y-12282234D01*
X2389289Y-12282234D02*
X2408336Y-12282234D01*
X2408336Y-12282234D02*
X2427384Y-12291758D01*
X2427384Y-12291758D02*
X2436908Y-12301281D01*
X2436908Y-12301281D02*
X2446432Y-12320329D01*
X2446432Y-12320329D02*
X2455955Y-12358424D01*
X2455955Y-12358424D02*
X2455955Y-12406043D01*
X2455955Y-12406043D02*
X2446432Y-12444138D01*
X2446432Y-12444138D02*
X2436908Y-12463186D01*
X2436908Y-12463186D02*
X2427384Y-12472710D01*
X2427384Y-12472710D02*
X2408336Y-12482234D01*
X2408336Y-12482234D02*
X2389289Y-12482234D01*
X2389289Y-12482234D02*
X2370241Y-12472710D01*
X2370241Y-12472710D02*
X2360717Y-12463186D01*
X2360717Y-12463186D02*
X2351194Y-12444138D01*
X2351194Y-12444138D02*
X2341670Y-12406043D01*
X2341670Y-12406043D02*
X2341670Y-12358424D01*
X2341670Y-12358424D02*
X2351194Y-12320329D01*
X2351194Y-12320329D02*
X2360717Y-12301281D01*
X2360717Y-12301281D02*
X2370241Y-12291758D01*
X2370241Y-12291758D02*
X2389289Y-12282234D01*
X2541670Y-12482234D02*
X2541670Y-12348900D01*
X2541670Y-12367948D02*
X2551194Y-12358424D01*
X2551194Y-12358424D02*
X2570241Y-12348900D01*
X2570241Y-12348900D02*
X2598813Y-12348900D01*
X2598813Y-12348900D02*
X2617860Y-12358424D01*
X2617860Y-12358424D02*
X2627384Y-12377472D01*
X2627384Y-12377472D02*
X2627384Y-12482234D01*
X2627384Y-12377472D02*
X2636908Y-12358424D01*
X2636908Y-12358424D02*
X2655955Y-12348900D01*
X2655955Y-12348900D02*
X2684527Y-12348900D01*
X2684527Y-12348900D02*
X2703575Y-12358424D01*
X2703575Y-12358424D02*
X2713098Y-12377472D01*
X2713098Y-12377472D02*
X2713098Y-12482234D01*
X2808336Y-12482234D02*
X2808336Y-12348900D01*
X2808336Y-12367948D02*
X2817860Y-12358424D01*
X2817860Y-12358424D02*
X2836908Y-12348900D01*
X2836908Y-12348900D02*
X2865479Y-12348900D01*
X2865479Y-12348900D02*
X2884527Y-12358424D01*
X2884527Y-12358424D02*
X2894051Y-12377472D01*
X2894051Y-12377472D02*
X2894051Y-12482234D01*
X2894051Y-12377472D02*
X2903574Y-12358424D01*
X2903574Y-12358424D02*
X2922622Y-12348900D01*
X2922622Y-12348900D02*
X2951193Y-12348900D01*
X2951193Y-12348900D02*
X2970241Y-12358424D01*
X2970241Y-12358424D02*
X2979765Y-12377472D01*
X2979765Y-12377472D02*
X2979765Y-12482234D01*
X3370241Y-12272710D02*
X3198813Y-12529853D01*
X3627384Y-12282234D02*
X3646432Y-12282234D01*
X3646432Y-12282234D02*
X3665479Y-12291758D01*
X3665479Y-12291758D02*
X3675003Y-12301281D01*
X3675003Y-12301281D02*
X3684527Y-12320329D01*
X3684527Y-12320329D02*
X3694051Y-12358424D01*
X3694051Y-12358424D02*
X3694051Y-12406043D01*
X3694051Y-12406043D02*
X3684527Y-12444138D01*
X3684527Y-12444138D02*
X3675003Y-12463186D01*
X3675003Y-12463186D02*
X3665479Y-12472710D01*
X3665479Y-12472710D02*
X3646432Y-12482234D01*
X3646432Y-12482234D02*
X3627384Y-12482234D01*
X3627384Y-12482234D02*
X3608336Y-12472710D01*
X3608336Y-12472710D02*
X3598813Y-12463186D01*
X3598813Y-12463186D02*
X3589289Y-12444138D01*
X3589289Y-12444138D02*
X3579765Y-12406043D01*
X3579765Y-12406043D02*
X3579765Y-12358424D01*
X3579765Y-12358424D02*
X3589289Y-12320329D01*
X3589289Y-12320329D02*
X3598813Y-12301281D01*
X3598813Y-12301281D02*
X3608336Y-12291758D01*
X3608336Y-12291758D02*
X3627384Y-12282234D01*
X3779765Y-12463186D02*
X3789289Y-12472710D01*
X3789289Y-12472710D02*
X3779765Y-12482234D01*
X3779765Y-12482234D02*
X3770241Y-12472710D01*
X3770241Y-12472710D02*
X3779765Y-12463186D01*
X3779765Y-12463186D02*
X3779765Y-12482234D01*
X3913098Y-12282234D02*
X3932146Y-12282234D01*
X3932146Y-12282234D02*
X3951194Y-12291758D01*
X3951194Y-12291758D02*
X3960717Y-12301281D01*
X3960717Y-12301281D02*
X3970241Y-12320329D01*
X3970241Y-12320329D02*
X3979765Y-12358424D01*
X3979765Y-12358424D02*
X3979765Y-12406043D01*
X3979765Y-12406043D02*
X3970241Y-12444138D01*
X3970241Y-12444138D02*
X3960717Y-12463186D01*
X3960717Y-12463186D02*
X3951194Y-12472710D01*
X3951194Y-12472710D02*
X3932146Y-12482234D01*
X3932146Y-12482234D02*
X3913098Y-12482234D01*
X3913098Y-12482234D02*
X3894051Y-12472710D01*
X3894051Y-12472710D02*
X3884527Y-12463186D01*
X3884527Y-12463186D02*
X3875003Y-12444138D01*
X3875003Y-12444138D02*
X3865479Y-12406043D01*
X3865479Y-12406043D02*
X3865479Y-12358424D01*
X3865479Y-12358424D02*
X3875003Y-12320329D01*
X3875003Y-12320329D02*
X3884527Y-12301281D01*
X3884527Y-12301281D02*
X3894051Y-12291758D01*
X3894051Y-12291758D02*
X3913098Y-12282234D01*
X4046432Y-12282234D02*
X4170241Y-12282234D01*
X4170241Y-12282234D02*
X4103575Y-12358424D01*
X4103575Y-12358424D02*
X4132146Y-12358424D01*
X4132146Y-12358424D02*
X4151194Y-12367948D01*
X4151194Y-12367948D02*
X4160717Y-12377472D01*
X4160717Y-12377472D02*
X4170241Y-12396519D01*
X4170241Y-12396519D02*
X4170241Y-12444138D01*
X4170241Y-12444138D02*
X4160717Y-12463186D01*
X4160717Y-12463186D02*
X4151194Y-12472710D01*
X4151194Y-12472710D02*
X4132146Y-12482234D01*
X4132146Y-12482234D02*
X4075003Y-12482234D01*
X4075003Y-12482234D02*
X4055956Y-12472710D01*
X4055956Y-12472710D02*
X4046432Y-12463186D01*
X4265479Y-12482234D02*
X4303575Y-12482234D01*
X4303575Y-12482234D02*
X4322622Y-12472710D01*
X4322622Y-12472710D02*
X4332146Y-12463186D01*
X4332146Y-12463186D02*
X4351194Y-12434615D01*
X4351194Y-12434615D02*
X4360718Y-12396519D01*
X4360718Y-12396519D02*
X4360718Y-12320329D01*
X4360718Y-12320329D02*
X4351194Y-12301281D01*
X4351194Y-12301281D02*
X4341670Y-12291758D01*
X4341670Y-12291758D02*
X4322622Y-12282234D01*
X4322622Y-12282234D02*
X4284527Y-12282234D01*
X4284527Y-12282234D02*
X4265479Y-12291758D01*
X4265479Y-12291758D02*
X4255956Y-12301281D01*
X4255956Y-12301281D02*
X4246432Y-12320329D01*
X4246432Y-12320329D02*
X4246432Y-12367948D01*
X4246432Y-12367948D02*
X4255956Y-12386996D01*
X4255956Y-12386996D02*
X4265479Y-12396519D01*
X4265479Y-12396519D02*
X4284527Y-12406043D01*
X4284527Y-12406043D02*
X4322622Y-12406043D01*
X4322622Y-12406043D02*
X4341670Y-12396519D01*
X4341670Y-12396519D02*
X4351194Y-12386996D01*
X4351194Y-12386996D02*
X4360718Y-12367948D01*
X4532146Y-12348900D02*
X4532146Y-12482234D01*
X4484527Y-12272710D02*
X4436908Y-12415567D01*
X4436908Y-12415567D02*
X4560718Y-12415567D01*
X4627384Y-12282234D02*
X4627384Y-12320329D01*
X4703575Y-12282234D02*
X4703575Y-12320329D01*
X4998813Y-12558424D02*
X4989289Y-12548900D01*
X4989289Y-12548900D02*
X4970241Y-12520329D01*
X4970241Y-12520329D02*
X4960718Y-12501281D01*
X4960718Y-12501281D02*
X4951194Y-12472710D01*
X4951194Y-12472710D02*
X4941670Y-12425091D01*
X4941670Y-12425091D02*
X4941670Y-12386996D01*
X4941670Y-12386996D02*
X4951194Y-12339377D01*
X4951194Y-12339377D02*
X4960718Y-12310805D01*
X4960718Y-12310805D02*
X4970241Y-12291758D01*
X4970241Y-12291758D02*
X4989289Y-12263186D01*
X4989289Y-12263186D02*
X4998813Y-12253662D01*
X5160718Y-12282234D02*
X5122622Y-12282234D01*
X5122622Y-12282234D02*
X5103575Y-12291758D01*
X5103575Y-12291758D02*
X5094051Y-12301281D01*
X5094051Y-12301281D02*
X5075003Y-12329853D01*
X5075003Y-12329853D02*
X5065480Y-12367948D01*
X5065480Y-12367948D02*
X5065480Y-12444138D01*
X5065480Y-12444138D02*
X5075003Y-12463186D01*
X5075003Y-12463186D02*
X5084527Y-12472710D01*
X5084527Y-12472710D02*
X5103575Y-12482234D01*
X5103575Y-12482234D02*
X5141670Y-12482234D01*
X5141670Y-12482234D02*
X5160718Y-12472710D01*
X5160718Y-12472710D02*
X5170241Y-12463186D01*
X5170241Y-12463186D02*
X5179765Y-12444138D01*
X5179765Y-12444138D02*
X5179765Y-12396519D01*
X5179765Y-12396519D02*
X5170241Y-12377472D01*
X5170241Y-12377472D02*
X5160718Y-12367948D01*
X5160718Y-12367948D02*
X5141670Y-12358424D01*
X5141670Y-12358424D02*
X5103575Y-12358424D01*
X5103575Y-12358424D02*
X5084527Y-12367948D01*
X5084527Y-12367948D02*
X5075003Y-12377472D01*
X5075003Y-12377472D02*
X5065480Y-12396519D01*
X5417861Y-12482234D02*
X5417861Y-12282234D01*
X5503575Y-12482234D02*
X5503575Y-12377472D01*
X5503575Y-12377472D02*
X5494051Y-12358424D01*
X5494051Y-12358424D02*
X5475003Y-12348900D01*
X5475003Y-12348900D02*
X5446432Y-12348900D01*
X5446432Y-12348900D02*
X5427384Y-12358424D01*
X5427384Y-12358424D02*
X5417861Y-12367948D01*
X5627384Y-12482234D02*
X5608337Y-12472710D01*
X5608337Y-12472710D02*
X5598813Y-12463186D01*
X5598813Y-12463186D02*
X5589289Y-12444138D01*
X5589289Y-12444138D02*
X5589289Y-12386996D01*
X5589289Y-12386996D02*
X5598813Y-12367948D01*
X5598813Y-12367948D02*
X5608337Y-12358424D01*
X5608337Y-12358424D02*
X5627384Y-12348900D01*
X5627384Y-12348900D02*
X5655956Y-12348900D01*
X5655956Y-12348900D02*
X5675003Y-12358424D01*
X5675003Y-12358424D02*
X5684527Y-12367948D01*
X5684527Y-12367948D02*
X5694051Y-12386996D01*
X5694051Y-12386996D02*
X5694051Y-12444138D01*
X5694051Y-12444138D02*
X5684527Y-12463186D01*
X5684527Y-12463186D02*
X5675003Y-12472710D01*
X5675003Y-12472710D02*
X5655956Y-12482234D01*
X5655956Y-12482234D02*
X5627384Y-12482234D01*
X5808337Y-12482234D02*
X5789289Y-12472710D01*
X5789289Y-12472710D02*
X5779765Y-12453662D01*
X5779765Y-12453662D02*
X5779765Y-12282234D01*
X5960718Y-12472710D02*
X5941670Y-12482234D01*
X5941670Y-12482234D02*
X5903575Y-12482234D01*
X5903575Y-12482234D02*
X5884527Y-12472710D01*
X5884527Y-12472710D02*
X5875003Y-12453662D01*
X5875003Y-12453662D02*
X5875003Y-12377472D01*
X5875003Y-12377472D02*
X5884527Y-12358424D01*
X5884527Y-12358424D02*
X5903575Y-12348900D01*
X5903575Y-12348900D02*
X5941670Y-12348900D01*
X5941670Y-12348900D02*
X5960718Y-12358424D01*
X5960718Y-12358424D02*
X5970241Y-12377472D01*
X5970241Y-12377472D02*
X5970241Y-12396519D01*
X5970241Y-12396519D02*
X5875003Y-12415567D01*
X6046432Y-12472710D02*
X6065480Y-12482234D01*
X6065480Y-12482234D02*
X6103575Y-12482234D01*
X6103575Y-12482234D02*
X6122622Y-12472710D01*
X6122622Y-12472710D02*
X6132146Y-12453662D01*
X6132146Y-12453662D02*
X6132146Y-12444138D01*
X6132146Y-12444138D02*
X6122622Y-12425091D01*
X6122622Y-12425091D02*
X6103575Y-12415567D01*
X6103575Y-12415567D02*
X6075003Y-12415567D01*
X6075003Y-12415567D02*
X6055956Y-12406043D01*
X6055956Y-12406043D02*
X6046432Y-12386996D01*
X6046432Y-12386996D02*
X6046432Y-12377472D01*
X6046432Y-12377472D02*
X6055956Y-12358424D01*
X6055956Y-12358424D02*
X6075003Y-12348900D01*
X6075003Y-12348900D02*
X6103575Y-12348900D01*
X6103575Y-12348900D02*
X6122622Y-12358424D01*
X6198813Y-12558424D02*
X6208337Y-12548900D01*
X6208337Y-12548900D02*
X6227384Y-12520329D01*
X6227384Y-12520329D02*
X6236908Y-12501281D01*
X6236908Y-12501281D02*
X6246432Y-12472710D01*
X6246432Y-12472710D02*
X6255956Y-12425091D01*
X6255956Y-12425091D02*
X6255956Y-12386996D01*
X6255956Y-12386996D02*
X6246432Y-12339377D01*
X6246432Y-12339377D02*
X6236908Y-12310805D01*
X6236908Y-12310805D02*
X6227384Y-12291758D01*
X6227384Y-12291758D02*
X6208337Y-12263186D01*
X6208337Y-12263186D02*
X6198813Y-12253662D01*
M02*
