G04 #@! TF.GenerationSoftware,KiCad,Pcbnew,8.0.8*
G04 #@! TF.CreationDate,2025-01-27T00:01:30+09:00*
G04 #@! TF.ProjectId,pcb,7063622e-6b69-4636-9164-5f7063625858,rev?*
G04 #@! TF.SameCoordinates,Original*
G04 #@! TF.FileFunction,Legend,Top*
G04 #@! TF.FilePolarity,Positive*
%FSLAX46Y46*%
G04 Gerber Fmt 4.6, Leading zero omitted, Abs format (unit mm)*
G04 Created by KiCad (PCBNEW 8.0.8) date 2025-01-27 00:01:30*
%MOMM*%
%LPD*%
G01*
G04 APERTURE LIST*
%ADD10C,0.100000*%
%ADD11C,1.300000*%
%ADD12C,0.300000*%
%ADD13C,1.900000*%
%ADD14C,3.000000*%
%ADD15C,5.000000*%
%ADD16R,1.700000X1.700000*%
%ADD17O,1.700000X1.700000*%
%ADD18C,0.650000*%
%ADD19O,1.600000X1.000000*%
%ADD20O,2.100000X1.000000*%
%ADD21O,2.000000X1.200000*%
G04 APERTURE END LIST*
D10*
X55803884Y-99072419D02*
X55803884Y-98405752D01*
X55803884Y-98500990D02*
X55851503Y-98453371D01*
X55851503Y-98453371D02*
X55946741Y-98405752D01*
X55946741Y-98405752D02*
X56089598Y-98405752D01*
X56089598Y-98405752D02*
X56184836Y-98453371D01*
X56184836Y-98453371D02*
X56232455Y-98548609D01*
X56232455Y-98548609D02*
X56232455Y-99072419D01*
X56232455Y-98548609D02*
X56280074Y-98453371D01*
X56280074Y-98453371D02*
X56375312Y-98405752D01*
X56375312Y-98405752D02*
X56518169Y-98405752D01*
X56518169Y-98405752D02*
X56613408Y-98453371D01*
X56613408Y-98453371D02*
X56661027Y-98548609D01*
X56661027Y-98548609D02*
X56661027Y-99072419D01*
X57565788Y-99072419D02*
X57565788Y-98548609D01*
X57565788Y-98548609D02*
X57518169Y-98453371D01*
X57518169Y-98453371D02*
X57422931Y-98405752D01*
X57422931Y-98405752D02*
X57232455Y-98405752D01*
X57232455Y-98405752D02*
X57137217Y-98453371D01*
X57565788Y-99024800D02*
X57470550Y-99072419D01*
X57470550Y-99072419D02*
X57232455Y-99072419D01*
X57232455Y-99072419D02*
X57137217Y-99024800D01*
X57137217Y-99024800D02*
X57089598Y-98929561D01*
X57089598Y-98929561D02*
X57089598Y-98834323D01*
X57089598Y-98834323D02*
X57137217Y-98739085D01*
X57137217Y-98739085D02*
X57232455Y-98691466D01*
X57232455Y-98691466D02*
X57470550Y-98691466D01*
X57470550Y-98691466D02*
X57565788Y-98643847D01*
X58470550Y-98405752D02*
X58470550Y-99215276D01*
X58470550Y-99215276D02*
X58422931Y-99310514D01*
X58422931Y-99310514D02*
X58375312Y-99358133D01*
X58375312Y-99358133D02*
X58280074Y-99405752D01*
X58280074Y-99405752D02*
X58137217Y-99405752D01*
X58137217Y-99405752D02*
X58041979Y-99358133D01*
X58470550Y-99024800D02*
X58375312Y-99072419D01*
X58375312Y-99072419D02*
X58184836Y-99072419D01*
X58184836Y-99072419D02*
X58089598Y-99024800D01*
X58089598Y-99024800D02*
X58041979Y-98977180D01*
X58041979Y-98977180D02*
X57994360Y-98881942D01*
X57994360Y-98881942D02*
X57994360Y-98596228D01*
X57994360Y-98596228D02*
X58041979Y-98500990D01*
X58041979Y-98500990D02*
X58089598Y-98453371D01*
X58089598Y-98453371D02*
X58184836Y-98405752D01*
X58184836Y-98405752D02*
X58375312Y-98405752D01*
X58375312Y-98405752D02*
X58470550Y-98453371D01*
X59375312Y-98405752D02*
X59375312Y-99215276D01*
X59375312Y-99215276D02*
X59327693Y-99310514D01*
X59327693Y-99310514D02*
X59280074Y-99358133D01*
X59280074Y-99358133D02*
X59184836Y-99405752D01*
X59184836Y-99405752D02*
X59041979Y-99405752D01*
X59041979Y-99405752D02*
X58946741Y-99358133D01*
X59375312Y-99024800D02*
X59280074Y-99072419D01*
X59280074Y-99072419D02*
X59089598Y-99072419D01*
X59089598Y-99072419D02*
X58994360Y-99024800D01*
X58994360Y-99024800D02*
X58946741Y-98977180D01*
X58946741Y-98977180D02*
X58899122Y-98881942D01*
X58899122Y-98881942D02*
X58899122Y-98596228D01*
X58899122Y-98596228D02*
X58946741Y-98500990D01*
X58946741Y-98500990D02*
X58994360Y-98453371D01*
X58994360Y-98453371D02*
X59089598Y-98405752D01*
X59089598Y-98405752D02*
X59280074Y-98405752D01*
X59280074Y-98405752D02*
X59375312Y-98453371D01*
X59851503Y-99072419D02*
X59851503Y-98405752D01*
X59851503Y-98072419D02*
X59803884Y-98120038D01*
X59803884Y-98120038D02*
X59851503Y-98167657D01*
X59851503Y-98167657D02*
X59899122Y-98120038D01*
X59899122Y-98120038D02*
X59851503Y-98072419D01*
X59851503Y-98072419D02*
X59851503Y-98167657D01*
X60708645Y-99024800D02*
X60613407Y-99072419D01*
X60613407Y-99072419D02*
X60422931Y-99072419D01*
X60422931Y-99072419D02*
X60327693Y-99024800D01*
X60327693Y-99024800D02*
X60280074Y-98929561D01*
X60280074Y-98929561D02*
X60280074Y-98548609D01*
X60280074Y-98548609D02*
X60327693Y-98453371D01*
X60327693Y-98453371D02*
X60422931Y-98405752D01*
X60422931Y-98405752D02*
X60613407Y-98405752D01*
X60613407Y-98405752D02*
X60708645Y-98453371D01*
X60708645Y-98453371D02*
X60756264Y-98548609D01*
X60756264Y-98548609D02*
X60756264Y-98643847D01*
X60756264Y-98643847D02*
X60280074Y-98739085D01*
X61613407Y-98405752D02*
X61613407Y-99072419D01*
X61375312Y-98024800D02*
X61137217Y-98739085D01*
X61137217Y-98739085D02*
X61756264Y-98739085D01*
X62089598Y-98167657D02*
X62137217Y-98120038D01*
X62137217Y-98120038D02*
X62232455Y-98072419D01*
X62232455Y-98072419D02*
X62470550Y-98072419D01*
X62470550Y-98072419D02*
X62565788Y-98120038D01*
X62565788Y-98120038D02*
X62613407Y-98167657D01*
X62613407Y-98167657D02*
X62661026Y-98262895D01*
X62661026Y-98262895D02*
X62661026Y-98358133D01*
X62661026Y-98358133D02*
X62613407Y-98500990D01*
X62613407Y-98500990D02*
X62041979Y-99072419D01*
X62041979Y-99072419D02*
X62661026Y-99072419D01*
X63518169Y-99024800D02*
X63422931Y-99072419D01*
X63422931Y-99072419D02*
X63232455Y-99072419D01*
X63232455Y-99072419D02*
X63137217Y-99024800D01*
X63137217Y-99024800D02*
X63089598Y-98977180D01*
X63089598Y-98977180D02*
X63041979Y-98881942D01*
X63041979Y-98881942D02*
X63041979Y-98596228D01*
X63041979Y-98596228D02*
X63089598Y-98500990D01*
X63089598Y-98500990D02*
X63137217Y-98453371D01*
X63137217Y-98453371D02*
X63232455Y-98405752D01*
X63232455Y-98405752D02*
X63422931Y-98405752D01*
X63422931Y-98405752D02*
X63518169Y-98453371D01*
X63899122Y-99024800D02*
X63994360Y-99072419D01*
X63994360Y-99072419D02*
X64184836Y-99072419D01*
X64184836Y-99072419D02*
X64280074Y-99024800D01*
X64280074Y-99024800D02*
X64327693Y-98929561D01*
X64327693Y-98929561D02*
X64327693Y-98881942D01*
X64327693Y-98881942D02*
X64280074Y-98786704D01*
X64280074Y-98786704D02*
X64184836Y-98739085D01*
X64184836Y-98739085D02*
X64041979Y-98739085D01*
X64041979Y-98739085D02*
X63946741Y-98691466D01*
X63946741Y-98691466D02*
X63899122Y-98596228D01*
X63899122Y-98596228D02*
X63899122Y-98548609D01*
X63899122Y-98548609D02*
X63946741Y-98453371D01*
X63946741Y-98453371D02*
X64041979Y-98405752D01*
X64041979Y-98405752D02*
X64184836Y-98405752D01*
X64184836Y-98405752D02*
X64280074Y-98453371D01*
X65422932Y-98405752D02*
X65661027Y-99072419D01*
X65661027Y-99072419D02*
X65899122Y-98405752D01*
X66661027Y-99024800D02*
X66565789Y-99072419D01*
X66565789Y-99072419D02*
X66375313Y-99072419D01*
X66375313Y-99072419D02*
X66280075Y-99024800D01*
X66280075Y-99024800D02*
X66232456Y-98929561D01*
X66232456Y-98929561D02*
X66232456Y-98548609D01*
X66232456Y-98548609D02*
X66280075Y-98453371D01*
X66280075Y-98453371D02*
X66375313Y-98405752D01*
X66375313Y-98405752D02*
X66565789Y-98405752D01*
X66565789Y-98405752D02*
X66661027Y-98453371D01*
X66661027Y-98453371D02*
X66708646Y-98548609D01*
X66708646Y-98548609D02*
X66708646Y-98643847D01*
X66708646Y-98643847D02*
X66232456Y-98739085D01*
X67137218Y-99072419D02*
X67137218Y-98405752D01*
X67137218Y-98596228D02*
X67184837Y-98500990D01*
X67184837Y-98500990D02*
X67232456Y-98453371D01*
X67232456Y-98453371D02*
X67327694Y-98405752D01*
X67327694Y-98405752D02*
X67422932Y-98405752D01*
X67756266Y-98977180D02*
X67803885Y-99024800D01*
X67803885Y-99024800D02*
X67756266Y-99072419D01*
X67756266Y-99072419D02*
X67708647Y-99024800D01*
X67708647Y-99024800D02*
X67756266Y-98977180D01*
X67756266Y-98977180D02*
X67756266Y-99072419D01*
X68184837Y-98167657D02*
X68232456Y-98120038D01*
X68232456Y-98120038D02*
X68327694Y-98072419D01*
X68327694Y-98072419D02*
X68565789Y-98072419D01*
X68565789Y-98072419D02*
X68661027Y-98120038D01*
X68661027Y-98120038D02*
X68708646Y-98167657D01*
X68708646Y-98167657D02*
X68756265Y-98262895D01*
X68756265Y-98262895D02*
X68756265Y-98358133D01*
X68756265Y-98358133D02*
X68708646Y-98500990D01*
X68708646Y-98500990D02*
X68137218Y-99072419D01*
X68137218Y-99072419D02*
X68756265Y-99072419D01*
X69184837Y-98977180D02*
X69232456Y-99024800D01*
X69232456Y-99024800D02*
X69184837Y-99072419D01*
X69184837Y-99072419D02*
X69137218Y-99024800D01*
X69137218Y-99024800D02*
X69184837Y-98977180D01*
X69184837Y-98977180D02*
X69184837Y-99072419D01*
X69851503Y-98072419D02*
X69946741Y-98072419D01*
X69946741Y-98072419D02*
X70041979Y-98120038D01*
X70041979Y-98120038D02*
X70089598Y-98167657D01*
X70089598Y-98167657D02*
X70137217Y-98262895D01*
X70137217Y-98262895D02*
X70184836Y-98453371D01*
X70184836Y-98453371D02*
X70184836Y-98691466D01*
X70184836Y-98691466D02*
X70137217Y-98881942D01*
X70137217Y-98881942D02*
X70089598Y-98977180D01*
X70089598Y-98977180D02*
X70041979Y-99024800D01*
X70041979Y-99024800D02*
X69946741Y-99072419D01*
X69946741Y-99072419D02*
X69851503Y-99072419D01*
X69851503Y-99072419D02*
X69756265Y-99024800D01*
X69756265Y-99024800D02*
X69708646Y-98977180D01*
X69708646Y-98977180D02*
X69661027Y-98881942D01*
X69661027Y-98881942D02*
X69613408Y-98691466D01*
X69613408Y-98691466D02*
X69613408Y-98453371D01*
X69613408Y-98453371D02*
X69661027Y-98262895D01*
X69661027Y-98262895D02*
X69708646Y-98167657D01*
X69708646Y-98167657D02*
X69756265Y-98120038D01*
X69756265Y-98120038D02*
X69851503Y-98072419D01*
X70613408Y-98977180D02*
X70661027Y-99024800D01*
X70661027Y-99024800D02*
X70613408Y-99072419D01*
X70613408Y-99072419D02*
X70565789Y-99024800D01*
X70565789Y-99024800D02*
X70613408Y-98977180D01*
X70613408Y-98977180D02*
X70613408Y-99072419D01*
X71041979Y-98167657D02*
X71089598Y-98120038D01*
X71089598Y-98120038D02*
X71184836Y-98072419D01*
X71184836Y-98072419D02*
X71422931Y-98072419D01*
X71422931Y-98072419D02*
X71518169Y-98120038D01*
X71518169Y-98120038D02*
X71565788Y-98167657D01*
X71565788Y-98167657D02*
X71613407Y-98262895D01*
X71613407Y-98262895D02*
X71613407Y-98358133D01*
X71613407Y-98358133D02*
X71565788Y-98500990D01*
X71565788Y-98500990D02*
X70994360Y-99072419D01*
X70994360Y-99072419D02*
X71613407Y-99072419D01*
X143679598Y-28342419D02*
X143679598Y-29056704D01*
X143679598Y-29056704D02*
X143631979Y-29199561D01*
X143631979Y-29199561D02*
X143536741Y-29294800D01*
X143536741Y-29294800D02*
X143393884Y-29342419D01*
X143393884Y-29342419D02*
X143298646Y-29342419D01*
X144631979Y-29342419D02*
X144155789Y-29342419D01*
X144155789Y-29342419D02*
X144155789Y-28342419D01*
X145536741Y-29247180D02*
X145489122Y-29294800D01*
X145489122Y-29294800D02*
X145346265Y-29342419D01*
X145346265Y-29342419D02*
X145251027Y-29342419D01*
X145251027Y-29342419D02*
X145108170Y-29294800D01*
X145108170Y-29294800D02*
X145012932Y-29199561D01*
X145012932Y-29199561D02*
X144965313Y-29104323D01*
X144965313Y-29104323D02*
X144917694Y-28913847D01*
X144917694Y-28913847D02*
X144917694Y-28770990D01*
X144917694Y-28770990D02*
X144965313Y-28580514D01*
X144965313Y-28580514D02*
X145012932Y-28485276D01*
X145012932Y-28485276D02*
X145108170Y-28390038D01*
X145108170Y-28390038D02*
X145251027Y-28342419D01*
X145251027Y-28342419D02*
X145346265Y-28342419D01*
X145346265Y-28342419D02*
X145489122Y-28390038D01*
X145489122Y-28390038D02*
X145536741Y-28437657D01*
X146251027Y-28342419D02*
X146251027Y-29056704D01*
X146251027Y-29056704D02*
X146203408Y-29199561D01*
X146203408Y-29199561D02*
X146108170Y-29294800D01*
X146108170Y-29294800D02*
X145965313Y-29342419D01*
X145965313Y-29342419D02*
X145870075Y-29342419D01*
X147203408Y-29342419D02*
X146727218Y-29342419D01*
X146727218Y-29342419D02*
X146727218Y-28342419D01*
X148108170Y-29247180D02*
X148060551Y-29294800D01*
X148060551Y-29294800D02*
X147917694Y-29342419D01*
X147917694Y-29342419D02*
X147822456Y-29342419D01*
X147822456Y-29342419D02*
X147679599Y-29294800D01*
X147679599Y-29294800D02*
X147584361Y-29199561D01*
X147584361Y-29199561D02*
X147536742Y-29104323D01*
X147536742Y-29104323D02*
X147489123Y-28913847D01*
X147489123Y-28913847D02*
X147489123Y-28770990D01*
X147489123Y-28770990D02*
X147536742Y-28580514D01*
X147536742Y-28580514D02*
X147584361Y-28485276D01*
X147584361Y-28485276D02*
X147679599Y-28390038D01*
X147679599Y-28390038D02*
X147822456Y-28342419D01*
X147822456Y-28342419D02*
X147917694Y-28342419D01*
X147917694Y-28342419D02*
X148060551Y-28390038D01*
X148060551Y-28390038D02*
X148108170Y-28437657D01*
X148822456Y-28342419D02*
X148822456Y-29056704D01*
X148822456Y-29056704D02*
X148774837Y-29199561D01*
X148774837Y-29199561D02*
X148679599Y-29294800D01*
X148679599Y-29294800D02*
X148536742Y-29342419D01*
X148536742Y-29342419D02*
X148441504Y-29342419D01*
X149774837Y-29342419D02*
X149298647Y-29342419D01*
X149298647Y-29342419D02*
X149298647Y-28342419D01*
X150679599Y-29247180D02*
X150631980Y-29294800D01*
X150631980Y-29294800D02*
X150489123Y-29342419D01*
X150489123Y-29342419D02*
X150393885Y-29342419D01*
X150393885Y-29342419D02*
X150251028Y-29294800D01*
X150251028Y-29294800D02*
X150155790Y-29199561D01*
X150155790Y-29199561D02*
X150108171Y-29104323D01*
X150108171Y-29104323D02*
X150060552Y-28913847D01*
X150060552Y-28913847D02*
X150060552Y-28770990D01*
X150060552Y-28770990D02*
X150108171Y-28580514D01*
X150108171Y-28580514D02*
X150155790Y-28485276D01*
X150155790Y-28485276D02*
X150251028Y-28390038D01*
X150251028Y-28390038D02*
X150393885Y-28342419D01*
X150393885Y-28342419D02*
X150489123Y-28342419D01*
X150489123Y-28342419D02*
X150631980Y-28390038D01*
X150631980Y-28390038D02*
X150679599Y-28437657D01*
X151393885Y-28342419D02*
X151393885Y-29056704D01*
X151393885Y-29056704D02*
X151346266Y-29199561D01*
X151346266Y-29199561D02*
X151251028Y-29294800D01*
X151251028Y-29294800D02*
X151108171Y-29342419D01*
X151108171Y-29342419D02*
X151012933Y-29342419D01*
X152346266Y-29342419D02*
X151870076Y-29342419D01*
X151870076Y-29342419D02*
X151870076Y-28342419D01*
X153251028Y-29247180D02*
X153203409Y-29294800D01*
X153203409Y-29294800D02*
X153060552Y-29342419D01*
X153060552Y-29342419D02*
X152965314Y-29342419D01*
X152965314Y-29342419D02*
X152822457Y-29294800D01*
X152822457Y-29294800D02*
X152727219Y-29199561D01*
X152727219Y-29199561D02*
X152679600Y-29104323D01*
X152679600Y-29104323D02*
X152631981Y-28913847D01*
X152631981Y-28913847D02*
X152631981Y-28770990D01*
X152631981Y-28770990D02*
X152679600Y-28580514D01*
X152679600Y-28580514D02*
X152727219Y-28485276D01*
X152727219Y-28485276D02*
X152822457Y-28390038D01*
X152822457Y-28390038D02*
X152965314Y-28342419D01*
X152965314Y-28342419D02*
X153060552Y-28342419D01*
X153060552Y-28342419D02*
X153203409Y-28390038D01*
X153203409Y-28390038D02*
X153251028Y-28437657D01*
X222303884Y-99372419D02*
X222303884Y-98705752D01*
X222303884Y-98800990D02*
X222351503Y-98753371D01*
X222351503Y-98753371D02*
X222446741Y-98705752D01*
X222446741Y-98705752D02*
X222589598Y-98705752D01*
X222589598Y-98705752D02*
X222684836Y-98753371D01*
X222684836Y-98753371D02*
X222732455Y-98848609D01*
X222732455Y-98848609D02*
X222732455Y-99372419D01*
X222732455Y-98848609D02*
X222780074Y-98753371D01*
X222780074Y-98753371D02*
X222875312Y-98705752D01*
X222875312Y-98705752D02*
X223018169Y-98705752D01*
X223018169Y-98705752D02*
X223113408Y-98753371D01*
X223113408Y-98753371D02*
X223161027Y-98848609D01*
X223161027Y-98848609D02*
X223161027Y-99372419D01*
X224065788Y-99372419D02*
X224065788Y-98848609D01*
X224065788Y-98848609D02*
X224018169Y-98753371D01*
X224018169Y-98753371D02*
X223922931Y-98705752D01*
X223922931Y-98705752D02*
X223732455Y-98705752D01*
X223732455Y-98705752D02*
X223637217Y-98753371D01*
X224065788Y-99324800D02*
X223970550Y-99372419D01*
X223970550Y-99372419D02*
X223732455Y-99372419D01*
X223732455Y-99372419D02*
X223637217Y-99324800D01*
X223637217Y-99324800D02*
X223589598Y-99229561D01*
X223589598Y-99229561D02*
X223589598Y-99134323D01*
X223589598Y-99134323D02*
X223637217Y-99039085D01*
X223637217Y-99039085D02*
X223732455Y-98991466D01*
X223732455Y-98991466D02*
X223970550Y-98991466D01*
X223970550Y-98991466D02*
X224065788Y-98943847D01*
X224970550Y-98705752D02*
X224970550Y-99515276D01*
X224970550Y-99515276D02*
X224922931Y-99610514D01*
X224922931Y-99610514D02*
X224875312Y-99658133D01*
X224875312Y-99658133D02*
X224780074Y-99705752D01*
X224780074Y-99705752D02*
X224637217Y-99705752D01*
X224637217Y-99705752D02*
X224541979Y-99658133D01*
X224970550Y-99324800D02*
X224875312Y-99372419D01*
X224875312Y-99372419D02*
X224684836Y-99372419D01*
X224684836Y-99372419D02*
X224589598Y-99324800D01*
X224589598Y-99324800D02*
X224541979Y-99277180D01*
X224541979Y-99277180D02*
X224494360Y-99181942D01*
X224494360Y-99181942D02*
X224494360Y-98896228D01*
X224494360Y-98896228D02*
X224541979Y-98800990D01*
X224541979Y-98800990D02*
X224589598Y-98753371D01*
X224589598Y-98753371D02*
X224684836Y-98705752D01*
X224684836Y-98705752D02*
X224875312Y-98705752D01*
X224875312Y-98705752D02*
X224970550Y-98753371D01*
X225875312Y-98705752D02*
X225875312Y-99515276D01*
X225875312Y-99515276D02*
X225827693Y-99610514D01*
X225827693Y-99610514D02*
X225780074Y-99658133D01*
X225780074Y-99658133D02*
X225684836Y-99705752D01*
X225684836Y-99705752D02*
X225541979Y-99705752D01*
X225541979Y-99705752D02*
X225446741Y-99658133D01*
X225875312Y-99324800D02*
X225780074Y-99372419D01*
X225780074Y-99372419D02*
X225589598Y-99372419D01*
X225589598Y-99372419D02*
X225494360Y-99324800D01*
X225494360Y-99324800D02*
X225446741Y-99277180D01*
X225446741Y-99277180D02*
X225399122Y-99181942D01*
X225399122Y-99181942D02*
X225399122Y-98896228D01*
X225399122Y-98896228D02*
X225446741Y-98800990D01*
X225446741Y-98800990D02*
X225494360Y-98753371D01*
X225494360Y-98753371D02*
X225589598Y-98705752D01*
X225589598Y-98705752D02*
X225780074Y-98705752D01*
X225780074Y-98705752D02*
X225875312Y-98753371D01*
X226351503Y-99372419D02*
X226351503Y-98705752D01*
X226351503Y-98372419D02*
X226303884Y-98420038D01*
X226303884Y-98420038D02*
X226351503Y-98467657D01*
X226351503Y-98467657D02*
X226399122Y-98420038D01*
X226399122Y-98420038D02*
X226351503Y-98372419D01*
X226351503Y-98372419D02*
X226351503Y-98467657D01*
X227208645Y-99324800D02*
X227113407Y-99372419D01*
X227113407Y-99372419D02*
X226922931Y-99372419D01*
X226922931Y-99372419D02*
X226827693Y-99324800D01*
X226827693Y-99324800D02*
X226780074Y-99229561D01*
X226780074Y-99229561D02*
X226780074Y-98848609D01*
X226780074Y-98848609D02*
X226827693Y-98753371D01*
X226827693Y-98753371D02*
X226922931Y-98705752D01*
X226922931Y-98705752D02*
X227113407Y-98705752D01*
X227113407Y-98705752D02*
X227208645Y-98753371D01*
X227208645Y-98753371D02*
X227256264Y-98848609D01*
X227256264Y-98848609D02*
X227256264Y-98943847D01*
X227256264Y-98943847D02*
X226780074Y-99039085D01*
X228113407Y-98705752D02*
X228113407Y-99372419D01*
X227875312Y-98324800D02*
X227637217Y-99039085D01*
X227637217Y-99039085D02*
X228256264Y-99039085D01*
X228589598Y-98467657D02*
X228637217Y-98420038D01*
X228637217Y-98420038D02*
X228732455Y-98372419D01*
X228732455Y-98372419D02*
X228970550Y-98372419D01*
X228970550Y-98372419D02*
X229065788Y-98420038D01*
X229065788Y-98420038D02*
X229113407Y-98467657D01*
X229113407Y-98467657D02*
X229161026Y-98562895D01*
X229161026Y-98562895D02*
X229161026Y-98658133D01*
X229161026Y-98658133D02*
X229113407Y-98800990D01*
X229113407Y-98800990D02*
X228541979Y-99372419D01*
X228541979Y-99372419D02*
X229161026Y-99372419D01*
X230018169Y-99324800D02*
X229922931Y-99372419D01*
X229922931Y-99372419D02*
X229732455Y-99372419D01*
X229732455Y-99372419D02*
X229637217Y-99324800D01*
X229637217Y-99324800D02*
X229589598Y-99277180D01*
X229589598Y-99277180D02*
X229541979Y-99181942D01*
X229541979Y-99181942D02*
X229541979Y-98896228D01*
X229541979Y-98896228D02*
X229589598Y-98800990D01*
X229589598Y-98800990D02*
X229637217Y-98753371D01*
X229637217Y-98753371D02*
X229732455Y-98705752D01*
X229732455Y-98705752D02*
X229922931Y-98705752D01*
X229922931Y-98705752D02*
X230018169Y-98753371D01*
X230399122Y-99324800D02*
X230494360Y-99372419D01*
X230494360Y-99372419D02*
X230684836Y-99372419D01*
X230684836Y-99372419D02*
X230780074Y-99324800D01*
X230780074Y-99324800D02*
X230827693Y-99229561D01*
X230827693Y-99229561D02*
X230827693Y-99181942D01*
X230827693Y-99181942D02*
X230780074Y-99086704D01*
X230780074Y-99086704D02*
X230684836Y-99039085D01*
X230684836Y-99039085D02*
X230541979Y-99039085D01*
X230541979Y-99039085D02*
X230446741Y-98991466D01*
X230446741Y-98991466D02*
X230399122Y-98896228D01*
X230399122Y-98896228D02*
X230399122Y-98848609D01*
X230399122Y-98848609D02*
X230446741Y-98753371D01*
X230446741Y-98753371D02*
X230541979Y-98705752D01*
X230541979Y-98705752D02*
X230684836Y-98705752D01*
X230684836Y-98705752D02*
X230780074Y-98753371D01*
X231922932Y-98705752D02*
X232161027Y-99372419D01*
X232161027Y-99372419D02*
X232399122Y-98705752D01*
X233161027Y-99324800D02*
X233065789Y-99372419D01*
X233065789Y-99372419D02*
X232875313Y-99372419D01*
X232875313Y-99372419D02*
X232780075Y-99324800D01*
X232780075Y-99324800D02*
X232732456Y-99229561D01*
X232732456Y-99229561D02*
X232732456Y-98848609D01*
X232732456Y-98848609D02*
X232780075Y-98753371D01*
X232780075Y-98753371D02*
X232875313Y-98705752D01*
X232875313Y-98705752D02*
X233065789Y-98705752D01*
X233065789Y-98705752D02*
X233161027Y-98753371D01*
X233161027Y-98753371D02*
X233208646Y-98848609D01*
X233208646Y-98848609D02*
X233208646Y-98943847D01*
X233208646Y-98943847D02*
X232732456Y-99039085D01*
X233637218Y-99372419D02*
X233637218Y-98705752D01*
X233637218Y-98896228D02*
X233684837Y-98800990D01*
X233684837Y-98800990D02*
X233732456Y-98753371D01*
X233732456Y-98753371D02*
X233827694Y-98705752D01*
X233827694Y-98705752D02*
X233922932Y-98705752D01*
X234256266Y-99277180D02*
X234303885Y-99324800D01*
X234303885Y-99324800D02*
X234256266Y-99372419D01*
X234256266Y-99372419D02*
X234208647Y-99324800D01*
X234208647Y-99324800D02*
X234256266Y-99277180D01*
X234256266Y-99277180D02*
X234256266Y-99372419D01*
X234684837Y-98467657D02*
X234732456Y-98420038D01*
X234732456Y-98420038D02*
X234827694Y-98372419D01*
X234827694Y-98372419D02*
X235065789Y-98372419D01*
X235065789Y-98372419D02*
X235161027Y-98420038D01*
X235161027Y-98420038D02*
X235208646Y-98467657D01*
X235208646Y-98467657D02*
X235256265Y-98562895D01*
X235256265Y-98562895D02*
X235256265Y-98658133D01*
X235256265Y-98658133D02*
X235208646Y-98800990D01*
X235208646Y-98800990D02*
X234637218Y-99372419D01*
X234637218Y-99372419D02*
X235256265Y-99372419D01*
X235684837Y-99277180D02*
X235732456Y-99324800D01*
X235732456Y-99324800D02*
X235684837Y-99372419D01*
X235684837Y-99372419D02*
X235637218Y-99324800D01*
X235637218Y-99324800D02*
X235684837Y-99277180D01*
X235684837Y-99277180D02*
X235684837Y-99372419D01*
X236351503Y-98372419D02*
X236446741Y-98372419D01*
X236446741Y-98372419D02*
X236541979Y-98420038D01*
X236541979Y-98420038D02*
X236589598Y-98467657D01*
X236589598Y-98467657D02*
X236637217Y-98562895D01*
X236637217Y-98562895D02*
X236684836Y-98753371D01*
X236684836Y-98753371D02*
X236684836Y-98991466D01*
X236684836Y-98991466D02*
X236637217Y-99181942D01*
X236637217Y-99181942D02*
X236589598Y-99277180D01*
X236589598Y-99277180D02*
X236541979Y-99324800D01*
X236541979Y-99324800D02*
X236446741Y-99372419D01*
X236446741Y-99372419D02*
X236351503Y-99372419D01*
X236351503Y-99372419D02*
X236256265Y-99324800D01*
X236256265Y-99324800D02*
X236208646Y-99277180D01*
X236208646Y-99277180D02*
X236161027Y-99181942D01*
X236161027Y-99181942D02*
X236113408Y-98991466D01*
X236113408Y-98991466D02*
X236113408Y-98753371D01*
X236113408Y-98753371D02*
X236161027Y-98562895D01*
X236161027Y-98562895D02*
X236208646Y-98467657D01*
X236208646Y-98467657D02*
X236256265Y-98420038D01*
X236256265Y-98420038D02*
X236351503Y-98372419D01*
X237113408Y-99277180D02*
X237161027Y-99324800D01*
X237161027Y-99324800D02*
X237113408Y-99372419D01*
X237113408Y-99372419D02*
X237065789Y-99324800D01*
X237065789Y-99324800D02*
X237113408Y-99277180D01*
X237113408Y-99277180D02*
X237113408Y-99372419D01*
X237541979Y-98467657D02*
X237589598Y-98420038D01*
X237589598Y-98420038D02*
X237684836Y-98372419D01*
X237684836Y-98372419D02*
X237922931Y-98372419D01*
X237922931Y-98372419D02*
X238018169Y-98420038D01*
X238018169Y-98420038D02*
X238065788Y-98467657D01*
X238065788Y-98467657D02*
X238113407Y-98562895D01*
X238113407Y-98562895D02*
X238113407Y-98658133D01*
X238113407Y-98658133D02*
X238065788Y-98800990D01*
X238065788Y-98800990D02*
X237494360Y-99372419D01*
X237494360Y-99372419D02*
X238113407Y-99372419D01*
%LPC*%
D11*
G04 #@! TO.C,REF\u002A\u002A*
X148100000Y-97400000D03*
G04 #@! TD*
D12*
G04 #@! TO.C,REF\u002A\u002A*
X119100000Y-30375000D03*
X119100000Y-29781250D03*
X119100000Y-29187500D03*
X119100000Y-28593750D03*
X119100000Y-28000000D03*
X119100000Y-27406250D03*
X119100000Y-26812500D03*
X119100000Y-26218750D03*
X119100000Y-25625000D03*
G04 #@! TD*
D11*
G04 #@! TO.C,REF\u002A\u002A*
X15478125Y-15478125D03*
G04 #@! TD*
D12*
G04 #@! TO.C,REF\u002A\u002A*
X153600000Y-99775000D03*
X153600000Y-99181250D03*
X153600000Y-98587500D03*
X153600000Y-97993750D03*
X153600000Y-97400000D03*
X153600000Y-96806250D03*
X153600000Y-96212500D03*
X153600000Y-95618750D03*
X153600000Y-95025000D03*
G04 #@! TD*
D11*
G04 #@! TO.C,REF\u002A\u002A*
X280987500Y-15478125D03*
G04 #@! TD*
D12*
G04 #@! TO.C,REF\u002A\u002A*
X177400000Y-30375000D03*
X177400000Y-29781250D03*
X177400000Y-29187500D03*
X177400000Y-28593750D03*
X177400000Y-28000000D03*
X177400000Y-27406250D03*
X177400000Y-26812500D03*
X177400000Y-26218750D03*
X177400000Y-25625000D03*
G04 #@! TD*
D11*
G04 #@! TO.C,REF\u002A\u002A*
X149300000Y-26300000D03*
G04 #@! TD*
D12*
G04 #@! TO.C,REF\u002A\u002A*
X142900000Y-99775000D03*
X142900000Y-99181250D03*
X142900000Y-98587500D03*
X142900000Y-97993750D03*
X142900000Y-97400000D03*
X142900000Y-96806250D03*
X142900000Y-96212500D03*
X142900000Y-95618750D03*
X142900000Y-95025000D03*
G04 #@! TD*
D13*
G04 #@! TO.C,SW15*
X76937498Y-61912500D03*
X76517498Y-61912500D03*
D14*
X73977498Y-56832500D03*
X71437498Y-67812500D03*
D15*
X71437498Y-61912500D03*
D14*
X67627498Y-59372500D03*
X66437498Y-65612500D03*
D13*
X66357498Y-61912500D03*
X65937498Y-61912500D03*
G04 #@! TD*
G04 #@! TO.C,SW7*
X36456250Y-42862500D03*
X36036250Y-42862500D03*
D14*
X33496250Y-37782500D03*
X30956250Y-48762500D03*
D15*
X30956250Y-42862500D03*
D14*
X27146250Y-40322500D03*
X25956250Y-46562500D03*
D13*
X25876250Y-42862500D03*
X25456250Y-42862500D03*
G04 #@! TD*
G04 #@! TO.C,SW25*
X230528123Y-23812500D03*
X230108123Y-23812500D03*
D14*
X227568123Y-18732500D03*
X225028123Y-29712500D03*
D15*
X225028123Y-23812500D03*
D14*
X221218123Y-21272500D03*
X220028123Y-27512500D03*
D13*
X219948123Y-23812500D03*
X219528123Y-23812500D03*
G04 #@! TD*
G04 #@! TO.C,SW24*
X211478123Y-23812500D03*
X211058123Y-23812500D03*
D14*
X208518123Y-18732500D03*
X205978123Y-29712500D03*
D15*
X205978123Y-23812500D03*
D14*
X202168123Y-21272500D03*
X200978123Y-27512500D03*
D13*
X200898123Y-23812500D03*
X200478123Y-23812500D03*
G04 #@! TD*
G04 #@! TO.C,SW38*
X249578123Y-66675000D03*
X249158123Y-66675000D03*
D14*
X246618123Y-61595000D03*
X244078123Y-72575000D03*
D15*
X244078123Y-66675000D03*
D14*
X240268123Y-64135000D03*
X239078123Y-70375000D03*
D13*
X238998123Y-66675000D03*
X238578123Y-66675000D03*
G04 #@! TD*
G04 #@! TO.C,SW11*
X115037498Y-52387500D03*
X114617498Y-52387500D03*
D14*
X112077498Y-47307500D03*
X109537498Y-58287500D03*
D15*
X109537498Y-52387500D03*
D14*
X105727498Y-49847500D03*
X104537498Y-56087500D03*
D13*
X104457498Y-52387500D03*
X104037498Y-52387500D03*
G04 #@! TD*
G04 #@! TO.C,SW23*
X192428123Y-33337500D03*
X192008123Y-33337500D03*
D14*
X189468123Y-28257500D03*
X186928123Y-39237500D03*
D15*
X186928123Y-33337500D03*
D14*
X183118123Y-30797500D03*
X181928123Y-37037500D03*
D13*
X181848123Y-33337500D03*
X181428123Y-33337500D03*
G04 #@! TD*
G04 #@! TO.C,SW22*
X173378123Y-42862500D03*
X172958123Y-42862500D03*
D14*
X170418123Y-37782500D03*
X167878123Y-48762500D03*
D15*
X167878123Y-42862500D03*
D14*
X164068123Y-40322500D03*
X162878123Y-46562500D03*
D13*
X162798123Y-42862500D03*
X162378123Y-42862500D03*
G04 #@! TD*
D16*
G04 #@! TO.C,J3*
X62180000Y-95500000D03*
D17*
X59640000Y-95500000D03*
X57100000Y-95500000D03*
G04 #@! TD*
D13*
G04 #@! TO.C,SW4*
X95987498Y-23812500D03*
X95567498Y-23812500D03*
D14*
X93027498Y-18732500D03*
X90487498Y-29712500D03*
D15*
X90487498Y-23812500D03*
D14*
X86677498Y-21272500D03*
X85487498Y-27512500D03*
D13*
X85407498Y-23812500D03*
X84987498Y-23812500D03*
G04 #@! TD*
G04 #@! TO.C,SW32*
X249578123Y-47625000D03*
X249158123Y-47625000D03*
D14*
X246618123Y-42545000D03*
X244078123Y-53525000D03*
D15*
X244078123Y-47625000D03*
D14*
X240268123Y-45085000D03*
X239078123Y-51325000D03*
D13*
X238998123Y-47625000D03*
X238578123Y-47625000D03*
G04 #@! TD*
G04 #@! TO.C,SW12*
X134087498Y-61912500D03*
X133667498Y-61912500D03*
D14*
X131127498Y-56832500D03*
X128587498Y-67812500D03*
D15*
X128587498Y-61912500D03*
D14*
X124777498Y-59372500D03*
X123587498Y-65612500D03*
D13*
X123507498Y-61912500D03*
X123087498Y-61912500D03*
G04 #@! TD*
G04 #@! TO.C,SW31*
X230528123Y-42862500D03*
X230108123Y-42862500D03*
D14*
X227568123Y-37782500D03*
X225028123Y-48762500D03*
D15*
X225028123Y-42862500D03*
D14*
X221218123Y-40322500D03*
X220028123Y-46562500D03*
D13*
X219948123Y-42862500D03*
X219528123Y-42862500D03*
G04 #@! TD*
G04 #@! TO.C,SW37*
X230528123Y-61912500D03*
X230108123Y-61912500D03*
D14*
X227568123Y-56832500D03*
X225028123Y-67812500D03*
D15*
X225028123Y-61912500D03*
D14*
X221218123Y-59372500D03*
X220028123Y-65612500D03*
D13*
X219948123Y-61912500D03*
X219528123Y-61912500D03*
G04 #@! TD*
D18*
G04 #@! TO.C,J2*
X59740000Y-89326200D03*
X59740000Y-83546200D03*
D19*
X56090000Y-90756200D03*
D20*
X60270000Y-90756200D03*
D19*
X56090000Y-82116200D03*
D20*
X60270000Y-82116200D03*
G04 #@! TD*
D13*
G04 #@! TO.C,SW18*
X134087498Y-80962500D03*
X133667498Y-80962500D03*
D14*
X131127498Y-75882500D03*
X128587498Y-86862500D03*
D15*
X128587498Y-80962500D03*
D14*
X124777498Y-78422500D03*
X123587498Y-84662500D03*
D13*
X123507498Y-80962500D03*
X123087498Y-80962500D03*
G04 #@! TD*
G04 #@! TO.C,SW19*
X93606250Y-80962500D03*
X93186250Y-80962500D03*
D14*
X90646250Y-75882500D03*
X88106250Y-86862500D03*
D15*
X88106250Y-80962500D03*
D14*
X84296250Y-78422500D03*
X83106250Y-84662500D03*
D13*
X83026250Y-80962500D03*
X82606250Y-80962500D03*
G04 #@! TD*
G04 #@! TO.C,SW2*
X57887498Y-28575000D03*
X57467498Y-28575000D03*
D14*
X54927498Y-23495000D03*
X52387498Y-34475000D03*
D15*
X52387498Y-28575000D03*
D14*
X48577498Y-26035000D03*
X47387498Y-32275000D03*
D13*
X47307498Y-28575000D03*
X46887498Y-28575000D03*
G04 #@! TD*
G04 #@! TO.C,SW8*
X57887498Y-47625000D03*
X57467498Y-47625000D03*
D14*
X54927498Y-42545000D03*
X52387498Y-53525000D03*
D15*
X52387498Y-47625000D03*
D14*
X48577498Y-45085000D03*
X47387498Y-51325000D03*
D13*
X47307498Y-47625000D03*
X46887498Y-47625000D03*
G04 #@! TD*
D21*
G04 #@! TO.C,J1*
X113062500Y-24200000D03*
X113062500Y-16400000D03*
X116262500Y-24200000D03*
X116262500Y-16400000D03*
G04 #@! TD*
D13*
G04 #@! TO.C,SW42*
X213859375Y-80962500D03*
X213439375Y-80962500D03*
D14*
X210899375Y-75882500D03*
X208359375Y-86862500D03*
D15*
X208359375Y-80962500D03*
D14*
X204549375Y-78422500D03*
X203359375Y-84662500D03*
D13*
X203279375Y-80962500D03*
X202859375Y-80962500D03*
G04 #@! TD*
G04 #@! TO.C,SW27*
X273390625Y-23812500D03*
X272970625Y-23812500D03*
D14*
X270430625Y-18732500D03*
X267890625Y-29712500D03*
D15*
X267890625Y-23812500D03*
D14*
X264080625Y-21272500D03*
X262890625Y-27512500D03*
D13*
X262810625Y-23812500D03*
X262390625Y-23812500D03*
G04 #@! TD*
G04 #@! TO.C,SW41*
X192428123Y-90487500D03*
X192008123Y-90487500D03*
D14*
X189468123Y-85407500D03*
X186928123Y-96387500D03*
D15*
X186928123Y-90487500D03*
D14*
X183118123Y-87947500D03*
X181928123Y-94187500D03*
D13*
X181848123Y-90487500D03*
X181428123Y-90487500D03*
G04 #@! TD*
G04 #@! TO.C,SW34*
X173378123Y-80962500D03*
X172958123Y-80962500D03*
D14*
X170418123Y-75882500D03*
X167878123Y-86862500D03*
D15*
X167878123Y-80962500D03*
D14*
X164068123Y-78422500D03*
X162878123Y-84662500D03*
D13*
X162798123Y-80962500D03*
X162378123Y-80962500D03*
G04 #@! TD*
G04 #@! TO.C,SW30*
X211478123Y-42862500D03*
X211058123Y-42862500D03*
D14*
X208518123Y-37782500D03*
X205978123Y-48762500D03*
D15*
X205978123Y-42862500D03*
D14*
X202168123Y-40322500D03*
X200978123Y-46562500D03*
D13*
X200898123Y-42862500D03*
X200478123Y-42862500D03*
G04 #@! TD*
G04 #@! TO.C,SW36*
X211478123Y-61912500D03*
X211058123Y-61912500D03*
D14*
X208518123Y-56832500D03*
X205978123Y-67812500D03*
D15*
X205978123Y-61912500D03*
D14*
X202168123Y-59372500D03*
X200978123Y-65612500D03*
D13*
X200898123Y-61912500D03*
X200478123Y-61912500D03*
G04 #@! TD*
G04 #@! TO.C,SW35*
X192428123Y-71437500D03*
X192008123Y-71437500D03*
D14*
X189468123Y-66357500D03*
X186928123Y-77337500D03*
D15*
X186928123Y-71437500D03*
D14*
X183118123Y-68897500D03*
X181928123Y-75137500D03*
D13*
X181848123Y-71437500D03*
X181428123Y-71437500D03*
G04 #@! TD*
D16*
G04 #@! TO.C,J6*
X239700000Y-78200000D03*
D17*
X237160000Y-78200000D03*
X234620000Y-78200000D03*
G04 #@! TD*
D13*
G04 #@! TO.C,SW40*
X170996875Y-100012500D03*
X170576875Y-100012500D03*
D14*
X168036875Y-94932500D03*
X165496875Y-105912500D03*
D15*
X165496875Y-100012500D03*
D14*
X161686875Y-97472500D03*
X160496875Y-103712500D03*
D13*
X160416875Y-100012500D03*
X159996875Y-100012500D03*
G04 #@! TD*
G04 #@! TO.C,SW26*
X249578123Y-28575000D03*
X249158123Y-28575000D03*
D14*
X246618123Y-23495000D03*
X244078123Y-34475000D03*
D15*
X244078123Y-28575000D03*
D14*
X240268123Y-26035000D03*
X239078123Y-32275000D03*
D13*
X238998123Y-28575000D03*
X238578123Y-28575000D03*
G04 #@! TD*
G04 #@! TO.C,SW21*
X136468750Y-100012500D03*
X136048750Y-100012500D03*
D14*
X133508750Y-94932500D03*
X130968750Y-105912500D03*
D15*
X130968750Y-100012500D03*
D14*
X127158750Y-97472500D03*
X125968750Y-103712500D03*
D13*
X125888750Y-100012500D03*
X125468750Y-100012500D03*
G04 #@! TD*
G04 #@! TO.C,SW16*
X95987498Y-61912500D03*
X95567498Y-61912500D03*
D14*
X93027498Y-56832500D03*
X90487498Y-67812500D03*
D15*
X90487498Y-61912500D03*
D14*
X86677498Y-59372500D03*
X85487498Y-65612500D03*
D13*
X85407498Y-61912500D03*
X84987498Y-61912500D03*
G04 #@! TD*
G04 #@! TO.C,SW39*
X271009375Y-61912500D03*
X270589375Y-61912500D03*
D14*
X268049375Y-56832500D03*
X265509375Y-67812500D03*
D15*
X265509375Y-61912500D03*
D14*
X261699375Y-59372500D03*
X260509375Y-65612500D03*
D13*
X260429375Y-61912500D03*
X260009375Y-61912500D03*
G04 #@! TD*
G04 #@! TO.C,SW9*
X76937498Y-42862500D03*
X76517498Y-42862500D03*
D14*
X73977498Y-37782500D03*
X71437498Y-48762500D03*
D15*
X71437498Y-42862500D03*
D14*
X67627498Y-40322500D03*
X66437498Y-46562500D03*
D13*
X66357498Y-42862500D03*
X65937498Y-42862500D03*
G04 #@! TD*
G04 #@! TO.C,SW17*
X115037498Y-71437500D03*
X114617498Y-71437500D03*
D14*
X112077498Y-66357500D03*
X109537498Y-77337500D03*
D15*
X109537498Y-71437500D03*
D14*
X105727498Y-68897500D03*
X104537498Y-75137500D03*
D13*
X104457498Y-71437500D03*
X104037498Y-71437500D03*
G04 #@! TD*
G04 #@! TO.C,SW29*
X192428123Y-52387500D03*
X192008123Y-52387500D03*
D14*
X189468123Y-47307500D03*
X186928123Y-58287500D03*
D15*
X186928123Y-52387500D03*
D14*
X183118123Y-49847500D03*
X181928123Y-56087500D03*
D13*
X181848123Y-52387500D03*
X181428123Y-52387500D03*
G04 #@! TD*
D18*
G04 #@! TO.C,J5*
X236700000Y-83560000D03*
X236700000Y-89340000D03*
D19*
X240350000Y-82130000D03*
D20*
X236170000Y-82130000D03*
D19*
X240350000Y-90770000D03*
D20*
X236170000Y-90770000D03*
G04 #@! TD*
D13*
G04 #@! TO.C,SW13*
X36456250Y-61912500D03*
X36036250Y-61912500D03*
D14*
X33496250Y-56832500D03*
X30956250Y-67812500D03*
D15*
X30956250Y-61912500D03*
D14*
X27146250Y-59372500D03*
X25956250Y-65612500D03*
D13*
X25876250Y-61912500D03*
X25456250Y-61912500D03*
G04 #@! TD*
G04 #@! TO.C,SW20*
X115037498Y-90487500D03*
X114617498Y-90487500D03*
D14*
X112077498Y-85407500D03*
X109537498Y-96387500D03*
D15*
X109537498Y-90487500D03*
D14*
X105727498Y-87947500D03*
X104537498Y-94187500D03*
D13*
X104457498Y-90487500D03*
X104037498Y-90487500D03*
G04 #@! TD*
G04 #@! TO.C,SW10*
X95987498Y-42862500D03*
X95567498Y-42862500D03*
D14*
X93027498Y-37782500D03*
X90487498Y-48762500D03*
D15*
X90487498Y-42862500D03*
D14*
X86677498Y-40322500D03*
X85487498Y-46562500D03*
D13*
X85407498Y-42862500D03*
X84987498Y-42862500D03*
G04 #@! TD*
G04 #@! TO.C,SW5*
X115037498Y-33337500D03*
X114617498Y-33337500D03*
D14*
X112077498Y-28257500D03*
X109537498Y-39237500D03*
D15*
X109537498Y-33337500D03*
D14*
X105727498Y-30797500D03*
X104537498Y-37037500D03*
D13*
X104457498Y-33337500D03*
X104037498Y-33337500D03*
G04 #@! TD*
G04 #@! TO.C,SW33*
X268628123Y-42862500D03*
X268208123Y-42862500D03*
D14*
X265668123Y-37782500D03*
X263128123Y-48762500D03*
D15*
X263128123Y-42862500D03*
D14*
X259318123Y-40322500D03*
X258128123Y-46562500D03*
D13*
X258048123Y-42862500D03*
X257628123Y-42862500D03*
G04 #@! TD*
D21*
G04 #@! TO.C,J4*
X183400000Y-16400000D03*
X183400000Y-24200000D03*
X180200000Y-16400000D03*
X180200000Y-24200000D03*
G04 #@! TD*
D13*
G04 #@! TO.C,SW1*
X34075000Y-23812500D03*
X33655000Y-23812500D03*
D14*
X31115000Y-18732500D03*
X28575000Y-29712500D03*
D15*
X28575000Y-23812500D03*
D14*
X24765000Y-21272500D03*
X23575000Y-27512500D03*
D13*
X23495000Y-23812500D03*
X23075000Y-23812500D03*
G04 #@! TD*
G04 #@! TO.C,SW14*
X57887498Y-66675000D03*
X57467498Y-66675000D03*
D14*
X54927498Y-61595000D03*
X52387498Y-72575000D03*
D15*
X52387498Y-66675000D03*
D14*
X48577498Y-64135000D03*
X47387498Y-70375000D03*
D13*
X47307498Y-66675000D03*
X46887498Y-66675000D03*
G04 #@! TD*
G04 #@! TO.C,SW6*
X134087498Y-42862500D03*
X133667498Y-42862500D03*
D14*
X131127498Y-37782500D03*
X128587498Y-48762500D03*
D15*
X128587498Y-42862500D03*
D14*
X124777498Y-40322500D03*
X123587498Y-46562500D03*
D13*
X123507498Y-42862500D03*
X123087498Y-42862500D03*
G04 #@! TD*
G04 #@! TO.C,SW3*
X76937498Y-23812500D03*
X76517498Y-23812500D03*
D14*
X73977498Y-18732500D03*
X71437498Y-29712500D03*
D15*
X71437498Y-23812500D03*
D14*
X67627498Y-21272500D03*
X66437498Y-27512500D03*
D13*
X66357498Y-23812500D03*
X65937498Y-23812500D03*
G04 #@! TD*
G04 #@! TO.C,SW28*
X173378123Y-61912500D03*
X172958123Y-61912500D03*
D14*
X170418123Y-56832500D03*
X167878123Y-67812500D03*
D15*
X167878123Y-61912500D03*
D14*
X164068123Y-59372500D03*
X162878123Y-65612500D03*
D13*
X162798123Y-61912500D03*
X162378123Y-61912500D03*
G04 #@! TD*
%LPD*%
M02*
