%TF.GenerationSoftware,KiCad,Pcbnew,8.0.8*%
%TF.CreationDate,2025-01-27T00:01:30+09:00*%
%TF.ProjectId,pcb,7063622e-6b69-4636-9164-5f7063625858,rev?*%
%TF.SameCoordinates,Original*%
%TF.FileFunction,Drillmap*%
%TF.FilePolarity,Positive*%
%FSLAX45Y45*%
G04 Gerber Fmt 4.5, Leading zero omitted, Abs format (unit mm)*
G04 Created by KiCad (PCBNEW 8.0.8) date 2025-01-27 00:01:30*
%MOMM*%
%LPD*%
G01*
G04 APERTURE LIST*
%ADD10C,0.100000*%
%ADD11C,0.200000*%
%ADD12C,0.115200*%
%ADD13C,0.190000*%
%ADD14C,0.300000*%
%ADD15C,0.500000*%
G04 APERTURE END LIST*
D10*
X11806250Y-10001250D02*
G75*
G02*
X11906250Y-10101250I0J-100000D01*
G01*
X13811250Y-3433750D02*
X13811250Y-8948750D01*
X13711250Y-3333750D02*
G75*
G02*
X13811250Y-3433750I0J-100000D01*
G01*
X15459301Y-10953750D02*
X17640551Y-10953750D01*
X17740551Y-10853750D02*
G75*
G02*
X17640551Y-10953751I-100001J0D01*
G01*
X17740313Y-2340000D02*
X19030000Y-2340000D01*
X14187500Y-10953750D02*
X12006250Y-10953750D01*
X11906250Y-2500313D02*
X11906250Y-2340000D01*
X1428750Y-1528750D02*
G75*
G02*
X1528750Y-1428750I100004J-4D01*
G01*
X4186250Y-7143750D02*
G75*
G02*
X4286250Y-7243750I0J-100000D01*
G01*
X6291250Y-1428750D02*
X11806250Y-1428750D01*
X15359301Y-9448800D02*
X14287500Y-9448800D01*
X15735551Y-9048750D02*
X15459301Y-9048750D01*
X25360551Y-7520000D02*
G75*
G02*
X25260551Y-7620001I-100001J0D01*
G01*
X28118051Y-1428750D02*
X25460551Y-1428750D01*
X15835551Y-3433750D02*
X15835551Y-8948750D01*
X11906250Y-3095625D02*
X11906250Y-3214687D01*
X24269926Y-7620000D02*
X25260551Y-7620000D01*
X23355551Y-1428750D02*
G75*
G02*
X23455550Y-1528750I-1J-100000D01*
G01*
X27741801Y-7043750D02*
G75*
G02*
X27641801Y-7143751I-100001J0D01*
G01*
X6191250Y-1528750D02*
G75*
G02*
X6291250Y-1428750I100000J0D01*
G01*
X17740551Y-10101250D02*
G75*
G02*
X17840551Y-10001251I99999J0D01*
G01*
X24169926Y-9901250D02*
X24169926Y-7720000D01*
X25360551Y-1805000D02*
G75*
G02*
X25260551Y-1905001I-99991J-10D01*
G01*
X12006250Y-3333750D02*
G75*
G02*
X11906250Y-3233750I0J100000D01*
G01*
X4386250Y-1905000D02*
G75*
G02*
X4286250Y-1805000I-10J99990D01*
G01*
X11906250Y-10853750D02*
X11906250Y-10101250D01*
X24169926Y-7720000D02*
G75*
G02*
X24269926Y-7619996I100004J0D01*
G01*
X15459301Y-10953750D02*
G75*
G02*
X15359300Y-10853750I-1J100000D01*
G01*
X11906250Y-3095625D02*
X17740551Y-3095625D01*
X4186250Y-7143750D02*
X2005000Y-7143750D01*
X14287500Y-10853750D02*
G75*
G02*
X14187500Y-10953750I-100000J0D01*
G01*
X27841801Y-3333750D02*
X28118051Y-3333750D01*
X5576875Y-10001250D02*
G75*
G02*
X5476880Y-9901250I-5J99990D01*
G01*
X15935551Y-3333750D02*
X17640551Y-3333750D01*
X4386250Y-1905000D02*
X6091250Y-1905000D01*
X15835551Y-8948750D02*
G75*
G02*
X15735551Y-9048751I-99991J-10D01*
G01*
X25360551Y-1528750D02*
X25360551Y-1805000D01*
X23555551Y-1905000D02*
G75*
G02*
X23455550Y-1805000I-1J100000D01*
G01*
X17740313Y-1666875D02*
X17740313Y-1720000D01*
X28218051Y-3233750D02*
G75*
G02*
X28118051Y-3333751I-99991J-10D01*
G01*
X13711250Y-3333750D02*
X12006250Y-3333750D01*
X17740551Y-10853750D02*
X17740551Y-10101250D01*
X5476875Y-9901250D02*
X5476875Y-7720000D01*
X17740313Y-1428750D02*
X17740313Y-1547812D01*
X11906250Y-1528750D02*
X11906250Y-1720000D01*
X1528750Y-3333750D02*
G75*
G02*
X1428750Y-3233750I-10J99990D01*
G01*
X14287500Y-10033000D02*
X15359301Y-10033000D01*
X23355551Y-1428750D02*
X17740313Y-1428750D01*
X1805000Y-3333750D02*
G75*
G02*
X1905000Y-3433750I0J-100000D01*
G01*
X15359301Y-9148750D02*
X15359301Y-9448800D01*
X14287500Y-9148750D02*
X14287500Y-9448800D01*
X15359301Y-9148750D02*
G75*
G02*
X15459301Y-9048751I99989J10D01*
G01*
X4186250Y-1428750D02*
G75*
G02*
X4286250Y-1528750I0J-100000D01*
G01*
X14287500Y-10033000D02*
X14287500Y-10853750D01*
X27741801Y-3433750D02*
G75*
G02*
X27841801Y-3333751I99999J0D01*
G01*
X28218051Y-3233750D02*
X28218051Y-1528750D01*
X27741801Y-7043750D02*
X27741801Y-3433750D01*
X17740551Y-3214687D02*
X17740551Y-3233750D01*
X15359301Y-10033000D02*
X15359301Y-10853750D01*
X25260551Y-1905000D02*
X23555551Y-1905000D01*
X5376875Y-7620000D02*
X4386250Y-7620000D01*
X25360551Y-7520000D02*
X25360551Y-7243750D01*
X17740551Y-3214687D02*
X17740551Y-3095625D01*
X13911250Y-9048750D02*
X14187500Y-9048750D01*
X17740551Y-3233750D02*
G75*
G02*
X17640551Y-3333751I-100001J0D01*
G01*
X23455551Y-1805000D02*
X23455551Y-1528750D01*
X4286250Y-1528750D02*
X4286250Y-1805000D01*
X17740313Y-2381250D02*
X17740313Y-2340000D01*
X10620000Y-1720000D02*
X10620000Y-2340000D01*
X15835551Y-3433750D02*
G75*
G02*
X15935551Y-3333751I99999J0D01*
G01*
X25360551Y-7243750D02*
G75*
G02*
X25460551Y-7143751I99999J0D01*
G01*
X25360551Y-1528750D02*
G75*
G02*
X25460551Y-1428751I99999J0D01*
G01*
X25460551Y-7143750D02*
X27641801Y-7143750D01*
X1428750Y-3233750D02*
X1428750Y-1528750D01*
X12006250Y-10953750D02*
G75*
G02*
X11906250Y-10853750I0J100000D01*
G01*
X28118051Y-1428750D02*
G75*
G02*
X28218050Y-1528750I-1J-100000D01*
G01*
X6191250Y-1805000D02*
G75*
G02*
X6091250Y-1905000I-100000J0D01*
G01*
X19030000Y-2340000D02*
X19030000Y-1720000D01*
X17740313Y-2500313D02*
X11906250Y-2500313D01*
X14187500Y-9048750D02*
G75*
G02*
X14287500Y-9148750I10J-99990D01*
G01*
X24169926Y-9901250D02*
G75*
G02*
X24069926Y-10001246I-99986J-10D01*
G01*
X1528750Y-1428750D02*
X4186250Y-1428750D01*
X1805000Y-3333750D02*
X1528750Y-3333750D01*
X11806250Y-10001250D02*
X5576875Y-10001250D01*
X11906250Y-3214687D02*
X11906250Y-3233750D01*
X2005000Y-7143750D02*
G75*
G02*
X1905000Y-7043750I0J100000D01*
G01*
X6191250Y-1805000D02*
X6191250Y-1528750D01*
X11806250Y-1428750D02*
G75*
G02*
X11906250Y-1528750I0J-100000D01*
G01*
X19030000Y-1720000D02*
X17740000Y-1720000D01*
X1905000Y-7043750D02*
X1905000Y-3433750D01*
X17740313Y-2500313D02*
X17740313Y-2381250D01*
X11906250Y-2340000D02*
X10620000Y-2340000D01*
X4286250Y-7520000D02*
X4286250Y-7243750D01*
X11906250Y-1720000D02*
X10620000Y-1720000D01*
X4386250Y-7620000D02*
G75*
G02*
X4286250Y-7520000I0J100000D01*
G01*
X5376875Y-7620000D02*
G75*
G02*
X5476880Y-7720000I5J-100000D01*
G01*
X17740313Y-1547812D02*
X17740313Y-1666875D01*
X17840551Y-10001250D02*
X24069926Y-10001250D01*
X13911250Y-9048750D02*
G75*
G02*
X13811250Y-8948750I-10J99990D01*
G01*
D11*
D10*
X11895000Y-2547500D02*
X11925000Y-2577500D01*
X11925000Y-2547500D02*
X11895000Y-2577500D01*
X11895000Y-2606875D02*
X11925000Y-2636875D01*
X11925000Y-2606875D02*
X11895000Y-2636875D01*
X11895000Y-2666250D02*
X11925000Y-2696250D01*
X11925000Y-2666250D02*
X11895000Y-2696250D01*
X11895000Y-2725625D02*
X11925000Y-2755625D01*
X11925000Y-2725625D02*
X11895000Y-2755625D01*
X11895000Y-2785000D02*
X11925000Y-2815000D01*
X11925000Y-2785000D02*
X11895000Y-2815000D01*
X11895000Y-2844375D02*
X11925000Y-2874375D01*
X11925000Y-2844375D02*
X11895000Y-2874375D01*
X11895000Y-2903750D02*
X11925000Y-2933750D01*
X11925000Y-2903750D02*
X11895000Y-2933750D01*
X11895000Y-2963125D02*
X11925000Y-2993125D01*
X11925000Y-2963125D02*
X11895000Y-2993125D01*
X11895000Y-3022500D02*
X11925000Y-3052500D01*
X11925000Y-3022500D02*
X11895000Y-3052500D01*
X14275000Y-9487500D02*
X14305000Y-9517500D01*
X14305000Y-9487500D02*
X14275000Y-9517500D01*
X14275000Y-9546875D02*
X14305000Y-9576875D01*
X14305000Y-9546875D02*
X14275000Y-9576875D01*
X14275000Y-9606250D02*
X14305000Y-9636250D01*
X14305000Y-9606250D02*
X14275000Y-9636250D01*
X14275000Y-9665625D02*
X14305000Y-9695625D01*
X14305000Y-9665625D02*
X14275000Y-9695625D01*
X14275000Y-9725000D02*
X14305000Y-9755000D01*
X14305000Y-9725000D02*
X14275000Y-9755000D01*
X14275000Y-9784375D02*
X14305000Y-9814375D01*
X14305000Y-9784375D02*
X14275000Y-9814375D01*
X14275000Y-9843750D02*
X14305000Y-9873750D01*
X14305000Y-9843750D02*
X14275000Y-9873750D01*
X14275000Y-9903125D02*
X14305000Y-9933125D01*
X14305000Y-9903125D02*
X14275000Y-9933125D01*
X14275000Y-9962500D02*
X14305000Y-9992500D01*
X14305000Y-9962500D02*
X14275000Y-9992500D01*
X15345000Y-9487500D02*
X15375000Y-9517500D01*
X15375000Y-9487500D02*
X15345000Y-9517500D01*
X15345000Y-9546875D02*
X15375000Y-9576875D01*
X15375000Y-9546875D02*
X15345000Y-9576875D01*
X15345000Y-9606250D02*
X15375000Y-9636250D01*
X15375000Y-9606250D02*
X15345000Y-9636250D01*
X15345000Y-9665625D02*
X15375000Y-9695625D01*
X15375000Y-9665625D02*
X15345000Y-9695625D01*
X15345000Y-9725000D02*
X15375000Y-9755000D01*
X15375000Y-9725000D02*
X15345000Y-9755000D01*
X15345000Y-9784375D02*
X15375000Y-9814375D01*
X15375000Y-9784375D02*
X15345000Y-9814375D01*
X15345000Y-9843750D02*
X15375000Y-9873750D01*
X15375000Y-9843750D02*
X15345000Y-9873750D01*
X15345000Y-9903125D02*
X15375000Y-9933125D01*
X15375000Y-9903125D02*
X15345000Y-9933125D01*
X15345000Y-9962500D02*
X15375000Y-9992500D01*
X15375000Y-9962500D02*
X15345000Y-9992500D01*
X17725000Y-2547500D02*
X17755000Y-2577500D01*
X17755000Y-2547500D02*
X17725000Y-2577500D01*
X17725000Y-2606875D02*
X17755000Y-2636875D01*
X17755000Y-2606875D02*
X17725000Y-2636875D01*
X17725000Y-2666250D02*
X17755000Y-2696250D01*
X17755000Y-2666250D02*
X17725000Y-2696250D01*
X17725000Y-2725625D02*
X17755000Y-2755625D01*
X17755000Y-2725625D02*
X17725000Y-2755625D01*
X17725000Y-2785000D02*
X17755000Y-2815000D01*
X17755000Y-2785000D02*
X17725000Y-2815000D01*
X17725000Y-2844375D02*
X17755000Y-2874375D01*
X17755000Y-2844375D02*
X17725000Y-2874375D01*
X17725000Y-2903750D02*
X17755000Y-2933750D01*
X17755000Y-2903750D02*
X17725000Y-2933750D01*
X17725000Y-2963125D02*
X17755000Y-2993125D01*
X17755000Y-2963125D02*
X17725000Y-2993125D01*
X17725000Y-3022500D02*
X17755000Y-3052500D01*
X17755000Y-3022500D02*
X17725000Y-3052500D01*
X6006500Y-8354620D02*
G75*
G02*
X5941500Y-8354620I-32500J0D01*
G01*
X5941500Y-8354620D02*
G75*
G02*
X6006500Y-8354620I32500J0D01*
G01*
X6006500Y-8932620D02*
G75*
G02*
X5941500Y-8932620I-32500J0D01*
G01*
X5941500Y-8932620D02*
G75*
G02*
X6006500Y-8932620I32500J0D01*
G01*
X23702500Y-8356000D02*
G75*
G02*
X23637500Y-8356000I-32500J0D01*
G01*
X23637500Y-8356000D02*
G75*
G02*
X23702500Y-8356000I32500J0D01*
G01*
X23702500Y-8934000D02*
G75*
G02*
X23637500Y-8934000I-32500J0D01*
G01*
X23637500Y-8934000D02*
G75*
G02*
X23702500Y-8934000I32500J0D01*
G01*
D12*
X1547812Y-1490212D02*
X1547812Y-1605412D01*
X1490212Y-1547812D02*
X1605412Y-1547812D01*
X14810000Y-9682400D02*
X14810000Y-9797600D01*
X14752400Y-9740000D02*
X14867600Y-9740000D01*
X14930000Y-2572400D02*
X14930000Y-2687600D01*
X14872400Y-2630000D02*
X14987600Y-2630000D01*
X28098750Y-1490212D02*
X28098750Y-1605412D01*
X28041150Y-1547812D02*
X28156350Y-1547812D01*
D13*
X2374676Y-2448426D02*
X2374676Y-2314074D01*
X2240324Y-2314074D01*
X2240324Y-2448426D01*
X2374676Y-2448426D01*
X2416676Y-2448426D02*
X2416676Y-2314074D01*
X2282324Y-2314074D01*
X2282324Y-2448426D01*
X2416676Y-2448426D01*
X2612801Y-4353426D02*
X2612801Y-4219074D01*
X2478449Y-4219074D01*
X2478449Y-4353426D01*
X2612801Y-4353426D01*
X2612801Y-6258426D02*
X2612801Y-6124074D01*
X2478449Y-6124074D01*
X2478449Y-6258426D01*
X2612801Y-6258426D01*
X2654801Y-4353426D02*
X2654801Y-4219074D01*
X2520449Y-4219074D01*
X2520449Y-4353426D01*
X2654801Y-4353426D01*
X2654801Y-6258426D02*
X2654801Y-6124074D01*
X2520449Y-6124074D01*
X2520449Y-6258426D01*
X2654801Y-6258426D01*
X3432676Y-2448426D02*
X3432676Y-2314074D01*
X3298324Y-2314074D01*
X3298324Y-2448426D01*
X3432676Y-2448426D01*
X3474676Y-2448426D02*
X3474676Y-2314074D01*
X3340324Y-2314074D01*
X3340324Y-2448426D01*
X3474676Y-2448426D01*
X3670801Y-4353426D02*
X3670801Y-4219074D01*
X3536449Y-4219074D01*
X3536449Y-4353426D01*
X3670801Y-4353426D01*
X3670801Y-6258426D02*
X3670801Y-6124074D01*
X3536449Y-6124074D01*
X3536449Y-6258426D01*
X3670801Y-6258426D01*
X3712801Y-4353426D02*
X3712801Y-4219074D01*
X3578449Y-4219074D01*
X3578449Y-4353426D01*
X3712801Y-4353426D01*
X3712801Y-6258426D02*
X3712801Y-6124074D01*
X3578449Y-6124074D01*
X3578449Y-6258426D01*
X3712801Y-6258426D01*
X4755926Y-2924676D02*
X4755926Y-2790324D01*
X4621574Y-2790324D01*
X4621574Y-2924676D01*
X4755926Y-2924676D01*
X4755926Y-4829676D02*
X4755926Y-4695324D01*
X4621574Y-4695324D01*
X4621574Y-4829676D01*
X4755926Y-4829676D01*
X4755926Y-6734676D02*
X4755926Y-6600324D01*
X4621574Y-6600324D01*
X4621574Y-6734676D01*
X4755926Y-6734676D01*
X4797926Y-2924676D02*
X4797926Y-2790324D01*
X4663574Y-2790324D01*
X4663574Y-2924676D01*
X4797926Y-2924676D01*
X4797926Y-4829676D02*
X4797926Y-4695324D01*
X4663574Y-4695324D01*
X4663574Y-4829676D01*
X4797926Y-4829676D01*
X4797926Y-6734676D02*
X4797926Y-6600324D01*
X4663574Y-6600324D01*
X4663574Y-6734676D01*
X4797926Y-6734676D01*
X5813926Y-2924676D02*
X5813926Y-2790324D01*
X5679574Y-2790324D01*
X5679574Y-2924676D01*
X5813926Y-2924676D01*
X5813926Y-4829676D02*
X5813926Y-4695324D01*
X5679574Y-4695324D01*
X5679574Y-4829676D01*
X5813926Y-4829676D01*
X5813926Y-6734676D02*
X5813926Y-6600324D01*
X5679574Y-6600324D01*
X5679574Y-6734676D01*
X5813926Y-6734676D01*
X5855926Y-2924676D02*
X5855926Y-2790324D01*
X5721574Y-2790324D01*
X5721574Y-2924676D01*
X5855926Y-2924676D01*
X5855926Y-4829676D02*
X5855926Y-4695324D01*
X5721574Y-4695324D01*
X5721574Y-4829676D01*
X5855926Y-4829676D01*
X5855926Y-6734676D02*
X5855926Y-6600324D01*
X5721574Y-6600324D01*
X5721574Y-6734676D01*
X5855926Y-6734676D01*
X6660926Y-2448426D02*
X6660926Y-2314074D01*
X6526574Y-2314074D01*
X6526574Y-2448426D01*
X6660926Y-2448426D01*
X6660926Y-4353426D02*
X6660926Y-4219074D01*
X6526574Y-4219074D01*
X6526574Y-4353426D01*
X6660926Y-4353426D01*
X6660926Y-6258426D02*
X6660926Y-6124074D01*
X6526574Y-6124074D01*
X6526574Y-6258426D01*
X6660926Y-6258426D01*
X6702926Y-2448426D02*
X6702926Y-2314074D01*
X6568574Y-2314074D01*
X6568574Y-2448426D01*
X6702926Y-2448426D01*
X6702926Y-4353426D02*
X6702926Y-4219074D01*
X6568574Y-4219074D01*
X6568574Y-4353426D01*
X6702926Y-4353426D01*
X6702926Y-6258426D02*
X6702926Y-6124074D01*
X6568574Y-6124074D01*
X6568574Y-6258426D01*
X6702926Y-6258426D01*
X7718926Y-2448426D02*
X7718926Y-2314074D01*
X7584574Y-2314074D01*
X7584574Y-2448426D01*
X7718926Y-2448426D01*
X7718926Y-4353426D02*
X7718926Y-4219074D01*
X7584574Y-4219074D01*
X7584574Y-4353426D01*
X7718926Y-4353426D01*
X7718926Y-6258426D02*
X7718926Y-6124074D01*
X7584574Y-6124074D01*
X7584574Y-6258426D01*
X7718926Y-6258426D01*
X7760926Y-2448426D02*
X7760926Y-2314074D01*
X7626574Y-2314074D01*
X7626574Y-2448426D01*
X7760926Y-2448426D01*
X7760926Y-4353426D02*
X7760926Y-4219074D01*
X7626574Y-4219074D01*
X7626574Y-4353426D01*
X7760926Y-4353426D01*
X7760926Y-6258426D02*
X7760926Y-6124074D01*
X7626574Y-6124074D01*
X7626574Y-6258426D01*
X7760926Y-6258426D01*
X8327801Y-8163426D02*
X8327801Y-8029074D01*
X8193449Y-8029074D01*
X8193449Y-8163426D01*
X8327801Y-8163426D01*
X8369801Y-8163426D02*
X8369801Y-8029074D01*
X8235449Y-8029074D01*
X8235449Y-8163426D01*
X8369801Y-8163426D01*
X8565926Y-2448426D02*
X8565926Y-2314074D01*
X8431574Y-2314074D01*
X8431574Y-2448426D01*
X8565926Y-2448426D01*
X8565926Y-4353426D02*
X8565926Y-4219074D01*
X8431574Y-4219074D01*
X8431574Y-4353426D01*
X8565926Y-4353426D01*
X8565926Y-6258426D02*
X8565926Y-6124074D01*
X8431574Y-6124074D01*
X8431574Y-6258426D01*
X8565926Y-6258426D01*
X8607926Y-2448426D02*
X8607926Y-2314074D01*
X8473574Y-2314074D01*
X8473574Y-2448426D01*
X8607926Y-2448426D01*
X8607926Y-4353426D02*
X8607926Y-4219074D01*
X8473574Y-4219074D01*
X8473574Y-4353426D01*
X8607926Y-4353426D01*
X8607926Y-6258426D02*
X8607926Y-6124074D01*
X8473574Y-6124074D01*
X8473574Y-6258426D01*
X8607926Y-6258426D01*
X9385801Y-8163426D02*
X9385801Y-8029074D01*
X9251449Y-8029074D01*
X9251449Y-8163426D01*
X9385801Y-8163426D01*
X9427801Y-8163426D02*
X9427801Y-8029074D01*
X9293449Y-8029074D01*
X9293449Y-8163426D01*
X9427801Y-8163426D01*
X9623926Y-2448426D02*
X9623926Y-2314074D01*
X9489574Y-2314074D01*
X9489574Y-2448426D01*
X9623926Y-2448426D01*
X9623926Y-4353426D02*
X9623926Y-4219074D01*
X9489574Y-4219074D01*
X9489574Y-4353426D01*
X9623926Y-4353426D01*
X9623926Y-6258426D02*
X9623926Y-6124074D01*
X9489574Y-6124074D01*
X9489574Y-6258426D01*
X9623926Y-6258426D01*
X9665926Y-2448426D02*
X9665926Y-2314074D01*
X9531574Y-2314074D01*
X9531574Y-2448426D01*
X9665926Y-2448426D01*
X9665926Y-4353426D02*
X9665926Y-4219074D01*
X9531574Y-4219074D01*
X9531574Y-4353426D01*
X9665926Y-4353426D01*
X9665926Y-6258426D02*
X9665926Y-6124074D01*
X9531574Y-6124074D01*
X9531574Y-6258426D01*
X9665926Y-6258426D01*
X10470926Y-3400926D02*
X10470926Y-3266574D01*
X10336574Y-3266574D01*
X10336574Y-3400926D01*
X10470926Y-3400926D01*
X10470926Y-5305926D02*
X10470926Y-5171574D01*
X10336574Y-5171574D01*
X10336574Y-5305926D01*
X10470926Y-5305926D01*
X10470926Y-7210926D02*
X10470926Y-7076574D01*
X10336574Y-7076574D01*
X10336574Y-7210926D01*
X10470926Y-7210926D01*
X10470926Y-9115926D02*
X10470926Y-8981574D01*
X10336574Y-8981574D01*
X10336574Y-9115926D01*
X10470926Y-9115926D01*
X10512926Y-3400926D02*
X10512926Y-3266574D01*
X10378574Y-3266574D01*
X10378574Y-3400926D01*
X10512926Y-3400926D01*
X10512926Y-5305926D02*
X10512926Y-5171574D01*
X10378574Y-5171574D01*
X10378574Y-5305926D01*
X10512926Y-5305926D01*
X10512926Y-7210926D02*
X10512926Y-7076574D01*
X10378574Y-7076574D01*
X10378574Y-7210926D01*
X10512926Y-7210926D01*
X10512926Y-9115926D02*
X10512926Y-8981574D01*
X10378574Y-8981574D01*
X10378574Y-9115926D01*
X10512926Y-9115926D01*
X11528926Y-3400926D02*
X11528926Y-3266574D01*
X11394574Y-3266574D01*
X11394574Y-3400926D01*
X11528926Y-3400926D01*
X11528926Y-5305926D02*
X11528926Y-5171574D01*
X11394574Y-5171574D01*
X11394574Y-5305926D01*
X11528926Y-5305926D01*
X11528926Y-7210926D02*
X11528926Y-7076574D01*
X11394574Y-7076574D01*
X11394574Y-7210926D01*
X11528926Y-7210926D01*
X11528926Y-9115926D02*
X11528926Y-8981574D01*
X11394574Y-8981574D01*
X11394574Y-9115926D01*
X11528926Y-9115926D01*
X11570926Y-3400926D02*
X11570926Y-3266574D01*
X11436574Y-3266574D01*
X11436574Y-3400926D01*
X11570926Y-3400926D01*
X11570926Y-5305926D02*
X11570926Y-5171574D01*
X11436574Y-5171574D01*
X11436574Y-5305926D01*
X11570926Y-5305926D01*
X11570926Y-7210926D02*
X11570926Y-7076574D01*
X11436574Y-7076574D01*
X11436574Y-7210926D01*
X11570926Y-7210926D01*
X11570926Y-9115926D02*
X11570926Y-8981574D01*
X11436574Y-8981574D01*
X11436574Y-9115926D01*
X11570926Y-9115926D01*
X12375926Y-4353426D02*
X12375926Y-4219074D01*
X12241574Y-4219074D01*
X12241574Y-4353426D01*
X12375926Y-4353426D01*
X12375926Y-6258426D02*
X12375926Y-6124074D01*
X12241574Y-6124074D01*
X12241574Y-6258426D01*
X12375926Y-6258426D01*
X12375926Y-8163426D02*
X12375926Y-8029074D01*
X12241574Y-8029074D01*
X12241574Y-8163426D01*
X12375926Y-8163426D01*
X12417926Y-4353426D02*
X12417926Y-4219074D01*
X12283574Y-4219074D01*
X12283574Y-4353426D01*
X12417926Y-4353426D01*
X12417926Y-6258426D02*
X12417926Y-6124074D01*
X12283574Y-6124074D01*
X12283574Y-6258426D01*
X12417926Y-6258426D01*
X12417926Y-8163426D02*
X12417926Y-8029074D01*
X12283574Y-8029074D01*
X12283574Y-8163426D01*
X12417926Y-8163426D01*
X12614051Y-10068426D02*
X12614051Y-9934074D01*
X12479699Y-9934074D01*
X12479699Y-10068426D01*
X12614051Y-10068426D01*
X12656051Y-10068426D02*
X12656051Y-9934074D01*
X12521699Y-9934074D01*
X12521699Y-10068426D01*
X12656051Y-10068426D01*
X13433926Y-4353426D02*
X13433926Y-4219074D01*
X13299574Y-4219074D01*
X13299574Y-4353426D01*
X13433926Y-4353426D01*
X13433926Y-6258426D02*
X13433926Y-6124074D01*
X13299574Y-6124074D01*
X13299574Y-6258426D01*
X13433926Y-6258426D01*
X13433926Y-8163426D02*
X13433926Y-8029074D01*
X13299574Y-8029074D01*
X13299574Y-8163426D01*
X13433926Y-8163426D01*
X13475926Y-4353426D02*
X13475926Y-4219074D01*
X13341574Y-4219074D01*
X13341574Y-4353426D01*
X13475926Y-4353426D01*
X13475926Y-6258426D02*
X13475926Y-6124074D01*
X13341574Y-6124074D01*
X13341574Y-6258426D01*
X13475926Y-6258426D01*
X13475926Y-8163426D02*
X13475926Y-8029074D01*
X13341574Y-8029074D01*
X13341574Y-8163426D01*
X13475926Y-8163426D01*
X13672051Y-10068426D02*
X13672051Y-9934074D01*
X13537699Y-9934074D01*
X13537699Y-10068426D01*
X13672051Y-10068426D01*
X13714051Y-10068426D02*
X13714051Y-9934074D01*
X13579699Y-9934074D01*
X13579699Y-10068426D01*
X13714051Y-10068426D01*
X16066863Y-10068426D02*
X16066863Y-9934074D01*
X15932512Y-9934074D01*
X15932512Y-10068426D01*
X16066863Y-10068426D01*
X16108863Y-10068426D02*
X16108863Y-9934074D01*
X15974512Y-9934074D01*
X15974512Y-10068426D01*
X16108863Y-10068426D01*
X16304988Y-4353426D02*
X16304988Y-4219074D01*
X16170636Y-4219074D01*
X16170636Y-4353426D01*
X16304988Y-4353426D01*
X16304988Y-6258426D02*
X16304988Y-6124074D01*
X16170636Y-6124074D01*
X16170636Y-6258426D01*
X16304988Y-6258426D01*
X16304988Y-8163426D02*
X16304988Y-8029074D01*
X16170636Y-8029074D01*
X16170636Y-8163426D01*
X16304988Y-8163426D01*
X16346988Y-4353426D02*
X16346988Y-4219074D01*
X16212636Y-4219074D01*
X16212636Y-4353426D01*
X16346988Y-4353426D01*
X16346988Y-6258426D02*
X16346988Y-6124074D01*
X16212636Y-6124074D01*
X16212636Y-6258426D01*
X16346988Y-6258426D01*
X16346988Y-8163426D02*
X16346988Y-8029074D01*
X16212636Y-8029074D01*
X16212636Y-8163426D01*
X16346988Y-8163426D01*
X17124863Y-10068426D02*
X17124863Y-9934074D01*
X16990512Y-9934074D01*
X16990512Y-10068426D01*
X17124863Y-10068426D01*
X17166863Y-10068426D02*
X17166863Y-9934074D01*
X17032512Y-9934074D01*
X17032512Y-10068426D01*
X17166863Y-10068426D01*
X17362988Y-4353426D02*
X17362988Y-4219074D01*
X17228637Y-4219074D01*
X17228637Y-4353426D01*
X17362988Y-4353426D01*
X17362988Y-6258426D02*
X17362988Y-6124074D01*
X17228637Y-6124074D01*
X17228637Y-6258426D01*
X17362988Y-6258426D01*
X17362988Y-8163426D02*
X17362988Y-8029074D01*
X17228637Y-8029074D01*
X17228637Y-8163426D01*
X17362988Y-8163426D01*
X17404988Y-4353426D02*
X17404988Y-4219074D01*
X17270637Y-4219074D01*
X17270637Y-4353426D01*
X17404988Y-4353426D01*
X17404988Y-6258426D02*
X17404988Y-6124074D01*
X17270637Y-6124074D01*
X17270637Y-6258426D01*
X17404988Y-6258426D01*
X17404988Y-8163426D02*
X17404988Y-8029074D01*
X17270637Y-8029074D01*
X17270637Y-8163426D01*
X17404988Y-8163426D01*
X18209988Y-3400926D02*
X18209988Y-3266574D01*
X18075637Y-3266574D01*
X18075637Y-3400926D01*
X18209988Y-3400926D01*
X18209988Y-5305926D02*
X18209988Y-5171574D01*
X18075637Y-5171574D01*
X18075637Y-5305926D01*
X18209988Y-5305926D01*
X18209988Y-7210926D02*
X18209988Y-7076574D01*
X18075637Y-7076574D01*
X18075637Y-7210926D01*
X18209988Y-7210926D01*
X18209988Y-9115926D02*
X18209988Y-8981574D01*
X18075637Y-8981574D01*
X18075637Y-9115926D01*
X18209988Y-9115926D01*
X18251988Y-3400926D02*
X18251988Y-3266574D01*
X18117637Y-3266574D01*
X18117637Y-3400926D01*
X18251988Y-3400926D01*
X18251988Y-5305926D02*
X18251988Y-5171574D01*
X18117637Y-5171574D01*
X18117637Y-5305926D01*
X18251988Y-5305926D01*
X18251988Y-7210926D02*
X18251988Y-7076574D01*
X18117637Y-7076574D01*
X18117637Y-7210926D01*
X18251988Y-7210926D01*
X18251988Y-9115926D02*
X18251988Y-8981574D01*
X18117637Y-8981574D01*
X18117637Y-9115926D01*
X18251988Y-9115926D01*
X19267988Y-3400926D02*
X19267988Y-3266574D01*
X19133637Y-3266574D01*
X19133637Y-3400926D01*
X19267988Y-3400926D01*
X19267988Y-5305926D02*
X19267988Y-5171574D01*
X19133637Y-5171574D01*
X19133637Y-5305926D01*
X19267988Y-5305926D01*
X19267988Y-7210926D02*
X19267988Y-7076574D01*
X19133637Y-7076574D01*
X19133637Y-7210926D01*
X19267988Y-7210926D01*
X19267988Y-9115926D02*
X19267988Y-8981574D01*
X19133637Y-8981574D01*
X19133637Y-9115926D01*
X19267988Y-9115926D01*
X19309988Y-3400926D02*
X19309988Y-3266574D01*
X19175637Y-3266574D01*
X19175637Y-3400926D01*
X19309988Y-3400926D01*
X19309988Y-5305926D02*
X19309988Y-5171574D01*
X19175637Y-5171574D01*
X19175637Y-5305926D01*
X19309988Y-5305926D01*
X19309988Y-7210926D02*
X19309988Y-7076574D01*
X19175637Y-7076574D01*
X19175637Y-7210926D01*
X19309988Y-7210926D01*
X19309988Y-9115926D02*
X19309988Y-8981574D01*
X19175637Y-8981574D01*
X19175637Y-9115926D01*
X19309988Y-9115926D01*
X20114988Y-2448426D02*
X20114988Y-2314074D01*
X19980637Y-2314074D01*
X19980637Y-2448426D01*
X20114988Y-2448426D01*
X20114988Y-4353426D02*
X20114988Y-4219074D01*
X19980637Y-4219074D01*
X19980637Y-4353426D01*
X20114988Y-4353426D01*
X20114988Y-6258426D02*
X20114988Y-6124074D01*
X19980637Y-6124074D01*
X19980637Y-6258426D01*
X20114988Y-6258426D01*
X20156988Y-2448426D02*
X20156988Y-2314074D01*
X20022637Y-2314074D01*
X20022637Y-2448426D01*
X20156988Y-2448426D01*
X20156988Y-4353426D02*
X20156988Y-4219074D01*
X20022637Y-4219074D01*
X20022637Y-4353426D01*
X20156988Y-4353426D01*
X20156988Y-6258426D02*
X20156988Y-6124074D01*
X20022637Y-6124074D01*
X20022637Y-6258426D01*
X20156988Y-6258426D01*
X20353113Y-8163426D02*
X20353113Y-8029074D01*
X20218762Y-8029074D01*
X20218762Y-8163426D01*
X20353113Y-8163426D01*
X20395113Y-8163426D02*
X20395113Y-8029074D01*
X20260762Y-8029074D01*
X20260762Y-8163426D01*
X20395113Y-8163426D01*
X21172988Y-2448426D02*
X21172988Y-2314074D01*
X21038637Y-2314074D01*
X21038637Y-2448426D01*
X21172988Y-2448426D01*
X21172988Y-4353426D02*
X21172988Y-4219074D01*
X21038637Y-4219074D01*
X21038637Y-4353426D01*
X21172988Y-4353426D01*
X21172988Y-6258426D02*
X21172988Y-6124074D01*
X21038637Y-6124074D01*
X21038637Y-6258426D01*
X21172988Y-6258426D01*
X21214988Y-2448426D02*
X21214988Y-2314074D01*
X21080637Y-2314074D01*
X21080637Y-2448426D01*
X21214988Y-2448426D01*
X21214988Y-4353426D02*
X21214988Y-4219074D01*
X21080637Y-4219074D01*
X21080637Y-4353426D01*
X21214988Y-4353426D01*
X21214988Y-6258426D02*
X21214988Y-6124074D01*
X21080637Y-6124074D01*
X21080637Y-6258426D01*
X21214988Y-6258426D01*
X21411113Y-8163426D02*
X21411113Y-8029074D01*
X21276762Y-8029074D01*
X21276762Y-8163426D01*
X21411113Y-8163426D01*
X21453113Y-8163426D02*
X21453113Y-8029074D01*
X21318762Y-8029074D01*
X21318762Y-8163426D01*
X21453113Y-8163426D01*
X22019988Y-2448426D02*
X22019988Y-2314074D01*
X21885637Y-2314074D01*
X21885637Y-2448426D01*
X22019988Y-2448426D01*
X22019988Y-4353426D02*
X22019988Y-4219074D01*
X21885637Y-4219074D01*
X21885637Y-4353426D01*
X22019988Y-4353426D01*
X22019988Y-6258426D02*
X22019988Y-6124074D01*
X21885637Y-6124074D01*
X21885637Y-6258426D01*
X22019988Y-6258426D01*
X22061988Y-2448426D02*
X22061988Y-2314074D01*
X21927637Y-2314074D01*
X21927637Y-2448426D01*
X22061988Y-2448426D01*
X22061988Y-4353426D02*
X22061988Y-4219074D01*
X21927637Y-4219074D01*
X21927637Y-4353426D01*
X22061988Y-4353426D01*
X22061988Y-6258426D02*
X22061988Y-6124074D01*
X21927637Y-6124074D01*
X21927637Y-6258426D01*
X22061988Y-6258426D01*
X23077988Y-2448426D02*
X23077988Y-2314074D01*
X22943636Y-2314074D01*
X22943636Y-2448426D01*
X23077988Y-2448426D01*
X23077988Y-4353426D02*
X23077988Y-4219074D01*
X22943636Y-4219074D01*
X22943636Y-4353426D01*
X23077988Y-4353426D01*
X23077988Y-6258426D02*
X23077988Y-6124074D01*
X22943636Y-6124074D01*
X22943636Y-6258426D01*
X23077988Y-6258426D01*
X23119988Y-2448426D02*
X23119988Y-2314074D01*
X22985636Y-2314074D01*
X22985636Y-2448426D01*
X23119988Y-2448426D01*
X23119988Y-4353426D02*
X23119988Y-4219074D01*
X22985636Y-4219074D01*
X22985636Y-4353426D01*
X23119988Y-4353426D01*
X23119988Y-6258426D02*
X23119988Y-6124074D01*
X22985636Y-6124074D01*
X22985636Y-6258426D01*
X23119988Y-6258426D01*
X23924988Y-2924676D02*
X23924988Y-2790324D01*
X23790636Y-2790324D01*
X23790636Y-2924676D01*
X23924988Y-2924676D01*
X23924988Y-4829676D02*
X23924988Y-4695324D01*
X23790636Y-4695324D01*
X23790636Y-4829676D01*
X23924988Y-4829676D01*
X23924988Y-6734676D02*
X23924988Y-6600324D01*
X23790636Y-6600324D01*
X23790636Y-6734676D01*
X23924988Y-6734676D01*
X23966988Y-2924676D02*
X23966988Y-2790324D01*
X23832636Y-2790324D01*
X23832636Y-2924676D01*
X23966988Y-2924676D01*
X23966988Y-4829676D02*
X23966988Y-4695324D01*
X23832636Y-4695324D01*
X23832636Y-4829676D01*
X23966988Y-4829676D01*
X23966988Y-6734676D02*
X23966988Y-6600324D01*
X23832636Y-6600324D01*
X23832636Y-6734676D01*
X23966988Y-6734676D01*
X24982988Y-2924676D02*
X24982988Y-2790324D01*
X24848636Y-2790324D01*
X24848636Y-2924676D01*
X24982988Y-2924676D01*
X24982988Y-4829676D02*
X24982988Y-4695324D01*
X24848636Y-4695324D01*
X24848636Y-4829676D01*
X24982988Y-4829676D01*
X24982988Y-6734676D02*
X24982988Y-6600324D01*
X24848636Y-6600324D01*
X24848636Y-6734676D01*
X24982988Y-6734676D01*
X25024988Y-2924676D02*
X25024988Y-2790324D01*
X24890636Y-2790324D01*
X24890636Y-2924676D01*
X25024988Y-2924676D01*
X25024988Y-4829676D02*
X25024988Y-4695324D01*
X24890636Y-4695324D01*
X24890636Y-4829676D01*
X25024988Y-4829676D01*
X25024988Y-6734676D02*
X25024988Y-6600324D01*
X24890636Y-6600324D01*
X24890636Y-6734676D01*
X25024988Y-6734676D01*
X25829988Y-4353426D02*
X25829988Y-4219074D01*
X25695636Y-4219074D01*
X25695636Y-4353426D01*
X25829988Y-4353426D01*
X25871988Y-4353426D02*
X25871988Y-4219074D01*
X25737636Y-4219074D01*
X25737636Y-4353426D01*
X25871988Y-4353426D01*
X26068113Y-6258426D02*
X26068113Y-6124074D01*
X25933762Y-6124074D01*
X25933762Y-6258426D01*
X26068113Y-6258426D01*
X26110113Y-6258426D02*
X26110113Y-6124074D01*
X25975762Y-6124074D01*
X25975762Y-6258426D01*
X26110113Y-6258426D01*
X26306238Y-2448426D02*
X26306238Y-2314074D01*
X26171887Y-2314074D01*
X26171887Y-2448426D01*
X26306238Y-2448426D01*
X26348238Y-2448426D02*
X26348238Y-2314074D01*
X26213887Y-2314074D01*
X26213887Y-2448426D01*
X26348238Y-2448426D01*
X26887988Y-4353426D02*
X26887988Y-4219074D01*
X26753636Y-4219074D01*
X26753636Y-4353426D01*
X26887988Y-4353426D01*
X26929988Y-4353426D02*
X26929988Y-4219074D01*
X26795636Y-4219074D01*
X26795636Y-4353426D01*
X26929988Y-4353426D01*
X27126113Y-6258426D02*
X27126113Y-6124074D01*
X26991762Y-6124074D01*
X26991762Y-6258426D01*
X27126113Y-6258426D01*
X27168113Y-6258426D02*
X27168113Y-6124074D01*
X27033762Y-6124074D01*
X27033762Y-6258426D01*
X27168113Y-6258426D01*
X27364238Y-2448426D02*
X27364238Y-2314074D01*
X27229887Y-2314074D01*
X27229887Y-2448426D01*
X27364238Y-2448426D01*
X27406238Y-2448426D02*
X27406238Y-2314074D01*
X27271887Y-2314074D01*
X27271887Y-2448426D01*
X27406238Y-2448426D01*
D14*
X2357500Y-2901250D02*
X2507500Y-2751250D01*
X2357500Y-2601250D01*
X2207500Y-2751250D01*
X2357500Y-2901250D01*
X2476500Y-2277250D02*
X2626500Y-2127250D01*
X2476500Y-1977250D01*
X2326500Y-2127250D01*
X2476500Y-2277250D01*
X2595625Y-4806250D02*
X2745625Y-4656250D01*
X2595625Y-4506250D01*
X2445625Y-4656250D01*
X2595625Y-4806250D01*
X2595625Y-6711250D02*
X2745625Y-6561250D01*
X2595625Y-6411250D01*
X2445625Y-6561250D01*
X2595625Y-6711250D01*
X2714625Y-4182250D02*
X2864625Y-4032250D01*
X2714625Y-3882250D01*
X2564625Y-4032250D01*
X2714625Y-4182250D01*
X2714625Y-6087250D02*
X2864625Y-5937250D01*
X2714625Y-5787250D01*
X2564625Y-5937250D01*
X2714625Y-6087250D01*
X2857500Y-3121250D02*
X3007500Y-2971250D01*
X2857500Y-2821250D01*
X2707500Y-2971250D01*
X2857500Y-3121250D01*
X3095625Y-5026250D02*
X3245625Y-4876250D01*
X3095625Y-4726250D01*
X2945625Y-4876250D01*
X3095625Y-5026250D01*
X3095625Y-6931250D02*
X3245625Y-6781250D01*
X3095625Y-6631250D01*
X2945625Y-6781250D01*
X3095625Y-6931250D01*
X3111500Y-2023250D02*
X3261500Y-1873250D01*
X3111500Y-1723250D01*
X2961500Y-1873250D01*
X3111500Y-2023250D01*
X3349625Y-3928250D02*
X3499625Y-3778250D01*
X3349625Y-3628250D01*
X3199625Y-3778250D01*
X3349625Y-3928250D01*
X3349625Y-5833250D02*
X3499625Y-5683250D01*
X3349625Y-5533250D01*
X3199625Y-5683250D01*
X3349625Y-5833250D01*
X4738750Y-3377500D02*
X4888750Y-3227500D01*
X4738750Y-3077500D01*
X4588750Y-3227500D01*
X4738750Y-3377500D01*
X4738750Y-5282500D02*
X4888750Y-5132500D01*
X4738750Y-4982500D01*
X4588750Y-5132500D01*
X4738750Y-5282500D01*
X4738750Y-7187500D02*
X4888750Y-7037500D01*
X4738750Y-6887500D01*
X4588750Y-7037500D01*
X4738750Y-7187500D01*
X4857750Y-2753500D02*
X5007750Y-2603500D01*
X4857750Y-2453500D01*
X4707750Y-2603500D01*
X4857750Y-2753500D01*
X4857750Y-4658500D02*
X5007750Y-4508500D01*
X4857750Y-4358500D01*
X4707750Y-4508500D01*
X4857750Y-4658500D01*
X4857750Y-6563500D02*
X5007750Y-6413500D01*
X4857750Y-6263500D01*
X4707750Y-6413500D01*
X4857750Y-6563500D01*
X5238750Y-3597500D02*
X5388750Y-3447500D01*
X5238750Y-3297500D01*
X5088750Y-3447500D01*
X5238750Y-3597500D01*
X5238750Y-5502500D02*
X5388750Y-5352500D01*
X5238750Y-5202500D01*
X5088750Y-5352500D01*
X5238750Y-5502500D01*
X5238750Y-7407500D02*
X5388750Y-7257500D01*
X5238750Y-7107500D01*
X5088750Y-7257500D01*
X5238750Y-7407500D01*
X5492750Y-2499500D02*
X5642750Y-2349500D01*
X5492750Y-2199500D01*
X5342750Y-2349500D01*
X5492750Y-2499500D01*
X5492750Y-4404500D02*
X5642750Y-4254500D01*
X5492750Y-4104500D01*
X5342750Y-4254500D01*
X5492750Y-4404500D01*
X5492750Y-6309500D02*
X5642750Y-6159500D01*
X5492750Y-6009500D01*
X5342750Y-6159500D01*
X5492750Y-6309500D01*
X6643750Y-2901250D02*
X6793750Y-2751250D01*
X6643750Y-2601250D01*
X6493750Y-2751250D01*
X6643750Y-2901250D01*
X6643750Y-4806250D02*
X6793750Y-4656250D01*
X6643750Y-4506250D01*
X6493750Y-4656250D01*
X6643750Y-4806250D01*
X6643750Y-6711250D02*
X6793750Y-6561250D01*
X6643750Y-6411250D01*
X6493750Y-6561250D01*
X6643750Y-6711250D01*
X6762750Y-2277250D02*
X6912750Y-2127250D01*
X6762750Y-1977250D01*
X6612750Y-2127250D01*
X6762750Y-2277250D01*
X6762750Y-4182250D02*
X6912750Y-4032250D01*
X6762750Y-3882250D01*
X6612750Y-4032250D01*
X6762750Y-4182250D01*
X6762750Y-6087250D02*
X6912750Y-5937250D01*
X6762750Y-5787250D01*
X6612750Y-5937250D01*
X6762750Y-6087250D01*
X7143750Y-3121250D02*
X7293750Y-2971250D01*
X7143750Y-2821250D01*
X6993750Y-2971250D01*
X7143750Y-3121250D01*
X7143750Y-5026250D02*
X7293750Y-4876250D01*
X7143750Y-4726250D01*
X6993750Y-4876250D01*
X7143750Y-5026250D01*
X7143750Y-6931250D02*
X7293750Y-6781250D01*
X7143750Y-6631250D01*
X6993750Y-6781250D01*
X7143750Y-6931250D01*
X7397750Y-2023250D02*
X7547750Y-1873250D01*
X7397750Y-1723250D01*
X7247750Y-1873250D01*
X7397750Y-2023250D01*
X7397750Y-3928250D02*
X7547750Y-3778250D01*
X7397750Y-3628250D01*
X7247750Y-3778250D01*
X7397750Y-3928250D01*
X7397750Y-5833250D02*
X7547750Y-5683250D01*
X7397750Y-5533250D01*
X7247750Y-5683250D01*
X7397750Y-5833250D01*
X8310625Y-8616250D02*
X8460625Y-8466250D01*
X8310625Y-8316250D01*
X8160625Y-8466250D01*
X8310625Y-8616250D01*
X8429625Y-7992250D02*
X8579625Y-7842250D01*
X8429625Y-7692250D01*
X8279625Y-7842250D01*
X8429625Y-7992250D01*
X8548750Y-2901250D02*
X8698750Y-2751250D01*
X8548750Y-2601250D01*
X8398750Y-2751250D01*
X8548750Y-2901250D01*
X8548750Y-4806250D02*
X8698750Y-4656250D01*
X8548750Y-4506250D01*
X8398750Y-4656250D01*
X8548750Y-4806250D01*
X8548750Y-6711250D02*
X8698750Y-6561250D01*
X8548750Y-6411250D01*
X8398750Y-6561250D01*
X8548750Y-6711250D01*
X8667750Y-2277250D02*
X8817750Y-2127250D01*
X8667750Y-1977250D01*
X8517750Y-2127250D01*
X8667750Y-2277250D01*
X8667750Y-4182250D02*
X8817750Y-4032250D01*
X8667750Y-3882250D01*
X8517750Y-4032250D01*
X8667750Y-4182250D01*
X8667750Y-6087250D02*
X8817750Y-5937250D01*
X8667750Y-5787250D01*
X8517750Y-5937250D01*
X8667750Y-6087250D01*
X8810625Y-8836250D02*
X8960625Y-8686250D01*
X8810625Y-8536250D01*
X8660625Y-8686250D01*
X8810625Y-8836250D01*
X9048750Y-3121250D02*
X9198750Y-2971250D01*
X9048750Y-2821250D01*
X8898750Y-2971250D01*
X9048750Y-3121250D01*
X9048750Y-5026250D02*
X9198750Y-4876250D01*
X9048750Y-4726250D01*
X8898750Y-4876250D01*
X9048750Y-5026250D01*
X9048750Y-6931250D02*
X9198750Y-6781250D01*
X9048750Y-6631250D01*
X8898750Y-6781250D01*
X9048750Y-6931250D01*
X9064625Y-7738250D02*
X9214625Y-7588250D01*
X9064625Y-7438250D01*
X8914625Y-7588250D01*
X9064625Y-7738250D01*
X9302750Y-2023250D02*
X9452750Y-1873250D01*
X9302750Y-1723250D01*
X9152750Y-1873250D01*
X9302750Y-2023250D01*
X9302750Y-3928250D02*
X9452750Y-3778250D01*
X9302750Y-3628250D01*
X9152750Y-3778250D01*
X9302750Y-3928250D01*
X9302750Y-5833250D02*
X9452750Y-5683250D01*
X9302750Y-5533250D01*
X9152750Y-5683250D01*
X9302750Y-5833250D01*
X10453750Y-3853750D02*
X10603750Y-3703750D01*
X10453750Y-3553750D01*
X10303750Y-3703750D01*
X10453750Y-3853750D01*
X10453750Y-5758750D02*
X10603750Y-5608750D01*
X10453750Y-5458750D01*
X10303750Y-5608750D01*
X10453750Y-5758750D01*
X10453750Y-7663750D02*
X10603750Y-7513750D01*
X10453750Y-7363750D01*
X10303750Y-7513750D01*
X10453750Y-7663750D01*
X10453750Y-9568750D02*
X10603750Y-9418750D01*
X10453750Y-9268750D01*
X10303750Y-9418750D01*
X10453750Y-9568750D01*
X10572750Y-3229750D02*
X10722750Y-3079750D01*
X10572750Y-2929750D01*
X10422750Y-3079750D01*
X10572750Y-3229750D01*
X10572750Y-5134750D02*
X10722750Y-4984750D01*
X10572750Y-4834750D01*
X10422750Y-4984750D01*
X10572750Y-5134750D01*
X10572750Y-7039750D02*
X10722750Y-6889750D01*
X10572750Y-6739750D01*
X10422750Y-6889750D01*
X10572750Y-7039750D01*
X10572750Y-8944750D02*
X10722750Y-8794750D01*
X10572750Y-8644750D01*
X10422750Y-8794750D01*
X10572750Y-8944750D01*
X10953750Y-4073750D02*
X11103750Y-3923750D01*
X10953750Y-3773750D01*
X10803750Y-3923750D01*
X10953750Y-4073750D01*
X10953750Y-5978750D02*
X11103750Y-5828750D01*
X10953750Y-5678750D01*
X10803750Y-5828750D01*
X10953750Y-5978750D01*
X10953750Y-7883750D02*
X11103750Y-7733750D01*
X10953750Y-7583750D01*
X10803750Y-7733750D01*
X10953750Y-7883750D01*
X10953750Y-9788750D02*
X11103750Y-9638750D01*
X10953750Y-9488750D01*
X10803750Y-9638750D01*
X10953750Y-9788750D01*
X11207750Y-2975750D02*
X11357750Y-2825750D01*
X11207750Y-2675750D01*
X11057750Y-2825750D01*
X11207750Y-2975750D01*
X11207750Y-4880750D02*
X11357750Y-4730750D01*
X11207750Y-4580750D01*
X11057750Y-4730750D01*
X11207750Y-4880750D01*
X11207750Y-6785750D02*
X11357750Y-6635750D01*
X11207750Y-6485750D01*
X11057750Y-6635750D01*
X11207750Y-6785750D01*
X11207750Y-8690750D02*
X11357750Y-8540750D01*
X11207750Y-8390750D01*
X11057750Y-8540750D01*
X11207750Y-8690750D01*
X12358750Y-4806250D02*
X12508750Y-4656250D01*
X12358750Y-4506250D01*
X12208750Y-4656250D01*
X12358750Y-4806250D01*
X12358750Y-6711250D02*
X12508750Y-6561250D01*
X12358750Y-6411250D01*
X12208750Y-6561250D01*
X12358750Y-6711250D01*
X12358750Y-8616250D02*
X12508750Y-8466250D01*
X12358750Y-8316250D01*
X12208750Y-8466250D01*
X12358750Y-8616250D01*
X12477750Y-4182250D02*
X12627750Y-4032250D01*
X12477750Y-3882250D01*
X12327750Y-4032250D01*
X12477750Y-4182250D01*
X12477750Y-6087250D02*
X12627750Y-5937250D01*
X12477750Y-5787250D01*
X12327750Y-5937250D01*
X12477750Y-6087250D01*
X12477750Y-7992250D02*
X12627750Y-7842250D01*
X12477750Y-7692250D01*
X12327750Y-7842250D01*
X12477750Y-7992250D01*
X12596875Y-10521250D02*
X12746875Y-10371250D01*
X12596875Y-10221250D01*
X12446875Y-10371250D01*
X12596875Y-10521250D01*
X12715875Y-9897250D02*
X12865875Y-9747250D01*
X12715875Y-9597250D01*
X12565875Y-9747250D01*
X12715875Y-9897250D01*
X12858750Y-5026250D02*
X13008750Y-4876250D01*
X12858750Y-4726250D01*
X12708750Y-4876250D01*
X12858750Y-5026250D01*
X12858750Y-6931250D02*
X13008750Y-6781250D01*
X12858750Y-6631250D01*
X12708750Y-6781250D01*
X12858750Y-6931250D01*
X12858750Y-8836250D02*
X13008750Y-8686250D01*
X12858750Y-8536250D01*
X12708750Y-8686250D01*
X12858750Y-8836250D01*
X13096875Y-10741250D02*
X13246875Y-10591250D01*
X13096875Y-10441250D01*
X12946875Y-10591250D01*
X13096875Y-10741250D01*
X13112750Y-3928250D02*
X13262750Y-3778250D01*
X13112750Y-3628250D01*
X12962750Y-3778250D01*
X13112750Y-3928250D01*
X13112750Y-5833250D02*
X13262750Y-5683250D01*
X13112750Y-5533250D01*
X12962750Y-5683250D01*
X13112750Y-5833250D01*
X13112750Y-7738250D02*
X13262750Y-7588250D01*
X13112750Y-7438250D01*
X12962750Y-7588250D01*
X13112750Y-7738250D01*
X13350875Y-9643250D02*
X13500875Y-9493250D01*
X13350875Y-9343250D01*
X13200875Y-9493250D01*
X13350875Y-9643250D01*
X16049687Y-10521250D02*
X16199687Y-10371250D01*
X16049687Y-10221250D01*
X15899687Y-10371250D01*
X16049687Y-10521250D01*
X16168687Y-9897250D02*
X16318687Y-9747250D01*
X16168687Y-9597250D01*
X16018687Y-9747250D01*
X16168687Y-9897250D01*
X16287812Y-4806250D02*
X16437812Y-4656250D01*
X16287812Y-4506250D01*
X16137812Y-4656250D01*
X16287812Y-4806250D01*
X16287812Y-6711250D02*
X16437812Y-6561250D01*
X16287812Y-6411250D01*
X16137812Y-6561250D01*
X16287812Y-6711250D01*
X16287812Y-8616250D02*
X16437812Y-8466250D01*
X16287812Y-8316250D01*
X16137812Y-8466250D01*
X16287812Y-8616250D01*
X16406812Y-4182250D02*
X16556812Y-4032250D01*
X16406812Y-3882250D01*
X16256812Y-4032250D01*
X16406812Y-4182250D01*
X16406812Y-6087250D02*
X16556812Y-5937250D01*
X16406812Y-5787250D01*
X16256812Y-5937250D01*
X16406812Y-6087250D01*
X16406812Y-7992250D02*
X16556812Y-7842250D01*
X16406812Y-7692250D01*
X16256812Y-7842250D01*
X16406812Y-7992250D01*
X16549687Y-10741250D02*
X16699687Y-10591250D01*
X16549687Y-10441250D01*
X16399687Y-10591250D01*
X16549687Y-10741250D01*
X16787812Y-5026250D02*
X16937812Y-4876250D01*
X16787812Y-4726250D01*
X16637812Y-4876250D01*
X16787812Y-5026250D01*
X16787812Y-6931250D02*
X16937812Y-6781250D01*
X16787812Y-6631250D01*
X16637812Y-6781250D01*
X16787812Y-6931250D01*
X16787812Y-8836250D02*
X16937812Y-8686250D01*
X16787812Y-8536250D01*
X16637812Y-8686250D01*
X16787812Y-8836250D01*
X16803688Y-9643250D02*
X16953688Y-9493250D01*
X16803688Y-9343250D01*
X16653687Y-9493250D01*
X16803688Y-9643250D01*
X17041812Y-3928250D02*
X17191812Y-3778250D01*
X17041812Y-3628250D01*
X16891812Y-3778250D01*
X17041812Y-3928250D01*
X17041812Y-5833250D02*
X17191812Y-5683250D01*
X17041812Y-5533250D01*
X16891812Y-5683250D01*
X17041812Y-5833250D01*
X17041812Y-7738250D02*
X17191812Y-7588250D01*
X17041812Y-7438250D01*
X16891812Y-7588250D01*
X17041812Y-7738250D01*
X18192812Y-3853750D02*
X18342812Y-3703750D01*
X18192812Y-3553750D01*
X18042812Y-3703750D01*
X18192812Y-3853750D01*
X18192812Y-5758750D02*
X18342812Y-5608750D01*
X18192812Y-5458750D01*
X18042812Y-5608750D01*
X18192812Y-5758750D01*
X18192812Y-7663750D02*
X18342812Y-7513750D01*
X18192812Y-7363750D01*
X18042812Y-7513750D01*
X18192812Y-7663750D01*
X18192812Y-9568750D02*
X18342812Y-9418750D01*
X18192812Y-9268750D01*
X18042812Y-9418750D01*
X18192812Y-9568750D01*
X18311812Y-3229750D02*
X18461812Y-3079750D01*
X18311812Y-2929750D01*
X18161812Y-3079750D01*
X18311812Y-3229750D01*
X18311812Y-5134750D02*
X18461812Y-4984750D01*
X18311812Y-4834750D01*
X18161812Y-4984750D01*
X18311812Y-5134750D01*
X18311812Y-7039750D02*
X18461812Y-6889750D01*
X18311812Y-6739750D01*
X18161812Y-6889750D01*
X18311812Y-7039750D01*
X18311812Y-8944750D02*
X18461812Y-8794750D01*
X18311812Y-8644750D01*
X18161812Y-8794750D01*
X18311812Y-8944750D01*
X18692812Y-4073750D02*
X18842812Y-3923750D01*
X18692812Y-3773750D01*
X18542812Y-3923750D01*
X18692812Y-4073750D01*
X18692812Y-5978750D02*
X18842812Y-5828750D01*
X18692812Y-5678750D01*
X18542812Y-5828750D01*
X18692812Y-5978750D01*
X18692812Y-7883750D02*
X18842812Y-7733750D01*
X18692812Y-7583750D01*
X18542812Y-7733750D01*
X18692812Y-7883750D01*
X18692812Y-9788750D02*
X18842812Y-9638750D01*
X18692812Y-9488750D01*
X18542812Y-9638750D01*
X18692812Y-9788750D01*
X18946812Y-2975750D02*
X19096812Y-2825750D01*
X18946812Y-2675750D01*
X18796812Y-2825750D01*
X18946812Y-2975750D01*
X18946812Y-4880750D02*
X19096812Y-4730750D01*
X18946812Y-4580750D01*
X18796812Y-4730750D01*
X18946812Y-4880750D01*
X18946812Y-6785750D02*
X19096812Y-6635750D01*
X18946812Y-6485750D01*
X18796812Y-6635750D01*
X18946812Y-6785750D01*
X18946812Y-8690750D02*
X19096812Y-8540750D01*
X18946812Y-8390750D01*
X18796812Y-8540750D01*
X18946812Y-8690750D01*
X20097812Y-2901250D02*
X20247812Y-2751250D01*
X20097812Y-2601250D01*
X19947812Y-2751250D01*
X20097812Y-2901250D01*
X20097812Y-4806250D02*
X20247812Y-4656250D01*
X20097812Y-4506250D01*
X19947812Y-4656250D01*
X20097812Y-4806250D01*
X20097812Y-6711250D02*
X20247812Y-6561250D01*
X20097812Y-6411250D01*
X19947812Y-6561250D01*
X20097812Y-6711250D01*
X20216812Y-2277250D02*
X20366812Y-2127250D01*
X20216812Y-1977250D01*
X20066812Y-2127250D01*
X20216812Y-2277250D01*
X20216812Y-4182250D02*
X20366812Y-4032250D01*
X20216812Y-3882250D01*
X20066812Y-4032250D01*
X20216812Y-4182250D01*
X20216812Y-6087250D02*
X20366812Y-5937250D01*
X20216812Y-5787250D01*
X20066812Y-5937250D01*
X20216812Y-6087250D01*
X20335938Y-8616250D02*
X20485938Y-8466250D01*
X20335938Y-8316250D01*
X20185938Y-8466250D01*
X20335938Y-8616250D01*
X20454938Y-7992250D02*
X20604938Y-7842250D01*
X20454938Y-7692250D01*
X20304938Y-7842250D01*
X20454938Y-7992250D01*
X20597812Y-3121250D02*
X20747812Y-2971250D01*
X20597812Y-2821250D01*
X20447812Y-2971250D01*
X20597812Y-3121250D01*
X20597812Y-5026250D02*
X20747812Y-4876250D01*
X20597812Y-4726250D01*
X20447812Y-4876250D01*
X20597812Y-5026250D01*
X20597812Y-6931250D02*
X20747812Y-6781250D01*
X20597812Y-6631250D01*
X20447812Y-6781250D01*
X20597812Y-6931250D01*
X20835938Y-8836250D02*
X20985938Y-8686250D01*
X20835938Y-8536250D01*
X20685938Y-8686250D01*
X20835938Y-8836250D01*
X20851812Y-2023250D02*
X21001812Y-1873250D01*
X20851812Y-1723250D01*
X20701812Y-1873250D01*
X20851812Y-2023250D01*
X20851812Y-3928250D02*
X21001812Y-3778250D01*
X20851812Y-3628250D01*
X20701812Y-3778250D01*
X20851812Y-3928250D01*
X20851812Y-5833250D02*
X21001812Y-5683250D01*
X20851812Y-5533250D01*
X20701812Y-5683250D01*
X20851812Y-5833250D01*
X21089938Y-7738250D02*
X21239938Y-7588250D01*
X21089938Y-7438250D01*
X20939938Y-7588250D01*
X21089938Y-7738250D01*
X22002812Y-2901250D02*
X22152812Y-2751250D01*
X22002812Y-2601250D01*
X21852812Y-2751250D01*
X22002812Y-2901250D01*
X22002812Y-4806250D02*
X22152812Y-4656250D01*
X22002812Y-4506250D01*
X21852812Y-4656250D01*
X22002812Y-4806250D01*
X22002812Y-6711250D02*
X22152812Y-6561250D01*
X22002812Y-6411250D01*
X21852812Y-6561250D01*
X22002812Y-6711250D01*
X22121812Y-2277250D02*
X22271812Y-2127250D01*
X22121812Y-1977250D01*
X21971812Y-2127250D01*
X22121812Y-2277250D01*
X22121812Y-4182250D02*
X22271812Y-4032250D01*
X22121812Y-3882250D01*
X21971812Y-4032250D01*
X22121812Y-4182250D01*
X22121812Y-6087250D02*
X22271812Y-5937250D01*
X22121812Y-5787250D01*
X21971812Y-5937250D01*
X22121812Y-6087250D01*
X22502812Y-3121250D02*
X22652812Y-2971250D01*
X22502812Y-2821250D01*
X22352812Y-2971250D01*
X22502812Y-3121250D01*
X22502812Y-5026250D02*
X22652812Y-4876250D01*
X22502812Y-4726250D01*
X22352812Y-4876250D01*
X22502812Y-5026250D01*
X22502812Y-6931250D02*
X22652812Y-6781250D01*
X22502812Y-6631250D01*
X22352812Y-6781250D01*
X22502812Y-6931250D01*
X22756812Y-2023250D02*
X22906812Y-1873250D01*
X22756812Y-1723250D01*
X22606812Y-1873250D01*
X22756812Y-2023250D01*
X22756812Y-3928250D02*
X22906812Y-3778250D01*
X22756812Y-3628250D01*
X22606812Y-3778250D01*
X22756812Y-3928250D01*
X22756812Y-5833250D02*
X22906812Y-5683250D01*
X22756812Y-5533250D01*
X22606812Y-5683250D01*
X22756812Y-5833250D01*
X23907812Y-3377500D02*
X24057812Y-3227500D01*
X23907812Y-3077500D01*
X23757812Y-3227500D01*
X23907812Y-3377500D01*
X23907812Y-5282500D02*
X24057812Y-5132500D01*
X23907812Y-4982500D01*
X23757812Y-5132500D01*
X23907812Y-5282500D01*
X23907812Y-7187500D02*
X24057812Y-7037500D01*
X23907812Y-6887500D01*
X23757812Y-7037500D01*
X23907812Y-7187500D01*
X24026812Y-2753500D02*
X24176812Y-2603500D01*
X24026812Y-2453500D01*
X23876812Y-2603500D01*
X24026812Y-2753500D01*
X24026812Y-4658500D02*
X24176812Y-4508500D01*
X24026812Y-4358500D01*
X23876812Y-4508500D01*
X24026812Y-4658500D01*
X24026812Y-6563500D02*
X24176812Y-6413500D01*
X24026812Y-6263500D01*
X23876812Y-6413500D01*
X24026812Y-6563500D01*
X24407812Y-3597500D02*
X24557812Y-3447500D01*
X24407812Y-3297500D01*
X24257812Y-3447500D01*
X24407812Y-3597500D01*
X24407812Y-5502500D02*
X24557812Y-5352500D01*
X24407812Y-5202500D01*
X24257812Y-5352500D01*
X24407812Y-5502500D01*
X24407812Y-7407500D02*
X24557812Y-7257500D01*
X24407812Y-7107500D01*
X24257812Y-7257500D01*
X24407812Y-7407500D01*
X24661812Y-2499500D02*
X24811812Y-2349500D01*
X24661812Y-2199500D01*
X24511812Y-2349500D01*
X24661812Y-2499500D01*
X24661812Y-4404500D02*
X24811812Y-4254500D01*
X24661812Y-4104500D01*
X24511812Y-4254500D01*
X24661812Y-4404500D01*
X24661812Y-6309500D02*
X24811812Y-6159500D01*
X24661812Y-6009500D01*
X24511812Y-6159500D01*
X24661812Y-6309500D01*
X25812812Y-4806250D02*
X25962812Y-4656250D01*
X25812812Y-4506250D01*
X25662812Y-4656250D01*
X25812812Y-4806250D01*
X25931812Y-4182250D02*
X26081812Y-4032250D01*
X25931812Y-3882250D01*
X25781812Y-4032250D01*
X25931812Y-4182250D01*
X26050937Y-6711250D02*
X26200937Y-6561250D01*
X26050937Y-6411250D01*
X25900937Y-6561250D01*
X26050937Y-6711250D01*
X26169937Y-6087250D02*
X26319937Y-5937250D01*
X26169937Y-5787250D01*
X26019937Y-5937250D01*
X26169937Y-6087250D01*
X26289062Y-2901250D02*
X26439062Y-2751250D01*
X26289062Y-2601250D01*
X26139062Y-2751250D01*
X26289062Y-2901250D01*
X26312812Y-5026250D02*
X26462812Y-4876250D01*
X26312812Y-4726250D01*
X26162812Y-4876250D01*
X26312812Y-5026250D01*
X26408062Y-2277250D02*
X26558062Y-2127250D01*
X26408062Y-1977250D01*
X26258062Y-2127250D01*
X26408062Y-2277250D01*
X26550937Y-6931250D02*
X26700937Y-6781250D01*
X26550937Y-6631250D01*
X26400937Y-6781250D01*
X26550937Y-6931250D01*
X26566812Y-3928250D02*
X26716812Y-3778250D01*
X26566812Y-3628250D01*
X26416812Y-3778250D01*
X26566812Y-3928250D01*
X26789062Y-3121250D02*
X26939062Y-2971250D01*
X26789062Y-2821250D01*
X26639062Y-2971250D01*
X26789062Y-3121250D01*
X26804937Y-5833250D02*
X26954937Y-5683250D01*
X26804937Y-5533250D01*
X26654937Y-5683250D01*
X26804937Y-5833250D01*
X27043062Y-2023250D02*
X27193062Y-1873250D01*
X27043062Y-1723250D01*
X26893062Y-1873250D01*
X27043062Y-2023250D01*
D15*
X2607500Y-2131250D02*
X3107500Y-2631250D01*
X3107500Y-2131250D02*
X2607500Y-2631250D01*
X3107500Y-2381250D02*
G75*
G02*
X2607500Y-2381250I-250000J0D01*
G01*
X2607500Y-2381250D02*
G75*
G02*
X3107500Y-2381250I250000J0D01*
G01*
X2845625Y-4036250D02*
X3345625Y-4536250D01*
X3345625Y-4036250D02*
X2845625Y-4536250D01*
X3345625Y-4286250D02*
G75*
G02*
X2845625Y-4286250I-250000J0D01*
G01*
X2845625Y-4286250D02*
G75*
G02*
X3345625Y-4286250I250000J0D01*
G01*
X2845625Y-5941250D02*
X3345625Y-6441250D01*
X3345625Y-5941250D02*
X2845625Y-6441250D01*
X3345625Y-6191250D02*
G75*
G02*
X2845625Y-6191250I-250000J0D01*
G01*
X2845625Y-6191250D02*
G75*
G02*
X3345625Y-6191250I250000J0D01*
G01*
X4988750Y-2607500D02*
X5488750Y-3107500D01*
X5488750Y-2607500D02*
X4988750Y-3107500D01*
X5488750Y-2857500D02*
G75*
G02*
X4988750Y-2857500I-250000J0D01*
G01*
X4988750Y-2857500D02*
G75*
G02*
X5488750Y-2857500I250000J0D01*
G01*
X4988750Y-4512500D02*
X5488750Y-5012500D01*
X5488750Y-4512500D02*
X4988750Y-5012500D01*
X5488750Y-4762500D02*
G75*
G02*
X4988750Y-4762500I-250000J0D01*
G01*
X4988750Y-4762500D02*
G75*
G02*
X5488750Y-4762500I250000J0D01*
G01*
X4988750Y-6417500D02*
X5488750Y-6917500D01*
X5488750Y-6417500D02*
X4988750Y-6917500D01*
X5488750Y-6667500D02*
G75*
G02*
X4988750Y-6667500I-250000J0D01*
G01*
X4988750Y-6667500D02*
G75*
G02*
X5488750Y-6667500I250000J0D01*
G01*
X6893750Y-2131250D02*
X7393750Y-2631250D01*
X7393750Y-2131250D02*
X6893750Y-2631250D01*
X7393750Y-2381250D02*
G75*
G02*
X6893750Y-2381250I-250000J0D01*
G01*
X6893750Y-2381250D02*
G75*
G02*
X7393750Y-2381250I250000J0D01*
G01*
X6893750Y-4036250D02*
X7393750Y-4536250D01*
X7393750Y-4036250D02*
X6893750Y-4536250D01*
X7393750Y-4286250D02*
G75*
G02*
X6893750Y-4286250I-250000J0D01*
G01*
X6893750Y-4286250D02*
G75*
G02*
X7393750Y-4286250I250000J0D01*
G01*
X6893750Y-5941250D02*
X7393750Y-6441250D01*
X7393750Y-5941250D02*
X6893750Y-6441250D01*
X7393750Y-6191250D02*
G75*
G02*
X6893750Y-6191250I-250000J0D01*
G01*
X6893750Y-6191250D02*
G75*
G02*
X7393750Y-6191250I250000J0D01*
G01*
X8560625Y-7846250D02*
X9060625Y-8346250D01*
X9060625Y-7846250D02*
X8560625Y-8346250D01*
X9060625Y-8096250D02*
G75*
G02*
X8560625Y-8096250I-250000J0D01*
G01*
X8560625Y-8096250D02*
G75*
G02*
X9060625Y-8096250I250000J0D01*
G01*
X8798750Y-2131250D02*
X9298750Y-2631250D01*
X9298750Y-2131250D02*
X8798750Y-2631250D01*
X9298750Y-2381250D02*
G75*
G02*
X8798750Y-2381250I-250000J0D01*
G01*
X8798750Y-2381250D02*
G75*
G02*
X9298750Y-2381250I250000J0D01*
G01*
X8798750Y-4036250D02*
X9298750Y-4536250D01*
X9298750Y-4036250D02*
X8798750Y-4536250D01*
X9298750Y-4286250D02*
G75*
G02*
X8798750Y-4286250I-250000J0D01*
G01*
X8798750Y-4286250D02*
G75*
G02*
X9298750Y-4286250I250000J0D01*
G01*
X8798750Y-5941250D02*
X9298750Y-6441250D01*
X9298750Y-5941250D02*
X8798750Y-6441250D01*
X9298750Y-6191250D02*
G75*
G02*
X8798750Y-6191250I-250000J0D01*
G01*
X8798750Y-6191250D02*
G75*
G02*
X9298750Y-6191250I250000J0D01*
G01*
X10703750Y-3083750D02*
X11203750Y-3583750D01*
X11203750Y-3083750D02*
X10703750Y-3583750D01*
X11203750Y-3333750D02*
G75*
G02*
X10703750Y-3333750I-250000J0D01*
G01*
X10703750Y-3333750D02*
G75*
G02*
X11203750Y-3333750I250000J0D01*
G01*
X10703750Y-4988750D02*
X11203750Y-5488750D01*
X11203750Y-4988750D02*
X10703750Y-5488750D01*
X11203750Y-5238750D02*
G75*
G02*
X10703750Y-5238750I-250000J0D01*
G01*
X10703750Y-5238750D02*
G75*
G02*
X11203750Y-5238750I250000J0D01*
G01*
X10703750Y-6893750D02*
X11203750Y-7393750D01*
X11203750Y-6893750D02*
X10703750Y-7393750D01*
X11203750Y-7143750D02*
G75*
G02*
X10703750Y-7143750I-250000J0D01*
G01*
X10703750Y-7143750D02*
G75*
G02*
X11203750Y-7143750I250000J0D01*
G01*
X10703750Y-8798750D02*
X11203750Y-9298750D01*
X11203750Y-8798750D02*
X10703750Y-9298750D01*
X11203750Y-9048750D02*
G75*
G02*
X10703750Y-9048750I-250000J0D01*
G01*
X10703750Y-9048750D02*
G75*
G02*
X11203750Y-9048750I250000J0D01*
G01*
X12608750Y-4036250D02*
X13108750Y-4536250D01*
X13108750Y-4036250D02*
X12608750Y-4536250D01*
X13108750Y-4286250D02*
G75*
G02*
X12608750Y-4286250I-250000J0D01*
G01*
X12608750Y-4286250D02*
G75*
G02*
X13108750Y-4286250I250000J0D01*
G01*
X12608750Y-5941250D02*
X13108750Y-6441250D01*
X13108750Y-5941250D02*
X12608750Y-6441250D01*
X13108750Y-6191250D02*
G75*
G02*
X12608750Y-6191250I-250000J0D01*
G01*
X12608750Y-6191250D02*
G75*
G02*
X13108750Y-6191250I250000J0D01*
G01*
X12608750Y-7846250D02*
X13108750Y-8346250D01*
X13108750Y-7846250D02*
X12608750Y-8346250D01*
X13108750Y-8096250D02*
G75*
G02*
X12608750Y-8096250I-250000J0D01*
G01*
X12608750Y-8096250D02*
G75*
G02*
X13108750Y-8096250I250000J0D01*
G01*
X12846875Y-9751250D02*
X13346875Y-10251250D01*
X13346875Y-9751250D02*
X12846875Y-10251250D01*
X13346875Y-10001250D02*
G75*
G02*
X12846875Y-10001250I-250000J0D01*
G01*
X12846875Y-10001250D02*
G75*
G02*
X13346875Y-10001250I250000J0D01*
G01*
X16299687Y-9751250D02*
X16799688Y-10251250D01*
X16799688Y-9751250D02*
X16299687Y-10251250D01*
X16799688Y-10001250D02*
G75*
G02*
X16299687Y-10001250I-250000J0D01*
G01*
X16299687Y-10001250D02*
G75*
G02*
X16799688Y-10001250I250000J0D01*
G01*
X16537812Y-4036250D02*
X17037812Y-4536250D01*
X17037812Y-4036250D02*
X16537812Y-4536250D01*
X17037812Y-4286250D02*
G75*
G02*
X16537812Y-4286250I-250000J0D01*
G01*
X16537812Y-4286250D02*
G75*
G02*
X17037812Y-4286250I250000J0D01*
G01*
X16537812Y-5941250D02*
X17037812Y-6441250D01*
X17037812Y-5941250D02*
X16537812Y-6441250D01*
X17037812Y-6191250D02*
G75*
G02*
X16537812Y-6191250I-250000J0D01*
G01*
X16537812Y-6191250D02*
G75*
G02*
X17037812Y-6191250I250000J0D01*
G01*
X16537812Y-7846250D02*
X17037812Y-8346250D01*
X17037812Y-7846250D02*
X16537812Y-8346250D01*
X17037812Y-8096250D02*
G75*
G02*
X16537812Y-8096250I-250000J0D01*
G01*
X16537812Y-8096250D02*
G75*
G02*
X17037812Y-8096250I250000J0D01*
G01*
X18442812Y-3083750D02*
X18942812Y-3583750D01*
X18942812Y-3083750D02*
X18442812Y-3583750D01*
X18942812Y-3333750D02*
G75*
G02*
X18442812Y-3333750I-250000J0D01*
G01*
X18442812Y-3333750D02*
G75*
G02*
X18942812Y-3333750I250000J0D01*
G01*
X18442812Y-4988750D02*
X18942812Y-5488750D01*
X18942812Y-4988750D02*
X18442812Y-5488750D01*
X18942812Y-5238750D02*
G75*
G02*
X18442812Y-5238750I-250000J0D01*
G01*
X18442812Y-5238750D02*
G75*
G02*
X18942812Y-5238750I250000J0D01*
G01*
X18442812Y-6893750D02*
X18942812Y-7393750D01*
X18942812Y-6893750D02*
X18442812Y-7393750D01*
X18942812Y-7143750D02*
G75*
G02*
X18442812Y-7143750I-250000J0D01*
G01*
X18442812Y-7143750D02*
G75*
G02*
X18942812Y-7143750I250000J0D01*
G01*
X18442812Y-8798750D02*
X18942812Y-9298750D01*
X18942812Y-8798750D02*
X18442812Y-9298750D01*
X18942812Y-9048750D02*
G75*
G02*
X18442812Y-9048750I-250000J0D01*
G01*
X18442812Y-9048750D02*
G75*
G02*
X18942812Y-9048750I250000J0D01*
G01*
X20347812Y-2131250D02*
X20847812Y-2631250D01*
X20847812Y-2131250D02*
X20347812Y-2631250D01*
X20847812Y-2381250D02*
G75*
G02*
X20347812Y-2381250I-250000J0D01*
G01*
X20347812Y-2381250D02*
G75*
G02*
X20847812Y-2381250I250000J0D01*
G01*
X20347812Y-4036250D02*
X20847812Y-4536250D01*
X20847812Y-4036250D02*
X20347812Y-4536250D01*
X20847812Y-4286250D02*
G75*
G02*
X20347812Y-4286250I-250000J0D01*
G01*
X20347812Y-4286250D02*
G75*
G02*
X20847812Y-4286250I250000J0D01*
G01*
X20347812Y-5941250D02*
X20847812Y-6441250D01*
X20847812Y-5941250D02*
X20347812Y-6441250D01*
X20847812Y-6191250D02*
G75*
G02*
X20347812Y-6191250I-250000J0D01*
G01*
X20347812Y-6191250D02*
G75*
G02*
X20847812Y-6191250I250000J0D01*
G01*
X20585938Y-7846250D02*
X21085938Y-8346250D01*
X21085938Y-7846250D02*
X20585938Y-8346250D01*
X21085938Y-8096250D02*
G75*
G02*
X20585938Y-8096250I-250000J0D01*
G01*
X20585938Y-8096250D02*
G75*
G02*
X21085938Y-8096250I250000J0D01*
G01*
X22252812Y-2131250D02*
X22752812Y-2631250D01*
X22752812Y-2131250D02*
X22252812Y-2631250D01*
X22752812Y-2381250D02*
G75*
G02*
X22252812Y-2381250I-250000J0D01*
G01*
X22252812Y-2381250D02*
G75*
G02*
X22752812Y-2381250I250000J0D01*
G01*
X22252812Y-4036250D02*
X22752812Y-4536250D01*
X22752812Y-4036250D02*
X22252812Y-4536250D01*
X22752812Y-4286250D02*
G75*
G02*
X22252812Y-4286250I-250000J0D01*
G01*
X22252812Y-4286250D02*
G75*
G02*
X22752812Y-4286250I250000J0D01*
G01*
X22252812Y-5941250D02*
X22752812Y-6441250D01*
X22752812Y-5941250D02*
X22252812Y-6441250D01*
X22752812Y-6191250D02*
G75*
G02*
X22252812Y-6191250I-250000J0D01*
G01*
X22252812Y-6191250D02*
G75*
G02*
X22752812Y-6191250I250000J0D01*
G01*
X24157812Y-2607500D02*
X24657812Y-3107500D01*
X24657812Y-2607500D02*
X24157812Y-3107500D01*
X24657812Y-2857500D02*
G75*
G02*
X24157812Y-2857500I-250000J0D01*
G01*
X24157812Y-2857500D02*
G75*
G02*
X24657812Y-2857500I250000J0D01*
G01*
X24157812Y-4512500D02*
X24657812Y-5012500D01*
X24657812Y-4512500D02*
X24157812Y-5012500D01*
X24657812Y-4762500D02*
G75*
G02*
X24157812Y-4762500I-250000J0D01*
G01*
X24157812Y-4762500D02*
G75*
G02*
X24657812Y-4762500I250000J0D01*
G01*
X24157812Y-6417500D02*
X24657812Y-6917500D01*
X24657812Y-6417500D02*
X24157812Y-6917500D01*
X24657812Y-6667500D02*
G75*
G02*
X24157812Y-6667500I-250000J0D01*
G01*
X24157812Y-6667500D02*
G75*
G02*
X24657812Y-6667500I250000J0D01*
G01*
X26062812Y-4036250D02*
X26562812Y-4536250D01*
X26562812Y-4036250D02*
X26062812Y-4536250D01*
X26562812Y-4286250D02*
G75*
G02*
X26062812Y-4286250I-250000J0D01*
G01*
X26062812Y-4286250D02*
G75*
G02*
X26562812Y-4286250I250000J0D01*
G01*
X26300937Y-5941250D02*
X26800937Y-6441250D01*
X26800937Y-5941250D02*
X26300937Y-6441250D01*
X26800937Y-6191250D02*
G75*
G02*
X26300937Y-6191250I-250000J0D01*
G01*
X26300937Y-6191250D02*
G75*
G02*
X26800937Y-6191250I250000J0D01*
G01*
X26539062Y-2131250D02*
X27039062Y-2631250D01*
X27039062Y-2131250D02*
X26539062Y-2631250D01*
X27039062Y-2381250D02*
G75*
G02*
X26539062Y-2381250I-250000J0D01*
G01*
X26539062Y-2381250D02*
G75*
G02*
X27039062Y-2381250I250000J0D01*
G01*
D11*
X1684527Y-11270234D02*
X1684527Y-11070234D01*
X1684527Y-11070234D02*
X1732146Y-11070234D01*
X1732146Y-11070234D02*
X1760717Y-11079758D01*
X1760717Y-11079758D02*
X1779765Y-11098805D01*
X1779765Y-11098805D02*
X1789289Y-11117853D01*
X1789289Y-11117853D02*
X1798812Y-11155948D01*
X1798812Y-11155948D02*
X1798812Y-11184520D01*
X1798812Y-11184520D02*
X1789289Y-11222615D01*
X1789289Y-11222615D02*
X1779765Y-11241662D01*
X1779765Y-11241662D02*
X1760717Y-11260710D01*
X1760717Y-11260710D02*
X1732146Y-11270234D01*
X1732146Y-11270234D02*
X1684527Y-11270234D01*
X1884527Y-11270234D02*
X1884527Y-11136900D01*
X1884527Y-11174996D02*
X1894051Y-11155948D01*
X1894051Y-11155948D02*
X1903574Y-11146424D01*
X1903574Y-11146424D02*
X1922622Y-11136900D01*
X1922622Y-11136900D02*
X1941670Y-11136900D01*
X2008336Y-11270234D02*
X2008336Y-11136900D01*
X2008336Y-11070234D02*
X1998812Y-11079758D01*
X1998812Y-11079758D02*
X2008336Y-11089281D01*
X2008336Y-11089281D02*
X2017860Y-11079758D01*
X2017860Y-11079758D02*
X2008336Y-11070234D01*
X2008336Y-11070234D02*
X2008336Y-11089281D01*
X2132146Y-11270234D02*
X2113098Y-11260710D01*
X2113098Y-11260710D02*
X2103574Y-11241662D01*
X2103574Y-11241662D02*
X2103574Y-11070234D01*
X2236908Y-11270234D02*
X2217860Y-11260710D01*
X2217860Y-11260710D02*
X2208336Y-11241662D01*
X2208336Y-11241662D02*
X2208336Y-11070234D01*
X2465479Y-11270234D02*
X2465479Y-11070234D01*
X2465479Y-11070234D02*
X2532146Y-11213091D01*
X2532146Y-11213091D02*
X2598813Y-11070234D01*
X2598813Y-11070234D02*
X2598813Y-11270234D01*
X2779765Y-11270234D02*
X2779765Y-11165472D01*
X2779765Y-11165472D02*
X2770241Y-11146424D01*
X2770241Y-11146424D02*
X2751194Y-11136900D01*
X2751194Y-11136900D02*
X2713098Y-11136900D01*
X2713098Y-11136900D02*
X2694051Y-11146424D01*
X2779765Y-11260710D02*
X2760717Y-11270234D01*
X2760717Y-11270234D02*
X2713098Y-11270234D01*
X2713098Y-11270234D02*
X2694051Y-11260710D01*
X2694051Y-11260710D02*
X2684527Y-11241662D01*
X2684527Y-11241662D02*
X2684527Y-11222615D01*
X2684527Y-11222615D02*
X2694051Y-11203567D01*
X2694051Y-11203567D02*
X2713098Y-11194043D01*
X2713098Y-11194043D02*
X2760717Y-11194043D01*
X2760717Y-11194043D02*
X2779765Y-11184520D01*
X2875003Y-11136900D02*
X2875003Y-11336900D01*
X2875003Y-11146424D02*
X2894051Y-11136900D01*
X2894051Y-11136900D02*
X2932146Y-11136900D01*
X2932146Y-11136900D02*
X2951193Y-11146424D01*
X2951193Y-11146424D02*
X2960717Y-11155948D01*
X2960717Y-11155948D02*
X2970241Y-11174996D01*
X2970241Y-11174996D02*
X2970241Y-11232138D01*
X2970241Y-11232138D02*
X2960717Y-11251186D01*
X2960717Y-11251186D02*
X2951193Y-11260710D01*
X2951193Y-11260710D02*
X2932146Y-11270234D01*
X2932146Y-11270234D02*
X2894051Y-11270234D01*
X2894051Y-11270234D02*
X2875003Y-11260710D01*
X3055955Y-11251186D02*
X3065479Y-11260710D01*
X3065479Y-11260710D02*
X3055955Y-11270234D01*
X3055955Y-11270234D02*
X3046432Y-11260710D01*
X3046432Y-11260710D02*
X3055955Y-11251186D01*
X3055955Y-11251186D02*
X3055955Y-11270234D01*
X3055955Y-11146424D02*
X3065479Y-11155948D01*
X3065479Y-11155948D02*
X3055955Y-11165472D01*
X3055955Y-11165472D02*
X3046432Y-11155948D01*
X3046432Y-11155948D02*
X3055955Y-11146424D01*
X3055955Y-11146424D02*
X3055955Y-11165472D01*
D10*
X1393750Y-11583750D02*
X1423750Y-11613750D01*
X1423750Y-11583750D02*
X1393750Y-11613750D01*
D11*
X1722622Y-11490234D02*
X1741670Y-11490234D01*
X1741670Y-11490234D02*
X1760717Y-11499758D01*
X1760717Y-11499758D02*
X1770241Y-11509281D01*
X1770241Y-11509281D02*
X1779765Y-11528329D01*
X1779765Y-11528329D02*
X1789289Y-11566424D01*
X1789289Y-11566424D02*
X1789289Y-11614043D01*
X1789289Y-11614043D02*
X1779765Y-11652138D01*
X1779765Y-11652138D02*
X1770241Y-11671186D01*
X1770241Y-11671186D02*
X1760717Y-11680710D01*
X1760717Y-11680710D02*
X1741670Y-11690234D01*
X1741670Y-11690234D02*
X1722622Y-11690234D01*
X1722622Y-11690234D02*
X1703574Y-11680710D01*
X1703574Y-11680710D02*
X1694051Y-11671186D01*
X1694051Y-11671186D02*
X1684527Y-11652138D01*
X1684527Y-11652138D02*
X1675003Y-11614043D01*
X1675003Y-11614043D02*
X1675003Y-11566424D01*
X1675003Y-11566424D02*
X1684527Y-11528329D01*
X1684527Y-11528329D02*
X1694051Y-11509281D01*
X1694051Y-11509281D02*
X1703574Y-11499758D01*
X1703574Y-11499758D02*
X1722622Y-11490234D01*
X1875003Y-11671186D02*
X1884527Y-11680710D01*
X1884527Y-11680710D02*
X1875003Y-11690234D01*
X1875003Y-11690234D02*
X1865479Y-11680710D01*
X1865479Y-11680710D02*
X1875003Y-11671186D01*
X1875003Y-11671186D02*
X1875003Y-11690234D01*
X1951193Y-11490234D02*
X2075003Y-11490234D01*
X2075003Y-11490234D02*
X2008336Y-11566424D01*
X2008336Y-11566424D02*
X2036908Y-11566424D01*
X2036908Y-11566424D02*
X2055955Y-11575948D01*
X2055955Y-11575948D02*
X2065479Y-11585472D01*
X2065479Y-11585472D02*
X2075003Y-11604519D01*
X2075003Y-11604519D02*
X2075003Y-11652138D01*
X2075003Y-11652138D02*
X2065479Y-11671186D01*
X2065479Y-11671186D02*
X2055955Y-11680710D01*
X2055955Y-11680710D02*
X2036908Y-11690234D01*
X2036908Y-11690234D02*
X1979765Y-11690234D01*
X1979765Y-11690234D02*
X1960717Y-11680710D01*
X1960717Y-11680710D02*
X1951193Y-11671186D01*
X2198813Y-11490234D02*
X2217860Y-11490234D01*
X2217860Y-11490234D02*
X2236908Y-11499758D01*
X2236908Y-11499758D02*
X2246432Y-11509281D01*
X2246432Y-11509281D02*
X2255955Y-11528329D01*
X2255955Y-11528329D02*
X2265479Y-11566424D01*
X2265479Y-11566424D02*
X2265479Y-11614043D01*
X2265479Y-11614043D02*
X2255955Y-11652138D01*
X2255955Y-11652138D02*
X2246432Y-11671186D01*
X2246432Y-11671186D02*
X2236908Y-11680710D01*
X2236908Y-11680710D02*
X2217860Y-11690234D01*
X2217860Y-11690234D02*
X2198813Y-11690234D01*
X2198813Y-11690234D02*
X2179765Y-11680710D01*
X2179765Y-11680710D02*
X2170241Y-11671186D01*
X2170241Y-11671186D02*
X2160717Y-11652138D01*
X2160717Y-11652138D02*
X2151194Y-11614043D01*
X2151194Y-11614043D02*
X2151194Y-11566424D01*
X2151194Y-11566424D02*
X2160717Y-11528329D01*
X2160717Y-11528329D02*
X2170241Y-11509281D01*
X2170241Y-11509281D02*
X2179765Y-11499758D01*
X2179765Y-11499758D02*
X2198813Y-11490234D01*
X2389289Y-11490234D02*
X2408336Y-11490234D01*
X2408336Y-11490234D02*
X2427384Y-11499758D01*
X2427384Y-11499758D02*
X2436908Y-11509281D01*
X2436908Y-11509281D02*
X2446432Y-11528329D01*
X2446432Y-11528329D02*
X2455955Y-11566424D01*
X2455955Y-11566424D02*
X2455955Y-11614043D01*
X2455955Y-11614043D02*
X2446432Y-11652138D01*
X2446432Y-11652138D02*
X2436908Y-11671186D01*
X2436908Y-11671186D02*
X2427384Y-11680710D01*
X2427384Y-11680710D02*
X2408336Y-11690234D01*
X2408336Y-11690234D02*
X2389289Y-11690234D01*
X2389289Y-11690234D02*
X2370241Y-11680710D01*
X2370241Y-11680710D02*
X2360717Y-11671186D01*
X2360717Y-11671186D02*
X2351194Y-11652138D01*
X2351194Y-11652138D02*
X2341670Y-11614043D01*
X2341670Y-11614043D02*
X2341670Y-11566424D01*
X2341670Y-11566424D02*
X2351194Y-11528329D01*
X2351194Y-11528329D02*
X2360717Y-11509281D01*
X2360717Y-11509281D02*
X2370241Y-11499758D01*
X2370241Y-11499758D02*
X2389289Y-11490234D01*
X2541670Y-11690234D02*
X2541670Y-11556900D01*
X2541670Y-11575948D02*
X2551194Y-11566424D01*
X2551194Y-11566424D02*
X2570241Y-11556900D01*
X2570241Y-11556900D02*
X2598813Y-11556900D01*
X2598813Y-11556900D02*
X2617860Y-11566424D01*
X2617860Y-11566424D02*
X2627384Y-11585472D01*
X2627384Y-11585472D02*
X2627384Y-11690234D01*
X2627384Y-11585472D02*
X2636908Y-11566424D01*
X2636908Y-11566424D02*
X2655955Y-11556900D01*
X2655955Y-11556900D02*
X2684527Y-11556900D01*
X2684527Y-11556900D02*
X2703575Y-11566424D01*
X2703575Y-11566424D02*
X2713098Y-11585472D01*
X2713098Y-11585472D02*
X2713098Y-11690234D01*
X2808336Y-11690234D02*
X2808336Y-11556900D01*
X2808336Y-11575948D02*
X2817860Y-11566424D01*
X2817860Y-11566424D02*
X2836908Y-11556900D01*
X2836908Y-11556900D02*
X2865479Y-11556900D01*
X2865479Y-11556900D02*
X2884527Y-11566424D01*
X2884527Y-11566424D02*
X2894051Y-11585472D01*
X2894051Y-11585472D02*
X2894051Y-11690234D01*
X2894051Y-11585472D02*
X2903574Y-11566424D01*
X2903574Y-11566424D02*
X2922622Y-11556900D01*
X2922622Y-11556900D02*
X2951193Y-11556900D01*
X2951193Y-11556900D02*
X2970241Y-11566424D01*
X2970241Y-11566424D02*
X2979765Y-11585472D01*
X2979765Y-11585472D02*
X2979765Y-11690234D01*
X3370241Y-11480710D02*
X3198813Y-11737853D01*
X3627384Y-11490234D02*
X3646432Y-11490234D01*
X3646432Y-11490234D02*
X3665479Y-11499758D01*
X3665479Y-11499758D02*
X3675003Y-11509281D01*
X3675003Y-11509281D02*
X3684527Y-11528329D01*
X3684527Y-11528329D02*
X3694051Y-11566424D01*
X3694051Y-11566424D02*
X3694051Y-11614043D01*
X3694051Y-11614043D02*
X3684527Y-11652138D01*
X3684527Y-11652138D02*
X3675003Y-11671186D01*
X3675003Y-11671186D02*
X3665479Y-11680710D01*
X3665479Y-11680710D02*
X3646432Y-11690234D01*
X3646432Y-11690234D02*
X3627384Y-11690234D01*
X3627384Y-11690234D02*
X3608336Y-11680710D01*
X3608336Y-11680710D02*
X3598813Y-11671186D01*
X3598813Y-11671186D02*
X3589289Y-11652138D01*
X3589289Y-11652138D02*
X3579765Y-11614043D01*
X3579765Y-11614043D02*
X3579765Y-11566424D01*
X3579765Y-11566424D02*
X3589289Y-11528329D01*
X3589289Y-11528329D02*
X3598813Y-11509281D01*
X3598813Y-11509281D02*
X3608336Y-11499758D01*
X3608336Y-11499758D02*
X3627384Y-11490234D01*
X3779765Y-11671186D02*
X3789289Y-11680710D01*
X3789289Y-11680710D02*
X3779765Y-11690234D01*
X3779765Y-11690234D02*
X3770241Y-11680710D01*
X3770241Y-11680710D02*
X3779765Y-11671186D01*
X3779765Y-11671186D02*
X3779765Y-11690234D01*
X3913098Y-11490234D02*
X3932146Y-11490234D01*
X3932146Y-11490234D02*
X3951194Y-11499758D01*
X3951194Y-11499758D02*
X3960717Y-11509281D01*
X3960717Y-11509281D02*
X3970241Y-11528329D01*
X3970241Y-11528329D02*
X3979765Y-11566424D01*
X3979765Y-11566424D02*
X3979765Y-11614043D01*
X3979765Y-11614043D02*
X3970241Y-11652138D01*
X3970241Y-11652138D02*
X3960717Y-11671186D01*
X3960717Y-11671186D02*
X3951194Y-11680710D01*
X3951194Y-11680710D02*
X3932146Y-11690234D01*
X3932146Y-11690234D02*
X3913098Y-11690234D01*
X3913098Y-11690234D02*
X3894051Y-11680710D01*
X3894051Y-11680710D02*
X3884527Y-11671186D01*
X3884527Y-11671186D02*
X3875003Y-11652138D01*
X3875003Y-11652138D02*
X3865479Y-11614043D01*
X3865479Y-11614043D02*
X3865479Y-11566424D01*
X3865479Y-11566424D02*
X3875003Y-11528329D01*
X3875003Y-11528329D02*
X3884527Y-11509281D01*
X3884527Y-11509281D02*
X3894051Y-11499758D01*
X3894051Y-11499758D02*
X3913098Y-11490234D01*
X4170241Y-11690234D02*
X4055956Y-11690234D01*
X4113098Y-11690234D02*
X4113098Y-11490234D01*
X4113098Y-11490234D02*
X4094051Y-11518805D01*
X4094051Y-11518805D02*
X4075003Y-11537853D01*
X4075003Y-11537853D02*
X4055956Y-11547377D01*
X4360718Y-11690234D02*
X4246432Y-11690234D01*
X4303575Y-11690234D02*
X4303575Y-11490234D01*
X4303575Y-11490234D02*
X4284527Y-11518805D01*
X4284527Y-11518805D02*
X4265479Y-11537853D01*
X4265479Y-11537853D02*
X4246432Y-11547377D01*
X4475003Y-11575948D02*
X4455956Y-11566424D01*
X4455956Y-11566424D02*
X4446432Y-11556900D01*
X4446432Y-11556900D02*
X4436908Y-11537853D01*
X4436908Y-11537853D02*
X4436908Y-11528329D01*
X4436908Y-11528329D02*
X4446432Y-11509281D01*
X4446432Y-11509281D02*
X4455956Y-11499758D01*
X4455956Y-11499758D02*
X4475003Y-11490234D01*
X4475003Y-11490234D02*
X4513099Y-11490234D01*
X4513099Y-11490234D02*
X4532146Y-11499758D01*
X4532146Y-11499758D02*
X4541670Y-11509281D01*
X4541670Y-11509281D02*
X4551194Y-11528329D01*
X4551194Y-11528329D02*
X4551194Y-11537853D01*
X4551194Y-11537853D02*
X4541670Y-11556900D01*
X4541670Y-11556900D02*
X4532146Y-11566424D01*
X4532146Y-11566424D02*
X4513099Y-11575948D01*
X4513099Y-11575948D02*
X4475003Y-11575948D01*
X4475003Y-11575948D02*
X4455956Y-11585472D01*
X4455956Y-11585472D02*
X4446432Y-11594996D01*
X4446432Y-11594996D02*
X4436908Y-11614043D01*
X4436908Y-11614043D02*
X4436908Y-11652138D01*
X4436908Y-11652138D02*
X4446432Y-11671186D01*
X4446432Y-11671186D02*
X4455956Y-11680710D01*
X4455956Y-11680710D02*
X4475003Y-11690234D01*
X4475003Y-11690234D02*
X4513099Y-11690234D01*
X4513099Y-11690234D02*
X4532146Y-11680710D01*
X4532146Y-11680710D02*
X4541670Y-11671186D01*
X4541670Y-11671186D02*
X4551194Y-11652138D01*
X4551194Y-11652138D02*
X4551194Y-11614043D01*
X4551194Y-11614043D02*
X4541670Y-11594996D01*
X4541670Y-11594996D02*
X4532146Y-11585472D01*
X4532146Y-11585472D02*
X4513099Y-11575948D01*
X4627384Y-11490234D02*
X4627384Y-11528329D01*
X4703575Y-11490234D02*
X4703575Y-11528329D01*
X4998813Y-11766424D02*
X4989289Y-11756900D01*
X4989289Y-11756900D02*
X4970241Y-11728329D01*
X4970241Y-11728329D02*
X4960718Y-11709281D01*
X4960718Y-11709281D02*
X4951194Y-11680710D01*
X4951194Y-11680710D02*
X4941670Y-11633091D01*
X4941670Y-11633091D02*
X4941670Y-11594996D01*
X4941670Y-11594996D02*
X4951194Y-11547377D01*
X4951194Y-11547377D02*
X4960718Y-11518805D01*
X4960718Y-11518805D02*
X4970241Y-11499758D01*
X4970241Y-11499758D02*
X4989289Y-11471186D01*
X4989289Y-11471186D02*
X4998813Y-11461662D01*
X5055956Y-11490234D02*
X5179765Y-11490234D01*
X5179765Y-11490234D02*
X5113099Y-11566424D01*
X5113099Y-11566424D02*
X5141670Y-11566424D01*
X5141670Y-11566424D02*
X5160718Y-11575948D01*
X5160718Y-11575948D02*
X5170241Y-11585472D01*
X5170241Y-11585472D02*
X5179765Y-11604519D01*
X5179765Y-11604519D02*
X5179765Y-11652138D01*
X5179765Y-11652138D02*
X5170241Y-11671186D01*
X5170241Y-11671186D02*
X5160718Y-11680710D01*
X5160718Y-11680710D02*
X5141670Y-11690234D01*
X5141670Y-11690234D02*
X5084527Y-11690234D01*
X5084527Y-11690234D02*
X5065480Y-11680710D01*
X5065480Y-11680710D02*
X5055956Y-11671186D01*
X5351194Y-11490234D02*
X5313099Y-11490234D01*
X5313099Y-11490234D02*
X5294051Y-11499758D01*
X5294051Y-11499758D02*
X5284527Y-11509281D01*
X5284527Y-11509281D02*
X5265480Y-11537853D01*
X5265480Y-11537853D02*
X5255956Y-11575948D01*
X5255956Y-11575948D02*
X5255956Y-11652138D01*
X5255956Y-11652138D02*
X5265480Y-11671186D01*
X5265480Y-11671186D02*
X5275003Y-11680710D01*
X5275003Y-11680710D02*
X5294051Y-11690234D01*
X5294051Y-11690234D02*
X5332146Y-11690234D01*
X5332146Y-11690234D02*
X5351194Y-11680710D01*
X5351194Y-11680710D02*
X5360718Y-11671186D01*
X5360718Y-11671186D02*
X5370241Y-11652138D01*
X5370241Y-11652138D02*
X5370241Y-11604519D01*
X5370241Y-11604519D02*
X5360718Y-11585472D01*
X5360718Y-11585472D02*
X5351194Y-11575948D01*
X5351194Y-11575948D02*
X5332146Y-11566424D01*
X5332146Y-11566424D02*
X5294051Y-11566424D01*
X5294051Y-11566424D02*
X5275003Y-11575948D01*
X5275003Y-11575948D02*
X5265480Y-11585472D01*
X5265480Y-11585472D02*
X5255956Y-11604519D01*
X5608337Y-11690234D02*
X5608337Y-11490234D01*
X5694051Y-11690234D02*
X5694051Y-11585472D01*
X5694051Y-11585472D02*
X5684527Y-11566424D01*
X5684527Y-11566424D02*
X5665480Y-11556900D01*
X5665480Y-11556900D02*
X5636908Y-11556900D01*
X5636908Y-11556900D02*
X5617860Y-11566424D01*
X5617860Y-11566424D02*
X5608337Y-11575948D01*
X5817860Y-11690234D02*
X5798813Y-11680710D01*
X5798813Y-11680710D02*
X5789289Y-11671186D01*
X5789289Y-11671186D02*
X5779765Y-11652138D01*
X5779765Y-11652138D02*
X5779765Y-11594996D01*
X5779765Y-11594996D02*
X5789289Y-11575948D01*
X5789289Y-11575948D02*
X5798813Y-11566424D01*
X5798813Y-11566424D02*
X5817860Y-11556900D01*
X5817860Y-11556900D02*
X5846432Y-11556900D01*
X5846432Y-11556900D02*
X5865480Y-11566424D01*
X5865480Y-11566424D02*
X5875003Y-11575948D01*
X5875003Y-11575948D02*
X5884527Y-11594996D01*
X5884527Y-11594996D02*
X5884527Y-11652138D01*
X5884527Y-11652138D02*
X5875003Y-11671186D01*
X5875003Y-11671186D02*
X5865480Y-11680710D01*
X5865480Y-11680710D02*
X5846432Y-11690234D01*
X5846432Y-11690234D02*
X5817860Y-11690234D01*
X5998813Y-11690234D02*
X5979765Y-11680710D01*
X5979765Y-11680710D02*
X5970241Y-11661662D01*
X5970241Y-11661662D02*
X5970241Y-11490234D01*
X6151194Y-11680710D02*
X6132146Y-11690234D01*
X6132146Y-11690234D02*
X6094051Y-11690234D01*
X6094051Y-11690234D02*
X6075003Y-11680710D01*
X6075003Y-11680710D02*
X6065480Y-11661662D01*
X6065480Y-11661662D02*
X6065480Y-11585472D01*
X6065480Y-11585472D02*
X6075003Y-11566424D01*
X6075003Y-11566424D02*
X6094051Y-11556900D01*
X6094051Y-11556900D02*
X6132146Y-11556900D01*
X6132146Y-11556900D02*
X6151194Y-11566424D01*
X6151194Y-11566424D02*
X6160718Y-11585472D01*
X6160718Y-11585472D02*
X6160718Y-11604519D01*
X6160718Y-11604519D02*
X6065480Y-11623567D01*
X6236908Y-11680710D02*
X6255956Y-11690234D01*
X6255956Y-11690234D02*
X6294051Y-11690234D01*
X6294051Y-11690234D02*
X6313099Y-11680710D01*
X6313099Y-11680710D02*
X6322622Y-11661662D01*
X6322622Y-11661662D02*
X6322622Y-11652138D01*
X6322622Y-11652138D02*
X6313099Y-11633091D01*
X6313099Y-11633091D02*
X6294051Y-11623567D01*
X6294051Y-11623567D02*
X6265480Y-11623567D01*
X6265480Y-11623567D02*
X6246432Y-11614043D01*
X6246432Y-11614043D02*
X6236908Y-11594996D01*
X6236908Y-11594996D02*
X6236908Y-11585472D01*
X6236908Y-11585472D02*
X6246432Y-11566424D01*
X6246432Y-11566424D02*
X6265480Y-11556900D01*
X6265480Y-11556900D02*
X6294051Y-11556900D01*
X6294051Y-11556900D02*
X6313099Y-11566424D01*
X6389289Y-11766424D02*
X6398813Y-11756900D01*
X6398813Y-11756900D02*
X6417861Y-11728329D01*
X6417861Y-11728329D02*
X6427384Y-11709281D01*
X6427384Y-11709281D02*
X6436908Y-11680710D01*
X6436908Y-11680710D02*
X6446432Y-11633091D01*
X6446432Y-11633091D02*
X6446432Y-11594996D01*
X6446432Y-11594996D02*
X6436908Y-11547377D01*
X6436908Y-11547377D02*
X6427384Y-11518805D01*
X6427384Y-11518805D02*
X6417861Y-11499758D01*
X6417861Y-11499758D02*
X6398813Y-11471186D01*
X6398813Y-11471186D02*
X6389289Y-11461662D01*
X6751194Y-11766424D02*
X6741670Y-11756900D01*
X6741670Y-11756900D02*
X6722622Y-11728329D01*
X6722622Y-11728329D02*
X6713099Y-11709281D01*
X6713099Y-11709281D02*
X6703575Y-11680710D01*
X6703575Y-11680710D02*
X6694051Y-11633091D01*
X6694051Y-11633091D02*
X6694051Y-11594996D01*
X6694051Y-11594996D02*
X6703575Y-11547377D01*
X6703575Y-11547377D02*
X6713099Y-11518805D01*
X6713099Y-11518805D02*
X6722622Y-11499758D01*
X6722622Y-11499758D02*
X6741670Y-11471186D01*
X6741670Y-11471186D02*
X6751194Y-11461662D01*
X6827384Y-11556900D02*
X6827384Y-11690234D01*
X6827384Y-11575948D02*
X6836908Y-11566424D01*
X6836908Y-11566424D02*
X6855956Y-11556900D01*
X6855956Y-11556900D02*
X6884527Y-11556900D01*
X6884527Y-11556900D02*
X6903575Y-11566424D01*
X6903575Y-11566424D02*
X6913099Y-11585472D01*
X6913099Y-11585472D02*
X6913099Y-11690234D01*
X7036908Y-11690234D02*
X7017861Y-11680710D01*
X7017861Y-11680710D02*
X7008337Y-11671186D01*
X7008337Y-11671186D02*
X6998813Y-11652138D01*
X6998813Y-11652138D02*
X6998813Y-11594996D01*
X6998813Y-11594996D02*
X7008337Y-11575948D01*
X7008337Y-11575948D02*
X7017861Y-11566424D01*
X7017861Y-11566424D02*
X7036908Y-11556900D01*
X7036908Y-11556900D02*
X7065480Y-11556900D01*
X7065480Y-11556900D02*
X7084527Y-11566424D01*
X7084527Y-11566424D02*
X7094051Y-11575948D01*
X7094051Y-11575948D02*
X7103575Y-11594996D01*
X7103575Y-11594996D02*
X7103575Y-11652138D01*
X7103575Y-11652138D02*
X7094051Y-11671186D01*
X7094051Y-11671186D02*
X7084527Y-11680710D01*
X7084527Y-11680710D02*
X7065480Y-11690234D01*
X7065480Y-11690234D02*
X7036908Y-11690234D01*
X7160718Y-11556900D02*
X7236908Y-11556900D01*
X7189289Y-11490234D02*
X7189289Y-11661662D01*
X7189289Y-11661662D02*
X7198813Y-11680710D01*
X7198813Y-11680710D02*
X7217861Y-11690234D01*
X7217861Y-11690234D02*
X7236908Y-11690234D01*
X7455956Y-11556900D02*
X7455956Y-11756900D01*
X7455956Y-11566424D02*
X7475003Y-11556900D01*
X7475003Y-11556900D02*
X7513099Y-11556900D01*
X7513099Y-11556900D02*
X7532146Y-11566424D01*
X7532146Y-11566424D02*
X7541670Y-11575948D01*
X7541670Y-11575948D02*
X7551194Y-11594996D01*
X7551194Y-11594996D02*
X7551194Y-11652138D01*
X7551194Y-11652138D02*
X7541670Y-11671186D01*
X7541670Y-11671186D02*
X7532146Y-11680710D01*
X7532146Y-11680710D02*
X7513099Y-11690234D01*
X7513099Y-11690234D02*
X7475003Y-11690234D01*
X7475003Y-11690234D02*
X7455956Y-11680710D01*
X7665480Y-11690234D02*
X7646432Y-11680710D01*
X7646432Y-11680710D02*
X7636908Y-11661662D01*
X7636908Y-11661662D02*
X7636908Y-11490234D01*
X7827384Y-11690234D02*
X7827384Y-11585472D01*
X7827384Y-11585472D02*
X7817861Y-11566424D01*
X7817861Y-11566424D02*
X7798813Y-11556900D01*
X7798813Y-11556900D02*
X7760718Y-11556900D01*
X7760718Y-11556900D02*
X7741670Y-11566424D01*
X7827384Y-11680710D02*
X7808337Y-11690234D01*
X7808337Y-11690234D02*
X7760718Y-11690234D01*
X7760718Y-11690234D02*
X7741670Y-11680710D01*
X7741670Y-11680710D02*
X7732146Y-11661662D01*
X7732146Y-11661662D02*
X7732146Y-11642615D01*
X7732146Y-11642615D02*
X7741670Y-11623567D01*
X7741670Y-11623567D02*
X7760718Y-11614043D01*
X7760718Y-11614043D02*
X7808337Y-11614043D01*
X7808337Y-11614043D02*
X7827384Y-11604519D01*
X7894051Y-11556900D02*
X7970242Y-11556900D01*
X7922623Y-11490234D02*
X7922623Y-11661662D01*
X7922623Y-11661662D02*
X7932146Y-11680710D01*
X7932146Y-11680710D02*
X7951194Y-11690234D01*
X7951194Y-11690234D02*
X7970242Y-11690234D01*
X8113099Y-11680710D02*
X8094051Y-11690234D01*
X8094051Y-11690234D02*
X8055956Y-11690234D01*
X8055956Y-11690234D02*
X8036908Y-11680710D01*
X8036908Y-11680710D02*
X8027384Y-11661662D01*
X8027384Y-11661662D02*
X8027384Y-11585472D01*
X8027384Y-11585472D02*
X8036908Y-11566424D01*
X8036908Y-11566424D02*
X8055956Y-11556900D01*
X8055956Y-11556900D02*
X8094051Y-11556900D01*
X8094051Y-11556900D02*
X8113099Y-11566424D01*
X8113099Y-11566424D02*
X8122623Y-11585472D01*
X8122623Y-11585472D02*
X8122623Y-11604519D01*
X8122623Y-11604519D02*
X8027384Y-11623567D01*
X8294051Y-11690234D02*
X8294051Y-11490234D01*
X8294051Y-11680710D02*
X8275004Y-11690234D01*
X8275004Y-11690234D02*
X8236908Y-11690234D01*
X8236908Y-11690234D02*
X8217861Y-11680710D01*
X8217861Y-11680710D02*
X8208337Y-11671186D01*
X8208337Y-11671186D02*
X8198813Y-11652138D01*
X8198813Y-11652138D02*
X8198813Y-11594996D01*
X8198813Y-11594996D02*
X8208337Y-11575948D01*
X8208337Y-11575948D02*
X8217861Y-11566424D01*
X8217861Y-11566424D02*
X8236908Y-11556900D01*
X8236908Y-11556900D02*
X8275004Y-11556900D01*
X8275004Y-11556900D02*
X8294051Y-11566424D01*
X8370242Y-11766424D02*
X8379765Y-11756900D01*
X8379765Y-11756900D02*
X8398813Y-11728329D01*
X8398813Y-11728329D02*
X8408337Y-11709281D01*
X8408337Y-11709281D02*
X8417861Y-11680710D01*
X8417861Y-11680710D02*
X8427385Y-11633091D01*
X8427385Y-11633091D02*
X8427385Y-11594996D01*
X8427385Y-11594996D02*
X8417861Y-11547377D01*
X8417861Y-11547377D02*
X8408337Y-11518805D01*
X8408337Y-11518805D02*
X8398813Y-11499758D01*
X8398813Y-11499758D02*
X8379765Y-11471186D01*
X8379765Y-11471186D02*
X8370242Y-11461662D01*
D10*
X1423750Y-11862750D02*
G75*
G02*
X1358750Y-11862750I-32500J0D01*
G01*
X1358750Y-11862750D02*
G75*
G02*
X1423750Y-11862750I32500J0D01*
G01*
D11*
X1722622Y-11754234D02*
X1741670Y-11754234D01*
X1741670Y-11754234D02*
X1760717Y-11763758D01*
X1760717Y-11763758D02*
X1770241Y-11773281D01*
X1770241Y-11773281D02*
X1779765Y-11792329D01*
X1779765Y-11792329D02*
X1789289Y-11830424D01*
X1789289Y-11830424D02*
X1789289Y-11878043D01*
X1789289Y-11878043D02*
X1779765Y-11916138D01*
X1779765Y-11916138D02*
X1770241Y-11935186D01*
X1770241Y-11935186D02*
X1760717Y-11944710D01*
X1760717Y-11944710D02*
X1741670Y-11954234D01*
X1741670Y-11954234D02*
X1722622Y-11954234D01*
X1722622Y-11954234D02*
X1703574Y-11944710D01*
X1703574Y-11944710D02*
X1694051Y-11935186D01*
X1694051Y-11935186D02*
X1684527Y-11916138D01*
X1684527Y-11916138D02*
X1675003Y-11878043D01*
X1675003Y-11878043D02*
X1675003Y-11830424D01*
X1675003Y-11830424D02*
X1684527Y-11792329D01*
X1684527Y-11792329D02*
X1694051Y-11773281D01*
X1694051Y-11773281D02*
X1703574Y-11763758D01*
X1703574Y-11763758D02*
X1722622Y-11754234D01*
X1875003Y-11935186D02*
X1884527Y-11944710D01*
X1884527Y-11944710D02*
X1875003Y-11954234D01*
X1875003Y-11954234D02*
X1865479Y-11944710D01*
X1865479Y-11944710D02*
X1875003Y-11935186D01*
X1875003Y-11935186D02*
X1875003Y-11954234D01*
X2055955Y-11754234D02*
X2017860Y-11754234D01*
X2017860Y-11754234D02*
X1998812Y-11763758D01*
X1998812Y-11763758D02*
X1989289Y-11773281D01*
X1989289Y-11773281D02*
X1970241Y-11801853D01*
X1970241Y-11801853D02*
X1960717Y-11839948D01*
X1960717Y-11839948D02*
X1960717Y-11916138D01*
X1960717Y-11916138D02*
X1970241Y-11935186D01*
X1970241Y-11935186D02*
X1979765Y-11944710D01*
X1979765Y-11944710D02*
X1998812Y-11954234D01*
X1998812Y-11954234D02*
X2036908Y-11954234D01*
X2036908Y-11954234D02*
X2055955Y-11944710D01*
X2055955Y-11944710D02*
X2065479Y-11935186D01*
X2065479Y-11935186D02*
X2075003Y-11916138D01*
X2075003Y-11916138D02*
X2075003Y-11868519D01*
X2075003Y-11868519D02*
X2065479Y-11849472D01*
X2065479Y-11849472D02*
X2055955Y-11839948D01*
X2055955Y-11839948D02*
X2036908Y-11830424D01*
X2036908Y-11830424D02*
X1998812Y-11830424D01*
X1998812Y-11830424D02*
X1979765Y-11839948D01*
X1979765Y-11839948D02*
X1970241Y-11849472D01*
X1970241Y-11849472D02*
X1960717Y-11868519D01*
X2255955Y-11754234D02*
X2160717Y-11754234D01*
X2160717Y-11754234D02*
X2151194Y-11849472D01*
X2151194Y-11849472D02*
X2160717Y-11839948D01*
X2160717Y-11839948D02*
X2179765Y-11830424D01*
X2179765Y-11830424D02*
X2227384Y-11830424D01*
X2227384Y-11830424D02*
X2246432Y-11839948D01*
X2246432Y-11839948D02*
X2255955Y-11849472D01*
X2255955Y-11849472D02*
X2265479Y-11868519D01*
X2265479Y-11868519D02*
X2265479Y-11916138D01*
X2265479Y-11916138D02*
X2255955Y-11935186D01*
X2255955Y-11935186D02*
X2246432Y-11944710D01*
X2246432Y-11944710D02*
X2227384Y-11954234D01*
X2227384Y-11954234D02*
X2179765Y-11954234D01*
X2179765Y-11954234D02*
X2160717Y-11944710D01*
X2160717Y-11944710D02*
X2151194Y-11935186D01*
X2389289Y-11754234D02*
X2408336Y-11754234D01*
X2408336Y-11754234D02*
X2427384Y-11763758D01*
X2427384Y-11763758D02*
X2436908Y-11773281D01*
X2436908Y-11773281D02*
X2446432Y-11792329D01*
X2446432Y-11792329D02*
X2455955Y-11830424D01*
X2455955Y-11830424D02*
X2455955Y-11878043D01*
X2455955Y-11878043D02*
X2446432Y-11916138D01*
X2446432Y-11916138D02*
X2436908Y-11935186D01*
X2436908Y-11935186D02*
X2427384Y-11944710D01*
X2427384Y-11944710D02*
X2408336Y-11954234D01*
X2408336Y-11954234D02*
X2389289Y-11954234D01*
X2389289Y-11954234D02*
X2370241Y-11944710D01*
X2370241Y-11944710D02*
X2360717Y-11935186D01*
X2360717Y-11935186D02*
X2351194Y-11916138D01*
X2351194Y-11916138D02*
X2341670Y-11878043D01*
X2341670Y-11878043D02*
X2341670Y-11830424D01*
X2341670Y-11830424D02*
X2351194Y-11792329D01*
X2351194Y-11792329D02*
X2360717Y-11773281D01*
X2360717Y-11773281D02*
X2370241Y-11763758D01*
X2370241Y-11763758D02*
X2389289Y-11754234D01*
X2541670Y-11954234D02*
X2541670Y-11820900D01*
X2541670Y-11839948D02*
X2551194Y-11830424D01*
X2551194Y-11830424D02*
X2570241Y-11820900D01*
X2570241Y-11820900D02*
X2598813Y-11820900D01*
X2598813Y-11820900D02*
X2617860Y-11830424D01*
X2617860Y-11830424D02*
X2627384Y-11849472D01*
X2627384Y-11849472D02*
X2627384Y-11954234D01*
X2627384Y-11849472D02*
X2636908Y-11830424D01*
X2636908Y-11830424D02*
X2655955Y-11820900D01*
X2655955Y-11820900D02*
X2684527Y-11820900D01*
X2684527Y-11820900D02*
X2703575Y-11830424D01*
X2703575Y-11830424D02*
X2713098Y-11849472D01*
X2713098Y-11849472D02*
X2713098Y-11954234D01*
X2808336Y-11954234D02*
X2808336Y-11820900D01*
X2808336Y-11839948D02*
X2817860Y-11830424D01*
X2817860Y-11830424D02*
X2836908Y-11820900D01*
X2836908Y-11820900D02*
X2865479Y-11820900D01*
X2865479Y-11820900D02*
X2884527Y-11830424D01*
X2884527Y-11830424D02*
X2894051Y-11849472D01*
X2894051Y-11849472D02*
X2894051Y-11954234D01*
X2894051Y-11849472D02*
X2903574Y-11830424D01*
X2903574Y-11830424D02*
X2922622Y-11820900D01*
X2922622Y-11820900D02*
X2951193Y-11820900D01*
X2951193Y-11820900D02*
X2970241Y-11830424D01*
X2970241Y-11830424D02*
X2979765Y-11849472D01*
X2979765Y-11849472D02*
X2979765Y-11954234D01*
X3370241Y-11744710D02*
X3198813Y-12001853D01*
X3627384Y-11754234D02*
X3646432Y-11754234D01*
X3646432Y-11754234D02*
X3665479Y-11763758D01*
X3665479Y-11763758D02*
X3675003Y-11773281D01*
X3675003Y-11773281D02*
X3684527Y-11792329D01*
X3684527Y-11792329D02*
X3694051Y-11830424D01*
X3694051Y-11830424D02*
X3694051Y-11878043D01*
X3694051Y-11878043D02*
X3684527Y-11916138D01*
X3684527Y-11916138D02*
X3675003Y-11935186D01*
X3675003Y-11935186D02*
X3665479Y-11944710D01*
X3665479Y-11944710D02*
X3646432Y-11954234D01*
X3646432Y-11954234D02*
X3627384Y-11954234D01*
X3627384Y-11954234D02*
X3608336Y-11944710D01*
X3608336Y-11944710D02*
X3598813Y-11935186D01*
X3598813Y-11935186D02*
X3589289Y-11916138D01*
X3589289Y-11916138D02*
X3579765Y-11878043D01*
X3579765Y-11878043D02*
X3579765Y-11830424D01*
X3579765Y-11830424D02*
X3589289Y-11792329D01*
X3589289Y-11792329D02*
X3598813Y-11773281D01*
X3598813Y-11773281D02*
X3608336Y-11763758D01*
X3608336Y-11763758D02*
X3627384Y-11754234D01*
X3779765Y-11935186D02*
X3789289Y-11944710D01*
X3789289Y-11944710D02*
X3779765Y-11954234D01*
X3779765Y-11954234D02*
X3770241Y-11944710D01*
X3770241Y-11944710D02*
X3779765Y-11935186D01*
X3779765Y-11935186D02*
X3779765Y-11954234D01*
X3913098Y-11754234D02*
X3932146Y-11754234D01*
X3932146Y-11754234D02*
X3951194Y-11763758D01*
X3951194Y-11763758D02*
X3960717Y-11773281D01*
X3960717Y-11773281D02*
X3970241Y-11792329D01*
X3970241Y-11792329D02*
X3979765Y-11830424D01*
X3979765Y-11830424D02*
X3979765Y-11878043D01*
X3979765Y-11878043D02*
X3970241Y-11916138D01*
X3970241Y-11916138D02*
X3960717Y-11935186D01*
X3960717Y-11935186D02*
X3951194Y-11944710D01*
X3951194Y-11944710D02*
X3932146Y-11954234D01*
X3932146Y-11954234D02*
X3913098Y-11954234D01*
X3913098Y-11954234D02*
X3894051Y-11944710D01*
X3894051Y-11944710D02*
X3884527Y-11935186D01*
X3884527Y-11935186D02*
X3875003Y-11916138D01*
X3875003Y-11916138D02*
X3865479Y-11878043D01*
X3865479Y-11878043D02*
X3865479Y-11830424D01*
X3865479Y-11830424D02*
X3875003Y-11792329D01*
X3875003Y-11792329D02*
X3884527Y-11773281D01*
X3884527Y-11773281D02*
X3894051Y-11763758D01*
X3894051Y-11763758D02*
X3913098Y-11754234D01*
X4055956Y-11773281D02*
X4065479Y-11763758D01*
X4065479Y-11763758D02*
X4084527Y-11754234D01*
X4084527Y-11754234D02*
X4132146Y-11754234D01*
X4132146Y-11754234D02*
X4151194Y-11763758D01*
X4151194Y-11763758D02*
X4160717Y-11773281D01*
X4160717Y-11773281D02*
X4170241Y-11792329D01*
X4170241Y-11792329D02*
X4170241Y-11811377D01*
X4170241Y-11811377D02*
X4160717Y-11839948D01*
X4160717Y-11839948D02*
X4046432Y-11954234D01*
X4046432Y-11954234D02*
X4170241Y-11954234D01*
X4351194Y-11754234D02*
X4255956Y-11754234D01*
X4255956Y-11754234D02*
X4246432Y-11849472D01*
X4246432Y-11849472D02*
X4255956Y-11839948D01*
X4255956Y-11839948D02*
X4275003Y-11830424D01*
X4275003Y-11830424D02*
X4322622Y-11830424D01*
X4322622Y-11830424D02*
X4341670Y-11839948D01*
X4341670Y-11839948D02*
X4351194Y-11849472D01*
X4351194Y-11849472D02*
X4360718Y-11868519D01*
X4360718Y-11868519D02*
X4360718Y-11916138D01*
X4360718Y-11916138D02*
X4351194Y-11935186D01*
X4351194Y-11935186D02*
X4341670Y-11944710D01*
X4341670Y-11944710D02*
X4322622Y-11954234D01*
X4322622Y-11954234D02*
X4275003Y-11954234D01*
X4275003Y-11954234D02*
X4255956Y-11944710D01*
X4255956Y-11944710D02*
X4246432Y-11935186D01*
X4532146Y-11754234D02*
X4494051Y-11754234D01*
X4494051Y-11754234D02*
X4475003Y-11763758D01*
X4475003Y-11763758D02*
X4465479Y-11773281D01*
X4465479Y-11773281D02*
X4446432Y-11801853D01*
X4446432Y-11801853D02*
X4436908Y-11839948D01*
X4436908Y-11839948D02*
X4436908Y-11916138D01*
X4436908Y-11916138D02*
X4446432Y-11935186D01*
X4446432Y-11935186D02*
X4455956Y-11944710D01*
X4455956Y-11944710D02*
X4475003Y-11954234D01*
X4475003Y-11954234D02*
X4513099Y-11954234D01*
X4513099Y-11954234D02*
X4532146Y-11944710D01*
X4532146Y-11944710D02*
X4541670Y-11935186D01*
X4541670Y-11935186D02*
X4551194Y-11916138D01*
X4551194Y-11916138D02*
X4551194Y-11868519D01*
X4551194Y-11868519D02*
X4541670Y-11849472D01*
X4541670Y-11849472D02*
X4532146Y-11839948D01*
X4532146Y-11839948D02*
X4513099Y-11830424D01*
X4513099Y-11830424D02*
X4475003Y-11830424D01*
X4475003Y-11830424D02*
X4455956Y-11839948D01*
X4455956Y-11839948D02*
X4446432Y-11849472D01*
X4446432Y-11849472D02*
X4436908Y-11868519D01*
X4627384Y-11754234D02*
X4627384Y-11792329D01*
X4703575Y-11754234D02*
X4703575Y-11792329D01*
X4998813Y-12030424D02*
X4989289Y-12020900D01*
X4989289Y-12020900D02*
X4970241Y-11992329D01*
X4970241Y-11992329D02*
X4960718Y-11973281D01*
X4960718Y-11973281D02*
X4951194Y-11944710D01*
X4951194Y-11944710D02*
X4941670Y-11897091D01*
X4941670Y-11897091D02*
X4941670Y-11858996D01*
X4941670Y-11858996D02*
X4951194Y-11811377D01*
X4951194Y-11811377D02*
X4960718Y-11782805D01*
X4960718Y-11782805D02*
X4970241Y-11763758D01*
X4970241Y-11763758D02*
X4989289Y-11735186D01*
X4989289Y-11735186D02*
X4998813Y-11725662D01*
X5160718Y-11820900D02*
X5160718Y-11954234D01*
X5113099Y-11744710D02*
X5065480Y-11887567D01*
X5065480Y-11887567D02*
X5189289Y-11887567D01*
X5417861Y-11954234D02*
X5417861Y-11754234D01*
X5503575Y-11954234D02*
X5503575Y-11849472D01*
X5503575Y-11849472D02*
X5494051Y-11830424D01*
X5494051Y-11830424D02*
X5475003Y-11820900D01*
X5475003Y-11820900D02*
X5446432Y-11820900D01*
X5446432Y-11820900D02*
X5427384Y-11830424D01*
X5427384Y-11830424D02*
X5417861Y-11839948D01*
X5627384Y-11954234D02*
X5608337Y-11944710D01*
X5608337Y-11944710D02*
X5598813Y-11935186D01*
X5598813Y-11935186D02*
X5589289Y-11916138D01*
X5589289Y-11916138D02*
X5589289Y-11858996D01*
X5589289Y-11858996D02*
X5598813Y-11839948D01*
X5598813Y-11839948D02*
X5608337Y-11830424D01*
X5608337Y-11830424D02*
X5627384Y-11820900D01*
X5627384Y-11820900D02*
X5655956Y-11820900D01*
X5655956Y-11820900D02*
X5675003Y-11830424D01*
X5675003Y-11830424D02*
X5684527Y-11839948D01*
X5684527Y-11839948D02*
X5694051Y-11858996D01*
X5694051Y-11858996D02*
X5694051Y-11916138D01*
X5694051Y-11916138D02*
X5684527Y-11935186D01*
X5684527Y-11935186D02*
X5675003Y-11944710D01*
X5675003Y-11944710D02*
X5655956Y-11954234D01*
X5655956Y-11954234D02*
X5627384Y-11954234D01*
X5808337Y-11954234D02*
X5789289Y-11944710D01*
X5789289Y-11944710D02*
X5779765Y-11925662D01*
X5779765Y-11925662D02*
X5779765Y-11754234D01*
X5960718Y-11944710D02*
X5941670Y-11954234D01*
X5941670Y-11954234D02*
X5903575Y-11954234D01*
X5903575Y-11954234D02*
X5884527Y-11944710D01*
X5884527Y-11944710D02*
X5875003Y-11925662D01*
X5875003Y-11925662D02*
X5875003Y-11849472D01*
X5875003Y-11849472D02*
X5884527Y-11830424D01*
X5884527Y-11830424D02*
X5903575Y-11820900D01*
X5903575Y-11820900D02*
X5941670Y-11820900D01*
X5941670Y-11820900D02*
X5960718Y-11830424D01*
X5960718Y-11830424D02*
X5970241Y-11849472D01*
X5970241Y-11849472D02*
X5970241Y-11868519D01*
X5970241Y-11868519D02*
X5875003Y-11887567D01*
X6046432Y-11944710D02*
X6065480Y-11954234D01*
X6065480Y-11954234D02*
X6103575Y-11954234D01*
X6103575Y-11954234D02*
X6122622Y-11944710D01*
X6122622Y-11944710D02*
X6132146Y-11925662D01*
X6132146Y-11925662D02*
X6132146Y-11916138D01*
X6132146Y-11916138D02*
X6122622Y-11897091D01*
X6122622Y-11897091D02*
X6103575Y-11887567D01*
X6103575Y-11887567D02*
X6075003Y-11887567D01*
X6075003Y-11887567D02*
X6055956Y-11878043D01*
X6055956Y-11878043D02*
X6046432Y-11858996D01*
X6046432Y-11858996D02*
X6046432Y-11849472D01*
X6046432Y-11849472D02*
X6055956Y-11830424D01*
X6055956Y-11830424D02*
X6075003Y-11820900D01*
X6075003Y-11820900D02*
X6103575Y-11820900D01*
X6103575Y-11820900D02*
X6122622Y-11830424D01*
X6198813Y-12030424D02*
X6208337Y-12020900D01*
X6208337Y-12020900D02*
X6227384Y-11992329D01*
X6227384Y-11992329D02*
X6236908Y-11973281D01*
X6236908Y-11973281D02*
X6246432Y-11944710D01*
X6246432Y-11944710D02*
X6255956Y-11897091D01*
X6255956Y-11897091D02*
X6255956Y-11858996D01*
X6255956Y-11858996D02*
X6246432Y-11811377D01*
X6246432Y-11811377D02*
X6236908Y-11782805D01*
X6236908Y-11782805D02*
X6227384Y-11763758D01*
X6227384Y-11763758D02*
X6208337Y-11735186D01*
X6208337Y-11735186D02*
X6198813Y-11725662D01*
X6560718Y-12030424D02*
X6551194Y-12020900D01*
X6551194Y-12020900D02*
X6532146Y-11992329D01*
X6532146Y-11992329D02*
X6522622Y-11973281D01*
X6522622Y-11973281D02*
X6513099Y-11944710D01*
X6513099Y-11944710D02*
X6503575Y-11897091D01*
X6503575Y-11897091D02*
X6503575Y-11858996D01*
X6503575Y-11858996D02*
X6513099Y-11811377D01*
X6513099Y-11811377D02*
X6522622Y-11782805D01*
X6522622Y-11782805D02*
X6532146Y-11763758D01*
X6532146Y-11763758D02*
X6551194Y-11735186D01*
X6551194Y-11735186D02*
X6560718Y-11725662D01*
X6636908Y-11820900D02*
X6636908Y-11954234D01*
X6636908Y-11839948D02*
X6646432Y-11830424D01*
X6646432Y-11830424D02*
X6665480Y-11820900D01*
X6665480Y-11820900D02*
X6694051Y-11820900D01*
X6694051Y-11820900D02*
X6713099Y-11830424D01*
X6713099Y-11830424D02*
X6722622Y-11849472D01*
X6722622Y-11849472D02*
X6722622Y-11954234D01*
X6846432Y-11954234D02*
X6827384Y-11944710D01*
X6827384Y-11944710D02*
X6817861Y-11935186D01*
X6817861Y-11935186D02*
X6808337Y-11916138D01*
X6808337Y-11916138D02*
X6808337Y-11858996D01*
X6808337Y-11858996D02*
X6817861Y-11839948D01*
X6817861Y-11839948D02*
X6827384Y-11830424D01*
X6827384Y-11830424D02*
X6846432Y-11820900D01*
X6846432Y-11820900D02*
X6875003Y-11820900D01*
X6875003Y-11820900D02*
X6894051Y-11830424D01*
X6894051Y-11830424D02*
X6903575Y-11839948D01*
X6903575Y-11839948D02*
X6913099Y-11858996D01*
X6913099Y-11858996D02*
X6913099Y-11916138D01*
X6913099Y-11916138D02*
X6903575Y-11935186D01*
X6903575Y-11935186D02*
X6894051Y-11944710D01*
X6894051Y-11944710D02*
X6875003Y-11954234D01*
X6875003Y-11954234D02*
X6846432Y-11954234D01*
X6970242Y-11820900D02*
X7046432Y-11820900D01*
X6998813Y-11754234D02*
X6998813Y-11925662D01*
X6998813Y-11925662D02*
X7008337Y-11944710D01*
X7008337Y-11944710D02*
X7027384Y-11954234D01*
X7027384Y-11954234D02*
X7046432Y-11954234D01*
X7265480Y-11820900D02*
X7265480Y-12020900D01*
X7265480Y-11830424D02*
X7284527Y-11820900D01*
X7284527Y-11820900D02*
X7322623Y-11820900D01*
X7322623Y-11820900D02*
X7341670Y-11830424D01*
X7341670Y-11830424D02*
X7351194Y-11839948D01*
X7351194Y-11839948D02*
X7360718Y-11858996D01*
X7360718Y-11858996D02*
X7360718Y-11916138D01*
X7360718Y-11916138D02*
X7351194Y-11935186D01*
X7351194Y-11935186D02*
X7341670Y-11944710D01*
X7341670Y-11944710D02*
X7322623Y-11954234D01*
X7322623Y-11954234D02*
X7284527Y-11954234D01*
X7284527Y-11954234D02*
X7265480Y-11944710D01*
X7475003Y-11954234D02*
X7455956Y-11944710D01*
X7455956Y-11944710D02*
X7446432Y-11925662D01*
X7446432Y-11925662D02*
X7446432Y-11754234D01*
X7636908Y-11954234D02*
X7636908Y-11849472D01*
X7636908Y-11849472D02*
X7627384Y-11830424D01*
X7627384Y-11830424D02*
X7608337Y-11820900D01*
X7608337Y-11820900D02*
X7570242Y-11820900D01*
X7570242Y-11820900D02*
X7551194Y-11830424D01*
X7636908Y-11944710D02*
X7617861Y-11954234D01*
X7617861Y-11954234D02*
X7570242Y-11954234D01*
X7570242Y-11954234D02*
X7551194Y-11944710D01*
X7551194Y-11944710D02*
X7541670Y-11925662D01*
X7541670Y-11925662D02*
X7541670Y-11906615D01*
X7541670Y-11906615D02*
X7551194Y-11887567D01*
X7551194Y-11887567D02*
X7570242Y-11878043D01*
X7570242Y-11878043D02*
X7617861Y-11878043D01*
X7617861Y-11878043D02*
X7636908Y-11868519D01*
X7703575Y-11820900D02*
X7779765Y-11820900D01*
X7732146Y-11754234D02*
X7732146Y-11925662D01*
X7732146Y-11925662D02*
X7741670Y-11944710D01*
X7741670Y-11944710D02*
X7760718Y-11954234D01*
X7760718Y-11954234D02*
X7779765Y-11954234D01*
X7922623Y-11944710D02*
X7903575Y-11954234D01*
X7903575Y-11954234D02*
X7865480Y-11954234D01*
X7865480Y-11954234D02*
X7846432Y-11944710D01*
X7846432Y-11944710D02*
X7836908Y-11925662D01*
X7836908Y-11925662D02*
X7836908Y-11849472D01*
X7836908Y-11849472D02*
X7846432Y-11830424D01*
X7846432Y-11830424D02*
X7865480Y-11820900D01*
X7865480Y-11820900D02*
X7903575Y-11820900D01*
X7903575Y-11820900D02*
X7922623Y-11830424D01*
X7922623Y-11830424D02*
X7932146Y-11849472D01*
X7932146Y-11849472D02*
X7932146Y-11868519D01*
X7932146Y-11868519D02*
X7836908Y-11887567D01*
X8103575Y-11954234D02*
X8103575Y-11754234D01*
X8103575Y-11944710D02*
X8084527Y-11954234D01*
X8084527Y-11954234D02*
X8046432Y-11954234D01*
X8046432Y-11954234D02*
X8027384Y-11944710D01*
X8027384Y-11944710D02*
X8017861Y-11935186D01*
X8017861Y-11935186D02*
X8008337Y-11916138D01*
X8008337Y-11916138D02*
X8008337Y-11858996D01*
X8008337Y-11858996D02*
X8017861Y-11839948D01*
X8017861Y-11839948D02*
X8027384Y-11830424D01*
X8027384Y-11830424D02*
X8046432Y-11820900D01*
X8046432Y-11820900D02*
X8084527Y-11820900D01*
X8084527Y-11820900D02*
X8103575Y-11830424D01*
X8179765Y-12030424D02*
X8189289Y-12020900D01*
X8189289Y-12020900D02*
X8208337Y-11992329D01*
X8208337Y-11992329D02*
X8217861Y-11973281D01*
X8217861Y-11973281D02*
X8227384Y-11944710D01*
X8227384Y-11944710D02*
X8236908Y-11897091D01*
X8236908Y-11897091D02*
X8236908Y-11858996D01*
X8236908Y-11858996D02*
X8227384Y-11811377D01*
X8227384Y-11811377D02*
X8217861Y-11782805D01*
X8217861Y-11782805D02*
X8208337Y-11763758D01*
X8208337Y-11763758D02*
X8189289Y-11735186D01*
X8189289Y-11735186D02*
X8179765Y-11725662D01*
D12*
X1366150Y-12069150D02*
X1366150Y-12184350D01*
X1308550Y-12126750D02*
X1423750Y-12126750D01*
D11*
X1789289Y-12218234D02*
X1675003Y-12218234D01*
X1732146Y-12218234D02*
X1732146Y-12018234D01*
X1732146Y-12018234D02*
X1713098Y-12046805D01*
X1713098Y-12046805D02*
X1694051Y-12065853D01*
X1694051Y-12065853D02*
X1675003Y-12075377D01*
X1875003Y-12199186D02*
X1884527Y-12208710D01*
X1884527Y-12208710D02*
X1875003Y-12218234D01*
X1875003Y-12218234D02*
X1865479Y-12208710D01*
X1865479Y-12208710D02*
X1875003Y-12199186D01*
X1875003Y-12199186D02*
X1875003Y-12218234D01*
X2075003Y-12218234D02*
X1960717Y-12218234D01*
X2017860Y-12218234D02*
X2017860Y-12018234D01*
X2017860Y-12018234D02*
X1998812Y-12046805D01*
X1998812Y-12046805D02*
X1979765Y-12065853D01*
X1979765Y-12065853D02*
X1960717Y-12075377D01*
X2255955Y-12018234D02*
X2160717Y-12018234D01*
X2160717Y-12018234D02*
X2151194Y-12113472D01*
X2151194Y-12113472D02*
X2160717Y-12103948D01*
X2160717Y-12103948D02*
X2179765Y-12094424D01*
X2179765Y-12094424D02*
X2227384Y-12094424D01*
X2227384Y-12094424D02*
X2246432Y-12103948D01*
X2246432Y-12103948D02*
X2255955Y-12113472D01*
X2255955Y-12113472D02*
X2265479Y-12132519D01*
X2265479Y-12132519D02*
X2265479Y-12180138D01*
X2265479Y-12180138D02*
X2255955Y-12199186D01*
X2255955Y-12199186D02*
X2246432Y-12208710D01*
X2246432Y-12208710D02*
X2227384Y-12218234D01*
X2227384Y-12218234D02*
X2179765Y-12218234D01*
X2179765Y-12218234D02*
X2160717Y-12208710D01*
X2160717Y-12208710D02*
X2151194Y-12199186D01*
X2341670Y-12037281D02*
X2351194Y-12027758D01*
X2351194Y-12027758D02*
X2370241Y-12018234D01*
X2370241Y-12018234D02*
X2417860Y-12018234D01*
X2417860Y-12018234D02*
X2436908Y-12027758D01*
X2436908Y-12027758D02*
X2446432Y-12037281D01*
X2446432Y-12037281D02*
X2455955Y-12056329D01*
X2455955Y-12056329D02*
X2455955Y-12075377D01*
X2455955Y-12075377D02*
X2446432Y-12103948D01*
X2446432Y-12103948D02*
X2332146Y-12218234D01*
X2332146Y-12218234D02*
X2455955Y-12218234D01*
X2541670Y-12218234D02*
X2541670Y-12084900D01*
X2541670Y-12103948D02*
X2551194Y-12094424D01*
X2551194Y-12094424D02*
X2570241Y-12084900D01*
X2570241Y-12084900D02*
X2598813Y-12084900D01*
X2598813Y-12084900D02*
X2617860Y-12094424D01*
X2617860Y-12094424D02*
X2627384Y-12113472D01*
X2627384Y-12113472D02*
X2627384Y-12218234D01*
X2627384Y-12113472D02*
X2636908Y-12094424D01*
X2636908Y-12094424D02*
X2655955Y-12084900D01*
X2655955Y-12084900D02*
X2684527Y-12084900D01*
X2684527Y-12084900D02*
X2703575Y-12094424D01*
X2703575Y-12094424D02*
X2713098Y-12113472D01*
X2713098Y-12113472D02*
X2713098Y-12218234D01*
X2808336Y-12218234D02*
X2808336Y-12084900D01*
X2808336Y-12103948D02*
X2817860Y-12094424D01*
X2817860Y-12094424D02*
X2836908Y-12084900D01*
X2836908Y-12084900D02*
X2865479Y-12084900D01*
X2865479Y-12084900D02*
X2884527Y-12094424D01*
X2884527Y-12094424D02*
X2894051Y-12113472D01*
X2894051Y-12113472D02*
X2894051Y-12218234D01*
X2894051Y-12113472D02*
X2903574Y-12094424D01*
X2903574Y-12094424D02*
X2922622Y-12084900D01*
X2922622Y-12084900D02*
X2951193Y-12084900D01*
X2951193Y-12084900D02*
X2970241Y-12094424D01*
X2970241Y-12094424D02*
X2979765Y-12113472D01*
X2979765Y-12113472D02*
X2979765Y-12218234D01*
X3370241Y-12008710D02*
X3198813Y-12265853D01*
X3627384Y-12018234D02*
X3646432Y-12018234D01*
X3646432Y-12018234D02*
X3665479Y-12027758D01*
X3665479Y-12027758D02*
X3675003Y-12037281D01*
X3675003Y-12037281D02*
X3684527Y-12056329D01*
X3684527Y-12056329D02*
X3694051Y-12094424D01*
X3694051Y-12094424D02*
X3694051Y-12142043D01*
X3694051Y-12142043D02*
X3684527Y-12180138D01*
X3684527Y-12180138D02*
X3675003Y-12199186D01*
X3675003Y-12199186D02*
X3665479Y-12208710D01*
X3665479Y-12208710D02*
X3646432Y-12218234D01*
X3646432Y-12218234D02*
X3627384Y-12218234D01*
X3627384Y-12218234D02*
X3608336Y-12208710D01*
X3608336Y-12208710D02*
X3598813Y-12199186D01*
X3598813Y-12199186D02*
X3589289Y-12180138D01*
X3589289Y-12180138D02*
X3579765Y-12142043D01*
X3579765Y-12142043D02*
X3579765Y-12094424D01*
X3579765Y-12094424D02*
X3589289Y-12056329D01*
X3589289Y-12056329D02*
X3598813Y-12037281D01*
X3598813Y-12037281D02*
X3608336Y-12027758D01*
X3608336Y-12027758D02*
X3627384Y-12018234D01*
X3779765Y-12199186D02*
X3789289Y-12208710D01*
X3789289Y-12208710D02*
X3779765Y-12218234D01*
X3779765Y-12218234D02*
X3770241Y-12208710D01*
X3770241Y-12208710D02*
X3779765Y-12199186D01*
X3779765Y-12199186D02*
X3779765Y-12218234D01*
X3913098Y-12018234D02*
X3932146Y-12018234D01*
X3932146Y-12018234D02*
X3951194Y-12027758D01*
X3951194Y-12027758D02*
X3960717Y-12037281D01*
X3960717Y-12037281D02*
X3970241Y-12056329D01*
X3970241Y-12056329D02*
X3979765Y-12094424D01*
X3979765Y-12094424D02*
X3979765Y-12142043D01*
X3979765Y-12142043D02*
X3970241Y-12180138D01*
X3970241Y-12180138D02*
X3960717Y-12199186D01*
X3960717Y-12199186D02*
X3951194Y-12208710D01*
X3951194Y-12208710D02*
X3932146Y-12218234D01*
X3932146Y-12218234D02*
X3913098Y-12218234D01*
X3913098Y-12218234D02*
X3894051Y-12208710D01*
X3894051Y-12208710D02*
X3884527Y-12199186D01*
X3884527Y-12199186D02*
X3875003Y-12180138D01*
X3875003Y-12180138D02*
X3865479Y-12142043D01*
X3865479Y-12142043D02*
X3865479Y-12094424D01*
X3865479Y-12094424D02*
X3875003Y-12056329D01*
X3875003Y-12056329D02*
X3884527Y-12037281D01*
X3884527Y-12037281D02*
X3894051Y-12027758D01*
X3894051Y-12027758D02*
X3913098Y-12018234D01*
X4151194Y-12084900D02*
X4151194Y-12218234D01*
X4103575Y-12008710D02*
X4055956Y-12151567D01*
X4055956Y-12151567D02*
X4179765Y-12151567D01*
X4351194Y-12018234D02*
X4255956Y-12018234D01*
X4255956Y-12018234D02*
X4246432Y-12113472D01*
X4246432Y-12113472D02*
X4255956Y-12103948D01*
X4255956Y-12103948D02*
X4275003Y-12094424D01*
X4275003Y-12094424D02*
X4322622Y-12094424D01*
X4322622Y-12094424D02*
X4341670Y-12103948D01*
X4341670Y-12103948D02*
X4351194Y-12113472D01*
X4351194Y-12113472D02*
X4360718Y-12132519D01*
X4360718Y-12132519D02*
X4360718Y-12180138D01*
X4360718Y-12180138D02*
X4351194Y-12199186D01*
X4351194Y-12199186D02*
X4341670Y-12208710D01*
X4341670Y-12208710D02*
X4322622Y-12218234D01*
X4322622Y-12218234D02*
X4275003Y-12218234D01*
X4275003Y-12218234D02*
X4255956Y-12208710D01*
X4255956Y-12208710D02*
X4246432Y-12199186D01*
X4532146Y-12084900D02*
X4532146Y-12218234D01*
X4484527Y-12008710D02*
X4436908Y-12151567D01*
X4436908Y-12151567D02*
X4560718Y-12151567D01*
X4627384Y-12018234D02*
X4627384Y-12056329D01*
X4703575Y-12018234D02*
X4703575Y-12056329D01*
X4998813Y-12294424D02*
X4989289Y-12284900D01*
X4989289Y-12284900D02*
X4970241Y-12256329D01*
X4970241Y-12256329D02*
X4960718Y-12237281D01*
X4960718Y-12237281D02*
X4951194Y-12208710D01*
X4951194Y-12208710D02*
X4941670Y-12161091D01*
X4941670Y-12161091D02*
X4941670Y-12122996D01*
X4941670Y-12122996D02*
X4951194Y-12075377D01*
X4951194Y-12075377D02*
X4960718Y-12046805D01*
X4960718Y-12046805D02*
X4970241Y-12027758D01*
X4970241Y-12027758D02*
X4989289Y-11999186D01*
X4989289Y-11999186D02*
X4998813Y-11989662D01*
X5160718Y-12084900D02*
X5160718Y-12218234D01*
X5113099Y-12008710D02*
X5065480Y-12151567D01*
X5065480Y-12151567D02*
X5189289Y-12151567D01*
X5417861Y-12218234D02*
X5417861Y-12018234D01*
X5503575Y-12218234D02*
X5503575Y-12113472D01*
X5503575Y-12113472D02*
X5494051Y-12094424D01*
X5494051Y-12094424D02*
X5475003Y-12084900D01*
X5475003Y-12084900D02*
X5446432Y-12084900D01*
X5446432Y-12084900D02*
X5427384Y-12094424D01*
X5427384Y-12094424D02*
X5417861Y-12103948D01*
X5627384Y-12218234D02*
X5608337Y-12208710D01*
X5608337Y-12208710D02*
X5598813Y-12199186D01*
X5598813Y-12199186D02*
X5589289Y-12180138D01*
X5589289Y-12180138D02*
X5589289Y-12122996D01*
X5589289Y-12122996D02*
X5598813Y-12103948D01*
X5598813Y-12103948D02*
X5608337Y-12094424D01*
X5608337Y-12094424D02*
X5627384Y-12084900D01*
X5627384Y-12084900D02*
X5655956Y-12084900D01*
X5655956Y-12084900D02*
X5675003Y-12094424D01*
X5675003Y-12094424D02*
X5684527Y-12103948D01*
X5684527Y-12103948D02*
X5694051Y-12122996D01*
X5694051Y-12122996D02*
X5694051Y-12180138D01*
X5694051Y-12180138D02*
X5684527Y-12199186D01*
X5684527Y-12199186D02*
X5675003Y-12208710D01*
X5675003Y-12208710D02*
X5655956Y-12218234D01*
X5655956Y-12218234D02*
X5627384Y-12218234D01*
X5808337Y-12218234D02*
X5789289Y-12208710D01*
X5789289Y-12208710D02*
X5779765Y-12189662D01*
X5779765Y-12189662D02*
X5779765Y-12018234D01*
X5960718Y-12208710D02*
X5941670Y-12218234D01*
X5941670Y-12218234D02*
X5903575Y-12218234D01*
X5903575Y-12218234D02*
X5884527Y-12208710D01*
X5884527Y-12208710D02*
X5875003Y-12189662D01*
X5875003Y-12189662D02*
X5875003Y-12113472D01*
X5875003Y-12113472D02*
X5884527Y-12094424D01*
X5884527Y-12094424D02*
X5903575Y-12084900D01*
X5903575Y-12084900D02*
X5941670Y-12084900D01*
X5941670Y-12084900D02*
X5960718Y-12094424D01*
X5960718Y-12094424D02*
X5970241Y-12113472D01*
X5970241Y-12113472D02*
X5970241Y-12132519D01*
X5970241Y-12132519D02*
X5875003Y-12151567D01*
X6046432Y-12208710D02*
X6065480Y-12218234D01*
X6065480Y-12218234D02*
X6103575Y-12218234D01*
X6103575Y-12218234D02*
X6122622Y-12208710D01*
X6122622Y-12208710D02*
X6132146Y-12189662D01*
X6132146Y-12189662D02*
X6132146Y-12180138D01*
X6132146Y-12180138D02*
X6122622Y-12161091D01*
X6122622Y-12161091D02*
X6103575Y-12151567D01*
X6103575Y-12151567D02*
X6075003Y-12151567D01*
X6075003Y-12151567D02*
X6055956Y-12142043D01*
X6055956Y-12142043D02*
X6046432Y-12122996D01*
X6046432Y-12122996D02*
X6046432Y-12113472D01*
X6046432Y-12113472D02*
X6055956Y-12094424D01*
X6055956Y-12094424D02*
X6075003Y-12084900D01*
X6075003Y-12084900D02*
X6103575Y-12084900D01*
X6103575Y-12084900D02*
X6122622Y-12094424D01*
X6198813Y-12294424D02*
X6208337Y-12284900D01*
X6208337Y-12284900D02*
X6227384Y-12256329D01*
X6227384Y-12256329D02*
X6236908Y-12237281D01*
X6236908Y-12237281D02*
X6246432Y-12208710D01*
X6246432Y-12208710D02*
X6255956Y-12161091D01*
X6255956Y-12161091D02*
X6255956Y-12122996D01*
X6255956Y-12122996D02*
X6246432Y-12075377D01*
X6246432Y-12075377D02*
X6236908Y-12046805D01*
X6236908Y-12046805D02*
X6227384Y-12027758D01*
X6227384Y-12027758D02*
X6208337Y-11999186D01*
X6208337Y-11999186D02*
X6198813Y-11989662D01*
X6560718Y-12294424D02*
X6551194Y-12284900D01*
X6551194Y-12284900D02*
X6532146Y-12256329D01*
X6532146Y-12256329D02*
X6522622Y-12237281D01*
X6522622Y-12237281D02*
X6513099Y-12208710D01*
X6513099Y-12208710D02*
X6503575Y-12161091D01*
X6503575Y-12161091D02*
X6503575Y-12122996D01*
X6503575Y-12122996D02*
X6513099Y-12075377D01*
X6513099Y-12075377D02*
X6522622Y-12046805D01*
X6522622Y-12046805D02*
X6532146Y-12027758D01*
X6532146Y-12027758D02*
X6551194Y-11999186D01*
X6551194Y-11999186D02*
X6560718Y-11989662D01*
X6636908Y-12084900D02*
X6636908Y-12218234D01*
X6636908Y-12103948D02*
X6646432Y-12094424D01*
X6646432Y-12094424D02*
X6665480Y-12084900D01*
X6665480Y-12084900D02*
X6694051Y-12084900D01*
X6694051Y-12084900D02*
X6713099Y-12094424D01*
X6713099Y-12094424D02*
X6722622Y-12113472D01*
X6722622Y-12113472D02*
X6722622Y-12218234D01*
X6846432Y-12218234D02*
X6827384Y-12208710D01*
X6827384Y-12208710D02*
X6817861Y-12199186D01*
X6817861Y-12199186D02*
X6808337Y-12180138D01*
X6808337Y-12180138D02*
X6808337Y-12122996D01*
X6808337Y-12122996D02*
X6817861Y-12103948D01*
X6817861Y-12103948D02*
X6827384Y-12094424D01*
X6827384Y-12094424D02*
X6846432Y-12084900D01*
X6846432Y-12084900D02*
X6875003Y-12084900D01*
X6875003Y-12084900D02*
X6894051Y-12094424D01*
X6894051Y-12094424D02*
X6903575Y-12103948D01*
X6903575Y-12103948D02*
X6913099Y-12122996D01*
X6913099Y-12122996D02*
X6913099Y-12180138D01*
X6913099Y-12180138D02*
X6903575Y-12199186D01*
X6903575Y-12199186D02*
X6894051Y-12208710D01*
X6894051Y-12208710D02*
X6875003Y-12218234D01*
X6875003Y-12218234D02*
X6846432Y-12218234D01*
X6970242Y-12084900D02*
X7046432Y-12084900D01*
X6998813Y-12018234D02*
X6998813Y-12189662D01*
X6998813Y-12189662D02*
X7008337Y-12208710D01*
X7008337Y-12208710D02*
X7027384Y-12218234D01*
X7027384Y-12218234D02*
X7046432Y-12218234D01*
X7265480Y-12084900D02*
X7265480Y-12284900D01*
X7265480Y-12094424D02*
X7284527Y-12084900D01*
X7284527Y-12084900D02*
X7322623Y-12084900D01*
X7322623Y-12084900D02*
X7341670Y-12094424D01*
X7341670Y-12094424D02*
X7351194Y-12103948D01*
X7351194Y-12103948D02*
X7360718Y-12122996D01*
X7360718Y-12122996D02*
X7360718Y-12180138D01*
X7360718Y-12180138D02*
X7351194Y-12199186D01*
X7351194Y-12199186D02*
X7341670Y-12208710D01*
X7341670Y-12208710D02*
X7322623Y-12218234D01*
X7322623Y-12218234D02*
X7284527Y-12218234D01*
X7284527Y-12218234D02*
X7265480Y-12208710D01*
X7475003Y-12218234D02*
X7455956Y-12208710D01*
X7455956Y-12208710D02*
X7446432Y-12189662D01*
X7446432Y-12189662D02*
X7446432Y-12018234D01*
X7636908Y-12218234D02*
X7636908Y-12113472D01*
X7636908Y-12113472D02*
X7627384Y-12094424D01*
X7627384Y-12094424D02*
X7608337Y-12084900D01*
X7608337Y-12084900D02*
X7570242Y-12084900D01*
X7570242Y-12084900D02*
X7551194Y-12094424D01*
X7636908Y-12208710D02*
X7617861Y-12218234D01*
X7617861Y-12218234D02*
X7570242Y-12218234D01*
X7570242Y-12218234D02*
X7551194Y-12208710D01*
X7551194Y-12208710D02*
X7541670Y-12189662D01*
X7541670Y-12189662D02*
X7541670Y-12170615D01*
X7541670Y-12170615D02*
X7551194Y-12151567D01*
X7551194Y-12151567D02*
X7570242Y-12142043D01*
X7570242Y-12142043D02*
X7617861Y-12142043D01*
X7617861Y-12142043D02*
X7636908Y-12132519D01*
X7703575Y-12084900D02*
X7779765Y-12084900D01*
X7732146Y-12018234D02*
X7732146Y-12189662D01*
X7732146Y-12189662D02*
X7741670Y-12208710D01*
X7741670Y-12208710D02*
X7760718Y-12218234D01*
X7760718Y-12218234D02*
X7779765Y-12218234D01*
X7922623Y-12208710D02*
X7903575Y-12218234D01*
X7903575Y-12218234D02*
X7865480Y-12218234D01*
X7865480Y-12218234D02*
X7846432Y-12208710D01*
X7846432Y-12208710D02*
X7836908Y-12189662D01*
X7836908Y-12189662D02*
X7836908Y-12113472D01*
X7836908Y-12113472D02*
X7846432Y-12094424D01*
X7846432Y-12094424D02*
X7865480Y-12084900D01*
X7865480Y-12084900D02*
X7903575Y-12084900D01*
X7903575Y-12084900D02*
X7922623Y-12094424D01*
X7922623Y-12094424D02*
X7932146Y-12113472D01*
X7932146Y-12113472D02*
X7932146Y-12132519D01*
X7932146Y-12132519D02*
X7836908Y-12151567D01*
X8103575Y-12218234D02*
X8103575Y-12018234D01*
X8103575Y-12208710D02*
X8084527Y-12218234D01*
X8084527Y-12218234D02*
X8046432Y-12218234D01*
X8046432Y-12218234D02*
X8027384Y-12208710D01*
X8027384Y-12208710D02*
X8017861Y-12199186D01*
X8017861Y-12199186D02*
X8008337Y-12180138D01*
X8008337Y-12180138D02*
X8008337Y-12122996D01*
X8008337Y-12122996D02*
X8017861Y-12103948D01*
X8017861Y-12103948D02*
X8027384Y-12094424D01*
X8027384Y-12094424D02*
X8046432Y-12084900D01*
X8046432Y-12084900D02*
X8084527Y-12084900D01*
X8084527Y-12084900D02*
X8103575Y-12094424D01*
X8179765Y-12294424D02*
X8189289Y-12284900D01*
X8189289Y-12284900D02*
X8208337Y-12256329D01*
X8208337Y-12256329D02*
X8217861Y-12237281D01*
X8217861Y-12237281D02*
X8227384Y-12208710D01*
X8227384Y-12208710D02*
X8236908Y-12161091D01*
X8236908Y-12161091D02*
X8236908Y-12122996D01*
X8236908Y-12122996D02*
X8227384Y-12075377D01*
X8227384Y-12075377D02*
X8217861Y-12046805D01*
X8217861Y-12046805D02*
X8208337Y-12027758D01*
X8208337Y-12027758D02*
X8189289Y-11999186D01*
X8189289Y-11999186D02*
X8179765Y-11989662D01*
D13*
X1395926Y-12457926D02*
X1395926Y-12323574D01*
X1261574Y-12323574D01*
X1261574Y-12457926D01*
X1395926Y-12457926D01*
D11*
X1789289Y-12482234D02*
X1675003Y-12482234D01*
X1732146Y-12482234D02*
X1732146Y-12282234D01*
X1732146Y-12282234D02*
X1713098Y-12310805D01*
X1713098Y-12310805D02*
X1694051Y-12329853D01*
X1694051Y-12329853D02*
X1675003Y-12339377D01*
X1875003Y-12463186D02*
X1884527Y-12472710D01*
X1884527Y-12472710D02*
X1875003Y-12482234D01*
X1875003Y-12482234D02*
X1865479Y-12472710D01*
X1865479Y-12472710D02*
X1875003Y-12463186D01*
X1875003Y-12463186D02*
X1875003Y-12482234D01*
X1979765Y-12482234D02*
X2017860Y-12482234D01*
X2017860Y-12482234D02*
X2036908Y-12472710D01*
X2036908Y-12472710D02*
X2046432Y-12463186D01*
X2046432Y-12463186D02*
X2065479Y-12434615D01*
X2065479Y-12434615D02*
X2075003Y-12396519D01*
X2075003Y-12396519D02*
X2075003Y-12320329D01*
X2075003Y-12320329D02*
X2065479Y-12301281D01*
X2065479Y-12301281D02*
X2055955Y-12291758D01*
X2055955Y-12291758D02*
X2036908Y-12282234D01*
X2036908Y-12282234D02*
X1998812Y-12282234D01*
X1998812Y-12282234D02*
X1979765Y-12291758D01*
X1979765Y-12291758D02*
X1970241Y-12301281D01*
X1970241Y-12301281D02*
X1960717Y-12320329D01*
X1960717Y-12320329D02*
X1960717Y-12367948D01*
X1960717Y-12367948D02*
X1970241Y-12386996D01*
X1970241Y-12386996D02*
X1979765Y-12396519D01*
X1979765Y-12396519D02*
X1998812Y-12406043D01*
X1998812Y-12406043D02*
X2036908Y-12406043D01*
X2036908Y-12406043D02*
X2055955Y-12396519D01*
X2055955Y-12396519D02*
X2065479Y-12386996D01*
X2065479Y-12386996D02*
X2075003Y-12367948D01*
X2198813Y-12282234D02*
X2217860Y-12282234D01*
X2217860Y-12282234D02*
X2236908Y-12291758D01*
X2236908Y-12291758D02*
X2246432Y-12301281D01*
X2246432Y-12301281D02*
X2255955Y-12320329D01*
X2255955Y-12320329D02*
X2265479Y-12358424D01*
X2265479Y-12358424D02*
X2265479Y-12406043D01*
X2265479Y-12406043D02*
X2255955Y-12444138D01*
X2255955Y-12444138D02*
X2246432Y-12463186D01*
X2246432Y-12463186D02*
X2236908Y-12472710D01*
X2236908Y-12472710D02*
X2217860Y-12482234D01*
X2217860Y-12482234D02*
X2198813Y-12482234D01*
X2198813Y-12482234D02*
X2179765Y-12472710D01*
X2179765Y-12472710D02*
X2170241Y-12463186D01*
X2170241Y-12463186D02*
X2160717Y-12444138D01*
X2160717Y-12444138D02*
X2151194Y-12406043D01*
X2151194Y-12406043D02*
X2151194Y-12358424D01*
X2151194Y-12358424D02*
X2160717Y-12320329D01*
X2160717Y-12320329D02*
X2170241Y-12301281D01*
X2170241Y-12301281D02*
X2179765Y-12291758D01*
X2179765Y-12291758D02*
X2198813Y-12282234D01*
X2389289Y-12282234D02*
X2408336Y-12282234D01*
X2408336Y-12282234D02*
X2427384Y-12291758D01*
X2427384Y-12291758D02*
X2436908Y-12301281D01*
X2436908Y-12301281D02*
X2446432Y-12320329D01*
X2446432Y-12320329D02*
X2455955Y-12358424D01*
X2455955Y-12358424D02*
X2455955Y-12406043D01*
X2455955Y-12406043D02*
X2446432Y-12444138D01*
X2446432Y-12444138D02*
X2436908Y-12463186D01*
X2436908Y-12463186D02*
X2427384Y-12472710D01*
X2427384Y-12472710D02*
X2408336Y-12482234D01*
X2408336Y-12482234D02*
X2389289Y-12482234D01*
X2389289Y-12482234D02*
X2370241Y-12472710D01*
X2370241Y-12472710D02*
X2360717Y-12463186D01*
X2360717Y-12463186D02*
X2351194Y-12444138D01*
X2351194Y-12444138D02*
X2341670Y-12406043D01*
X2341670Y-12406043D02*
X2341670Y-12358424D01*
X2341670Y-12358424D02*
X2351194Y-12320329D01*
X2351194Y-12320329D02*
X2360717Y-12301281D01*
X2360717Y-12301281D02*
X2370241Y-12291758D01*
X2370241Y-12291758D02*
X2389289Y-12282234D01*
X2541670Y-12482234D02*
X2541670Y-12348900D01*
X2541670Y-12367948D02*
X2551194Y-12358424D01*
X2551194Y-12358424D02*
X2570241Y-12348900D01*
X2570241Y-12348900D02*
X2598813Y-12348900D01*
X2598813Y-12348900D02*
X2617860Y-12358424D01*
X2617860Y-12358424D02*
X2627384Y-12377472D01*
X2627384Y-12377472D02*
X2627384Y-12482234D01*
X2627384Y-12377472D02*
X2636908Y-12358424D01*
X2636908Y-12358424D02*
X2655955Y-12348900D01*
X2655955Y-12348900D02*
X2684527Y-12348900D01*
X2684527Y-12348900D02*
X2703575Y-12358424D01*
X2703575Y-12358424D02*
X2713098Y-12377472D01*
X2713098Y-12377472D02*
X2713098Y-12482234D01*
X2808336Y-12482234D02*
X2808336Y-12348900D01*
X2808336Y-12367948D02*
X2817860Y-12358424D01*
X2817860Y-12358424D02*
X2836908Y-12348900D01*
X2836908Y-12348900D02*
X2865479Y-12348900D01*
X2865479Y-12348900D02*
X2884527Y-12358424D01*
X2884527Y-12358424D02*
X2894051Y-12377472D01*
X2894051Y-12377472D02*
X2894051Y-12482234D01*
X2894051Y-12377472D02*
X2903574Y-12358424D01*
X2903574Y-12358424D02*
X2922622Y-12348900D01*
X2922622Y-12348900D02*
X2951193Y-12348900D01*
X2951193Y-12348900D02*
X2970241Y-12358424D01*
X2970241Y-12358424D02*
X2979765Y-12377472D01*
X2979765Y-12377472D02*
X2979765Y-12482234D01*
X3370241Y-12272710D02*
X3198813Y-12529853D01*
X3627384Y-12282234D02*
X3646432Y-12282234D01*
X3646432Y-12282234D02*
X3665479Y-12291758D01*
X3665479Y-12291758D02*
X3675003Y-12301281D01*
X3675003Y-12301281D02*
X3684527Y-12320329D01*
X3684527Y-12320329D02*
X3694051Y-12358424D01*
X3694051Y-12358424D02*
X3694051Y-12406043D01*
X3694051Y-12406043D02*
X3684527Y-12444138D01*
X3684527Y-12444138D02*
X3675003Y-12463186D01*
X3675003Y-12463186D02*
X3665479Y-12472710D01*
X3665479Y-12472710D02*
X3646432Y-12482234D01*
X3646432Y-12482234D02*
X3627384Y-12482234D01*
X3627384Y-12482234D02*
X3608336Y-12472710D01*
X3608336Y-12472710D02*
X3598813Y-12463186D01*
X3598813Y-12463186D02*
X3589289Y-12444138D01*
X3589289Y-12444138D02*
X3579765Y-12406043D01*
X3579765Y-12406043D02*
X3579765Y-12358424D01*
X3579765Y-12358424D02*
X3589289Y-12320329D01*
X3589289Y-12320329D02*
X3598813Y-12301281D01*
X3598813Y-12301281D02*
X3608336Y-12291758D01*
X3608336Y-12291758D02*
X3627384Y-12282234D01*
X3779765Y-12463186D02*
X3789289Y-12472710D01*
X3789289Y-12472710D02*
X3779765Y-12482234D01*
X3779765Y-12482234D02*
X3770241Y-12472710D01*
X3770241Y-12472710D02*
X3779765Y-12463186D01*
X3779765Y-12463186D02*
X3779765Y-12482234D01*
X3913098Y-12282234D02*
X3932146Y-12282234D01*
X3932146Y-12282234D02*
X3951194Y-12291758D01*
X3951194Y-12291758D02*
X3960717Y-12301281D01*
X3960717Y-12301281D02*
X3970241Y-12320329D01*
X3970241Y-12320329D02*
X3979765Y-12358424D01*
X3979765Y-12358424D02*
X3979765Y-12406043D01*
X3979765Y-12406043D02*
X3970241Y-12444138D01*
X3970241Y-12444138D02*
X3960717Y-12463186D01*
X3960717Y-12463186D02*
X3951194Y-12472710D01*
X3951194Y-12472710D02*
X3932146Y-12482234D01*
X3932146Y-12482234D02*
X3913098Y-12482234D01*
X3913098Y-12482234D02*
X3894051Y-12472710D01*
X3894051Y-12472710D02*
X3884527Y-12463186D01*
X3884527Y-12463186D02*
X3875003Y-12444138D01*
X3875003Y-12444138D02*
X3865479Y-12406043D01*
X3865479Y-12406043D02*
X3865479Y-12358424D01*
X3865479Y-12358424D02*
X3875003Y-12320329D01*
X3875003Y-12320329D02*
X3884527Y-12301281D01*
X3884527Y-12301281D02*
X3894051Y-12291758D01*
X3894051Y-12291758D02*
X3913098Y-12282234D01*
X4046432Y-12282234D02*
X4179765Y-12282234D01*
X4179765Y-12282234D02*
X4094051Y-12482234D01*
X4341670Y-12348900D02*
X4341670Y-12482234D01*
X4294051Y-12272710D02*
X4246432Y-12415567D01*
X4246432Y-12415567D02*
X4370241Y-12415567D01*
X4475003Y-12367948D02*
X4455956Y-12358424D01*
X4455956Y-12358424D02*
X4446432Y-12348900D01*
X4446432Y-12348900D02*
X4436908Y-12329853D01*
X4436908Y-12329853D02*
X4436908Y-12320329D01*
X4436908Y-12320329D02*
X4446432Y-12301281D01*
X4446432Y-12301281D02*
X4455956Y-12291758D01*
X4455956Y-12291758D02*
X4475003Y-12282234D01*
X4475003Y-12282234D02*
X4513099Y-12282234D01*
X4513099Y-12282234D02*
X4532146Y-12291758D01*
X4532146Y-12291758D02*
X4541670Y-12301281D01*
X4541670Y-12301281D02*
X4551194Y-12320329D01*
X4551194Y-12320329D02*
X4551194Y-12329853D01*
X4551194Y-12329853D02*
X4541670Y-12348900D01*
X4541670Y-12348900D02*
X4532146Y-12358424D01*
X4532146Y-12358424D02*
X4513099Y-12367948D01*
X4513099Y-12367948D02*
X4475003Y-12367948D01*
X4475003Y-12367948D02*
X4455956Y-12377472D01*
X4455956Y-12377472D02*
X4446432Y-12386996D01*
X4446432Y-12386996D02*
X4436908Y-12406043D01*
X4436908Y-12406043D02*
X4436908Y-12444138D01*
X4436908Y-12444138D02*
X4446432Y-12463186D01*
X4446432Y-12463186D02*
X4455956Y-12472710D01*
X4455956Y-12472710D02*
X4475003Y-12482234D01*
X4475003Y-12482234D02*
X4513099Y-12482234D01*
X4513099Y-12482234D02*
X4532146Y-12472710D01*
X4532146Y-12472710D02*
X4541670Y-12463186D01*
X4541670Y-12463186D02*
X4551194Y-12444138D01*
X4551194Y-12444138D02*
X4551194Y-12406043D01*
X4551194Y-12406043D02*
X4541670Y-12386996D01*
X4541670Y-12386996D02*
X4532146Y-12377472D01*
X4532146Y-12377472D02*
X4513099Y-12367948D01*
X4627384Y-12282234D02*
X4627384Y-12320329D01*
X4703575Y-12282234D02*
X4703575Y-12320329D01*
X4998813Y-12558424D02*
X4989289Y-12548900D01*
X4989289Y-12548900D02*
X4970241Y-12520329D01*
X4970241Y-12520329D02*
X4960718Y-12501281D01*
X4960718Y-12501281D02*
X4951194Y-12472710D01*
X4951194Y-12472710D02*
X4941670Y-12425091D01*
X4941670Y-12425091D02*
X4941670Y-12386996D01*
X4941670Y-12386996D02*
X4951194Y-12339377D01*
X4951194Y-12339377D02*
X4960718Y-12310805D01*
X4960718Y-12310805D02*
X4970241Y-12291758D01*
X4970241Y-12291758D02*
X4989289Y-12263186D01*
X4989289Y-12263186D02*
X4998813Y-12253662D01*
X5179765Y-12482234D02*
X5065480Y-12482234D01*
X5122622Y-12482234D02*
X5122622Y-12282234D01*
X5122622Y-12282234D02*
X5103575Y-12310805D01*
X5103575Y-12310805D02*
X5084527Y-12329853D01*
X5084527Y-12329853D02*
X5065480Y-12339377D01*
X5351194Y-12282234D02*
X5313099Y-12282234D01*
X5313099Y-12282234D02*
X5294051Y-12291758D01*
X5294051Y-12291758D02*
X5284527Y-12301281D01*
X5284527Y-12301281D02*
X5265480Y-12329853D01*
X5265480Y-12329853D02*
X5255956Y-12367948D01*
X5255956Y-12367948D02*
X5255956Y-12444138D01*
X5255956Y-12444138D02*
X5265480Y-12463186D01*
X5265480Y-12463186D02*
X5275003Y-12472710D01*
X5275003Y-12472710D02*
X5294051Y-12482234D01*
X5294051Y-12482234D02*
X5332146Y-12482234D01*
X5332146Y-12482234D02*
X5351194Y-12472710D01*
X5351194Y-12472710D02*
X5360718Y-12463186D01*
X5360718Y-12463186D02*
X5370241Y-12444138D01*
X5370241Y-12444138D02*
X5370241Y-12396519D01*
X5370241Y-12396519D02*
X5360718Y-12377472D01*
X5360718Y-12377472D02*
X5351194Y-12367948D01*
X5351194Y-12367948D02*
X5332146Y-12358424D01*
X5332146Y-12358424D02*
X5294051Y-12358424D01*
X5294051Y-12358424D02*
X5275003Y-12367948D01*
X5275003Y-12367948D02*
X5265480Y-12377472D01*
X5265480Y-12377472D02*
X5255956Y-12396519D01*
X5484527Y-12367948D02*
X5465480Y-12358424D01*
X5465480Y-12358424D02*
X5455956Y-12348900D01*
X5455956Y-12348900D02*
X5446432Y-12329853D01*
X5446432Y-12329853D02*
X5446432Y-12320329D01*
X5446432Y-12320329D02*
X5455956Y-12301281D01*
X5455956Y-12301281D02*
X5465480Y-12291758D01*
X5465480Y-12291758D02*
X5484527Y-12282234D01*
X5484527Y-12282234D02*
X5522622Y-12282234D01*
X5522622Y-12282234D02*
X5541670Y-12291758D01*
X5541670Y-12291758D02*
X5551194Y-12301281D01*
X5551194Y-12301281D02*
X5560718Y-12320329D01*
X5560718Y-12320329D02*
X5560718Y-12329853D01*
X5560718Y-12329853D02*
X5551194Y-12348900D01*
X5551194Y-12348900D02*
X5541670Y-12358424D01*
X5541670Y-12358424D02*
X5522622Y-12367948D01*
X5522622Y-12367948D02*
X5484527Y-12367948D01*
X5484527Y-12367948D02*
X5465480Y-12377472D01*
X5465480Y-12377472D02*
X5455956Y-12386996D01*
X5455956Y-12386996D02*
X5446432Y-12406043D01*
X5446432Y-12406043D02*
X5446432Y-12444138D01*
X5446432Y-12444138D02*
X5455956Y-12463186D01*
X5455956Y-12463186D02*
X5465480Y-12472710D01*
X5465480Y-12472710D02*
X5484527Y-12482234D01*
X5484527Y-12482234D02*
X5522622Y-12482234D01*
X5522622Y-12482234D02*
X5541670Y-12472710D01*
X5541670Y-12472710D02*
X5551194Y-12463186D01*
X5551194Y-12463186D02*
X5560718Y-12444138D01*
X5560718Y-12444138D02*
X5560718Y-12406043D01*
X5560718Y-12406043D02*
X5551194Y-12386996D01*
X5551194Y-12386996D02*
X5541670Y-12377472D01*
X5541670Y-12377472D02*
X5522622Y-12367948D01*
X5798813Y-12482234D02*
X5798813Y-12282234D01*
X5884527Y-12482234D02*
X5884527Y-12377472D01*
X5884527Y-12377472D02*
X5875003Y-12358424D01*
X5875003Y-12358424D02*
X5855956Y-12348900D01*
X5855956Y-12348900D02*
X5827384Y-12348900D01*
X5827384Y-12348900D02*
X5808337Y-12358424D01*
X5808337Y-12358424D02*
X5798813Y-12367948D01*
X6008337Y-12482234D02*
X5989289Y-12472710D01*
X5989289Y-12472710D02*
X5979765Y-12463186D01*
X5979765Y-12463186D02*
X5970241Y-12444138D01*
X5970241Y-12444138D02*
X5970241Y-12386996D01*
X5970241Y-12386996D02*
X5979765Y-12367948D01*
X5979765Y-12367948D02*
X5989289Y-12358424D01*
X5989289Y-12358424D02*
X6008337Y-12348900D01*
X6008337Y-12348900D02*
X6036908Y-12348900D01*
X6036908Y-12348900D02*
X6055956Y-12358424D01*
X6055956Y-12358424D02*
X6065480Y-12367948D01*
X6065480Y-12367948D02*
X6075003Y-12386996D01*
X6075003Y-12386996D02*
X6075003Y-12444138D01*
X6075003Y-12444138D02*
X6065480Y-12463186D01*
X6065480Y-12463186D02*
X6055956Y-12472710D01*
X6055956Y-12472710D02*
X6036908Y-12482234D01*
X6036908Y-12482234D02*
X6008337Y-12482234D01*
X6189289Y-12482234D02*
X6170241Y-12472710D01*
X6170241Y-12472710D02*
X6160718Y-12453662D01*
X6160718Y-12453662D02*
X6160718Y-12282234D01*
X6341670Y-12472710D02*
X6322622Y-12482234D01*
X6322622Y-12482234D02*
X6284527Y-12482234D01*
X6284527Y-12482234D02*
X6265480Y-12472710D01*
X6265480Y-12472710D02*
X6255956Y-12453662D01*
X6255956Y-12453662D02*
X6255956Y-12377472D01*
X6255956Y-12377472D02*
X6265480Y-12358424D01*
X6265480Y-12358424D02*
X6284527Y-12348900D01*
X6284527Y-12348900D02*
X6322622Y-12348900D01*
X6322622Y-12348900D02*
X6341670Y-12358424D01*
X6341670Y-12358424D02*
X6351194Y-12377472D01*
X6351194Y-12377472D02*
X6351194Y-12396519D01*
X6351194Y-12396519D02*
X6255956Y-12415567D01*
X6427384Y-12472710D02*
X6446432Y-12482234D01*
X6446432Y-12482234D02*
X6484527Y-12482234D01*
X6484527Y-12482234D02*
X6503575Y-12472710D01*
X6503575Y-12472710D02*
X6513099Y-12453662D01*
X6513099Y-12453662D02*
X6513099Y-12444138D01*
X6513099Y-12444138D02*
X6503575Y-12425091D01*
X6503575Y-12425091D02*
X6484527Y-12415567D01*
X6484527Y-12415567D02*
X6455956Y-12415567D01*
X6455956Y-12415567D02*
X6436908Y-12406043D01*
X6436908Y-12406043D02*
X6427384Y-12386996D01*
X6427384Y-12386996D02*
X6427384Y-12377472D01*
X6427384Y-12377472D02*
X6436908Y-12358424D01*
X6436908Y-12358424D02*
X6455956Y-12348900D01*
X6455956Y-12348900D02*
X6484527Y-12348900D01*
X6484527Y-12348900D02*
X6503575Y-12358424D01*
X6579765Y-12558424D02*
X6589289Y-12548900D01*
X6589289Y-12548900D02*
X6608337Y-12520329D01*
X6608337Y-12520329D02*
X6617861Y-12501281D01*
X6617861Y-12501281D02*
X6627384Y-12472710D01*
X6627384Y-12472710D02*
X6636908Y-12425091D01*
X6636908Y-12425091D02*
X6636908Y-12386996D01*
X6636908Y-12386996D02*
X6627384Y-12339377D01*
X6627384Y-12339377D02*
X6617861Y-12310805D01*
X6617861Y-12310805D02*
X6608337Y-12291758D01*
X6608337Y-12291758D02*
X6589289Y-12263186D01*
X6589289Y-12263186D02*
X6579765Y-12253662D01*
X6941670Y-12558424D02*
X6932146Y-12548900D01*
X6932146Y-12548900D02*
X6913099Y-12520329D01*
X6913099Y-12520329D02*
X6903575Y-12501281D01*
X6903575Y-12501281D02*
X6894051Y-12472710D01*
X6894051Y-12472710D02*
X6884527Y-12425091D01*
X6884527Y-12425091D02*
X6884527Y-12386996D01*
X6884527Y-12386996D02*
X6894051Y-12339377D01*
X6894051Y-12339377D02*
X6903575Y-12310805D01*
X6903575Y-12310805D02*
X6913099Y-12291758D01*
X6913099Y-12291758D02*
X6932146Y-12263186D01*
X6932146Y-12263186D02*
X6941670Y-12253662D01*
X7017861Y-12348900D02*
X7017861Y-12482234D01*
X7017861Y-12367948D02*
X7027384Y-12358424D01*
X7027384Y-12358424D02*
X7046432Y-12348900D01*
X7046432Y-12348900D02*
X7075003Y-12348900D01*
X7075003Y-12348900D02*
X7094051Y-12358424D01*
X7094051Y-12358424D02*
X7103575Y-12377472D01*
X7103575Y-12377472D02*
X7103575Y-12482234D01*
X7227384Y-12482234D02*
X7208337Y-12472710D01*
X7208337Y-12472710D02*
X7198813Y-12463186D01*
X7198813Y-12463186D02*
X7189289Y-12444138D01*
X7189289Y-12444138D02*
X7189289Y-12386996D01*
X7189289Y-12386996D02*
X7198813Y-12367948D01*
X7198813Y-12367948D02*
X7208337Y-12358424D01*
X7208337Y-12358424D02*
X7227384Y-12348900D01*
X7227384Y-12348900D02*
X7255956Y-12348900D01*
X7255956Y-12348900D02*
X7275003Y-12358424D01*
X7275003Y-12358424D02*
X7284527Y-12367948D01*
X7284527Y-12367948D02*
X7294051Y-12386996D01*
X7294051Y-12386996D02*
X7294051Y-12444138D01*
X7294051Y-12444138D02*
X7284527Y-12463186D01*
X7284527Y-12463186D02*
X7275003Y-12472710D01*
X7275003Y-12472710D02*
X7255956Y-12482234D01*
X7255956Y-12482234D02*
X7227384Y-12482234D01*
X7351194Y-12348900D02*
X7427384Y-12348900D01*
X7379765Y-12282234D02*
X7379765Y-12453662D01*
X7379765Y-12453662D02*
X7389289Y-12472710D01*
X7389289Y-12472710D02*
X7408337Y-12482234D01*
X7408337Y-12482234D02*
X7427384Y-12482234D01*
X7646432Y-12348900D02*
X7646432Y-12548900D01*
X7646432Y-12358424D02*
X7665480Y-12348900D01*
X7665480Y-12348900D02*
X7703575Y-12348900D01*
X7703575Y-12348900D02*
X7722623Y-12358424D01*
X7722623Y-12358424D02*
X7732146Y-12367948D01*
X7732146Y-12367948D02*
X7741670Y-12386996D01*
X7741670Y-12386996D02*
X7741670Y-12444138D01*
X7741670Y-12444138D02*
X7732146Y-12463186D01*
X7732146Y-12463186D02*
X7722623Y-12472710D01*
X7722623Y-12472710D02*
X7703575Y-12482234D01*
X7703575Y-12482234D02*
X7665480Y-12482234D01*
X7665480Y-12482234D02*
X7646432Y-12472710D01*
X7855956Y-12482234D02*
X7836908Y-12472710D01*
X7836908Y-12472710D02*
X7827384Y-12453662D01*
X7827384Y-12453662D02*
X7827384Y-12282234D01*
X8017861Y-12482234D02*
X8017861Y-12377472D01*
X8017861Y-12377472D02*
X8008337Y-12358424D01*
X8008337Y-12358424D02*
X7989289Y-12348900D01*
X7989289Y-12348900D02*
X7951194Y-12348900D01*
X7951194Y-12348900D02*
X7932146Y-12358424D01*
X8017861Y-12472710D02*
X7998813Y-12482234D01*
X7998813Y-12482234D02*
X7951194Y-12482234D01*
X7951194Y-12482234D02*
X7932146Y-12472710D01*
X7932146Y-12472710D02*
X7922623Y-12453662D01*
X7922623Y-12453662D02*
X7922623Y-12434615D01*
X7922623Y-12434615D02*
X7932146Y-12415567D01*
X7932146Y-12415567D02*
X7951194Y-12406043D01*
X7951194Y-12406043D02*
X7998813Y-12406043D01*
X7998813Y-12406043D02*
X8017861Y-12396519D01*
X8084527Y-12348900D02*
X8160718Y-12348900D01*
X8113099Y-12282234D02*
X8113099Y-12453662D01*
X8113099Y-12453662D02*
X8122623Y-12472710D01*
X8122623Y-12472710D02*
X8141670Y-12482234D01*
X8141670Y-12482234D02*
X8160718Y-12482234D01*
X8303575Y-12472710D02*
X8284527Y-12482234D01*
X8284527Y-12482234D02*
X8246432Y-12482234D01*
X8246432Y-12482234D02*
X8227384Y-12472710D01*
X8227384Y-12472710D02*
X8217861Y-12453662D01*
X8217861Y-12453662D02*
X8217861Y-12377472D01*
X8217861Y-12377472D02*
X8227384Y-12358424D01*
X8227384Y-12358424D02*
X8246432Y-12348900D01*
X8246432Y-12348900D02*
X8284527Y-12348900D01*
X8284527Y-12348900D02*
X8303575Y-12358424D01*
X8303575Y-12358424D02*
X8313099Y-12377472D01*
X8313099Y-12377472D02*
X8313099Y-12396519D01*
X8313099Y-12396519D02*
X8217861Y-12415567D01*
X8484527Y-12482234D02*
X8484527Y-12282234D01*
X8484527Y-12472710D02*
X8465480Y-12482234D01*
X8465480Y-12482234D02*
X8427385Y-12482234D01*
X8427385Y-12482234D02*
X8408337Y-12472710D01*
X8408337Y-12472710D02*
X8398813Y-12463186D01*
X8398813Y-12463186D02*
X8389289Y-12444138D01*
X8389289Y-12444138D02*
X8389289Y-12386996D01*
X8389289Y-12386996D02*
X8398813Y-12367948D01*
X8398813Y-12367948D02*
X8408337Y-12358424D01*
X8408337Y-12358424D02*
X8427385Y-12348900D01*
X8427385Y-12348900D02*
X8465480Y-12348900D01*
X8465480Y-12348900D02*
X8484527Y-12358424D01*
X8560718Y-12558424D02*
X8570242Y-12548900D01*
X8570242Y-12548900D02*
X8589289Y-12520329D01*
X8589289Y-12520329D02*
X8598813Y-12501281D01*
X8598813Y-12501281D02*
X8608337Y-12472710D01*
X8608337Y-12472710D02*
X8617861Y-12425091D01*
X8617861Y-12425091D02*
X8617861Y-12386996D01*
X8617861Y-12386996D02*
X8608337Y-12339377D01*
X8608337Y-12339377D02*
X8598813Y-12310805D01*
X8598813Y-12310805D02*
X8589289Y-12291758D01*
X8589289Y-12291758D02*
X8570242Y-12263186D01*
X8570242Y-12263186D02*
X8560718Y-12253662D01*
X1323750Y-12800750D02*
X1423750Y-12700750D01*
X1323750Y-12600750D01*
X1223750Y-12700750D01*
X1323750Y-12800750D01*
X1665479Y-12592234D02*
X1789289Y-12592234D01*
X1789289Y-12592234D02*
X1722622Y-12668424D01*
X1722622Y-12668424D02*
X1751193Y-12668424D01*
X1751193Y-12668424D02*
X1770241Y-12677948D01*
X1770241Y-12677948D02*
X1779765Y-12687472D01*
X1779765Y-12687472D02*
X1789289Y-12706519D01*
X1789289Y-12706519D02*
X1789289Y-12754138D01*
X1789289Y-12754138D02*
X1779765Y-12773186D01*
X1779765Y-12773186D02*
X1770241Y-12782710D01*
X1770241Y-12782710D02*
X1751193Y-12792234D01*
X1751193Y-12792234D02*
X1694051Y-12792234D01*
X1694051Y-12792234D02*
X1675003Y-12782710D01*
X1675003Y-12782710D02*
X1665479Y-12773186D01*
X1875003Y-12773186D02*
X1884527Y-12782710D01*
X1884527Y-12782710D02*
X1875003Y-12792234D01*
X1875003Y-12792234D02*
X1865479Y-12782710D01*
X1865479Y-12782710D02*
X1875003Y-12773186D01*
X1875003Y-12773186D02*
X1875003Y-12792234D01*
X2008336Y-12592234D02*
X2027384Y-12592234D01*
X2027384Y-12592234D02*
X2046432Y-12601758D01*
X2046432Y-12601758D02*
X2055955Y-12611281D01*
X2055955Y-12611281D02*
X2065479Y-12630329D01*
X2065479Y-12630329D02*
X2075003Y-12668424D01*
X2075003Y-12668424D02*
X2075003Y-12716043D01*
X2075003Y-12716043D02*
X2065479Y-12754138D01*
X2065479Y-12754138D02*
X2055955Y-12773186D01*
X2055955Y-12773186D02*
X2046432Y-12782710D01*
X2046432Y-12782710D02*
X2027384Y-12792234D01*
X2027384Y-12792234D02*
X2008336Y-12792234D01*
X2008336Y-12792234D02*
X1989289Y-12782710D01*
X1989289Y-12782710D02*
X1979765Y-12773186D01*
X1979765Y-12773186D02*
X1970241Y-12754138D01*
X1970241Y-12754138D02*
X1960717Y-12716043D01*
X1960717Y-12716043D02*
X1960717Y-12668424D01*
X1960717Y-12668424D02*
X1970241Y-12630329D01*
X1970241Y-12630329D02*
X1979765Y-12611281D01*
X1979765Y-12611281D02*
X1989289Y-12601758D01*
X1989289Y-12601758D02*
X2008336Y-12592234D01*
X2198813Y-12592234D02*
X2217860Y-12592234D01*
X2217860Y-12592234D02*
X2236908Y-12601758D01*
X2236908Y-12601758D02*
X2246432Y-12611281D01*
X2246432Y-12611281D02*
X2255955Y-12630329D01*
X2255955Y-12630329D02*
X2265479Y-12668424D01*
X2265479Y-12668424D02*
X2265479Y-12716043D01*
X2265479Y-12716043D02*
X2255955Y-12754138D01*
X2255955Y-12754138D02*
X2246432Y-12773186D01*
X2246432Y-12773186D02*
X2236908Y-12782710D01*
X2236908Y-12782710D02*
X2217860Y-12792234D01*
X2217860Y-12792234D02*
X2198813Y-12792234D01*
X2198813Y-12792234D02*
X2179765Y-12782710D01*
X2179765Y-12782710D02*
X2170241Y-12773186D01*
X2170241Y-12773186D02*
X2160717Y-12754138D01*
X2160717Y-12754138D02*
X2151194Y-12716043D01*
X2151194Y-12716043D02*
X2151194Y-12668424D01*
X2151194Y-12668424D02*
X2160717Y-12630329D01*
X2160717Y-12630329D02*
X2170241Y-12611281D01*
X2170241Y-12611281D02*
X2179765Y-12601758D01*
X2179765Y-12601758D02*
X2198813Y-12592234D01*
X2389289Y-12592234D02*
X2408336Y-12592234D01*
X2408336Y-12592234D02*
X2427384Y-12601758D01*
X2427384Y-12601758D02*
X2436908Y-12611281D01*
X2436908Y-12611281D02*
X2446432Y-12630329D01*
X2446432Y-12630329D02*
X2455955Y-12668424D01*
X2455955Y-12668424D02*
X2455955Y-12716043D01*
X2455955Y-12716043D02*
X2446432Y-12754138D01*
X2446432Y-12754138D02*
X2436908Y-12773186D01*
X2436908Y-12773186D02*
X2427384Y-12782710D01*
X2427384Y-12782710D02*
X2408336Y-12792234D01*
X2408336Y-12792234D02*
X2389289Y-12792234D01*
X2389289Y-12792234D02*
X2370241Y-12782710D01*
X2370241Y-12782710D02*
X2360717Y-12773186D01*
X2360717Y-12773186D02*
X2351194Y-12754138D01*
X2351194Y-12754138D02*
X2341670Y-12716043D01*
X2341670Y-12716043D02*
X2341670Y-12668424D01*
X2341670Y-12668424D02*
X2351194Y-12630329D01*
X2351194Y-12630329D02*
X2360717Y-12611281D01*
X2360717Y-12611281D02*
X2370241Y-12601758D01*
X2370241Y-12601758D02*
X2389289Y-12592234D01*
X2541670Y-12792234D02*
X2541670Y-12658900D01*
X2541670Y-12677948D02*
X2551194Y-12668424D01*
X2551194Y-12668424D02*
X2570241Y-12658900D01*
X2570241Y-12658900D02*
X2598813Y-12658900D01*
X2598813Y-12658900D02*
X2617860Y-12668424D01*
X2617860Y-12668424D02*
X2627384Y-12687472D01*
X2627384Y-12687472D02*
X2627384Y-12792234D01*
X2627384Y-12687472D02*
X2636908Y-12668424D01*
X2636908Y-12668424D02*
X2655955Y-12658900D01*
X2655955Y-12658900D02*
X2684527Y-12658900D01*
X2684527Y-12658900D02*
X2703575Y-12668424D01*
X2703575Y-12668424D02*
X2713098Y-12687472D01*
X2713098Y-12687472D02*
X2713098Y-12792234D01*
X2808336Y-12792234D02*
X2808336Y-12658900D01*
X2808336Y-12677948D02*
X2817860Y-12668424D01*
X2817860Y-12668424D02*
X2836908Y-12658900D01*
X2836908Y-12658900D02*
X2865479Y-12658900D01*
X2865479Y-12658900D02*
X2884527Y-12668424D01*
X2884527Y-12668424D02*
X2894051Y-12687472D01*
X2894051Y-12687472D02*
X2894051Y-12792234D01*
X2894051Y-12687472D02*
X2903574Y-12668424D01*
X2903574Y-12668424D02*
X2922622Y-12658900D01*
X2922622Y-12658900D02*
X2951193Y-12658900D01*
X2951193Y-12658900D02*
X2970241Y-12668424D01*
X2970241Y-12668424D02*
X2979765Y-12687472D01*
X2979765Y-12687472D02*
X2979765Y-12792234D01*
X3370241Y-12582710D02*
X3198813Y-12839853D01*
X3627384Y-12592234D02*
X3646432Y-12592234D01*
X3646432Y-12592234D02*
X3665479Y-12601758D01*
X3665479Y-12601758D02*
X3675003Y-12611281D01*
X3675003Y-12611281D02*
X3684527Y-12630329D01*
X3684527Y-12630329D02*
X3694051Y-12668424D01*
X3694051Y-12668424D02*
X3694051Y-12716043D01*
X3694051Y-12716043D02*
X3684527Y-12754138D01*
X3684527Y-12754138D02*
X3675003Y-12773186D01*
X3675003Y-12773186D02*
X3665479Y-12782710D01*
X3665479Y-12782710D02*
X3646432Y-12792234D01*
X3646432Y-12792234D02*
X3627384Y-12792234D01*
X3627384Y-12792234D02*
X3608336Y-12782710D01*
X3608336Y-12782710D02*
X3598813Y-12773186D01*
X3598813Y-12773186D02*
X3589289Y-12754138D01*
X3589289Y-12754138D02*
X3579765Y-12716043D01*
X3579765Y-12716043D02*
X3579765Y-12668424D01*
X3579765Y-12668424D02*
X3589289Y-12630329D01*
X3589289Y-12630329D02*
X3598813Y-12611281D01*
X3598813Y-12611281D02*
X3608336Y-12601758D01*
X3608336Y-12601758D02*
X3627384Y-12592234D01*
X3779765Y-12773186D02*
X3789289Y-12782710D01*
X3789289Y-12782710D02*
X3779765Y-12792234D01*
X3779765Y-12792234D02*
X3770241Y-12782710D01*
X3770241Y-12782710D02*
X3779765Y-12773186D01*
X3779765Y-12773186D02*
X3779765Y-12792234D01*
X3979765Y-12792234D02*
X3865479Y-12792234D01*
X3922622Y-12792234D02*
X3922622Y-12592234D01*
X3922622Y-12592234D02*
X3903575Y-12620805D01*
X3903575Y-12620805D02*
X3884527Y-12639853D01*
X3884527Y-12639853D02*
X3865479Y-12649377D01*
X4170241Y-12792234D02*
X4055956Y-12792234D01*
X4113098Y-12792234D02*
X4113098Y-12592234D01*
X4113098Y-12592234D02*
X4094051Y-12620805D01*
X4094051Y-12620805D02*
X4075003Y-12639853D01*
X4075003Y-12639853D02*
X4055956Y-12649377D01*
X4284527Y-12677948D02*
X4265479Y-12668424D01*
X4265479Y-12668424D02*
X4255956Y-12658900D01*
X4255956Y-12658900D02*
X4246432Y-12639853D01*
X4246432Y-12639853D02*
X4246432Y-12630329D01*
X4246432Y-12630329D02*
X4255956Y-12611281D01*
X4255956Y-12611281D02*
X4265479Y-12601758D01*
X4265479Y-12601758D02*
X4284527Y-12592234D01*
X4284527Y-12592234D02*
X4322622Y-12592234D01*
X4322622Y-12592234D02*
X4341670Y-12601758D01*
X4341670Y-12601758D02*
X4351194Y-12611281D01*
X4351194Y-12611281D02*
X4360718Y-12630329D01*
X4360718Y-12630329D02*
X4360718Y-12639853D01*
X4360718Y-12639853D02*
X4351194Y-12658900D01*
X4351194Y-12658900D02*
X4341670Y-12668424D01*
X4341670Y-12668424D02*
X4322622Y-12677948D01*
X4322622Y-12677948D02*
X4284527Y-12677948D01*
X4284527Y-12677948D02*
X4265479Y-12687472D01*
X4265479Y-12687472D02*
X4255956Y-12696996D01*
X4255956Y-12696996D02*
X4246432Y-12716043D01*
X4246432Y-12716043D02*
X4246432Y-12754138D01*
X4246432Y-12754138D02*
X4255956Y-12773186D01*
X4255956Y-12773186D02*
X4265479Y-12782710D01*
X4265479Y-12782710D02*
X4284527Y-12792234D01*
X4284527Y-12792234D02*
X4322622Y-12792234D01*
X4322622Y-12792234D02*
X4341670Y-12782710D01*
X4341670Y-12782710D02*
X4351194Y-12773186D01*
X4351194Y-12773186D02*
X4360718Y-12754138D01*
X4360718Y-12754138D02*
X4360718Y-12716043D01*
X4360718Y-12716043D02*
X4351194Y-12696996D01*
X4351194Y-12696996D02*
X4341670Y-12687472D01*
X4341670Y-12687472D02*
X4322622Y-12677948D01*
X4551194Y-12792234D02*
X4436908Y-12792234D01*
X4494051Y-12792234D02*
X4494051Y-12592234D01*
X4494051Y-12592234D02*
X4475003Y-12620805D01*
X4475003Y-12620805D02*
X4455956Y-12639853D01*
X4455956Y-12639853D02*
X4436908Y-12649377D01*
X4627384Y-12592234D02*
X4627384Y-12630329D01*
X4703575Y-12592234D02*
X4703575Y-12630329D01*
X4998813Y-12868424D02*
X4989289Y-12858900D01*
X4989289Y-12858900D02*
X4970241Y-12830329D01*
X4970241Y-12830329D02*
X4960718Y-12811281D01*
X4960718Y-12811281D02*
X4951194Y-12782710D01*
X4951194Y-12782710D02*
X4941670Y-12735091D01*
X4941670Y-12735091D02*
X4941670Y-12696996D01*
X4941670Y-12696996D02*
X4951194Y-12649377D01*
X4951194Y-12649377D02*
X4960718Y-12620805D01*
X4960718Y-12620805D02*
X4970241Y-12601758D01*
X4970241Y-12601758D02*
X4989289Y-12573186D01*
X4989289Y-12573186D02*
X4998813Y-12563662D01*
X5179765Y-12792234D02*
X5065480Y-12792234D01*
X5122622Y-12792234D02*
X5122622Y-12592234D01*
X5122622Y-12592234D02*
X5103575Y-12620805D01*
X5103575Y-12620805D02*
X5084527Y-12639853D01*
X5084527Y-12639853D02*
X5065480Y-12649377D01*
X5351194Y-12592234D02*
X5313099Y-12592234D01*
X5313099Y-12592234D02*
X5294051Y-12601758D01*
X5294051Y-12601758D02*
X5284527Y-12611281D01*
X5284527Y-12611281D02*
X5265480Y-12639853D01*
X5265480Y-12639853D02*
X5255956Y-12677948D01*
X5255956Y-12677948D02*
X5255956Y-12754138D01*
X5255956Y-12754138D02*
X5265480Y-12773186D01*
X5265480Y-12773186D02*
X5275003Y-12782710D01*
X5275003Y-12782710D02*
X5294051Y-12792234D01*
X5294051Y-12792234D02*
X5332146Y-12792234D01*
X5332146Y-12792234D02*
X5351194Y-12782710D01*
X5351194Y-12782710D02*
X5360718Y-12773186D01*
X5360718Y-12773186D02*
X5370241Y-12754138D01*
X5370241Y-12754138D02*
X5370241Y-12706519D01*
X5370241Y-12706519D02*
X5360718Y-12687472D01*
X5360718Y-12687472D02*
X5351194Y-12677948D01*
X5351194Y-12677948D02*
X5332146Y-12668424D01*
X5332146Y-12668424D02*
X5294051Y-12668424D01*
X5294051Y-12668424D02*
X5275003Y-12677948D01*
X5275003Y-12677948D02*
X5265480Y-12687472D01*
X5265480Y-12687472D02*
X5255956Y-12706519D01*
X5484527Y-12677948D02*
X5465480Y-12668424D01*
X5465480Y-12668424D02*
X5455956Y-12658900D01*
X5455956Y-12658900D02*
X5446432Y-12639853D01*
X5446432Y-12639853D02*
X5446432Y-12630329D01*
X5446432Y-12630329D02*
X5455956Y-12611281D01*
X5455956Y-12611281D02*
X5465480Y-12601758D01*
X5465480Y-12601758D02*
X5484527Y-12592234D01*
X5484527Y-12592234D02*
X5522622Y-12592234D01*
X5522622Y-12592234D02*
X5541670Y-12601758D01*
X5541670Y-12601758D02*
X5551194Y-12611281D01*
X5551194Y-12611281D02*
X5560718Y-12630329D01*
X5560718Y-12630329D02*
X5560718Y-12639853D01*
X5560718Y-12639853D02*
X5551194Y-12658900D01*
X5551194Y-12658900D02*
X5541670Y-12668424D01*
X5541670Y-12668424D02*
X5522622Y-12677948D01*
X5522622Y-12677948D02*
X5484527Y-12677948D01*
X5484527Y-12677948D02*
X5465480Y-12687472D01*
X5465480Y-12687472D02*
X5455956Y-12696996D01*
X5455956Y-12696996D02*
X5446432Y-12716043D01*
X5446432Y-12716043D02*
X5446432Y-12754138D01*
X5446432Y-12754138D02*
X5455956Y-12773186D01*
X5455956Y-12773186D02*
X5465480Y-12782710D01*
X5465480Y-12782710D02*
X5484527Y-12792234D01*
X5484527Y-12792234D02*
X5522622Y-12792234D01*
X5522622Y-12792234D02*
X5541670Y-12782710D01*
X5541670Y-12782710D02*
X5551194Y-12773186D01*
X5551194Y-12773186D02*
X5560718Y-12754138D01*
X5560718Y-12754138D02*
X5560718Y-12716043D01*
X5560718Y-12716043D02*
X5551194Y-12696996D01*
X5551194Y-12696996D02*
X5541670Y-12687472D01*
X5541670Y-12687472D02*
X5522622Y-12677948D01*
X5798813Y-12792234D02*
X5798813Y-12592234D01*
X5884527Y-12792234D02*
X5884527Y-12687472D01*
X5884527Y-12687472D02*
X5875003Y-12668424D01*
X5875003Y-12668424D02*
X5855956Y-12658900D01*
X5855956Y-12658900D02*
X5827384Y-12658900D01*
X5827384Y-12658900D02*
X5808337Y-12668424D01*
X5808337Y-12668424D02*
X5798813Y-12677948D01*
X6008337Y-12792234D02*
X5989289Y-12782710D01*
X5989289Y-12782710D02*
X5979765Y-12773186D01*
X5979765Y-12773186D02*
X5970241Y-12754138D01*
X5970241Y-12754138D02*
X5970241Y-12696996D01*
X5970241Y-12696996D02*
X5979765Y-12677948D01*
X5979765Y-12677948D02*
X5989289Y-12668424D01*
X5989289Y-12668424D02*
X6008337Y-12658900D01*
X6008337Y-12658900D02*
X6036908Y-12658900D01*
X6036908Y-12658900D02*
X6055956Y-12668424D01*
X6055956Y-12668424D02*
X6065480Y-12677948D01*
X6065480Y-12677948D02*
X6075003Y-12696996D01*
X6075003Y-12696996D02*
X6075003Y-12754138D01*
X6075003Y-12754138D02*
X6065480Y-12773186D01*
X6065480Y-12773186D02*
X6055956Y-12782710D01*
X6055956Y-12782710D02*
X6036908Y-12792234D01*
X6036908Y-12792234D02*
X6008337Y-12792234D01*
X6189289Y-12792234D02*
X6170241Y-12782710D01*
X6170241Y-12782710D02*
X6160718Y-12763662D01*
X6160718Y-12763662D02*
X6160718Y-12592234D01*
X6341670Y-12782710D02*
X6322622Y-12792234D01*
X6322622Y-12792234D02*
X6284527Y-12792234D01*
X6284527Y-12792234D02*
X6265480Y-12782710D01*
X6265480Y-12782710D02*
X6255956Y-12763662D01*
X6255956Y-12763662D02*
X6255956Y-12687472D01*
X6255956Y-12687472D02*
X6265480Y-12668424D01*
X6265480Y-12668424D02*
X6284527Y-12658900D01*
X6284527Y-12658900D02*
X6322622Y-12658900D01*
X6322622Y-12658900D02*
X6341670Y-12668424D01*
X6341670Y-12668424D02*
X6351194Y-12687472D01*
X6351194Y-12687472D02*
X6351194Y-12706519D01*
X6351194Y-12706519D02*
X6255956Y-12725567D01*
X6427384Y-12782710D02*
X6446432Y-12792234D01*
X6446432Y-12792234D02*
X6484527Y-12792234D01*
X6484527Y-12792234D02*
X6503575Y-12782710D01*
X6503575Y-12782710D02*
X6513099Y-12763662D01*
X6513099Y-12763662D02*
X6513099Y-12754138D01*
X6513099Y-12754138D02*
X6503575Y-12735091D01*
X6503575Y-12735091D02*
X6484527Y-12725567D01*
X6484527Y-12725567D02*
X6455956Y-12725567D01*
X6455956Y-12725567D02*
X6436908Y-12716043D01*
X6436908Y-12716043D02*
X6427384Y-12696996D01*
X6427384Y-12696996D02*
X6427384Y-12687472D01*
X6427384Y-12687472D02*
X6436908Y-12668424D01*
X6436908Y-12668424D02*
X6455956Y-12658900D01*
X6455956Y-12658900D02*
X6484527Y-12658900D01*
X6484527Y-12658900D02*
X6503575Y-12668424D01*
X6579765Y-12868424D02*
X6589289Y-12858900D01*
X6589289Y-12858900D02*
X6608337Y-12830329D01*
X6608337Y-12830329D02*
X6617861Y-12811281D01*
X6617861Y-12811281D02*
X6627384Y-12782710D01*
X6627384Y-12782710D02*
X6636908Y-12735091D01*
X6636908Y-12735091D02*
X6636908Y-12696996D01*
X6636908Y-12696996D02*
X6627384Y-12649377D01*
X6627384Y-12649377D02*
X6617861Y-12620805D01*
X6617861Y-12620805D02*
X6608337Y-12601758D01*
X6608337Y-12601758D02*
X6589289Y-12573186D01*
X6589289Y-12573186D02*
X6579765Y-12563662D01*
X6941670Y-12868424D02*
X6932146Y-12858900D01*
X6932146Y-12858900D02*
X6913099Y-12830329D01*
X6913099Y-12830329D02*
X6903575Y-12811281D01*
X6903575Y-12811281D02*
X6894051Y-12782710D01*
X6894051Y-12782710D02*
X6884527Y-12735091D01*
X6884527Y-12735091D02*
X6884527Y-12696996D01*
X6884527Y-12696996D02*
X6894051Y-12649377D01*
X6894051Y-12649377D02*
X6903575Y-12620805D01*
X6903575Y-12620805D02*
X6913099Y-12601758D01*
X6913099Y-12601758D02*
X6932146Y-12573186D01*
X6932146Y-12573186D02*
X6941670Y-12563662D01*
X7017861Y-12658900D02*
X7017861Y-12792234D01*
X7017861Y-12677948D02*
X7027384Y-12668424D01*
X7027384Y-12668424D02*
X7046432Y-12658900D01*
X7046432Y-12658900D02*
X7075003Y-12658900D01*
X7075003Y-12658900D02*
X7094051Y-12668424D01*
X7094051Y-12668424D02*
X7103575Y-12687472D01*
X7103575Y-12687472D02*
X7103575Y-12792234D01*
X7227384Y-12792234D02*
X7208337Y-12782710D01*
X7208337Y-12782710D02*
X7198813Y-12773186D01*
X7198813Y-12773186D02*
X7189289Y-12754138D01*
X7189289Y-12754138D02*
X7189289Y-12696996D01*
X7189289Y-12696996D02*
X7198813Y-12677948D01*
X7198813Y-12677948D02*
X7208337Y-12668424D01*
X7208337Y-12668424D02*
X7227384Y-12658900D01*
X7227384Y-12658900D02*
X7255956Y-12658900D01*
X7255956Y-12658900D02*
X7275003Y-12668424D01*
X7275003Y-12668424D02*
X7284527Y-12677948D01*
X7284527Y-12677948D02*
X7294051Y-12696996D01*
X7294051Y-12696996D02*
X7294051Y-12754138D01*
X7294051Y-12754138D02*
X7284527Y-12773186D01*
X7284527Y-12773186D02*
X7275003Y-12782710D01*
X7275003Y-12782710D02*
X7255956Y-12792234D01*
X7255956Y-12792234D02*
X7227384Y-12792234D01*
X7351194Y-12658900D02*
X7427384Y-12658900D01*
X7379765Y-12592234D02*
X7379765Y-12763662D01*
X7379765Y-12763662D02*
X7389289Y-12782710D01*
X7389289Y-12782710D02*
X7408337Y-12792234D01*
X7408337Y-12792234D02*
X7427384Y-12792234D01*
X7646432Y-12658900D02*
X7646432Y-12858900D01*
X7646432Y-12668424D02*
X7665480Y-12658900D01*
X7665480Y-12658900D02*
X7703575Y-12658900D01*
X7703575Y-12658900D02*
X7722623Y-12668424D01*
X7722623Y-12668424D02*
X7732146Y-12677948D01*
X7732146Y-12677948D02*
X7741670Y-12696996D01*
X7741670Y-12696996D02*
X7741670Y-12754138D01*
X7741670Y-12754138D02*
X7732146Y-12773186D01*
X7732146Y-12773186D02*
X7722623Y-12782710D01*
X7722623Y-12782710D02*
X7703575Y-12792234D01*
X7703575Y-12792234D02*
X7665480Y-12792234D01*
X7665480Y-12792234D02*
X7646432Y-12782710D01*
X7855956Y-12792234D02*
X7836908Y-12782710D01*
X7836908Y-12782710D02*
X7827384Y-12763662D01*
X7827384Y-12763662D02*
X7827384Y-12592234D01*
X8017861Y-12792234D02*
X8017861Y-12687472D01*
X8017861Y-12687472D02*
X8008337Y-12668424D01*
X8008337Y-12668424D02*
X7989289Y-12658900D01*
X7989289Y-12658900D02*
X7951194Y-12658900D01*
X7951194Y-12658900D02*
X7932146Y-12668424D01*
X8017861Y-12782710D02*
X7998813Y-12792234D01*
X7998813Y-12792234D02*
X7951194Y-12792234D01*
X7951194Y-12792234D02*
X7932146Y-12782710D01*
X7932146Y-12782710D02*
X7922623Y-12763662D01*
X7922623Y-12763662D02*
X7922623Y-12744615D01*
X7922623Y-12744615D02*
X7932146Y-12725567D01*
X7932146Y-12725567D02*
X7951194Y-12716043D01*
X7951194Y-12716043D02*
X7998813Y-12716043D01*
X7998813Y-12716043D02*
X8017861Y-12706519D01*
X8084527Y-12658900D02*
X8160718Y-12658900D01*
X8113099Y-12592234D02*
X8113099Y-12763662D01*
X8113099Y-12763662D02*
X8122623Y-12782710D01*
X8122623Y-12782710D02*
X8141670Y-12792234D01*
X8141670Y-12792234D02*
X8160718Y-12792234D01*
X8303575Y-12782710D02*
X8284527Y-12792234D01*
X8284527Y-12792234D02*
X8246432Y-12792234D01*
X8246432Y-12792234D02*
X8227384Y-12782710D01*
X8227384Y-12782710D02*
X8217861Y-12763662D01*
X8217861Y-12763662D02*
X8217861Y-12687472D01*
X8217861Y-12687472D02*
X8227384Y-12668424D01*
X8227384Y-12668424D02*
X8246432Y-12658900D01*
X8246432Y-12658900D02*
X8284527Y-12658900D01*
X8284527Y-12658900D02*
X8303575Y-12668424D01*
X8303575Y-12668424D02*
X8313099Y-12687472D01*
X8313099Y-12687472D02*
X8313099Y-12706519D01*
X8313099Y-12706519D02*
X8217861Y-12725567D01*
X8484527Y-12792234D02*
X8484527Y-12592234D01*
X8484527Y-12782710D02*
X8465480Y-12792234D01*
X8465480Y-12792234D02*
X8427385Y-12792234D01*
X8427385Y-12792234D02*
X8408337Y-12782710D01*
X8408337Y-12782710D02*
X8398813Y-12773186D01*
X8398813Y-12773186D02*
X8389289Y-12754138D01*
X8389289Y-12754138D02*
X8389289Y-12696996D01*
X8389289Y-12696996D02*
X8398813Y-12677948D01*
X8398813Y-12677948D02*
X8408337Y-12668424D01*
X8408337Y-12668424D02*
X8427385Y-12658900D01*
X8427385Y-12658900D02*
X8465480Y-12658900D01*
X8465480Y-12658900D02*
X8484527Y-12668424D01*
X8560718Y-12868424D02*
X8570242Y-12858900D01*
X8570242Y-12858900D02*
X8589289Y-12830329D01*
X8589289Y-12830329D02*
X8598813Y-12811281D01*
X8598813Y-12811281D02*
X8608337Y-12782710D01*
X8608337Y-12782710D02*
X8617861Y-12735091D01*
X8617861Y-12735091D02*
X8617861Y-12696996D01*
X8617861Y-12696996D02*
X8608337Y-12649377D01*
X8608337Y-12649377D02*
X8598813Y-12620805D01*
X8598813Y-12620805D02*
X8589289Y-12601758D01*
X8589289Y-12601758D02*
X8570242Y-12573186D01*
X8570242Y-12573186D02*
X8560718Y-12563662D01*
X1223750Y-12920750D02*
X1423750Y-13120750D01*
X1423750Y-12920750D02*
X1223750Y-13120750D01*
X1423750Y-13020750D02*
G75*
G02*
X1223750Y-13020750I-100000J0D01*
G01*
X1223750Y-13020750D02*
G75*
G02*
X1423750Y-13020750I100000J0D01*
G01*
X1779765Y-12912234D02*
X1684527Y-12912234D01*
X1684527Y-12912234D02*
X1675003Y-13007472D01*
X1675003Y-13007472D02*
X1684527Y-12997948D01*
X1684527Y-12997948D02*
X1703574Y-12988424D01*
X1703574Y-12988424D02*
X1751193Y-12988424D01*
X1751193Y-12988424D02*
X1770241Y-12997948D01*
X1770241Y-12997948D02*
X1779765Y-13007472D01*
X1779765Y-13007472D02*
X1789289Y-13026519D01*
X1789289Y-13026519D02*
X1789289Y-13074138D01*
X1789289Y-13074138D02*
X1779765Y-13093186D01*
X1779765Y-13093186D02*
X1770241Y-13102710D01*
X1770241Y-13102710D02*
X1751193Y-13112234D01*
X1751193Y-13112234D02*
X1703574Y-13112234D01*
X1703574Y-13112234D02*
X1684527Y-13102710D01*
X1684527Y-13102710D02*
X1675003Y-13093186D01*
X1875003Y-13093186D02*
X1884527Y-13102710D01*
X1884527Y-13102710D02*
X1875003Y-13112234D01*
X1875003Y-13112234D02*
X1865479Y-13102710D01*
X1865479Y-13102710D02*
X1875003Y-13093186D01*
X1875003Y-13093186D02*
X1875003Y-13112234D01*
X2008336Y-12912234D02*
X2027384Y-12912234D01*
X2027384Y-12912234D02*
X2046432Y-12921758D01*
X2046432Y-12921758D02*
X2055955Y-12931281D01*
X2055955Y-12931281D02*
X2065479Y-12950329D01*
X2065479Y-12950329D02*
X2075003Y-12988424D01*
X2075003Y-12988424D02*
X2075003Y-13036043D01*
X2075003Y-13036043D02*
X2065479Y-13074138D01*
X2065479Y-13074138D02*
X2055955Y-13093186D01*
X2055955Y-13093186D02*
X2046432Y-13102710D01*
X2046432Y-13102710D02*
X2027384Y-13112234D01*
X2027384Y-13112234D02*
X2008336Y-13112234D01*
X2008336Y-13112234D02*
X1989289Y-13102710D01*
X1989289Y-13102710D02*
X1979765Y-13093186D01*
X1979765Y-13093186D02*
X1970241Y-13074138D01*
X1970241Y-13074138D02*
X1960717Y-13036043D01*
X1960717Y-13036043D02*
X1960717Y-12988424D01*
X1960717Y-12988424D02*
X1970241Y-12950329D01*
X1970241Y-12950329D02*
X1979765Y-12931281D01*
X1979765Y-12931281D02*
X1989289Y-12921758D01*
X1989289Y-12921758D02*
X2008336Y-12912234D01*
X2198813Y-12912234D02*
X2217860Y-12912234D01*
X2217860Y-12912234D02*
X2236908Y-12921758D01*
X2236908Y-12921758D02*
X2246432Y-12931281D01*
X2246432Y-12931281D02*
X2255955Y-12950329D01*
X2255955Y-12950329D02*
X2265479Y-12988424D01*
X2265479Y-12988424D02*
X2265479Y-13036043D01*
X2265479Y-13036043D02*
X2255955Y-13074138D01*
X2255955Y-13074138D02*
X2246432Y-13093186D01*
X2246432Y-13093186D02*
X2236908Y-13102710D01*
X2236908Y-13102710D02*
X2217860Y-13112234D01*
X2217860Y-13112234D02*
X2198813Y-13112234D01*
X2198813Y-13112234D02*
X2179765Y-13102710D01*
X2179765Y-13102710D02*
X2170241Y-13093186D01*
X2170241Y-13093186D02*
X2160717Y-13074138D01*
X2160717Y-13074138D02*
X2151194Y-13036043D01*
X2151194Y-13036043D02*
X2151194Y-12988424D01*
X2151194Y-12988424D02*
X2160717Y-12950329D01*
X2160717Y-12950329D02*
X2170241Y-12931281D01*
X2170241Y-12931281D02*
X2179765Y-12921758D01*
X2179765Y-12921758D02*
X2198813Y-12912234D01*
X2389289Y-12912234D02*
X2408336Y-12912234D01*
X2408336Y-12912234D02*
X2427384Y-12921758D01*
X2427384Y-12921758D02*
X2436908Y-12931281D01*
X2436908Y-12931281D02*
X2446432Y-12950329D01*
X2446432Y-12950329D02*
X2455955Y-12988424D01*
X2455955Y-12988424D02*
X2455955Y-13036043D01*
X2455955Y-13036043D02*
X2446432Y-13074138D01*
X2446432Y-13074138D02*
X2436908Y-13093186D01*
X2436908Y-13093186D02*
X2427384Y-13102710D01*
X2427384Y-13102710D02*
X2408336Y-13112234D01*
X2408336Y-13112234D02*
X2389289Y-13112234D01*
X2389289Y-13112234D02*
X2370241Y-13102710D01*
X2370241Y-13102710D02*
X2360717Y-13093186D01*
X2360717Y-13093186D02*
X2351194Y-13074138D01*
X2351194Y-13074138D02*
X2341670Y-13036043D01*
X2341670Y-13036043D02*
X2341670Y-12988424D01*
X2341670Y-12988424D02*
X2351194Y-12950329D01*
X2351194Y-12950329D02*
X2360717Y-12931281D01*
X2360717Y-12931281D02*
X2370241Y-12921758D01*
X2370241Y-12921758D02*
X2389289Y-12912234D01*
X2541670Y-13112234D02*
X2541670Y-12978900D01*
X2541670Y-12997948D02*
X2551194Y-12988424D01*
X2551194Y-12988424D02*
X2570241Y-12978900D01*
X2570241Y-12978900D02*
X2598813Y-12978900D01*
X2598813Y-12978900D02*
X2617860Y-12988424D01*
X2617860Y-12988424D02*
X2627384Y-13007472D01*
X2627384Y-13007472D02*
X2627384Y-13112234D01*
X2627384Y-13007472D02*
X2636908Y-12988424D01*
X2636908Y-12988424D02*
X2655955Y-12978900D01*
X2655955Y-12978900D02*
X2684527Y-12978900D01*
X2684527Y-12978900D02*
X2703575Y-12988424D01*
X2703575Y-12988424D02*
X2713098Y-13007472D01*
X2713098Y-13007472D02*
X2713098Y-13112234D01*
X2808336Y-13112234D02*
X2808336Y-12978900D01*
X2808336Y-12997948D02*
X2817860Y-12988424D01*
X2817860Y-12988424D02*
X2836908Y-12978900D01*
X2836908Y-12978900D02*
X2865479Y-12978900D01*
X2865479Y-12978900D02*
X2884527Y-12988424D01*
X2884527Y-12988424D02*
X2894051Y-13007472D01*
X2894051Y-13007472D02*
X2894051Y-13112234D01*
X2894051Y-13007472D02*
X2903574Y-12988424D01*
X2903574Y-12988424D02*
X2922622Y-12978900D01*
X2922622Y-12978900D02*
X2951193Y-12978900D01*
X2951193Y-12978900D02*
X2970241Y-12988424D01*
X2970241Y-12988424D02*
X2979765Y-13007472D01*
X2979765Y-13007472D02*
X2979765Y-13112234D01*
X3370241Y-12902710D02*
X3198813Y-13159853D01*
X3627384Y-12912234D02*
X3646432Y-12912234D01*
X3646432Y-12912234D02*
X3665479Y-12921758D01*
X3665479Y-12921758D02*
X3675003Y-12931281D01*
X3675003Y-12931281D02*
X3684527Y-12950329D01*
X3684527Y-12950329D02*
X3694051Y-12988424D01*
X3694051Y-12988424D02*
X3694051Y-13036043D01*
X3694051Y-13036043D02*
X3684527Y-13074138D01*
X3684527Y-13074138D02*
X3675003Y-13093186D01*
X3675003Y-13093186D02*
X3665479Y-13102710D01*
X3665479Y-13102710D02*
X3646432Y-13112234D01*
X3646432Y-13112234D02*
X3627384Y-13112234D01*
X3627384Y-13112234D02*
X3608336Y-13102710D01*
X3608336Y-13102710D02*
X3598813Y-13093186D01*
X3598813Y-13093186D02*
X3589289Y-13074138D01*
X3589289Y-13074138D02*
X3579765Y-13036043D01*
X3579765Y-13036043D02*
X3579765Y-12988424D01*
X3579765Y-12988424D02*
X3589289Y-12950329D01*
X3589289Y-12950329D02*
X3598813Y-12931281D01*
X3598813Y-12931281D02*
X3608336Y-12921758D01*
X3608336Y-12921758D02*
X3627384Y-12912234D01*
X3779765Y-13093186D02*
X3789289Y-13102710D01*
X3789289Y-13102710D02*
X3779765Y-13112234D01*
X3779765Y-13112234D02*
X3770241Y-13102710D01*
X3770241Y-13102710D02*
X3779765Y-13093186D01*
X3779765Y-13093186D02*
X3779765Y-13112234D01*
X3979765Y-13112234D02*
X3865479Y-13112234D01*
X3922622Y-13112234D02*
X3922622Y-12912234D01*
X3922622Y-12912234D02*
X3903575Y-12940805D01*
X3903575Y-12940805D02*
X3884527Y-12959853D01*
X3884527Y-12959853D02*
X3865479Y-12969377D01*
X4075003Y-13112234D02*
X4113098Y-13112234D01*
X4113098Y-13112234D02*
X4132146Y-13102710D01*
X4132146Y-13102710D02*
X4141670Y-13093186D01*
X4141670Y-13093186D02*
X4160717Y-13064615D01*
X4160717Y-13064615D02*
X4170241Y-13026519D01*
X4170241Y-13026519D02*
X4170241Y-12950329D01*
X4170241Y-12950329D02*
X4160717Y-12931281D01*
X4160717Y-12931281D02*
X4151194Y-12921758D01*
X4151194Y-12921758D02*
X4132146Y-12912234D01*
X4132146Y-12912234D02*
X4094051Y-12912234D01*
X4094051Y-12912234D02*
X4075003Y-12921758D01*
X4075003Y-12921758D02*
X4065479Y-12931281D01*
X4065479Y-12931281D02*
X4055956Y-12950329D01*
X4055956Y-12950329D02*
X4055956Y-12997948D01*
X4055956Y-12997948D02*
X4065479Y-13016996D01*
X4065479Y-13016996D02*
X4075003Y-13026519D01*
X4075003Y-13026519D02*
X4094051Y-13036043D01*
X4094051Y-13036043D02*
X4132146Y-13036043D01*
X4132146Y-13036043D02*
X4151194Y-13026519D01*
X4151194Y-13026519D02*
X4160717Y-13016996D01*
X4160717Y-13016996D02*
X4170241Y-12997948D01*
X4341670Y-12912234D02*
X4303575Y-12912234D01*
X4303575Y-12912234D02*
X4284527Y-12921758D01*
X4284527Y-12921758D02*
X4275003Y-12931281D01*
X4275003Y-12931281D02*
X4255956Y-12959853D01*
X4255956Y-12959853D02*
X4246432Y-12997948D01*
X4246432Y-12997948D02*
X4246432Y-13074138D01*
X4246432Y-13074138D02*
X4255956Y-13093186D01*
X4255956Y-13093186D02*
X4265479Y-13102710D01*
X4265479Y-13102710D02*
X4284527Y-13112234D01*
X4284527Y-13112234D02*
X4322622Y-13112234D01*
X4322622Y-13112234D02*
X4341670Y-13102710D01*
X4341670Y-13102710D02*
X4351194Y-13093186D01*
X4351194Y-13093186D02*
X4360718Y-13074138D01*
X4360718Y-13074138D02*
X4360718Y-13026519D01*
X4360718Y-13026519D02*
X4351194Y-13007472D01*
X4351194Y-13007472D02*
X4341670Y-12997948D01*
X4341670Y-12997948D02*
X4322622Y-12988424D01*
X4322622Y-12988424D02*
X4284527Y-12988424D01*
X4284527Y-12988424D02*
X4265479Y-12997948D01*
X4265479Y-12997948D02*
X4255956Y-13007472D01*
X4255956Y-13007472D02*
X4246432Y-13026519D01*
X4455956Y-13112234D02*
X4494051Y-13112234D01*
X4494051Y-13112234D02*
X4513099Y-13102710D01*
X4513099Y-13102710D02*
X4522622Y-13093186D01*
X4522622Y-13093186D02*
X4541670Y-13064615D01*
X4541670Y-13064615D02*
X4551194Y-13026519D01*
X4551194Y-13026519D02*
X4551194Y-12950329D01*
X4551194Y-12950329D02*
X4541670Y-12931281D01*
X4541670Y-12931281D02*
X4532146Y-12921758D01*
X4532146Y-12921758D02*
X4513099Y-12912234D01*
X4513099Y-12912234D02*
X4475003Y-12912234D01*
X4475003Y-12912234D02*
X4455956Y-12921758D01*
X4455956Y-12921758D02*
X4446432Y-12931281D01*
X4446432Y-12931281D02*
X4436908Y-12950329D01*
X4436908Y-12950329D02*
X4436908Y-12997948D01*
X4436908Y-12997948D02*
X4446432Y-13016996D01*
X4446432Y-13016996D02*
X4455956Y-13026519D01*
X4455956Y-13026519D02*
X4475003Y-13036043D01*
X4475003Y-13036043D02*
X4513099Y-13036043D01*
X4513099Y-13036043D02*
X4532146Y-13026519D01*
X4532146Y-13026519D02*
X4541670Y-13016996D01*
X4541670Y-13016996D02*
X4551194Y-12997948D01*
X4627384Y-12912234D02*
X4627384Y-12950329D01*
X4703575Y-12912234D02*
X4703575Y-12950329D01*
X4998813Y-13188424D02*
X4989289Y-13178900D01*
X4989289Y-13178900D02*
X4970241Y-13150329D01*
X4970241Y-13150329D02*
X4960718Y-13131281D01*
X4960718Y-13131281D02*
X4951194Y-13102710D01*
X4951194Y-13102710D02*
X4941670Y-13055091D01*
X4941670Y-13055091D02*
X4941670Y-13016996D01*
X4941670Y-13016996D02*
X4951194Y-12969377D01*
X4951194Y-12969377D02*
X4960718Y-12940805D01*
X4960718Y-12940805D02*
X4970241Y-12921758D01*
X4970241Y-12921758D02*
X4989289Y-12893186D01*
X4989289Y-12893186D02*
X4998813Y-12883662D01*
X5160718Y-12978900D02*
X5160718Y-13112234D01*
X5113099Y-12902710D02*
X5065480Y-13045567D01*
X5065480Y-13045567D02*
X5189289Y-13045567D01*
X5255956Y-12931281D02*
X5265480Y-12921758D01*
X5265480Y-12921758D02*
X5284527Y-12912234D01*
X5284527Y-12912234D02*
X5332146Y-12912234D01*
X5332146Y-12912234D02*
X5351194Y-12921758D01*
X5351194Y-12921758D02*
X5360718Y-12931281D01*
X5360718Y-12931281D02*
X5370241Y-12950329D01*
X5370241Y-12950329D02*
X5370241Y-12969377D01*
X5370241Y-12969377D02*
X5360718Y-12997948D01*
X5360718Y-12997948D02*
X5246432Y-13112234D01*
X5246432Y-13112234D02*
X5370241Y-13112234D01*
X5608337Y-13112234D02*
X5608337Y-12912234D01*
X5694051Y-13112234D02*
X5694051Y-13007472D01*
X5694051Y-13007472D02*
X5684527Y-12988424D01*
X5684527Y-12988424D02*
X5665480Y-12978900D01*
X5665480Y-12978900D02*
X5636908Y-12978900D01*
X5636908Y-12978900D02*
X5617860Y-12988424D01*
X5617860Y-12988424D02*
X5608337Y-12997948D01*
X5817860Y-13112234D02*
X5798813Y-13102710D01*
X5798813Y-13102710D02*
X5789289Y-13093186D01*
X5789289Y-13093186D02*
X5779765Y-13074138D01*
X5779765Y-13074138D02*
X5779765Y-13016996D01*
X5779765Y-13016996D02*
X5789289Y-12997948D01*
X5789289Y-12997948D02*
X5798813Y-12988424D01*
X5798813Y-12988424D02*
X5817860Y-12978900D01*
X5817860Y-12978900D02*
X5846432Y-12978900D01*
X5846432Y-12978900D02*
X5865480Y-12988424D01*
X5865480Y-12988424D02*
X5875003Y-12997948D01*
X5875003Y-12997948D02*
X5884527Y-13016996D01*
X5884527Y-13016996D02*
X5884527Y-13074138D01*
X5884527Y-13074138D02*
X5875003Y-13093186D01*
X5875003Y-13093186D02*
X5865480Y-13102710D01*
X5865480Y-13102710D02*
X5846432Y-13112234D01*
X5846432Y-13112234D02*
X5817860Y-13112234D01*
X5998813Y-13112234D02*
X5979765Y-13102710D01*
X5979765Y-13102710D02*
X5970241Y-13083662D01*
X5970241Y-13083662D02*
X5970241Y-12912234D01*
X6151194Y-13102710D02*
X6132146Y-13112234D01*
X6132146Y-13112234D02*
X6094051Y-13112234D01*
X6094051Y-13112234D02*
X6075003Y-13102710D01*
X6075003Y-13102710D02*
X6065480Y-13083662D01*
X6065480Y-13083662D02*
X6065480Y-13007472D01*
X6065480Y-13007472D02*
X6075003Y-12988424D01*
X6075003Y-12988424D02*
X6094051Y-12978900D01*
X6094051Y-12978900D02*
X6132146Y-12978900D01*
X6132146Y-12978900D02*
X6151194Y-12988424D01*
X6151194Y-12988424D02*
X6160718Y-13007472D01*
X6160718Y-13007472D02*
X6160718Y-13026519D01*
X6160718Y-13026519D02*
X6065480Y-13045567D01*
X6236908Y-13102710D02*
X6255956Y-13112234D01*
X6255956Y-13112234D02*
X6294051Y-13112234D01*
X6294051Y-13112234D02*
X6313099Y-13102710D01*
X6313099Y-13102710D02*
X6322622Y-13083662D01*
X6322622Y-13083662D02*
X6322622Y-13074138D01*
X6322622Y-13074138D02*
X6313099Y-13055091D01*
X6313099Y-13055091D02*
X6294051Y-13045567D01*
X6294051Y-13045567D02*
X6265480Y-13045567D01*
X6265480Y-13045567D02*
X6246432Y-13036043D01*
X6246432Y-13036043D02*
X6236908Y-13016996D01*
X6236908Y-13016996D02*
X6236908Y-13007472D01*
X6236908Y-13007472D02*
X6246432Y-12988424D01*
X6246432Y-12988424D02*
X6265480Y-12978900D01*
X6265480Y-12978900D02*
X6294051Y-12978900D01*
X6294051Y-12978900D02*
X6313099Y-12988424D01*
X6389289Y-13188424D02*
X6398813Y-13178900D01*
X6398813Y-13178900D02*
X6417861Y-13150329D01*
X6417861Y-13150329D02*
X6427384Y-13131281D01*
X6427384Y-13131281D02*
X6436908Y-13102710D01*
X6436908Y-13102710D02*
X6446432Y-13055091D01*
X6446432Y-13055091D02*
X6446432Y-13016996D01*
X6446432Y-13016996D02*
X6436908Y-12969377D01*
X6436908Y-12969377D02*
X6427384Y-12940805D01*
X6427384Y-12940805D02*
X6417861Y-12921758D01*
X6417861Y-12921758D02*
X6398813Y-12893186D01*
X6398813Y-12893186D02*
X6389289Y-12883662D01*
X6751194Y-13188424D02*
X6741670Y-13178900D01*
X6741670Y-13178900D02*
X6722622Y-13150329D01*
X6722622Y-13150329D02*
X6713099Y-13131281D01*
X6713099Y-13131281D02*
X6703575Y-13102710D01*
X6703575Y-13102710D02*
X6694051Y-13055091D01*
X6694051Y-13055091D02*
X6694051Y-13016996D01*
X6694051Y-13016996D02*
X6703575Y-12969377D01*
X6703575Y-12969377D02*
X6713099Y-12940805D01*
X6713099Y-12940805D02*
X6722622Y-12921758D01*
X6722622Y-12921758D02*
X6741670Y-12893186D01*
X6741670Y-12893186D02*
X6751194Y-12883662D01*
X6827384Y-12978900D02*
X6827384Y-13112234D01*
X6827384Y-12997948D02*
X6836908Y-12988424D01*
X6836908Y-12988424D02*
X6855956Y-12978900D01*
X6855956Y-12978900D02*
X6884527Y-12978900D01*
X6884527Y-12978900D02*
X6903575Y-12988424D01*
X6903575Y-12988424D02*
X6913099Y-13007472D01*
X6913099Y-13007472D02*
X6913099Y-13112234D01*
X7036908Y-13112234D02*
X7017861Y-13102710D01*
X7017861Y-13102710D02*
X7008337Y-13093186D01*
X7008337Y-13093186D02*
X6998813Y-13074138D01*
X6998813Y-13074138D02*
X6998813Y-13016996D01*
X6998813Y-13016996D02*
X7008337Y-12997948D01*
X7008337Y-12997948D02*
X7017861Y-12988424D01*
X7017861Y-12988424D02*
X7036908Y-12978900D01*
X7036908Y-12978900D02*
X7065480Y-12978900D01*
X7065480Y-12978900D02*
X7084527Y-12988424D01*
X7084527Y-12988424D02*
X7094051Y-12997948D01*
X7094051Y-12997948D02*
X7103575Y-13016996D01*
X7103575Y-13016996D02*
X7103575Y-13074138D01*
X7103575Y-13074138D02*
X7094051Y-13093186D01*
X7094051Y-13093186D02*
X7084527Y-13102710D01*
X7084527Y-13102710D02*
X7065480Y-13112234D01*
X7065480Y-13112234D02*
X7036908Y-13112234D01*
X7160718Y-12978900D02*
X7236908Y-12978900D01*
X7189289Y-12912234D02*
X7189289Y-13083662D01*
X7189289Y-13083662D02*
X7198813Y-13102710D01*
X7198813Y-13102710D02*
X7217861Y-13112234D01*
X7217861Y-13112234D02*
X7236908Y-13112234D01*
X7455956Y-12978900D02*
X7455956Y-13178900D01*
X7455956Y-12988424D02*
X7475003Y-12978900D01*
X7475003Y-12978900D02*
X7513099Y-12978900D01*
X7513099Y-12978900D02*
X7532146Y-12988424D01*
X7532146Y-12988424D02*
X7541670Y-12997948D01*
X7541670Y-12997948D02*
X7551194Y-13016996D01*
X7551194Y-13016996D02*
X7551194Y-13074138D01*
X7551194Y-13074138D02*
X7541670Y-13093186D01*
X7541670Y-13093186D02*
X7532146Y-13102710D01*
X7532146Y-13102710D02*
X7513099Y-13112234D01*
X7513099Y-13112234D02*
X7475003Y-13112234D01*
X7475003Y-13112234D02*
X7455956Y-13102710D01*
X7665480Y-13112234D02*
X7646432Y-13102710D01*
X7646432Y-13102710D02*
X7636908Y-13083662D01*
X7636908Y-13083662D02*
X7636908Y-12912234D01*
X7827384Y-13112234D02*
X7827384Y-13007472D01*
X7827384Y-13007472D02*
X7817861Y-12988424D01*
X7817861Y-12988424D02*
X7798813Y-12978900D01*
X7798813Y-12978900D02*
X7760718Y-12978900D01*
X7760718Y-12978900D02*
X7741670Y-12988424D01*
X7827384Y-13102710D02*
X7808337Y-13112234D01*
X7808337Y-13112234D02*
X7760718Y-13112234D01*
X7760718Y-13112234D02*
X7741670Y-13102710D01*
X7741670Y-13102710D02*
X7732146Y-13083662D01*
X7732146Y-13083662D02*
X7732146Y-13064615D01*
X7732146Y-13064615D02*
X7741670Y-13045567D01*
X7741670Y-13045567D02*
X7760718Y-13036043D01*
X7760718Y-13036043D02*
X7808337Y-13036043D01*
X7808337Y-13036043D02*
X7827384Y-13026519D01*
X7894051Y-12978900D02*
X7970242Y-12978900D01*
X7922623Y-12912234D02*
X7922623Y-13083662D01*
X7922623Y-13083662D02*
X7932146Y-13102710D01*
X7932146Y-13102710D02*
X7951194Y-13112234D01*
X7951194Y-13112234D02*
X7970242Y-13112234D01*
X8113099Y-13102710D02*
X8094051Y-13112234D01*
X8094051Y-13112234D02*
X8055956Y-13112234D01*
X8055956Y-13112234D02*
X8036908Y-13102710D01*
X8036908Y-13102710D02*
X8027384Y-13083662D01*
X8027384Y-13083662D02*
X8027384Y-13007472D01*
X8027384Y-13007472D02*
X8036908Y-12988424D01*
X8036908Y-12988424D02*
X8055956Y-12978900D01*
X8055956Y-12978900D02*
X8094051Y-12978900D01*
X8094051Y-12978900D02*
X8113099Y-12988424D01*
X8113099Y-12988424D02*
X8122623Y-13007472D01*
X8122623Y-13007472D02*
X8122623Y-13026519D01*
X8122623Y-13026519D02*
X8027384Y-13045567D01*
X8294051Y-13112234D02*
X8294051Y-12912234D01*
X8294051Y-13102710D02*
X8275004Y-13112234D01*
X8275004Y-13112234D02*
X8236908Y-13112234D01*
X8236908Y-13112234D02*
X8217861Y-13102710D01*
X8217861Y-13102710D02*
X8208337Y-13093186D01*
X8208337Y-13093186D02*
X8198813Y-13074138D01*
X8198813Y-13074138D02*
X8198813Y-13016996D01*
X8198813Y-13016996D02*
X8208337Y-12997948D01*
X8208337Y-12997948D02*
X8217861Y-12988424D01*
X8217861Y-12988424D02*
X8236908Y-12978900D01*
X8236908Y-12978900D02*
X8275004Y-12978900D01*
X8275004Y-12978900D02*
X8294051Y-12988424D01*
X8370242Y-13188424D02*
X8379765Y-13178900D01*
X8379765Y-13178900D02*
X8398813Y-13150329D01*
X8398813Y-13150329D02*
X8408337Y-13131281D01*
X8408337Y-13131281D02*
X8417861Y-13102710D01*
X8417861Y-13102710D02*
X8427385Y-13055091D01*
X8427385Y-13055091D02*
X8427385Y-13016996D01*
X8427385Y-13016996D02*
X8417861Y-12969377D01*
X8417861Y-12969377D02*
X8408337Y-12940805D01*
X8408337Y-12940805D02*
X8398813Y-12921758D01*
X8398813Y-12921758D02*
X8379765Y-12893186D01*
X8379765Y-12893186D02*
X8370242Y-12883662D01*
M02*
