M48
; DRILL file {KiCad 8.0.8} date 2025-01-27T00:01:30+0900
; FORMAT={-:-/ absolute / metric / decimal}
; #@! TF.CreationDate,2025-01-27T00:01:30+09:00
; #@! TF.GenerationSoftware,Kicad,Pcbnew,8.0.8
; #@! TF.FileFunction,NonPlated,1,2,NPTH
FMAT,2
METRIC
; #@! TA.AperFunction,NonPlated,NPTH,ComponentDrill
T1C0.300
; #@! TA.AperFunction,NonPlated,NPTH,ComponentDrill
T2C0.650
; #@! TA.AperFunction,NonPlated,NPTH,ComponentDrill
T3C1.152
; #@! TA.AperFunction,NonPlated,NPTH,ComponentDrill
T4C1.900
; #@! TA.AperFunction,NonPlated,NPTH,ComponentDrill
T5C3.000
; #@! TA.AperFunction,NonPlated,NPTH,ComponentDrill
T6C5.000
%
G90
G05
T1
X119.1Y-25.625
X119.1Y-26.219
X119.1Y-26.812
X119.1Y-27.406
X119.1Y-28.0
X119.1Y-28.594
X119.1Y-29.188
X119.1Y-29.781
X119.1Y-30.375
X142.9Y-95.025
X142.9Y-95.619
X142.9Y-96.212
X142.9Y-96.806
X142.9Y-97.4
X142.9Y-97.994
X142.9Y-98.587
X142.9Y-99.181
X142.9Y-99.775
X153.6Y-95.025
X153.6Y-95.619
X153.6Y-96.212
X153.6Y-96.806
X153.6Y-97.4
X153.6Y-97.994
X153.6Y-98.587
X153.6Y-99.181
X153.6Y-99.775
X177.4Y-25.625
X177.4Y-26.219
X177.4Y-26.812
X177.4Y-27.406
X177.4Y-28.0
X177.4Y-28.594
X177.4Y-29.188
X177.4Y-29.781
X177.4Y-30.375
T2
X59.74Y-83.546
X59.74Y-89.326
X236.7Y-83.56
X236.7Y-89.34
T3
X15.478Y-15.478
X148.1Y-97.4
X149.3Y-26.3
X280.988Y-15.478
T4
X23.075Y-23.812
X23.495Y-23.812
X25.456Y-42.862
X25.456Y-61.912
X25.876Y-42.862
X25.876Y-61.912
X33.655Y-23.812
X34.075Y-23.812
X36.036Y-42.862
X36.036Y-61.912
X36.456Y-42.862
X36.456Y-61.912
X46.887Y-28.575
X46.887Y-47.625
X46.887Y-66.675
X47.307Y-28.575
X47.307Y-47.625
X47.307Y-66.675
X57.467Y-28.575
X57.467Y-47.625
X57.467Y-66.675
X57.887Y-28.575
X57.887Y-47.625
X57.887Y-66.675
X65.937Y-23.812
X65.937Y-42.862
X65.937Y-61.912
X66.357Y-23.812
X66.357Y-42.862
X66.357Y-61.912
X76.517Y-23.812
X76.517Y-42.862
X76.517Y-61.912
X76.937Y-23.812
X76.937Y-42.862
X76.937Y-61.912
X82.606Y-80.962
X83.026Y-80.962
X84.987Y-23.812
X84.987Y-42.862
X84.987Y-61.912
X85.407Y-23.812
X85.407Y-42.862
X85.407Y-61.912
X93.186Y-80.962
X93.606Y-80.962
X95.567Y-23.812
X95.567Y-42.862
X95.567Y-61.912
X95.987Y-23.812
X95.987Y-42.862
X95.987Y-61.912
X104.037Y-33.337
X104.037Y-52.387
X104.037Y-71.438
X104.037Y-90.487
X104.457Y-33.337
X104.457Y-52.387
X104.457Y-71.438
X104.457Y-90.487
X114.617Y-33.337
X114.617Y-52.387
X114.617Y-71.438
X114.617Y-90.487
X115.037Y-33.337
X115.037Y-52.387
X115.037Y-71.438
X115.037Y-90.487
X123.087Y-42.862
X123.087Y-61.912
X123.087Y-80.962
X123.507Y-42.862
X123.507Y-61.912
X123.507Y-80.962
X125.469Y-100.012
X125.889Y-100.012
X133.667Y-42.862
X133.667Y-61.912
X133.667Y-80.962
X134.087Y-42.862
X134.087Y-61.912
X134.087Y-80.962
X136.049Y-100.012
X136.469Y-100.012
X159.997Y-100.012
X160.417Y-100.012
X162.378Y-42.862
X162.378Y-61.912
X162.378Y-80.962
X162.798Y-42.862
X162.798Y-61.912
X162.798Y-80.962
X170.577Y-100.012
X170.997Y-100.012
X172.958Y-42.862
X172.958Y-61.912
X172.958Y-80.962
X173.378Y-42.862
X173.378Y-61.912
X173.378Y-80.962
X181.428Y-33.337
X181.428Y-52.387
X181.428Y-71.438
X181.428Y-90.487
X181.848Y-33.337
X181.848Y-52.387
X181.848Y-71.438
X181.848Y-90.487
X192.008Y-33.337
X192.008Y-52.387
X192.008Y-71.438
X192.008Y-90.487
X192.428Y-33.337
X192.428Y-52.387
X192.428Y-71.438
X192.428Y-90.487
X200.478Y-23.812
X200.478Y-42.862
X200.478Y-61.912
X200.898Y-23.812
X200.898Y-42.862
X200.898Y-61.912
X202.859Y-80.962
X203.279Y-80.962
X211.058Y-23.812
X211.058Y-42.862
X211.058Y-61.912
X211.478Y-23.812
X211.478Y-42.862
X211.478Y-61.912
X213.439Y-80.962
X213.859Y-80.962
X219.528Y-23.812
X219.528Y-42.862
X219.528Y-61.912
X219.948Y-23.812
X219.948Y-42.862
X219.948Y-61.912
X230.108Y-23.812
X230.108Y-42.862
X230.108Y-61.912
X230.528Y-23.812
X230.528Y-42.862
X230.528Y-61.912
X238.578Y-28.575
X238.578Y-47.625
X238.578Y-66.675
X238.998Y-28.575
X238.998Y-47.625
X238.998Y-66.675
X249.158Y-28.575
X249.158Y-47.625
X249.158Y-66.675
X249.578Y-28.575
X249.578Y-47.625
X249.578Y-66.675
X257.628Y-42.862
X258.048Y-42.862
X260.009Y-61.912
X260.429Y-61.912
X262.391Y-23.812
X262.811Y-23.812
X268.208Y-42.862
X268.628Y-42.862
X270.589Y-61.912
X271.009Y-61.912
X272.971Y-23.812
X273.391Y-23.812
T5
X23.575Y-27.512
X24.765Y-21.272
X25.956Y-46.562
X25.956Y-65.612
X27.146Y-40.322
X27.146Y-59.372
X28.575Y-29.712
X30.956Y-48.762
X30.956Y-67.812
X31.115Y-18.732
X33.496Y-37.782
X33.496Y-56.832
X47.387Y-32.275
X47.387Y-51.325
X47.387Y-70.375
X48.577Y-26.035
X48.577Y-45.085
X48.577Y-64.135
X52.387Y-34.475
X52.387Y-53.525
X52.387Y-72.575
X54.927Y-23.495
X54.927Y-42.545
X54.927Y-61.595
X66.437Y-27.512
X66.437Y-46.562
X66.437Y-65.612
X67.627Y-21.272
X67.627Y-40.322
X67.627Y-59.372
X71.437Y-29.712
X71.437Y-48.762
X71.437Y-67.812
X73.977Y-18.732
X73.977Y-37.782
X73.977Y-56.832
X83.106Y-84.662
X84.296Y-78.422
X85.487Y-27.512
X85.487Y-46.562
X85.487Y-65.612
X86.677Y-21.272
X86.677Y-40.322
X86.677Y-59.372
X88.106Y-86.862
X90.487Y-29.712
X90.487Y-48.762
X90.487Y-67.812
X90.646Y-75.882
X93.027Y-18.732
X93.027Y-37.782
X93.027Y-56.832
X104.537Y-37.038
X104.537Y-56.087
X104.537Y-75.138
X104.537Y-94.188
X105.727Y-30.797
X105.727Y-49.847
X105.727Y-68.897
X105.727Y-87.947
X109.537Y-39.237
X109.537Y-58.287
X109.537Y-77.337
X109.537Y-96.387
X112.077Y-28.258
X112.077Y-47.307
X112.077Y-66.358
X112.077Y-85.407
X123.587Y-46.562
X123.587Y-65.612
X123.587Y-84.662
X124.777Y-40.322
X124.777Y-59.372
X124.777Y-78.422
X125.969Y-103.712
X127.159Y-97.472
X128.587Y-48.762
X128.587Y-67.812
X128.587Y-86.862
X130.969Y-105.912
X131.127Y-37.782
X131.127Y-56.832
X131.127Y-75.882
X133.509Y-94.932
X160.497Y-103.712
X161.687Y-97.472
X162.878Y-46.562
X162.878Y-65.612
X162.878Y-84.662
X164.068Y-40.322
X164.068Y-59.372
X164.068Y-78.422
X165.497Y-105.912
X167.878Y-48.762
X167.878Y-67.812
X167.878Y-86.862
X168.037Y-94.932
X170.418Y-37.782
X170.418Y-56.832
X170.418Y-75.882
X181.928Y-37.038
X181.928Y-56.087
X181.928Y-75.138
X181.928Y-94.188
X183.118Y-30.797
X183.118Y-49.847
X183.118Y-68.897
X183.118Y-87.947
X186.928Y-39.237
X186.928Y-58.287
X186.928Y-77.337
X186.928Y-96.387
X189.468Y-28.258
X189.468Y-47.307
X189.468Y-66.358
X189.468Y-85.407
X200.978Y-27.512
X200.978Y-46.562
X200.978Y-65.612
X202.168Y-21.272
X202.168Y-40.322
X202.168Y-59.372
X203.359Y-84.662
X204.549Y-78.422
X205.978Y-29.712
X205.978Y-48.762
X205.978Y-67.812
X208.359Y-86.862
X208.518Y-18.732
X208.518Y-37.782
X208.518Y-56.832
X210.899Y-75.882
X220.028Y-27.512
X220.028Y-46.562
X220.028Y-65.612
X221.218Y-21.272
X221.218Y-40.322
X221.218Y-59.372
X225.028Y-29.712
X225.028Y-48.762
X225.028Y-67.812
X227.568Y-18.732
X227.568Y-37.782
X227.568Y-56.832
X239.078Y-32.275
X239.078Y-51.325
X239.078Y-70.375
X240.268Y-26.035
X240.268Y-45.085
X240.268Y-64.135
X244.078Y-34.475
X244.078Y-53.525
X244.078Y-72.575
X246.618Y-23.495
X246.618Y-42.545
X246.618Y-61.595
X258.128Y-46.562
X259.318Y-40.322
X260.509Y-65.612
X261.699Y-59.372
X262.891Y-27.512
X263.128Y-48.762
X264.081Y-21.272
X265.509Y-67.812
X265.668Y-37.782
X267.891Y-29.712
X268.049Y-56.832
X270.431Y-18.732
T6
X28.575Y-23.812
X30.956Y-42.862
X30.956Y-61.912
X52.387Y-28.575
X52.387Y-47.625
X52.387Y-66.675
X71.437Y-23.812
X71.437Y-42.862
X71.437Y-61.912
X88.106Y-80.962
X90.487Y-23.812
X90.487Y-42.862
X90.487Y-61.912
X109.537Y-33.337
X109.537Y-52.387
X109.537Y-71.438
X109.537Y-90.487
X128.587Y-42.862
X128.587Y-61.912
X128.587Y-80.962
X130.969Y-100.012
X165.497Y-100.012
X167.878Y-42.862
X167.878Y-61.912
X167.878Y-80.962
X186.928Y-33.337
X186.928Y-52.387
X186.928Y-71.438
X186.928Y-90.487
X205.978Y-23.812
X205.978Y-42.862
X205.978Y-61.912
X208.359Y-80.962
X225.028Y-23.812
X225.028Y-42.862
X225.028Y-61.912
X244.078Y-28.575
X244.078Y-47.625
X244.078Y-66.675
X263.128Y-42.862
X265.509Y-61.912
X267.891Y-23.812
M30
