G04 #@! TF.GenerationSoftware,KiCad,Pcbnew,8.0.8*
G04 #@! TF.CreationDate,2025-01-27T00:01:30+09:00*
G04 #@! TF.ProjectId,pcb,7063622e-6b69-4636-9164-5f7063625858,rev?*
G04 #@! TF.SameCoordinates,Original*
G04 #@! TF.FileFunction,Soldermask,Bot*
G04 #@! TF.FilePolarity,Negative*
%FSLAX46Y46*%
G04 Gerber Fmt 4.6, Leading zero omitted, Abs format (unit mm)*
G04 Created by KiCad (PCBNEW 8.0.8) date 2025-01-27 00:01:30*
%MOMM*%
%LPD*%
G01*
G04 APERTURE LIST*
G04 Aperture macros list*
%AMRoundRect*
0 Rectangle with rounded corners*
0 $1 Rounding radius*
0 $2 $3 $4 $5 $6 $7 $8 $9 X,Y pos of 4 corners*
0 Add a 4 corners polygon primitive as box body*
4,1,4,$2,$3,$4,$5,$6,$7,$8,$9,$2,$3,0*
0 Add four circle primitives for the rounded corners*
1,1,$1+$1,$2,$3*
1,1,$1+$1,$4,$5*
1,1,$1+$1,$6,$7*
1,1,$1+$1,$8,$9*
0 Add four rect primitives between the rounded corners*
20,1,$1+$1,$2,$3,$4,$5,0*
20,1,$1+$1,$4,$5,$6,$7,0*
20,1,$1+$1,$6,$7,$8,$9,0*
20,1,$1+$1,$8,$9,$2,$3,0*%
G04 Aperture macros list end*
%ADD10C,1.300000*%
%ADD11C,0.300000*%
%ADD12C,1.900000*%
%ADD13C,3.000000*%
%ADD14C,5.000000*%
%ADD15R,2.550000X2.500000*%
%ADD16R,2.300000X2.600000*%
%ADD17RoundRect,0.150000X-0.650000X-0.150000X0.650000X-0.150000X0.650000X0.150000X-0.650000X0.150000X0*%
%ADD18RoundRect,0.225000X-0.225000X-0.375000X0.225000X-0.375000X0.225000X0.375000X-0.225000X0.375000X0*%
%ADD19RoundRect,0.140000X0.170000X-0.140000X0.170000X0.140000X-0.170000X0.140000X-0.170000X-0.140000X0*%
%ADD20RoundRect,0.140000X-0.140000X-0.170000X0.140000X-0.170000X0.140000X0.170000X-0.140000X0.170000X0*%
%ADD21RoundRect,0.140000X-0.170000X0.140000X-0.170000X-0.140000X0.170000X-0.140000X0.170000X0.140000X0*%
%ADD22RoundRect,0.135000X-0.185000X0.135000X-0.185000X-0.135000X0.185000X-0.135000X0.185000X0.135000X0*%
%ADD23RoundRect,0.135000X-0.135000X-0.185000X0.135000X-0.185000X0.135000X0.185000X-0.135000X0.185000X0*%
%ADD24RoundRect,0.218750X0.218750X0.256250X-0.218750X0.256250X-0.218750X-0.256250X0.218750X-0.256250X0*%
%ADD25RoundRect,0.135000X0.185000X-0.135000X0.185000X0.135000X-0.185000X0.135000X-0.185000X-0.135000X0*%
%ADD26RoundRect,0.225000X-0.250000X0.225000X-0.250000X-0.225000X0.250000X-0.225000X0.250000X0.225000X0*%
%ADD27R,1.700000X1.700000*%
%ADD28O,1.700000X1.700000*%
%ADD29RoundRect,0.135000X0.135000X0.185000X-0.135000X0.185000X-0.135000X-0.185000X0.135000X-0.185000X0*%
%ADD30RoundRect,0.140000X0.140000X0.170000X-0.140000X0.170000X-0.140000X-0.170000X0.140000X-0.170000X0*%
%ADD31RoundRect,0.375000X0.625000X0.375000X-0.625000X0.375000X-0.625000X-0.375000X0.625000X-0.375000X0*%
%ADD32RoundRect,0.500000X0.500000X1.400000X-0.500000X1.400000X-0.500000X-1.400000X0.500000X-1.400000X0*%
%ADD33RoundRect,0.050000X-0.387500X-0.050000X0.387500X-0.050000X0.387500X0.050000X-0.387500X0.050000X0*%
%ADD34RoundRect,0.050000X-0.050000X-0.387500X0.050000X-0.387500X0.050000X0.387500X-0.050000X0.387500X0*%
%ADD35R,3.200000X3.200000*%
%ADD36C,0.650000*%
%ADD37R,1.450000X0.600000*%
%ADD38R,1.450000X0.300000*%
%ADD39O,1.600000X1.000000*%
%ADD40O,2.100000X1.000000*%
%ADD41RoundRect,0.225000X-0.375000X0.225000X-0.375000X-0.225000X0.375000X-0.225000X0.375000X0.225000X0*%
%ADD42R,0.750000X1.000000*%
%ADD43O,2.000000X1.200000*%
%ADD44R,1.800000X1.200000*%
%ADD45R,1.200000X1.400000*%
%ADD46RoundRect,0.225000X0.250000X-0.225000X0.250000X0.225000X-0.250000X0.225000X-0.250000X-0.225000X0*%
%ADD47RoundRect,0.375000X-0.625000X-0.375000X0.625000X-0.375000X0.625000X0.375000X-0.625000X0.375000X0*%
%ADD48RoundRect,0.500000X-0.500000X-1.400000X0.500000X-1.400000X0.500000X1.400000X-0.500000X1.400000X0*%
%ADD49RoundRect,0.218750X-0.256250X0.218750X-0.256250X-0.218750X0.256250X-0.218750X0.256250X0.218750X0*%
%ADD50RoundRect,0.150000X0.650000X0.150000X-0.650000X0.150000X-0.650000X-0.150000X0.650000X-0.150000X0*%
%ADD51RoundRect,0.050000X0.387500X0.050000X-0.387500X0.050000X-0.387500X-0.050000X0.387500X-0.050000X0*%
%ADD52RoundRect,0.050000X0.050000X0.387500X-0.050000X0.387500X-0.050000X-0.387500X0.050000X-0.387500X0*%
%ADD53RoundRect,0.225000X0.375000X-0.225000X0.375000X0.225000X-0.375000X0.225000X-0.375000X-0.225000X0*%
%ADD54RoundRect,0.200000X-0.275000X0.200000X-0.275000X-0.200000X0.275000X-0.200000X0.275000X0.200000X0*%
G04 APERTURE END LIST*
D10*
G04 #@! TO.C,REF\u002A\u002A*
X148100000Y-97400000D03*
G04 #@! TD*
D11*
G04 #@! TO.C,REF\u002A\u002A*
X119100000Y-30375000D03*
X119100000Y-29781250D03*
X119100000Y-29187500D03*
X119100000Y-28593750D03*
X119100000Y-28000000D03*
X119100000Y-27406250D03*
X119100000Y-26812500D03*
X119100000Y-26218750D03*
X119100000Y-25625000D03*
G04 #@! TD*
D10*
G04 #@! TO.C,REF\u002A\u002A*
X15478125Y-15478125D03*
G04 #@! TD*
D11*
G04 #@! TO.C,REF\u002A\u002A*
X153600000Y-99775000D03*
X153600000Y-99181250D03*
X153600000Y-98587500D03*
X153600000Y-97993750D03*
X153600000Y-97400000D03*
X153600000Y-96806250D03*
X153600000Y-96212500D03*
X153600000Y-95618750D03*
X153600000Y-95025000D03*
G04 #@! TD*
D10*
G04 #@! TO.C,REF\u002A\u002A*
X280987500Y-15478125D03*
G04 #@! TD*
D11*
G04 #@! TO.C,REF\u002A\u002A*
X177400000Y-30375000D03*
X177400000Y-29781250D03*
X177400000Y-29187500D03*
X177400000Y-28593750D03*
X177400000Y-28000000D03*
X177400000Y-27406250D03*
X177400000Y-26812500D03*
X177400000Y-26218750D03*
X177400000Y-25625000D03*
G04 #@! TD*
D10*
G04 #@! TO.C,REF\u002A\u002A*
X149300000Y-26300000D03*
G04 #@! TD*
D11*
G04 #@! TO.C,REF\u002A\u002A*
X142900000Y-99775000D03*
X142900000Y-99181250D03*
X142900000Y-98587500D03*
X142900000Y-97993750D03*
X142900000Y-97400000D03*
X142900000Y-96806250D03*
X142900000Y-96212500D03*
X142900000Y-95618750D03*
X142900000Y-95025000D03*
G04 #@! TD*
D12*
G04 #@! TO.C,SW15*
X76937498Y-61912500D03*
X76517498Y-61912500D03*
D13*
X73977498Y-56832500D03*
X71437498Y-67812500D03*
D14*
X71437498Y-61912500D03*
D13*
X67627498Y-59372500D03*
X66437498Y-65612500D03*
D12*
X66357498Y-61912500D03*
X65937498Y-61912500D03*
D15*
X64352498Y-59372500D03*
D16*
X63337498Y-65612500D03*
D15*
X77187498Y-56762500D03*
D16*
X74537498Y-67812500D03*
G04 #@! TD*
D12*
G04 #@! TO.C,SW7*
X36456250Y-42862500D03*
X36036250Y-42862500D03*
D13*
X33496250Y-37782500D03*
X30956250Y-48762500D03*
D14*
X30956250Y-42862500D03*
D13*
X27146250Y-40322500D03*
X25956250Y-46562500D03*
D12*
X25876250Y-42862500D03*
X25456250Y-42862500D03*
D15*
X23871250Y-40322500D03*
D16*
X22856250Y-46562500D03*
D15*
X36706250Y-37712500D03*
D16*
X34056250Y-48762500D03*
G04 #@! TD*
D17*
G04 #@! TO.C,U6*
X211700000Y-96005000D03*
X211700000Y-94735000D03*
X211700000Y-93465000D03*
X211700000Y-92195000D03*
X218900000Y-92195000D03*
X218900000Y-93465000D03*
X218900000Y-94735000D03*
X218900000Y-96005000D03*
G04 #@! TD*
D18*
G04 #@! TO.C,D33*
X256715625Y-51196875D03*
X260015625Y-51196875D03*
G04 #@! TD*
D19*
G04 #@! TO.C,C32*
X67700000Y-72980000D03*
X67700000Y-72020000D03*
G04 #@! TD*
D12*
G04 #@! TO.C,SW25*
X230528123Y-23812500D03*
X230108123Y-23812500D03*
D13*
X227568123Y-18732500D03*
X225028123Y-29712500D03*
D14*
X225028123Y-23812500D03*
D13*
X221218123Y-21272500D03*
X220028123Y-27512500D03*
D12*
X219948123Y-23812500D03*
X219528123Y-23812500D03*
D15*
X217943123Y-21272500D03*
D16*
X216928123Y-27512500D03*
D15*
X230778123Y-18662500D03*
D16*
X228128123Y-29712500D03*
G04 #@! TD*
D12*
G04 #@! TO.C,SW24*
X211478123Y-23812500D03*
X211058123Y-23812500D03*
D13*
X208518123Y-18732500D03*
X205978123Y-29712500D03*
D14*
X205978123Y-23812500D03*
D13*
X202168123Y-21272500D03*
X200978123Y-27512500D03*
D12*
X200898123Y-23812500D03*
X200478123Y-23812500D03*
D15*
X198893123Y-21272500D03*
D16*
X197878123Y-27512500D03*
D15*
X211728123Y-18662500D03*
D16*
X209078123Y-29712500D03*
G04 #@! TD*
D18*
G04 #@! TO.C,D18*
X122175000Y-89296875D03*
X125475000Y-89296875D03*
G04 #@! TD*
D20*
G04 #@! TO.C,C11*
X77320000Y-89700000D03*
X78280000Y-89700000D03*
G04 #@! TD*
D21*
G04 #@! TO.C,C7*
X66600000Y-94720000D03*
X66600000Y-95680000D03*
G04 #@! TD*
D18*
G04 #@! TO.C,D27*
X261478125Y-32146875D03*
X264778125Y-32146875D03*
G04 #@! TD*
D12*
G04 #@! TO.C,SW38*
X249578123Y-66675000D03*
X249158123Y-66675000D03*
D13*
X246618123Y-61595000D03*
X244078123Y-72575000D03*
D14*
X244078123Y-66675000D03*
D13*
X240268123Y-64135000D03*
X239078123Y-70375000D03*
D12*
X238998123Y-66675000D03*
X238578123Y-66675000D03*
D15*
X236993123Y-64135000D03*
D16*
X235978123Y-70375000D03*
D15*
X249828123Y-61525000D03*
D16*
X247178123Y-72575000D03*
G04 #@! TD*
D12*
G04 #@! TO.C,SW11*
X115037498Y-52387500D03*
X114617498Y-52387500D03*
D13*
X112077498Y-47307500D03*
X109537498Y-58287500D03*
D14*
X109537498Y-52387500D03*
D13*
X105727498Y-49847500D03*
X104537498Y-56087500D03*
D12*
X104457498Y-52387500D03*
X104037498Y-52387500D03*
D15*
X102452498Y-49847500D03*
D16*
X101437498Y-56087500D03*
D15*
X115287498Y-47237500D03*
D16*
X112637498Y-58287500D03*
G04 #@! TD*
D22*
G04 #@! TO.C,R7*
X68775000Y-80935000D03*
X68775000Y-81955000D03*
G04 #@! TD*
D23*
G04 #@! TO.C,R19*
X215900000Y-98500000D03*
X216920000Y-98500000D03*
G04 #@! TD*
D20*
G04 #@! TO.C,C34*
X218620000Y-98500000D03*
X219580000Y-98500000D03*
G04 #@! TD*
G04 #@! TO.C,C27*
X232620000Y-85000000D03*
X233580000Y-85000000D03*
G04 #@! TD*
D24*
G04 #@! TO.C,F1*
X59687500Y-80200000D03*
X58112500Y-80200000D03*
G04 #@! TD*
G04 #@! TO.C,F2*
X236287500Y-93600000D03*
X234712500Y-93600000D03*
G04 #@! TD*
D25*
G04 #@! TO.C,R15*
X229762500Y-88110000D03*
X229762500Y-87090000D03*
G04 #@! TD*
D19*
G04 #@! TO.C,C4*
X71775000Y-81955000D03*
X71775000Y-80995000D03*
G04 #@! TD*
D25*
G04 #@! TO.C,R17*
X79300000Y-72610000D03*
X79300000Y-71590000D03*
G04 #@! TD*
G04 #@! TO.C,R8*
X69325000Y-95910000D03*
X69325000Y-94890000D03*
G04 #@! TD*
D18*
G04 #@! TO.C,D15*
X65025000Y-70246875D03*
X68325000Y-70246875D03*
G04 #@! TD*
D12*
G04 #@! TO.C,SW23*
X192428123Y-33337500D03*
X192008123Y-33337500D03*
D13*
X189468123Y-28257500D03*
X186928123Y-39237500D03*
D14*
X186928123Y-33337500D03*
D13*
X183118123Y-30797500D03*
X181928123Y-37037500D03*
D12*
X181848123Y-33337500D03*
X181428123Y-33337500D03*
D15*
X179843123Y-30797500D03*
D16*
X178828123Y-37037500D03*
D15*
X192678123Y-28187500D03*
D16*
X190028123Y-39237500D03*
G04 #@! TD*
D18*
G04 #@! TO.C,D1*
X22162500Y-32146875D03*
X25462500Y-32146875D03*
G04 #@! TD*
D26*
G04 #@! TO.C,C29*
X224262500Y-73225000D03*
X224262500Y-74775000D03*
G04 #@! TD*
D20*
G04 #@! TO.C,C16*
X234500000Y-97700000D03*
X235460000Y-97700000D03*
G04 #@! TD*
D12*
G04 #@! TO.C,SW22*
X173378123Y-42862500D03*
X172958123Y-42862500D03*
D13*
X170418123Y-37782500D03*
X167878123Y-48762500D03*
D14*
X167878123Y-42862500D03*
D13*
X164068123Y-40322500D03*
X162878123Y-46562500D03*
D12*
X162798123Y-42862500D03*
X162378123Y-42862500D03*
D15*
X160793123Y-40322500D03*
D16*
X159778123Y-46562500D03*
D15*
X173628123Y-37712500D03*
D16*
X170978123Y-48762500D03*
G04 #@! TD*
D27*
G04 #@! TO.C,J3*
X62180000Y-95500000D03*
D28*
X59640000Y-95500000D03*
X57100000Y-95500000D03*
G04 #@! TD*
D18*
G04 #@! TO.C,D26*
X237665625Y-36909375D03*
X240965625Y-36909375D03*
G04 #@! TD*
D29*
G04 #@! TO.C,R2*
X62010000Y-80500000D03*
X60990000Y-80500000D03*
G04 #@! TD*
D12*
G04 #@! TO.C,SW4*
X95987498Y-23812500D03*
X95567498Y-23812500D03*
D13*
X93027498Y-18732500D03*
X90487498Y-29712500D03*
D14*
X90487498Y-23812500D03*
D13*
X86677498Y-21272500D03*
X85487498Y-27512500D03*
D12*
X85407498Y-23812500D03*
X84987498Y-23812500D03*
D15*
X83402498Y-21272500D03*
D16*
X82387498Y-27512500D03*
D15*
X96237498Y-18662500D03*
D16*
X93587498Y-29712500D03*
G04 #@! TD*
D18*
G04 #@! TO.C,D34*
X161465625Y-89296875D03*
X164765625Y-89296875D03*
G04 #@! TD*
D21*
G04 #@! TO.C,C20*
X232700000Y-80520000D03*
X232700000Y-81480000D03*
G04 #@! TD*
D18*
G04 #@! TO.C,D36*
X199565625Y-70246875D03*
X202865625Y-70246875D03*
G04 #@! TD*
D30*
G04 #@! TO.C,C18*
X225580000Y-88600000D03*
X224620000Y-88600000D03*
G04 #@! TD*
D31*
G04 #@! TO.C,U4*
X231750000Y-90500000D03*
X231750000Y-92800000D03*
D32*
X225450000Y-92800000D03*
D31*
X231750000Y-95100000D03*
G04 #@! TD*
D18*
G04 #@! TO.C,D23*
X180515625Y-41671875D03*
X183815625Y-41671875D03*
G04 #@! TD*
D12*
G04 #@! TO.C,SW32*
X249578123Y-47625000D03*
X249158123Y-47625000D03*
D13*
X246618123Y-42545000D03*
X244078123Y-53525000D03*
D14*
X244078123Y-47625000D03*
D13*
X240268123Y-45085000D03*
X239078123Y-51325000D03*
D12*
X238998123Y-47625000D03*
X238578123Y-47625000D03*
D15*
X236993123Y-45085000D03*
D16*
X235978123Y-51325000D03*
D15*
X249828123Y-42475000D03*
D16*
X247178123Y-53525000D03*
G04 #@! TD*
D18*
G04 #@! TO.C,D35*
X180515625Y-79771875D03*
X183815625Y-79771875D03*
G04 #@! TD*
D12*
G04 #@! TO.C,SW12*
X134087498Y-61912500D03*
X133667498Y-61912500D03*
D13*
X131127498Y-56832500D03*
X128587498Y-67812500D03*
D14*
X128587498Y-61912500D03*
D13*
X124777498Y-59372500D03*
X123587498Y-65612500D03*
D12*
X123507498Y-61912500D03*
X123087498Y-61912500D03*
D15*
X121502498Y-59372500D03*
D16*
X120487498Y-65612500D03*
D15*
X134337498Y-56762500D03*
D16*
X131687498Y-67812500D03*
G04 #@! TD*
D20*
G04 #@! TO.C,C21*
X231520000Y-87100000D03*
X232480000Y-87100000D03*
G04 #@! TD*
D33*
G04 #@! TO.C,U5*
X224562500Y-84100000D03*
X224562500Y-83700000D03*
X224562500Y-83300000D03*
X224562500Y-82900000D03*
X224562500Y-82500000D03*
X224562500Y-82100000D03*
X224562500Y-81700000D03*
X224562500Y-81300000D03*
X224562500Y-80900000D03*
X224562500Y-80500000D03*
X224562500Y-80100000D03*
X224562500Y-79700000D03*
X224562500Y-79300000D03*
X224562500Y-78900000D03*
D34*
X225400000Y-78062500D03*
X225800000Y-78062500D03*
X226200000Y-78062500D03*
X226600000Y-78062500D03*
X227000000Y-78062500D03*
X227400000Y-78062500D03*
X227800000Y-78062500D03*
X228200000Y-78062500D03*
X228600000Y-78062500D03*
X229000000Y-78062500D03*
X229400000Y-78062500D03*
X229800000Y-78062500D03*
X230200000Y-78062500D03*
X230600000Y-78062500D03*
D33*
X231437500Y-78900000D03*
X231437500Y-79300000D03*
X231437500Y-79700000D03*
X231437500Y-80100000D03*
X231437500Y-80500000D03*
X231437500Y-80900000D03*
X231437500Y-81300000D03*
X231437500Y-81700000D03*
X231437500Y-82100000D03*
X231437500Y-82500000D03*
X231437500Y-82900000D03*
X231437500Y-83300000D03*
X231437500Y-83700000D03*
X231437500Y-84100000D03*
D34*
X230600000Y-84937500D03*
X230200000Y-84937500D03*
X229800000Y-84937500D03*
X229400000Y-84937500D03*
X229000000Y-84937500D03*
X228600000Y-84937500D03*
X228200000Y-84937500D03*
X227800000Y-84937500D03*
X227400000Y-84937500D03*
X227000000Y-84937500D03*
X226600000Y-84937500D03*
X226200000Y-84937500D03*
X225800000Y-84937500D03*
X225400000Y-84937500D03*
D35*
X228000000Y-81500000D03*
G04 #@! TD*
D30*
G04 #@! TO.C,C8*
X64680000Y-87460000D03*
X63720000Y-87460000D03*
G04 #@! TD*
D12*
G04 #@! TO.C,SW31*
X230528123Y-42862500D03*
X230108123Y-42862500D03*
D13*
X227568123Y-37782500D03*
X225028123Y-48762500D03*
D14*
X225028123Y-42862500D03*
D13*
X221218123Y-40322500D03*
X220028123Y-46562500D03*
D12*
X219948123Y-42862500D03*
X219528123Y-42862500D03*
D15*
X217943123Y-40322500D03*
D16*
X216928123Y-46562500D03*
D15*
X230778123Y-37712500D03*
D16*
X228128123Y-48762500D03*
G04 #@! TD*
D12*
G04 #@! TO.C,SW37*
X230528123Y-61912500D03*
X230108123Y-61912500D03*
D13*
X227568123Y-56832500D03*
X225028123Y-67812500D03*
D14*
X225028123Y-61912500D03*
D13*
X221218123Y-59372500D03*
X220028123Y-65612500D03*
D12*
X219948123Y-61912500D03*
X219528123Y-61912500D03*
D15*
X217943123Y-59372500D03*
D16*
X216928123Y-65612500D03*
D15*
X230778123Y-56762500D03*
D16*
X228128123Y-67812500D03*
G04 #@! TD*
D18*
G04 #@! TO.C,D3*
X65025000Y-32146875D03*
X68325000Y-32146875D03*
G04 #@! TD*
D36*
G04 #@! TO.C,J2*
X59740000Y-89326200D03*
X59740000Y-83546200D03*
D37*
X61185000Y-89686200D03*
X61185000Y-88886200D03*
D38*
X61185000Y-87686200D03*
X61185000Y-86686200D03*
X61185000Y-86186200D03*
X61185000Y-85186200D03*
D37*
X61185000Y-83986200D03*
X61185000Y-83186200D03*
X61185000Y-83186200D03*
X61185000Y-83986200D03*
D38*
X61185000Y-84686200D03*
X61185000Y-85686200D03*
X61185000Y-87186200D03*
X61185000Y-88186200D03*
D37*
X61185000Y-88886200D03*
X61185000Y-89686200D03*
D39*
X56090000Y-90756200D03*
D40*
X60270000Y-90756200D03*
D39*
X56090000Y-82116200D03*
D40*
X60270000Y-82116200D03*
G04 #@! TD*
D12*
G04 #@! TO.C,SW18*
X134087498Y-80962500D03*
X133667498Y-80962500D03*
D13*
X131127498Y-75882500D03*
X128587498Y-86862500D03*
D14*
X128587498Y-80962500D03*
D13*
X124777498Y-78422500D03*
X123587498Y-84662500D03*
D12*
X123507498Y-80962500D03*
X123087498Y-80962500D03*
D15*
X121502498Y-78422500D03*
D16*
X120487498Y-84662500D03*
D15*
X134337498Y-75812500D03*
D16*
X131687498Y-86862500D03*
G04 #@! TD*
D23*
G04 #@! TO.C,R18*
X85190000Y-93700000D03*
X86210000Y-93700000D03*
G04 #@! TD*
D41*
G04 #@! TO.C,SD1*
X56100000Y-76950000D03*
X56100000Y-80250000D03*
G04 #@! TD*
D22*
G04 #@! TO.C,R3*
X61300000Y-61590000D03*
X61300000Y-62610000D03*
G04 #@! TD*
D20*
G04 #@! TO.C,C33*
X218640000Y-97500000D03*
X219600000Y-97500000D03*
G04 #@! TD*
G04 #@! TO.C,C22*
X232300000Y-86100000D03*
X233260000Y-86100000D03*
G04 #@! TD*
D12*
G04 #@! TO.C,SW19*
X93606250Y-80962500D03*
X93186250Y-80962500D03*
D13*
X90646250Y-75882500D03*
X88106250Y-86862500D03*
D14*
X88106250Y-80962500D03*
D13*
X84296250Y-78422500D03*
X83106250Y-84662500D03*
D12*
X83026250Y-80962500D03*
X82606250Y-80962500D03*
D15*
X81021250Y-78422500D03*
D16*
X80006250Y-84662500D03*
D15*
X93856250Y-75812500D03*
D16*
X91206250Y-86862500D03*
G04 #@! TD*
D21*
G04 #@! TO.C,C3*
X64700000Y-95220000D03*
X64700000Y-96180000D03*
G04 #@! TD*
D18*
G04 #@! TO.C,D31*
X218615625Y-51196875D03*
X221915625Y-51196875D03*
G04 #@! TD*
D20*
G04 #@! TO.C,C13*
X75320000Y-84100000D03*
X76280000Y-84100000D03*
G04 #@! TD*
D22*
G04 #@! TO.C,R12*
X234600000Y-59190000D03*
X234600000Y-60210000D03*
G04 #@! TD*
D12*
G04 #@! TO.C,SW2*
X57887498Y-28575000D03*
X57467498Y-28575000D03*
D13*
X54927498Y-23495000D03*
X52387498Y-34475000D03*
D14*
X52387498Y-28575000D03*
D13*
X48577498Y-26035000D03*
X47387498Y-32275000D03*
D12*
X47307498Y-28575000D03*
X46887498Y-28575000D03*
D15*
X45302498Y-26035000D03*
D16*
X44287498Y-32275000D03*
D15*
X58137498Y-23425000D03*
D16*
X55487498Y-34475000D03*
G04 #@! TD*
D42*
G04 #@! TO.C,SMDSW2*
X91475000Y-99100000D03*
X91475000Y-93100000D03*
X87725000Y-99100000D03*
X87725000Y-93100000D03*
G04 #@! TD*
D18*
G04 #@! TO.C,D42*
X201946875Y-89296875D03*
X205246875Y-89296875D03*
G04 #@! TD*
D12*
G04 #@! TO.C,SW8*
X57887498Y-47625000D03*
X57467498Y-47625000D03*
D13*
X54927498Y-42545000D03*
X52387498Y-53525000D03*
D14*
X52387498Y-47625000D03*
D13*
X48577498Y-45085000D03*
X47387498Y-51325000D03*
D12*
X47307498Y-47625000D03*
X46887498Y-47625000D03*
D15*
X45302498Y-45085000D03*
D16*
X44287498Y-51325000D03*
D15*
X58137498Y-42475000D03*
D16*
X55487498Y-53525000D03*
G04 #@! TD*
D21*
G04 #@! TO.C,C23*
X227500000Y-87720000D03*
X227500000Y-88680000D03*
G04 #@! TD*
D19*
G04 #@! TO.C,C5*
X67775000Y-83655000D03*
X67775000Y-82695000D03*
G04 #@! TD*
D43*
G04 #@! TO.C,J1*
X113062500Y-24200000D03*
X113062500Y-16400000D03*
X116262500Y-24200000D03*
X116262500Y-16400000D03*
D44*
X107262500Y-24200000D03*
X107262500Y-16400000D03*
G04 #@! TD*
D12*
G04 #@! TO.C,SW42*
X213859375Y-80962500D03*
X213439375Y-80962500D03*
D13*
X210899375Y-75882500D03*
X208359375Y-86862500D03*
D14*
X208359375Y-80962500D03*
D13*
X204549375Y-78422500D03*
X203359375Y-84662500D03*
D12*
X203279375Y-80962500D03*
X202859375Y-80962500D03*
D15*
X201274375Y-78422500D03*
D16*
X200259375Y-84662500D03*
D15*
X214109375Y-75812500D03*
D16*
X211459375Y-86862500D03*
G04 #@! TD*
D12*
G04 #@! TO.C,SW27*
X273390625Y-23812500D03*
X272970625Y-23812500D03*
D13*
X270430625Y-18732500D03*
X267890625Y-29712500D03*
D14*
X267890625Y-23812500D03*
D13*
X264080625Y-21272500D03*
X262890625Y-27512500D03*
D12*
X262810625Y-23812500D03*
X262390625Y-23812500D03*
D15*
X260805625Y-21272500D03*
D16*
X259790625Y-27512500D03*
D15*
X273640625Y-18662500D03*
D16*
X270990625Y-29712500D03*
G04 #@! TD*
D18*
G04 #@! TO.C,D8*
X45975000Y-55959375D03*
X49275000Y-55959375D03*
G04 #@! TD*
D12*
G04 #@! TO.C,SW41*
X192428123Y-90487500D03*
X192008123Y-90487500D03*
D13*
X189468123Y-85407500D03*
X186928123Y-96387500D03*
D14*
X186928123Y-90487500D03*
D13*
X183118123Y-87947500D03*
X181928123Y-94187500D03*
D12*
X181848123Y-90487500D03*
X181428123Y-90487500D03*
D15*
X179843123Y-87947500D03*
D16*
X178828123Y-94187500D03*
D15*
X192678123Y-85337500D03*
D16*
X190028123Y-96387500D03*
G04 #@! TD*
D18*
G04 #@! TO.C,D16*
X84075000Y-70246875D03*
X87375000Y-70246875D03*
G04 #@! TD*
G04 #@! TO.C,D5*
X103125000Y-41671875D03*
X106425000Y-41671875D03*
G04 #@! TD*
D12*
G04 #@! TO.C,SW34*
X173378123Y-80962500D03*
X172958123Y-80962500D03*
D13*
X170418123Y-75882500D03*
X167878123Y-86862500D03*
D14*
X167878123Y-80962500D03*
D13*
X164068123Y-78422500D03*
X162878123Y-84662500D03*
D12*
X162798123Y-80962500D03*
X162378123Y-80962500D03*
D15*
X160793123Y-78422500D03*
D16*
X159778123Y-84662500D03*
D15*
X173628123Y-75812500D03*
D16*
X170978123Y-86862500D03*
G04 #@! TD*
D30*
G04 #@! TO.C,C9*
X64660000Y-89460000D03*
X63700000Y-89460000D03*
G04 #@! TD*
D22*
G04 #@! TO.C,R16*
X229062500Y-74090000D03*
X229062500Y-75110000D03*
G04 #@! TD*
D18*
G04 #@! TO.C,D41*
X180515625Y-98821875D03*
X183815625Y-98821875D03*
G04 #@! TD*
D30*
G04 #@! TO.C,C12*
X64680000Y-88460000D03*
X63720000Y-88460000D03*
G04 #@! TD*
D45*
G04 #@! TO.C,Y1*
X72475000Y-95500000D03*
X72475000Y-97700000D03*
X70775000Y-97700000D03*
X70775000Y-95500000D03*
G04 #@! TD*
D12*
G04 #@! TO.C,SW30*
X211478123Y-42862500D03*
X211058123Y-42862500D03*
D13*
X208518123Y-37782500D03*
X205978123Y-48762500D03*
D14*
X205978123Y-42862500D03*
D13*
X202168123Y-40322500D03*
X200978123Y-46562500D03*
D12*
X200898123Y-42862500D03*
X200478123Y-42862500D03*
D15*
X198893123Y-40322500D03*
D16*
X197878123Y-46562500D03*
D15*
X211728123Y-37712500D03*
D16*
X209078123Y-48762500D03*
G04 #@! TD*
D18*
G04 #@! TO.C,D37*
X218650000Y-53700000D03*
X221950000Y-53700000D03*
G04 #@! TD*
G04 #@! TO.C,D28*
X161465625Y-70246875D03*
X164765625Y-70246875D03*
G04 #@! TD*
D12*
G04 #@! TO.C,SW36*
X211478123Y-61912500D03*
X211058123Y-61912500D03*
D13*
X208518123Y-56832500D03*
X205978123Y-67812500D03*
D14*
X205978123Y-61912500D03*
D13*
X202168123Y-59372500D03*
X200978123Y-65612500D03*
D12*
X200898123Y-61912500D03*
X200478123Y-61912500D03*
D15*
X198893123Y-59372500D03*
D16*
X197878123Y-65612500D03*
D15*
X211728123Y-56762500D03*
D16*
X209078123Y-67812500D03*
G04 #@! TD*
D12*
G04 #@! TO.C,SW35*
X192428123Y-71437500D03*
X192008123Y-71437500D03*
D13*
X189468123Y-66357500D03*
X186928123Y-77337500D03*
D14*
X186928123Y-71437500D03*
D13*
X183118123Y-68897500D03*
X181928123Y-75137500D03*
D12*
X181848123Y-71437500D03*
X181428123Y-71437500D03*
D15*
X179843123Y-68897500D03*
D16*
X178828123Y-75137500D03*
D15*
X192678123Y-66287500D03*
D16*
X190028123Y-77337500D03*
G04 #@! TD*
D42*
G04 #@! TO.C,SMDSW1*
X98875000Y-99100000D03*
X98875000Y-93100000D03*
X95125000Y-99100000D03*
X95125000Y-93100000D03*
G04 #@! TD*
D46*
G04 #@! TO.C,C14*
X74125000Y-96775000D03*
X74125000Y-95225000D03*
G04 #@! TD*
D18*
G04 #@! TO.C,D2*
X45975000Y-36909375D03*
X49275000Y-36909375D03*
G04 #@! TD*
D25*
G04 #@! TO.C,R5*
X78700000Y-81410000D03*
X78700000Y-80390000D03*
G04 #@! TD*
D18*
G04 #@! TO.C,D13*
X24550000Y-53600000D03*
X27850000Y-53600000D03*
G04 #@! TD*
D27*
G04 #@! TO.C,J6*
X239700000Y-78200000D03*
D28*
X237160000Y-78200000D03*
X234620000Y-78200000D03*
G04 #@! TD*
D22*
G04 #@! TO.C,R6*
X69775000Y-80935000D03*
X69775000Y-81955000D03*
G04 #@! TD*
D18*
G04 #@! TO.C,D14*
X45975000Y-58400000D03*
X49275000Y-58400000D03*
G04 #@! TD*
D47*
G04 #@! TO.C,U1*
X58950000Y-77400000D03*
X58950000Y-75100000D03*
D48*
X65250000Y-75100000D03*
D47*
X58950000Y-72800000D03*
G04 #@! TD*
D20*
G04 #@! TO.C,C26*
X231920000Y-74000000D03*
X232880000Y-74000000D03*
G04 #@! TD*
D46*
G04 #@! TO.C,C15*
X69125000Y-98650000D03*
X69125000Y-97100000D03*
G04 #@! TD*
D42*
G04 #@! TO.C,SMDSW4*
X207900000Y-99000000D03*
X207900000Y-93000000D03*
X204150000Y-99000000D03*
X204150000Y-93000000D03*
G04 #@! TD*
D29*
G04 #@! TO.C,R1*
X62010000Y-92300000D03*
X60990000Y-92300000D03*
G04 #@! TD*
D30*
G04 #@! TO.C,C1*
X57160000Y-75600000D03*
X56200000Y-75600000D03*
G04 #@! TD*
D49*
G04 #@! TO.C,STLED2*
X234500000Y-56412500D03*
X234500000Y-57987500D03*
G04 #@! TD*
D12*
G04 #@! TO.C,SW40*
X170996875Y-100012500D03*
X170576875Y-100012500D03*
D13*
X168036875Y-94932500D03*
X165496875Y-105912500D03*
D14*
X165496875Y-100012500D03*
D13*
X161686875Y-97472500D03*
X160496875Y-103712500D03*
D12*
X160416875Y-100012500D03*
X159996875Y-100012500D03*
D15*
X158411875Y-97472500D03*
D16*
X157396875Y-103712500D03*
D15*
X171246875Y-94862500D03*
D16*
X168596875Y-105912500D03*
G04 #@! TD*
D12*
G04 #@! TO.C,SW26*
X249578123Y-28575000D03*
X249158123Y-28575000D03*
D13*
X246618123Y-23495000D03*
X244078123Y-34475000D03*
D14*
X244078123Y-28575000D03*
D13*
X240268123Y-26035000D03*
X239078123Y-32275000D03*
D12*
X238998123Y-28575000D03*
X238578123Y-28575000D03*
D15*
X236993123Y-26035000D03*
D16*
X235978123Y-32275000D03*
D15*
X249828123Y-23425000D03*
D16*
X247178123Y-34475000D03*
G04 #@! TD*
D18*
G04 #@! TO.C,D30*
X199565625Y-51196875D03*
X202865625Y-51196875D03*
G04 #@! TD*
G04 #@! TO.C,SD2*
X234750000Y-96000000D03*
X238050000Y-96000000D03*
G04 #@! TD*
D12*
G04 #@! TO.C,SW21*
X136468750Y-100012500D03*
X136048750Y-100012500D03*
D13*
X133508750Y-94932500D03*
X130968750Y-105912500D03*
D14*
X130968750Y-100012500D03*
D13*
X127158750Y-97472500D03*
X125968750Y-103712500D03*
D12*
X125888750Y-100012500D03*
X125468750Y-100012500D03*
D15*
X123883750Y-97472500D03*
D16*
X122868750Y-103712500D03*
D15*
X136718750Y-94862500D03*
D16*
X134068750Y-105912500D03*
G04 #@! TD*
D23*
G04 #@! TO.C,R13*
X239680000Y-98900000D03*
X240700000Y-98900000D03*
G04 #@! TD*
D50*
G04 #@! TO.C,U3*
X77500000Y-72595000D03*
X77500000Y-73865000D03*
X77500000Y-75135000D03*
X77500000Y-76405000D03*
X70300000Y-76405000D03*
X70300000Y-75135000D03*
X70300000Y-73865000D03*
X70300000Y-72595000D03*
G04 #@! TD*
D51*
G04 #@! TO.C,U2*
X73912500Y-85875000D03*
X73912500Y-86275000D03*
X73912500Y-86675000D03*
X73912500Y-87075000D03*
X73912500Y-87475000D03*
X73912500Y-87875000D03*
X73912500Y-88275000D03*
X73912500Y-88675000D03*
X73912500Y-89075000D03*
X73912500Y-89475000D03*
X73912500Y-89875000D03*
X73912500Y-90275000D03*
X73912500Y-90675000D03*
X73912500Y-91075000D03*
D52*
X73075000Y-91912500D03*
X72675000Y-91912500D03*
X72275000Y-91912500D03*
X71875000Y-91912500D03*
X71475000Y-91912500D03*
X71075000Y-91912500D03*
X70675000Y-91912500D03*
X70275000Y-91912500D03*
X69875000Y-91912500D03*
X69475000Y-91912500D03*
X69075000Y-91912500D03*
X68675000Y-91912500D03*
X68275000Y-91912500D03*
X67875000Y-91912500D03*
D51*
X67037500Y-91075000D03*
X67037500Y-90675000D03*
X67037500Y-90275000D03*
X67037500Y-89875000D03*
X67037500Y-89475000D03*
X67037500Y-89075000D03*
X67037500Y-88675000D03*
X67037500Y-88275000D03*
X67037500Y-87875000D03*
X67037500Y-87475000D03*
X67037500Y-87075000D03*
X67037500Y-86675000D03*
X67037500Y-86275000D03*
X67037500Y-85875000D03*
D52*
X67875000Y-85037500D03*
X68275000Y-85037500D03*
X68675000Y-85037500D03*
X69075000Y-85037500D03*
X69475000Y-85037500D03*
X69875000Y-85037500D03*
X70275000Y-85037500D03*
X70675000Y-85037500D03*
X71075000Y-85037500D03*
X71475000Y-85037500D03*
X71875000Y-85037500D03*
X72275000Y-85037500D03*
X72675000Y-85037500D03*
X73075000Y-85037500D03*
D35*
X70475000Y-88475000D03*
G04 #@! TD*
D12*
G04 #@! TO.C,SW16*
X95987498Y-61912500D03*
X95567498Y-61912500D03*
D13*
X93027498Y-56832500D03*
X90487498Y-67812500D03*
D14*
X90487498Y-61912500D03*
D13*
X86677498Y-59372500D03*
X85487498Y-65612500D03*
D12*
X85407498Y-61912500D03*
X84987498Y-61912500D03*
D15*
X83402498Y-59372500D03*
D16*
X82387498Y-65612500D03*
D15*
X96237498Y-56762500D03*
D16*
X93587498Y-67812500D03*
G04 #@! TD*
D12*
G04 #@! TO.C,SW39*
X271009375Y-61912500D03*
X270589375Y-61912500D03*
D13*
X268049375Y-56832500D03*
X265509375Y-67812500D03*
D14*
X265509375Y-61912500D03*
D13*
X261699375Y-59372500D03*
X260509375Y-65612500D03*
D12*
X260429375Y-61912500D03*
X260009375Y-61912500D03*
D15*
X258424375Y-59372500D03*
D16*
X257409375Y-65612500D03*
D15*
X271259375Y-56762500D03*
D16*
X268609375Y-67812500D03*
G04 #@! TD*
D20*
G04 #@! TO.C,C19*
X231920000Y-75200000D03*
X232880000Y-75200000D03*
G04 #@! TD*
D30*
G04 #@! TO.C,C28*
X222480000Y-84700000D03*
X221520000Y-84700000D03*
G04 #@! TD*
D49*
G04 #@! TO.C,STLED1*
X61900000Y-56425000D03*
X61900000Y-58000000D03*
G04 #@! TD*
D19*
G04 #@! TO.C,C10*
X70800000Y-80480000D03*
X70800000Y-79520000D03*
G04 #@! TD*
D18*
G04 #@! TO.C,D11*
X103125000Y-60721875D03*
X106425000Y-60721875D03*
G04 #@! TD*
D12*
G04 #@! TO.C,SW9*
X76937498Y-42862500D03*
X76517498Y-42862500D03*
D13*
X73977498Y-37782500D03*
X71437498Y-48762500D03*
D14*
X71437498Y-42862500D03*
D13*
X67627498Y-40322500D03*
X66437498Y-46562500D03*
D12*
X66357498Y-42862500D03*
X65937498Y-42862500D03*
D15*
X64352498Y-40322500D03*
D16*
X63337498Y-46562500D03*
D15*
X77187498Y-37712500D03*
D16*
X74537498Y-48762500D03*
G04 #@! TD*
D12*
G04 #@! TO.C,SW17*
X115037498Y-71437500D03*
X114617498Y-71437500D03*
D13*
X112077498Y-66357500D03*
X109537498Y-77337500D03*
D14*
X109537498Y-71437500D03*
D13*
X105727498Y-68897500D03*
X104537498Y-75137500D03*
D12*
X104457498Y-71437500D03*
X104037498Y-71437500D03*
D15*
X102452498Y-68897500D03*
D16*
X101437498Y-75137500D03*
D15*
X115287498Y-66287500D03*
D16*
X112637498Y-77337500D03*
G04 #@! TD*
D19*
G04 #@! TO.C,C6*
X66775000Y-83655000D03*
X66775000Y-82695000D03*
G04 #@! TD*
D12*
G04 #@! TO.C,SW29*
X192428123Y-52387500D03*
X192008123Y-52387500D03*
D13*
X189468123Y-47307500D03*
X186928123Y-58287500D03*
D14*
X186928123Y-52387500D03*
D13*
X183118123Y-49847500D03*
X181928123Y-56087500D03*
D12*
X181848123Y-52387500D03*
X181428123Y-52387500D03*
D15*
X179843123Y-49847500D03*
D16*
X178828123Y-56087500D03*
D15*
X192678123Y-47237500D03*
D16*
X190028123Y-58287500D03*
G04 #@! TD*
D19*
G04 #@! TO.C,C24*
X232700000Y-84000000D03*
X232700000Y-83040000D03*
G04 #@! TD*
D18*
G04 #@! TO.C,D38*
X237650000Y-58400000D03*
X240950000Y-58400000D03*
G04 #@! TD*
G04 #@! TO.C,D22*
X161465625Y-51196875D03*
X164765625Y-51196875D03*
G04 #@! TD*
D36*
G04 #@! TO.C,J5*
X236700000Y-83560000D03*
X236700000Y-89340000D03*
D37*
X235255000Y-83200000D03*
X235255000Y-84000000D03*
D38*
X235255000Y-85200000D03*
X235255000Y-86200000D03*
X235255000Y-86700000D03*
X235255000Y-87700000D03*
D37*
X235255000Y-88900000D03*
X235255000Y-89700000D03*
X235255000Y-89700000D03*
X235255000Y-88900000D03*
D38*
X235255000Y-88200000D03*
X235255000Y-87200000D03*
X235255000Y-85700000D03*
X235255000Y-84700000D03*
D37*
X235255000Y-84000000D03*
X235255000Y-83200000D03*
D39*
X240350000Y-82130000D03*
D40*
X236170000Y-82130000D03*
D39*
X240350000Y-90770000D03*
D40*
X236170000Y-90770000D03*
G04 #@! TD*
D25*
G04 #@! TO.C,R14*
X228732500Y-88120000D03*
X228732500Y-87100000D03*
G04 #@! TD*
D42*
G04 #@! TO.C,SMDSW3*
X200550000Y-99000000D03*
X200550000Y-93000000D03*
X196800000Y-99000000D03*
X196800000Y-93000000D03*
G04 #@! TD*
D18*
G04 #@! TO.C,D29*
X180515625Y-60721875D03*
X183815625Y-60721875D03*
G04 #@! TD*
D19*
G04 #@! TO.C,C31*
X68700000Y-73000000D03*
X68700000Y-72040000D03*
G04 #@! TD*
D18*
G04 #@! TO.C,D39*
X259096875Y-70246875D03*
X262396875Y-70246875D03*
G04 #@! TD*
G04 #@! TO.C,D24*
X199565625Y-32146875D03*
X202865625Y-32146875D03*
G04 #@! TD*
D12*
G04 #@! TO.C,SW13*
X36456250Y-61912500D03*
X36036250Y-61912500D03*
D13*
X33496250Y-56832500D03*
X30956250Y-67812500D03*
D14*
X30956250Y-61912500D03*
D13*
X27146250Y-59372500D03*
X25956250Y-65612500D03*
D12*
X25876250Y-61912500D03*
X25456250Y-61912500D03*
D15*
X23871250Y-59372500D03*
D16*
X22856250Y-65612500D03*
D15*
X36706250Y-56762500D03*
D16*
X34056250Y-67812500D03*
G04 #@! TD*
D53*
G04 #@! TO.C,D19*
X96440625Y-82612500D03*
X96440625Y-79312500D03*
G04 #@! TD*
D12*
G04 #@! TO.C,SW20*
X115037498Y-90487500D03*
X114617498Y-90487500D03*
D13*
X112077498Y-85407500D03*
X109537498Y-96387500D03*
D14*
X109537498Y-90487500D03*
D13*
X105727498Y-87947500D03*
X104537498Y-94187500D03*
D12*
X104457498Y-90487500D03*
X104037498Y-90487500D03*
D15*
X102452498Y-87947500D03*
D16*
X101437498Y-94187500D03*
D15*
X115287498Y-85337500D03*
D16*
X112637498Y-96387500D03*
G04 #@! TD*
D12*
G04 #@! TO.C,SW10*
X95987498Y-42862500D03*
X95567498Y-42862500D03*
D13*
X93027498Y-37782500D03*
X90487498Y-48762500D03*
D14*
X90487498Y-42862500D03*
D13*
X86677498Y-40322500D03*
X85487498Y-46562500D03*
D12*
X85407498Y-42862500D03*
X84987498Y-42862500D03*
D15*
X83402498Y-40322500D03*
D16*
X82387498Y-46562500D03*
D15*
X96237498Y-37712500D03*
D16*
X93587498Y-48762500D03*
G04 #@! TD*
D45*
G04 #@! TO.C,Y2*
X225912500Y-74500000D03*
X225912500Y-72300000D03*
X227612500Y-72300000D03*
X227612500Y-74500000D03*
G04 #@! TD*
D12*
G04 #@! TO.C,SW5*
X115037498Y-33337500D03*
X114617498Y-33337500D03*
D13*
X112077498Y-28257500D03*
X109537498Y-39237500D03*
D14*
X109537498Y-33337500D03*
D13*
X105727498Y-30797500D03*
X104537498Y-37037500D03*
D12*
X104457498Y-33337500D03*
X104037498Y-33337500D03*
D15*
X102452498Y-30797500D03*
D16*
X101437498Y-37037500D03*
D15*
X115287498Y-28187500D03*
D16*
X112637498Y-39237500D03*
G04 #@! TD*
D18*
G04 #@! TO.C,D9*
X65025000Y-51196875D03*
X68325000Y-51196875D03*
G04 #@! TD*
G04 #@! TO.C,D17*
X103125000Y-79771875D03*
X106425000Y-79771875D03*
G04 #@! TD*
D30*
G04 #@! TO.C,C17*
X225600000Y-97000000D03*
X224640000Y-97000000D03*
G04 #@! TD*
D12*
G04 #@! TO.C,SW33*
X268628123Y-42862500D03*
X268208123Y-42862500D03*
D13*
X265668123Y-37782500D03*
X263128123Y-48762500D03*
D14*
X263128123Y-42862500D03*
D13*
X259318123Y-40322500D03*
X258128123Y-46562500D03*
D12*
X258048123Y-42862500D03*
X257628123Y-42862500D03*
D15*
X256043123Y-40322500D03*
D16*
X255028123Y-46562500D03*
D15*
X268878123Y-37712500D03*
D16*
X266228123Y-48762500D03*
G04 #@! TD*
D54*
G04 #@! TO.C,R11*
X239900000Y-96000000D03*
X239900000Y-97650000D03*
G04 #@! TD*
D18*
G04 #@! TO.C,D40*
X159084375Y-108346875D03*
X162384375Y-108346875D03*
G04 #@! TD*
D26*
G04 #@! TO.C,C30*
X229262500Y-71325000D03*
X229262500Y-72875000D03*
G04 #@! TD*
D29*
G04 #@! TO.C,R20*
X211710000Y-98500000D03*
X210690000Y-98500000D03*
G04 #@! TD*
D18*
G04 #@! TO.C,D6*
X122175000Y-51196875D03*
X125475000Y-51196875D03*
G04 #@! TD*
D43*
G04 #@! TO.C,J4*
X183400000Y-16400000D03*
X183400000Y-24200000D03*
X180200000Y-16400000D03*
X180200000Y-24200000D03*
D44*
X189200000Y-16400000D03*
X189200000Y-24200000D03*
G04 #@! TD*
D54*
G04 #@! TO.C,R4*
X77400000Y-79575000D03*
X77400000Y-81225000D03*
G04 #@! TD*
D18*
G04 #@! TO.C,D7*
X24543750Y-51196875D03*
X27843750Y-51196875D03*
G04 #@! TD*
G04 #@! TO.C,D32*
X237665625Y-55959375D03*
X240965625Y-55959375D03*
G04 #@! TD*
D12*
G04 #@! TO.C,SW1*
X34075000Y-23812500D03*
X33655000Y-23812500D03*
D13*
X31115000Y-18732500D03*
X28575000Y-29712500D03*
D14*
X28575000Y-23812500D03*
D13*
X24765000Y-21272500D03*
X23575000Y-27512500D03*
D12*
X23495000Y-23812500D03*
X23075000Y-23812500D03*
D15*
X21490000Y-21272500D03*
D16*
X20475000Y-27512500D03*
D15*
X34325000Y-18662500D03*
D16*
X31675000Y-29712500D03*
G04 #@! TD*
D18*
G04 #@! TO.C,D20*
X103125000Y-98821875D03*
X106425000Y-98821875D03*
G04 #@! TD*
G04 #@! TO.C,D12*
X122175000Y-70246875D03*
X125475000Y-70246875D03*
G04 #@! TD*
D12*
G04 #@! TO.C,SW14*
X57887498Y-66675000D03*
X57467498Y-66675000D03*
D13*
X54927498Y-61595000D03*
X52387498Y-72575000D03*
D14*
X52387498Y-66675000D03*
D13*
X48577498Y-64135000D03*
X47387498Y-70375000D03*
D12*
X47307498Y-66675000D03*
X46887498Y-66675000D03*
D15*
X45302498Y-64135000D03*
D16*
X44287498Y-70375000D03*
D15*
X58137498Y-61525000D03*
D16*
X55487498Y-72575000D03*
G04 #@! TD*
D18*
G04 #@! TO.C,D21*
X124556250Y-108346875D03*
X127856250Y-108346875D03*
G04 #@! TD*
D12*
G04 #@! TO.C,SW6*
X134087498Y-42862500D03*
X133667498Y-42862500D03*
D13*
X131127498Y-37782500D03*
X128587498Y-48762500D03*
D14*
X128587498Y-42862500D03*
D13*
X124777498Y-40322500D03*
X123587498Y-46562500D03*
D12*
X123507498Y-42862500D03*
X123087498Y-42862500D03*
D15*
X121502498Y-40322500D03*
D16*
X120487498Y-46562500D03*
D15*
X134337498Y-37712500D03*
D16*
X131687498Y-48762500D03*
G04 #@! TD*
D12*
G04 #@! TO.C,SW3*
X76937498Y-23812500D03*
X76517498Y-23812500D03*
D13*
X73977498Y-18732500D03*
X71437498Y-29712500D03*
D14*
X71437498Y-23812500D03*
D13*
X67627498Y-21272500D03*
X66437498Y-27512500D03*
D12*
X66357498Y-23812500D03*
X65937498Y-23812500D03*
D15*
X64352498Y-21272500D03*
D16*
X63337498Y-27512500D03*
D15*
X77187498Y-18662500D03*
D16*
X74537498Y-29712500D03*
G04 #@! TD*
D18*
G04 #@! TO.C,D4*
X84075000Y-32146875D03*
X87375000Y-32146875D03*
G04 #@! TD*
D23*
G04 #@! TO.C,R9*
X234490000Y-80600000D03*
X235510000Y-80600000D03*
G04 #@! TD*
D18*
G04 #@! TO.C,D10*
X84075000Y-51196875D03*
X87375000Y-51196875D03*
G04 #@! TD*
D30*
G04 #@! TO.C,C25*
X219980000Y-79200000D03*
X219020000Y-79200000D03*
G04 #@! TD*
D12*
G04 #@! TO.C,SW28*
X173378123Y-61912500D03*
X172958123Y-61912500D03*
D13*
X170418123Y-56832500D03*
X167878123Y-67812500D03*
D14*
X167878123Y-61912500D03*
D13*
X164068123Y-59372500D03*
X162878123Y-65612500D03*
D12*
X162798123Y-61912500D03*
X162378123Y-61912500D03*
D15*
X160793123Y-59372500D03*
D16*
X159778123Y-65612500D03*
D15*
X173628123Y-56762500D03*
D16*
X170978123Y-67812500D03*
G04 #@! TD*
D18*
G04 #@! TO.C,D25*
X218615625Y-32146875D03*
X221915625Y-32146875D03*
G04 #@! TD*
D30*
G04 #@! TO.C,C2*
X67980000Y-79300000D03*
X67020000Y-79300000D03*
G04 #@! TD*
D23*
G04 #@! TO.C,R10*
X234490000Y-92300000D03*
X235510000Y-92300000D03*
G04 #@! TD*
M02*
