G04 #@! TF.GenerationSoftware,KiCad,Pcbnew,8.0.8*
G04 #@! TF.CreationDate,2025-01-27T00:01:30+09:00*
G04 #@! TF.ProjectId,pcb,7063622e-6b69-4636-9164-5f7063625858,rev?*
G04 #@! TF.SameCoordinates,Original*
G04 #@! TF.FileFunction,Soldermask,Top*
G04 #@! TF.FilePolarity,Negative*
%FSLAX46Y46*%
G04 Gerber Fmt 4.6, Leading zero omitted, Abs format (unit mm)*
G04 Created by KiCad (PCBNEW 8.0.8) date 2025-01-27 00:01:30*
%MOMM*%
%LPD*%
G01*
G04 APERTURE LIST*
%ADD10C,1.300000*%
%ADD11C,0.300000*%
%ADD12C,1.900000*%
%ADD13C,3.000000*%
%ADD14C,5.000000*%
%ADD15R,1.700000X1.700000*%
%ADD16O,1.700000X1.700000*%
%ADD17C,0.650000*%
%ADD18O,1.600000X1.000000*%
%ADD19O,2.100000X1.000000*%
%ADD20O,2.000000X1.200000*%
G04 APERTURE END LIST*
D10*
G04 #@! TO.C,REF\u002A\u002A*
X148100000Y-97400000D03*
G04 #@! TD*
D11*
G04 #@! TO.C,REF\u002A\u002A*
X119100000Y-30375000D03*
X119100000Y-29781250D03*
X119100000Y-29187500D03*
X119100000Y-28593750D03*
X119100000Y-28000000D03*
X119100000Y-27406250D03*
X119100000Y-26812500D03*
X119100000Y-26218750D03*
X119100000Y-25625000D03*
G04 #@! TD*
D10*
G04 #@! TO.C,REF\u002A\u002A*
X15478125Y-15478125D03*
G04 #@! TD*
D11*
G04 #@! TO.C,REF\u002A\u002A*
X153600000Y-99775000D03*
X153600000Y-99181250D03*
X153600000Y-98587500D03*
X153600000Y-97993750D03*
X153600000Y-97400000D03*
X153600000Y-96806250D03*
X153600000Y-96212500D03*
X153600000Y-95618750D03*
X153600000Y-95025000D03*
G04 #@! TD*
D10*
G04 #@! TO.C,REF\u002A\u002A*
X280987500Y-15478125D03*
G04 #@! TD*
D11*
G04 #@! TO.C,REF\u002A\u002A*
X177400000Y-30375000D03*
X177400000Y-29781250D03*
X177400000Y-29187500D03*
X177400000Y-28593750D03*
X177400000Y-28000000D03*
X177400000Y-27406250D03*
X177400000Y-26812500D03*
X177400000Y-26218750D03*
X177400000Y-25625000D03*
G04 #@! TD*
D10*
G04 #@! TO.C,REF\u002A\u002A*
X149300000Y-26300000D03*
G04 #@! TD*
D11*
G04 #@! TO.C,REF\u002A\u002A*
X142900000Y-99775000D03*
X142900000Y-99181250D03*
X142900000Y-98587500D03*
X142900000Y-97993750D03*
X142900000Y-97400000D03*
X142900000Y-96806250D03*
X142900000Y-96212500D03*
X142900000Y-95618750D03*
X142900000Y-95025000D03*
G04 #@! TD*
D12*
G04 #@! TO.C,SW15*
X76937498Y-61912500D03*
X76517498Y-61912500D03*
D13*
X73977498Y-56832500D03*
X71437498Y-67812500D03*
D14*
X71437498Y-61912500D03*
D13*
X67627498Y-59372500D03*
X66437498Y-65612500D03*
D12*
X66357498Y-61912500D03*
X65937498Y-61912500D03*
G04 #@! TD*
G04 #@! TO.C,SW7*
X36456250Y-42862500D03*
X36036250Y-42862500D03*
D13*
X33496250Y-37782500D03*
X30956250Y-48762500D03*
D14*
X30956250Y-42862500D03*
D13*
X27146250Y-40322500D03*
X25956250Y-46562500D03*
D12*
X25876250Y-42862500D03*
X25456250Y-42862500D03*
G04 #@! TD*
G04 #@! TO.C,SW25*
X230528123Y-23812500D03*
X230108123Y-23812500D03*
D13*
X227568123Y-18732500D03*
X225028123Y-29712500D03*
D14*
X225028123Y-23812500D03*
D13*
X221218123Y-21272500D03*
X220028123Y-27512500D03*
D12*
X219948123Y-23812500D03*
X219528123Y-23812500D03*
G04 #@! TD*
G04 #@! TO.C,SW24*
X211478123Y-23812500D03*
X211058123Y-23812500D03*
D13*
X208518123Y-18732500D03*
X205978123Y-29712500D03*
D14*
X205978123Y-23812500D03*
D13*
X202168123Y-21272500D03*
X200978123Y-27512500D03*
D12*
X200898123Y-23812500D03*
X200478123Y-23812500D03*
G04 #@! TD*
G04 #@! TO.C,SW38*
X249578123Y-66675000D03*
X249158123Y-66675000D03*
D13*
X246618123Y-61595000D03*
X244078123Y-72575000D03*
D14*
X244078123Y-66675000D03*
D13*
X240268123Y-64135000D03*
X239078123Y-70375000D03*
D12*
X238998123Y-66675000D03*
X238578123Y-66675000D03*
G04 #@! TD*
G04 #@! TO.C,SW11*
X115037498Y-52387500D03*
X114617498Y-52387500D03*
D13*
X112077498Y-47307500D03*
X109537498Y-58287500D03*
D14*
X109537498Y-52387500D03*
D13*
X105727498Y-49847500D03*
X104537498Y-56087500D03*
D12*
X104457498Y-52387500D03*
X104037498Y-52387500D03*
G04 #@! TD*
G04 #@! TO.C,SW23*
X192428123Y-33337500D03*
X192008123Y-33337500D03*
D13*
X189468123Y-28257500D03*
X186928123Y-39237500D03*
D14*
X186928123Y-33337500D03*
D13*
X183118123Y-30797500D03*
X181928123Y-37037500D03*
D12*
X181848123Y-33337500D03*
X181428123Y-33337500D03*
G04 #@! TD*
G04 #@! TO.C,SW22*
X173378123Y-42862500D03*
X172958123Y-42862500D03*
D13*
X170418123Y-37782500D03*
X167878123Y-48762500D03*
D14*
X167878123Y-42862500D03*
D13*
X164068123Y-40322500D03*
X162878123Y-46562500D03*
D12*
X162798123Y-42862500D03*
X162378123Y-42862500D03*
G04 #@! TD*
D15*
G04 #@! TO.C,J3*
X62180000Y-95500000D03*
D16*
X59640000Y-95500000D03*
X57100000Y-95500000D03*
G04 #@! TD*
D12*
G04 #@! TO.C,SW4*
X95987498Y-23812500D03*
X95567498Y-23812500D03*
D13*
X93027498Y-18732500D03*
X90487498Y-29712500D03*
D14*
X90487498Y-23812500D03*
D13*
X86677498Y-21272500D03*
X85487498Y-27512500D03*
D12*
X85407498Y-23812500D03*
X84987498Y-23812500D03*
G04 #@! TD*
G04 #@! TO.C,SW32*
X249578123Y-47625000D03*
X249158123Y-47625000D03*
D13*
X246618123Y-42545000D03*
X244078123Y-53525000D03*
D14*
X244078123Y-47625000D03*
D13*
X240268123Y-45085000D03*
X239078123Y-51325000D03*
D12*
X238998123Y-47625000D03*
X238578123Y-47625000D03*
G04 #@! TD*
G04 #@! TO.C,SW12*
X134087498Y-61912500D03*
X133667498Y-61912500D03*
D13*
X131127498Y-56832500D03*
X128587498Y-67812500D03*
D14*
X128587498Y-61912500D03*
D13*
X124777498Y-59372500D03*
X123587498Y-65612500D03*
D12*
X123507498Y-61912500D03*
X123087498Y-61912500D03*
G04 #@! TD*
G04 #@! TO.C,SW31*
X230528123Y-42862500D03*
X230108123Y-42862500D03*
D13*
X227568123Y-37782500D03*
X225028123Y-48762500D03*
D14*
X225028123Y-42862500D03*
D13*
X221218123Y-40322500D03*
X220028123Y-46562500D03*
D12*
X219948123Y-42862500D03*
X219528123Y-42862500D03*
G04 #@! TD*
G04 #@! TO.C,SW37*
X230528123Y-61912500D03*
X230108123Y-61912500D03*
D13*
X227568123Y-56832500D03*
X225028123Y-67812500D03*
D14*
X225028123Y-61912500D03*
D13*
X221218123Y-59372500D03*
X220028123Y-65612500D03*
D12*
X219948123Y-61912500D03*
X219528123Y-61912500D03*
G04 #@! TD*
D17*
G04 #@! TO.C,J2*
X59740000Y-89326200D03*
X59740000Y-83546200D03*
D18*
X56090000Y-90756200D03*
D19*
X60270000Y-90756200D03*
D18*
X56090000Y-82116200D03*
D19*
X60270000Y-82116200D03*
G04 #@! TD*
D12*
G04 #@! TO.C,SW18*
X134087498Y-80962500D03*
X133667498Y-80962500D03*
D13*
X131127498Y-75882500D03*
X128587498Y-86862500D03*
D14*
X128587498Y-80962500D03*
D13*
X124777498Y-78422500D03*
X123587498Y-84662500D03*
D12*
X123507498Y-80962500D03*
X123087498Y-80962500D03*
G04 #@! TD*
G04 #@! TO.C,SW19*
X93606250Y-80962500D03*
X93186250Y-80962500D03*
D13*
X90646250Y-75882500D03*
X88106250Y-86862500D03*
D14*
X88106250Y-80962500D03*
D13*
X84296250Y-78422500D03*
X83106250Y-84662500D03*
D12*
X83026250Y-80962500D03*
X82606250Y-80962500D03*
G04 #@! TD*
G04 #@! TO.C,SW2*
X57887498Y-28575000D03*
X57467498Y-28575000D03*
D13*
X54927498Y-23495000D03*
X52387498Y-34475000D03*
D14*
X52387498Y-28575000D03*
D13*
X48577498Y-26035000D03*
X47387498Y-32275000D03*
D12*
X47307498Y-28575000D03*
X46887498Y-28575000D03*
G04 #@! TD*
G04 #@! TO.C,SW8*
X57887498Y-47625000D03*
X57467498Y-47625000D03*
D13*
X54927498Y-42545000D03*
X52387498Y-53525000D03*
D14*
X52387498Y-47625000D03*
D13*
X48577498Y-45085000D03*
X47387498Y-51325000D03*
D12*
X47307498Y-47625000D03*
X46887498Y-47625000D03*
G04 #@! TD*
D20*
G04 #@! TO.C,J1*
X113062500Y-24200000D03*
X113062500Y-16400000D03*
X116262500Y-24200000D03*
X116262500Y-16400000D03*
G04 #@! TD*
D12*
G04 #@! TO.C,SW42*
X213859375Y-80962500D03*
X213439375Y-80962500D03*
D13*
X210899375Y-75882500D03*
X208359375Y-86862500D03*
D14*
X208359375Y-80962500D03*
D13*
X204549375Y-78422500D03*
X203359375Y-84662500D03*
D12*
X203279375Y-80962500D03*
X202859375Y-80962500D03*
G04 #@! TD*
G04 #@! TO.C,SW27*
X273390625Y-23812500D03*
X272970625Y-23812500D03*
D13*
X270430625Y-18732500D03*
X267890625Y-29712500D03*
D14*
X267890625Y-23812500D03*
D13*
X264080625Y-21272500D03*
X262890625Y-27512500D03*
D12*
X262810625Y-23812500D03*
X262390625Y-23812500D03*
G04 #@! TD*
G04 #@! TO.C,SW41*
X192428123Y-90487500D03*
X192008123Y-90487500D03*
D13*
X189468123Y-85407500D03*
X186928123Y-96387500D03*
D14*
X186928123Y-90487500D03*
D13*
X183118123Y-87947500D03*
X181928123Y-94187500D03*
D12*
X181848123Y-90487500D03*
X181428123Y-90487500D03*
G04 #@! TD*
G04 #@! TO.C,SW34*
X173378123Y-80962500D03*
X172958123Y-80962500D03*
D13*
X170418123Y-75882500D03*
X167878123Y-86862500D03*
D14*
X167878123Y-80962500D03*
D13*
X164068123Y-78422500D03*
X162878123Y-84662500D03*
D12*
X162798123Y-80962500D03*
X162378123Y-80962500D03*
G04 #@! TD*
G04 #@! TO.C,SW30*
X211478123Y-42862500D03*
X211058123Y-42862500D03*
D13*
X208518123Y-37782500D03*
X205978123Y-48762500D03*
D14*
X205978123Y-42862500D03*
D13*
X202168123Y-40322500D03*
X200978123Y-46562500D03*
D12*
X200898123Y-42862500D03*
X200478123Y-42862500D03*
G04 #@! TD*
G04 #@! TO.C,SW36*
X211478123Y-61912500D03*
X211058123Y-61912500D03*
D13*
X208518123Y-56832500D03*
X205978123Y-67812500D03*
D14*
X205978123Y-61912500D03*
D13*
X202168123Y-59372500D03*
X200978123Y-65612500D03*
D12*
X200898123Y-61912500D03*
X200478123Y-61912500D03*
G04 #@! TD*
G04 #@! TO.C,SW35*
X192428123Y-71437500D03*
X192008123Y-71437500D03*
D13*
X189468123Y-66357500D03*
X186928123Y-77337500D03*
D14*
X186928123Y-71437500D03*
D13*
X183118123Y-68897500D03*
X181928123Y-75137500D03*
D12*
X181848123Y-71437500D03*
X181428123Y-71437500D03*
G04 #@! TD*
D15*
G04 #@! TO.C,J6*
X239700000Y-78200000D03*
D16*
X237160000Y-78200000D03*
X234620000Y-78200000D03*
G04 #@! TD*
D12*
G04 #@! TO.C,SW40*
X170996875Y-100012500D03*
X170576875Y-100012500D03*
D13*
X168036875Y-94932500D03*
X165496875Y-105912500D03*
D14*
X165496875Y-100012500D03*
D13*
X161686875Y-97472500D03*
X160496875Y-103712500D03*
D12*
X160416875Y-100012500D03*
X159996875Y-100012500D03*
G04 #@! TD*
G04 #@! TO.C,SW26*
X249578123Y-28575000D03*
X249158123Y-28575000D03*
D13*
X246618123Y-23495000D03*
X244078123Y-34475000D03*
D14*
X244078123Y-28575000D03*
D13*
X240268123Y-26035000D03*
X239078123Y-32275000D03*
D12*
X238998123Y-28575000D03*
X238578123Y-28575000D03*
G04 #@! TD*
G04 #@! TO.C,SW21*
X136468750Y-100012500D03*
X136048750Y-100012500D03*
D13*
X133508750Y-94932500D03*
X130968750Y-105912500D03*
D14*
X130968750Y-100012500D03*
D13*
X127158750Y-97472500D03*
X125968750Y-103712500D03*
D12*
X125888750Y-100012500D03*
X125468750Y-100012500D03*
G04 #@! TD*
G04 #@! TO.C,SW16*
X95987498Y-61912500D03*
X95567498Y-61912500D03*
D13*
X93027498Y-56832500D03*
X90487498Y-67812500D03*
D14*
X90487498Y-61912500D03*
D13*
X86677498Y-59372500D03*
X85487498Y-65612500D03*
D12*
X85407498Y-61912500D03*
X84987498Y-61912500D03*
G04 #@! TD*
G04 #@! TO.C,SW39*
X271009375Y-61912500D03*
X270589375Y-61912500D03*
D13*
X268049375Y-56832500D03*
X265509375Y-67812500D03*
D14*
X265509375Y-61912500D03*
D13*
X261699375Y-59372500D03*
X260509375Y-65612500D03*
D12*
X260429375Y-61912500D03*
X260009375Y-61912500D03*
G04 #@! TD*
G04 #@! TO.C,SW9*
X76937498Y-42862500D03*
X76517498Y-42862500D03*
D13*
X73977498Y-37782500D03*
X71437498Y-48762500D03*
D14*
X71437498Y-42862500D03*
D13*
X67627498Y-40322500D03*
X66437498Y-46562500D03*
D12*
X66357498Y-42862500D03*
X65937498Y-42862500D03*
G04 #@! TD*
G04 #@! TO.C,SW17*
X115037498Y-71437500D03*
X114617498Y-71437500D03*
D13*
X112077498Y-66357500D03*
X109537498Y-77337500D03*
D14*
X109537498Y-71437500D03*
D13*
X105727498Y-68897500D03*
X104537498Y-75137500D03*
D12*
X104457498Y-71437500D03*
X104037498Y-71437500D03*
G04 #@! TD*
G04 #@! TO.C,SW29*
X192428123Y-52387500D03*
X192008123Y-52387500D03*
D13*
X189468123Y-47307500D03*
X186928123Y-58287500D03*
D14*
X186928123Y-52387500D03*
D13*
X183118123Y-49847500D03*
X181928123Y-56087500D03*
D12*
X181848123Y-52387500D03*
X181428123Y-52387500D03*
G04 #@! TD*
D17*
G04 #@! TO.C,J5*
X236700000Y-83560000D03*
X236700000Y-89340000D03*
D18*
X240350000Y-82130000D03*
D19*
X236170000Y-82130000D03*
D18*
X240350000Y-90770000D03*
D19*
X236170000Y-90770000D03*
G04 #@! TD*
D12*
G04 #@! TO.C,SW13*
X36456250Y-61912500D03*
X36036250Y-61912500D03*
D13*
X33496250Y-56832500D03*
X30956250Y-67812500D03*
D14*
X30956250Y-61912500D03*
D13*
X27146250Y-59372500D03*
X25956250Y-65612500D03*
D12*
X25876250Y-61912500D03*
X25456250Y-61912500D03*
G04 #@! TD*
G04 #@! TO.C,SW20*
X115037498Y-90487500D03*
X114617498Y-90487500D03*
D13*
X112077498Y-85407500D03*
X109537498Y-96387500D03*
D14*
X109537498Y-90487500D03*
D13*
X105727498Y-87947500D03*
X104537498Y-94187500D03*
D12*
X104457498Y-90487500D03*
X104037498Y-90487500D03*
G04 #@! TD*
G04 #@! TO.C,SW10*
X95987498Y-42862500D03*
X95567498Y-42862500D03*
D13*
X93027498Y-37782500D03*
X90487498Y-48762500D03*
D14*
X90487498Y-42862500D03*
D13*
X86677498Y-40322500D03*
X85487498Y-46562500D03*
D12*
X85407498Y-42862500D03*
X84987498Y-42862500D03*
G04 #@! TD*
G04 #@! TO.C,SW5*
X115037498Y-33337500D03*
X114617498Y-33337500D03*
D13*
X112077498Y-28257500D03*
X109537498Y-39237500D03*
D14*
X109537498Y-33337500D03*
D13*
X105727498Y-30797500D03*
X104537498Y-37037500D03*
D12*
X104457498Y-33337500D03*
X104037498Y-33337500D03*
G04 #@! TD*
G04 #@! TO.C,SW33*
X268628123Y-42862500D03*
X268208123Y-42862500D03*
D13*
X265668123Y-37782500D03*
X263128123Y-48762500D03*
D14*
X263128123Y-42862500D03*
D13*
X259318123Y-40322500D03*
X258128123Y-46562500D03*
D12*
X258048123Y-42862500D03*
X257628123Y-42862500D03*
G04 #@! TD*
D20*
G04 #@! TO.C,J4*
X183400000Y-16400000D03*
X183400000Y-24200000D03*
X180200000Y-16400000D03*
X180200000Y-24200000D03*
G04 #@! TD*
D12*
G04 #@! TO.C,SW1*
X34075000Y-23812500D03*
X33655000Y-23812500D03*
D13*
X31115000Y-18732500D03*
X28575000Y-29712500D03*
D14*
X28575000Y-23812500D03*
D13*
X24765000Y-21272500D03*
X23575000Y-27512500D03*
D12*
X23495000Y-23812500D03*
X23075000Y-23812500D03*
G04 #@! TD*
G04 #@! TO.C,SW14*
X57887498Y-66675000D03*
X57467498Y-66675000D03*
D13*
X54927498Y-61595000D03*
X52387498Y-72575000D03*
D14*
X52387498Y-66675000D03*
D13*
X48577498Y-64135000D03*
X47387498Y-70375000D03*
D12*
X47307498Y-66675000D03*
X46887498Y-66675000D03*
G04 #@! TD*
G04 #@! TO.C,SW6*
X134087498Y-42862500D03*
X133667498Y-42862500D03*
D13*
X131127498Y-37782500D03*
X128587498Y-48762500D03*
D14*
X128587498Y-42862500D03*
D13*
X124777498Y-40322500D03*
X123587498Y-46562500D03*
D12*
X123507498Y-42862500D03*
X123087498Y-42862500D03*
G04 #@! TD*
G04 #@! TO.C,SW3*
X76937498Y-23812500D03*
X76517498Y-23812500D03*
D13*
X73977498Y-18732500D03*
X71437498Y-29712500D03*
D14*
X71437498Y-23812500D03*
D13*
X67627498Y-21272500D03*
X66437498Y-27512500D03*
D12*
X66357498Y-23812500D03*
X65937498Y-23812500D03*
G04 #@! TD*
G04 #@! TO.C,SW28*
X173378123Y-61912500D03*
X172958123Y-61912500D03*
D13*
X170418123Y-56832500D03*
X167878123Y-67812500D03*
D14*
X167878123Y-61912500D03*
D13*
X164068123Y-59372500D03*
X162878123Y-65612500D03*
D12*
X162798123Y-61912500D03*
X162378123Y-61912500D03*
G04 #@! TD*
M02*
