M48
; DRILL file {KiCad 8.0.8} date 2025-01-27T00:01:30+0900
; FORMAT={-:-/ absolute / metric / decimal}
; #@! TF.CreationDate,2025-01-27T00:01:30+09:00
; #@! TF.GenerationSoftware,Kicad,Pcbnew,8.0.8
; #@! TF.FileFunction,Plated,1,2,PTH
FMAT,2
METRIC
; #@! TA.AperFunction,Plated,PTH,ViaDrill
T1C0.300
; #@! TA.AperFunction,Plated,PTH,ComponentDrill
T2C0.600
; #@! TA.AperFunction,Plated,PTH,ComponentDrill
T3C0.800
; #@! TA.AperFunction,Plated,PTH,ComponentDrill
T4C1.000
%
G90
G05
T1
X20.475Y-34.0
X22.1Y-33.3
X25.5Y-51.2
X25.6Y-53.6
X44.287Y-39.0
X46.0Y-38.0
X46.9Y-58.3
X47.0Y-55.9
X58.2Y-79.0
X61.05Y-72.15
X63.337Y-37.4
X64.0Y-70.4
X64.144Y-94.156
X64.7Y-90.3
X65.0Y-33.3
X65.0Y-52.3
X65.624Y-95.124
X66.0Y-84.3
X66.9Y-92.2
X67.7Y-73.7
X68.475Y-83.4
X68.6Y-79.3
X68.8Y-71.4
X70.475Y-88.475
X71.7Y-80.1
X72.534Y-81.534
X74.5Y-92.8
X75.4Y-81.7
X75.892Y-84.863
X75.924Y-89.675
X76.4Y-76.4
X76.6Y-78.7
X76.6Y-93.5
X77.0Y-92.8
X77.1Y-85.6
X77.3Y-83.1
X78.5Y-71.2
X78.6Y-79.6
X78.6Y-92.513
X79.3Y-90.1
X80.1Y-71.1
X80.3Y-73.1
X82.387Y-35.8
X84.1Y-33.3
X84.1Y-71.3
X84.2Y-52.3
X91.475Y-96.3
X94.2Y-93.2
X94.566Y-87.966
X94.9Y-96.9
X95.4Y-33.3
X96.4Y-83.6
X96.567Y-91.847
X96.749Y-34.0
X97.6Y-34.0
X97.7Y-52.3
X98.0Y-84.6
X98.5Y-34.0
X99.0Y-95.9
X99.4Y-34.0
X99.987Y-86.7
X101.437Y-91.8
X102.576Y-16.076
X103.1Y-42.8
X103.1Y-80.8
X103.2Y-61.7
X104.4Y-98.9
X105.2Y-16.1
X120.487Y-94.0
X122.2Y-52.5
X122.2Y-71.3
X122.2Y-90.4
X123.6Y-108.3
X159.778Y-53.3
X160.2Y-108.3
X161.5Y-52.4
X161.5Y-71.4
X161.5Y-90.5
X178.838Y-45.31
X179.5Y-98.8
X180.5Y-42.8
X180.5Y-61.8
X180.5Y-80.9
X190.9Y-24.2
X194.4Y-25.9
X194.4Y-72.8
X195.3Y-93.0
X195.6Y-37.3
X196.0Y-56.1
X196.4Y-71.5
X197.878Y-35.9
X199.5Y-33.4
X199.6Y-52.4
X199.6Y-71.5
X200.7Y-89.2
X201.4Y-99.0
X208.0Y-94.1
X208.7Y-99.1
X212.9Y-92.2
X213.0Y-34.044
X213.0Y-34.9
X213.0Y-35.7
X215.8Y-85.0
X216.1Y-34.4
X216.1Y-35.4
X216.5Y-72.8
X217.2Y-75.8
X217.9Y-98.3
X218.6Y-33.4
X218.6Y-49.9
X218.6Y-55.1
X219.0Y-78.4
X219.0Y-84.7
X219.2Y-87.0
X220.1Y-80.3
X220.9Y-74.9
X221.926Y-85.626
X224.1Y-88.8
X224.3Y-77.6
X225.5Y-87.875
X226.3Y-90.2
X228.0Y-81.5
X228.2Y-88.8
X229.9Y-69.9
X230.8Y-75.6
X230.9Y-97.8
X231.18Y-77.525
X231.6Y-87.68
X231.9Y-73.2
X232.7Y-79.8
X233.2Y-90.4
X233.376Y-34.724
X233.45Y-81.4
X233.5Y-83.4
X233.63Y-84.331
X236.2Y-97.7
X237.6Y-38.1
X237.7Y-54.9
X237.7Y-57.4
X238.8Y-98.9
X254.3Y-39.6
X256.7Y-52.4
X258.3Y-70.3
X261.5Y-33.3
T4
X57.1Y-95.5
X59.64Y-95.5
X62.18Y-95.5
X234.62Y-78.2
X237.16Y-78.2
X239.7Y-78.2
T2
G00X55.79Y-82.116
M15
G01X56.39Y-82.116
M16
G05
G00X55.79Y-90.756
M15
G01X56.39Y-90.756
M16
G05
G00X59.72Y-82.116
M15
G01X60.82Y-82.116
M16
G05
G00X59.72Y-90.756
M15
G01X60.82Y-90.756
M16
G05
G00X236.72Y-82.13
M15
G01X235.62Y-82.13
M16
G05
G00X236.72Y-90.77
M15
G01X235.62Y-90.77
M16
G05
G00X240.65Y-82.13
M15
G01X240.05Y-82.13
M16
G05
G00X240.65Y-90.77
M15
G01X240.05Y-90.77
M16
G05
T3
G00X112.662Y-16.4
M15
G01X113.462Y-16.4
M16
G05
G00X112.662Y-24.2
M15
G01X113.462Y-24.2
M16
G05
G00X115.862Y-16.4
M15
G01X116.662Y-16.4
M16
G05
G00X115.862Y-24.2
M15
G01X116.662Y-24.2
M16
G05
G00X180.6Y-16.4
M15
G01X179.8Y-16.4
M16
G05
G00X180.6Y-24.2
M15
G01X179.8Y-24.2
M16
G05
G00X183.8Y-16.4
M15
G01X183.0Y-16.4
M16
G05
G00X183.8Y-24.2
M15
G01X183.0Y-24.2
M16
G05
M30
