<?xml version="1.0" encoding="UTF-8"?>
<svg xmlns="http://www.w3.org/2000/svg" width="142.8mm" height="97mm" version="1.1" xmlns:svg="http://www.w3.org/2000/svg" viewBox="0 0 404.7 274.8">
  <defs>
    <style>
      .cls-1 {
        fill: #02ffee;
        fill-opacity: .4;
      }

      .cls-2 {
        fill: none;
        stroke: #d0d2cd;
        stroke-linecap: round;
        stroke-linejoin: round;
        stroke-width: .3px;
      }
    </style>
  </defs>
  <!-- Generator: Adobe Illustrator 28.7.1, SVG Export Plug-In . SVG Version: 1.2.0 Build 142)  -->
  <g>
    <g id="_レイヤー_1" data-name="レイヤー_1">
      <circle class="cls-1" cx="26.9" cy="65.5" r="3.1"/>
      <circle class="cls-1" cx="141.6" cy="254.5" r="3.1"/>
      <circle class="cls-1" cx="377.9" cy="65.5" r="3.1"/>
      <circle class="cls-1" cx="377.9" cy="214" r="3.1"/>
      <circle class="cls-1" cx="141.6" cy="11.5" r="3.1"/>
      <circle class="cls-1" cx="317.1" cy="254.5" r="3.1"/>
      <circle class="cls-1" cx="26.9" cy="160" r="3.1"/>
      <path class="cls-2" d="M23,166.7h75.3c1.6,0,2.8,1.3,2.8,2.8v7.8c0,1.6,1.3,2.8,2.8,2.8h28.1c1.6,0,2.8,1.3,2.8,2.8,0,0,0,75.3,0,75.3,0,1.6,1.3,2.8,2.8,2.8h176.6c1.6,0,2.8,1.3,2.8,2.8v7.8c0,1.6,1.3,2.8,2.8,2.8h61.8c1.6,0,2.8-1.3,2.8-2.8V61.6c0-1.6-1.3-2.8-2.8-2.8h-61.8c-1.6,0-2.8-1.3-2.8-2.8V7.6c0-1.6-1.3-2.8-2.8-2.8H23c-1.6,0-2.8,1.3-2.8,2.8v156.3c0,1.6,1.3,2.8,2.8,2.8Z"/>
    </g>
  </g>
</svg>